<svg id="Layer_1" data-name="Layer 1" xmlns="http://www.w3.org/2000/svg" viewBox="0 0 200 200"><defs><style>.cls-1,.cls-2{fill:#ffce00;}.cls-1{opacity:0.5;}</style></defs><title>loteria_win</title><rect x="0.14" width="200" height="200"/><rect class="cls-1" x="30" y="11.19" width="31.25" height="40.65" rx="3"/><rect class="cls-1" x="66.25" y="11.19" width="31.25" height="40.65" rx="3"/><rect class="cls-1" x="102.5" y="11.19" width="31.25" height="40.65" rx="3"/><rect class="cls-1" x="138.76" y="11.19" width="31.25" height="40.65" rx="3"/><rect class="cls-2" x="30" y="56.85" width="31.25" height="40.65" rx="3"/><rect class="cls-2" x="66.25" y="56.85" width="31.25" height="40.65" rx="3"/><rect class="cls-2" x="102.5" y="56.85" width="31.25" height="40.65" rx="3"/><rect class="cls-2" x="138.76" y="56.85" width="31.25" height="40.65" rx="3"/><rect class="cls-1" x="30" y="102.5" width="31.25" height="40.65" rx="3"/><rect class="cls-1" x="66.25" y="102.5" width="31.25" height="40.65" rx="3"/><rect class="cls-1" x="102.5" y="102.5" width="31.25" height="40.65" rx="3"/><rect class="cls-1" x="138.76" y="102.5" width="31.25" height="40.65" rx="3"/><rect class="cls-1" x="30" y="148.15" width="31.25" height="40.65" rx="3"/><rect class="cls-1" x="66.25" y="148.15" width="31.25" height="40.65" rx="3"/><rect class="cls-1" x="102.5" y="148.15" width="31.25" height="40.65" rx="3"/><rect class="cls-1" x="138.76" y="148.15" width="31.25" height="40.65" rx="3"/></svg>