<?xml version="1.0" encoding="utf-8"?>
<!-- Generator: Adobe Illustrator 24.0.0, SVG Export Plug-In . SVG Version: 6.00 Build 0)  -->
<svg version="1.1" id="Layer_1" xmlns="http://www.w3.org/2000/svg" xmlns:xlink="http://www.w3.org/1999/xlink" x="0px" y="0px"
	 viewBox="0 0 240 360" style="enable-background:new 0 0 240 360;" xml:space="preserve">
<style type="text/css">
	.st0{fill:#AED6D6;}
	.st1{fill:#D3A8B9;}
	.st2{fill:#66CEF5;}
	.st3{fill:#8EDCF4;}
	.st4{fill:#61BEBF;}
	.st5{fill:none;stroke:#000000;stroke-width:3;stroke-linecap:round;stroke-linejoin:round;stroke-miterlimit:10;}
	.st6{fill:#A4D165;}
	.st7{opacity:0.25;fill:#3C2415;}
	.st8{fill:#8DC63F;stroke:#010101;stroke-width:10.905;stroke-linecap:round;stroke-linejoin:round;stroke-miterlimit:10;}
	.st9{fill:#A7744D;stroke:#010101;stroke-width:9.1692;stroke-linecap:round;stroke-linejoin:round;stroke-miterlimit:10;}
	.st10{fill:#0DA028;}
	.st11{fill:#61C16A;}
	.st12{fill:#A3E2F9;}
	.st13{fill:#5AB75A;}
	.st14{fill:none;stroke:#000000;stroke-width:3.0664;stroke-linecap:round;stroke-linejoin:round;stroke-miterlimit:10;}
	.st15{fill:#98DBED;}
	.st16{fill:#9C9BBD;}
	.st17{fill:#FFFFFF;}
	.st18{fill:#EDECFC;stroke:#231F20;stroke-width:3;stroke-miterlimit:10;}
	.st19{fill:none;stroke:#231F20;stroke-width:3;stroke-miterlimit:10;}
	.st20{fill:#FFFFFF;stroke:#000000;stroke-width:3;stroke-linecap:round;stroke-linejoin:round;stroke-miterlimit:10;}
	.st21{fill:#BC7B22;stroke:#000000;stroke-width:3;stroke-miterlimit:10;}
	.st22{fill:#E5AF38;stroke:#000000;stroke-width:3;stroke-linecap:round;stroke-linejoin:round;stroke-miterlimit:10;}
	.st23{fill:none;stroke:#000000;stroke-width:3;stroke-miterlimit:10;}
	.st24{fill:#927E6D;stroke:#000000;stroke-width:3;stroke-linecap:round;stroke-linejoin:round;stroke-miterlimit:10;}
	.st25{fill:#F7D970;}
	.st26{fill:none;}
	.st27{fill:#3F3F3F;stroke:#000000;stroke-width:3;stroke-linecap:round;stroke-linejoin:round;stroke-miterlimit:10;}
	.st28{fill:#775E49;stroke:#000000;stroke-width:3;stroke-linecap:round;stroke-linejoin:round;stroke-miterlimit:10;}
	.st29{fill:#EDBB91;stroke:#000000;stroke-width:3;stroke-linecap:round;stroke-linejoin:round;stroke-miterlimit:10;}
	.st30{fill:#B03838;stroke:#000000;stroke-width:3;stroke-linecap:round;stroke-linejoin:round;stroke-miterlimit:10;}
	.st31{fill:#739144;stroke:#010101;stroke-width:3;stroke-linecap:round;stroke-linejoin:round;stroke-miterlimit:10;}
	.st32{stroke:#000000;stroke-width:2.5622;stroke-linecap:round;stroke-linejoin:round;stroke-miterlimit:10;}
	.st33{stroke:#000000;stroke-width:2.4972;stroke-linecap:round;stroke-linejoin:round;stroke-miterlimit:10;}
	.st34{stroke:#000000;stroke-width:3.4363;stroke-linecap:round;stroke-linejoin:round;stroke-miterlimit:10;}
	.st35{stroke:#000000;stroke-width:2.0766;stroke-linecap:round;stroke-linejoin:round;stroke-miterlimit:10;}
	.st36{fill:#BB502C;stroke:#000000;stroke-width:3;stroke-linecap:round;stroke-linejoin:round;}
	.st37{fill:#B03838;}
	.st38{fill:#EA4B4B;stroke:#000000;stroke-width:3;stroke-linecap:round;stroke-linejoin:round;stroke-miterlimit:10;}
	.st39{fill:#FADD6B;}
	.st40{fill:#7DA5A5;}
	.st41{fill:#EE6F6F;stroke:#000000;stroke-width:3;stroke-linecap:round;stroke-linejoin:round;stroke-miterlimit:10;}
	.st42{fill:#EDBB91;stroke:#000000;stroke-width:3.1272;stroke-linecap:round;stroke-linejoin:round;stroke-miterlimit:10;}
	.st43{fill:#E5EDED;stroke:#010101;stroke-width:3;stroke-linecap:round;stroke-linejoin:round;stroke-miterlimit:10;}
	.st44{fill:#AEDAFF;stroke:#000000;stroke-width:3;stroke-miterlimit:10;}
	.st45{fill:#FFFFFF;stroke:#000000;stroke-width:3;stroke-miterlimit:10;}
	.st46{fill:#FBFB67;stroke:#000000;stroke-width:3;stroke-linecap:round;stroke-linejoin:round;stroke-miterlimit:10;}
	.st47{fill:none;stroke:#000000;stroke-width:2.8924;stroke-linecap:round;stroke-linejoin:round;stroke-miterlimit:10;}
	.st48{fill:#85D8F7;}
	.st49{fill:#66A488;}
	.st50{fill:#A4CAF8;}
	.st51{fill:#E2D881;stroke:#000000;stroke-width:3;stroke-linecap:round;stroke-linejoin:round;stroke-miterlimit:10;}
	.st52{fill:#61C16A;stroke:#000000;stroke-width:3;stroke-linecap:round;stroke-linejoin:round;stroke-miterlimit:10;}
	.st53{fill:#F2618B;stroke:#000000;stroke-width:2.8224;stroke-linecap:round;stroke-linejoin:round;stroke-miterlimit:10;}
	.st54{fill:#D68630;stroke:#000000;stroke-width:3.7448;stroke-linecap:round;stroke-linejoin:round;stroke-miterlimit:10;}
	.st55{fill:#EFCFAC;stroke:#000000;stroke-width:3.7448;stroke-linecap:round;stroke-linejoin:round;stroke-miterlimit:10;}
	.st56{fill:#F9D042;}
	.st57{fill:#D79B80;}
	.st58{fill:#E6DEA0;}
	.st59{fill:#E2A99A;}
	.st60{fill:#61BED4;}
	.st61{fill:#F7E99C;}
	.st62{fill:#DDDCE5;}
	.st63{fill:#EECE66;}
	.st64{fill:#E8DB5F;}
	.st65{fill:#DE959B;}
	.st66{fill:#33BEF2;}
	.st67{fill:#F1F2F2;stroke:#000000;stroke-width:3;stroke-linecap:round;stroke-linejoin:round;stroke-miterlimit:10;}
	.st68{fill:#FFCC3A;stroke:#231F20;stroke-width:3;stroke-linecap:round;stroke-linejoin:round;stroke-miterlimit:10;}
	.st69{fill:#66A488;stroke:#000000;stroke-width:3;stroke-linecap:round;stroke-linejoin:round;stroke-miterlimit:10;}
	.st70{fill:#5B9CBC;stroke:#000000;stroke-width:2.7298;stroke-linecap:round;stroke-linejoin:round;stroke-miterlimit:10;}
	.st71{fill:#EA4B4B;}
	.st72{fill:#F2618B;stroke:#000000;stroke-width:3;stroke-linecap:round;stroke-linejoin:round;stroke-miterlimit:10;}
	.st73{fill:#F2618B;stroke:#000000;stroke-width:2.8253;stroke-linecap:round;stroke-linejoin:round;stroke-miterlimit:10;}
	.st74{fill:#66A488;stroke:#010101;stroke-width:3;stroke-miterlimit:10;}
	.st75{fill:#EDBB91;stroke:#000000;stroke-width:4.1741;stroke-linecap:round;stroke-linejoin:round;stroke-miterlimit:10;}
	.st76{fill:#EDC620;stroke:#000000;stroke-width:3;stroke-linecap:round;stroke-linejoin:round;stroke-miterlimit:10;}
	.st77{fill:#606060;stroke:#000000;stroke-width:3;stroke-linecap:round;stroke-linejoin:round;stroke-miterlimit:10;}
	.st78{fill:#FFEC8D;stroke:#000000;stroke-width:3;stroke-miterlimit:10;}
	.st79{fill:none;stroke:#FFFFFF;stroke-width:3;stroke-linecap:round;stroke-linejoin:round;stroke-miterlimit:10;}
	.st80{fill:none;stroke:#000000;stroke-width:3.182;stroke-linecap:round;stroke-linejoin:round;stroke-miterlimit:10;}
	.st81{fill:#60605F;stroke:#000000;stroke-width:3;stroke-linecap:round;stroke-linejoin:round;stroke-miterlimit:10;}
	.st82{fill:#EACB49;stroke:#000000;stroke-width:3;stroke-linecap:round;stroke-linejoin:round;stroke-miterlimit:10;}
	.st83{fill:#5AB75A;stroke:#000000;stroke-width:3;stroke-linecap:round;stroke-linejoin:round;stroke-miterlimit:10;}
	.st84{fill:#A57E50;stroke:#000000;stroke-width:3;stroke-linecap:round;stroke-linejoin:round;stroke-miterlimit:10;}
	.st85{fill:#91C3CC;}
	.st86{fill:#FC90A2;}
	.st87{fill:#FB6B83;}
	.st88{fill:#6D9299;}
	.st89{fill:#FCD566;stroke:#010101;stroke-width:3;stroke-linecap:round;stroke-linejoin:round;stroke-miterlimit:10;}
	.st90{fill:#977D33;stroke:#010101;stroke-width:3;stroke-linecap:round;stroke-linejoin:round;stroke-miterlimit:10;}
	.st91{fill:#655833;stroke:#010101;stroke-width:3;stroke-linecap:round;stroke-linejoin:round;stroke-miterlimit:10;}
	.st92{fill:#533F28;stroke:#000000;stroke-width:3;stroke-linecap:round;stroke-linejoin:round;stroke-miterlimit:10;}
	.st93{fill:#F18067;stroke:#231F20;stroke-width:3;stroke-miterlimit:10;}
	.st94{fill:#FFF0A4;stroke:#000000;stroke-width:3;stroke-miterlimit:10;}
	.st95{fill:#648959;stroke:#000000;stroke-width:3;stroke-linecap:round;stroke-linejoin:round;stroke-miterlimit:10;}
	.st96{fill:#FBB8B4;}
	.st97{fill:#9BD1BC;}
	.st98{opacity:0.3;}
	.st99{opacity:0.5;fill:#3C2415;}
	.st100{fill:#BD9779;stroke:#010101;stroke-width:3;stroke-miterlimit:10;}
	.st101{fill:#915120;stroke:#010101;stroke-width:3;stroke-miterlimit:10;}
	.st102{fill:none;stroke:#010101;stroke-width:3;stroke-miterlimit:10;}
	.st103{fill:#F4777C;stroke:#010101;stroke-width:3;stroke-miterlimit:10;}
	.st104{fill:#DBDBDB;stroke:#010101;stroke-width:3;stroke-miterlimit:10;}
	.st105{fill:#335D49;stroke:#010101;stroke-width:3;stroke-miterlimit:10;}
	.st106{fill:#F4777C;stroke:#010101;stroke-width:3;stroke-linecap:round;stroke-linejoin:round;stroke-miterlimit:10;}
	.st107{fill:#66A488;stroke:#010101;stroke-width:3;stroke-linecap:round;stroke-linejoin:round;stroke-miterlimit:10;}
	.st108{fill:#DBDBDB;stroke:#010101;stroke-width:3;stroke-linecap:round;stroke-linejoin:round;stroke-miterlimit:10;}
	.st109{font-family:'Futura-Medium';}
	.st110{font-size:24.6402px;}
	.st111{fill:#A7744D;stroke:#010101;stroke-width:3;stroke-linecap:round;stroke-linejoin:round;stroke-miterlimit:10;}
	.st112{fill:#8DC63F;stroke:#010101;stroke-width:3;stroke-linecap:round;stroke-linejoin:round;stroke-miterlimit:10;}
	.st113{fill:none;stroke:#010101;stroke-width:3;stroke-linecap:round;stroke-linejoin:round;stroke-miterlimit:10;}
	.st114{fill:#67BCD9;}
	.st115{fill:#CEC746;stroke:#231F20;stroke-width:3;stroke-miterlimit:10;}
	.st116{fill:#F69E66;stroke:#231F20;stroke-width:3;stroke-miterlimit:10;}
	.st117{fill:#F7815C;stroke:#231F20;stroke-width:3;stroke-miterlimit:10;}
	.st118{fill:#A89F5A;stroke:#231F20;stroke-width:3;stroke-miterlimit:10;}
	.st119{fill:#F29393;stroke:#231F20;stroke-width:3;stroke-miterlimit:10;}
	.st120{fill:#A3E2F9;stroke:#231F20;stroke-width:3;stroke-miterlimit:10;}
	.st121{opacity:0.5;}
	.st122{fill:#593E2C;stroke:#000000;stroke-width:3;stroke-miterlimit:10;}
	.st123{fill:#593E2C;stroke:#000000;stroke-width:2.8651;stroke-miterlimit:10;}
	.st124{fill:#E74736;stroke:#000000;stroke-width:3;stroke-linecap:round;stroke-linejoin:round;stroke-miterlimit:10;}
	.st125{fill:#F9E467;stroke:#000000;stroke-width:3;stroke-linecap:round;stroke-linejoin:round;stroke-miterlimit:10;}
	.st126{fill:#D68630;stroke:#000000;stroke-width:3;stroke-linecap:round;stroke-linejoin:round;stroke-miterlimit:10;}
	.st127{fill:#C95138;stroke:#231F20;stroke-width:3;stroke-linecap:round;stroke-linejoin:round;stroke-miterlimit:10;}
	.st128{fill:#231F20;}
	.st129{stroke:#000000;stroke-width:2.3082;stroke-linecap:round;stroke-linejoin:round;stroke-miterlimit:10;}
	.st130{fill:#E58156;stroke:#231F20;stroke-width:3;stroke-miterlimit:10;}
	.st131{fill:#FBA42D;stroke:#231F20;stroke-width:3;stroke-miterlimit:10;}
	.st132{fill:#BC7B22;stroke:#231F20;stroke-width:3;stroke-miterlimit:10;}
	.st133{stroke:#000000;stroke-width:2.3954;stroke-linecap:round;stroke-linejoin:round;stroke-miterlimit:10;}
	.st134{stroke:#000000;stroke-width:3.0772;stroke-linecap:round;stroke-linejoin:round;stroke-miterlimit:10;}
	.st135{fill:#842A2A;stroke:#000000;stroke-width:3;stroke-linecap:round;stroke-linejoin:round;stroke-miterlimit:10;}
	.st136{fill:#5B9CBC;stroke:#000000;stroke-width:2.495;stroke-linecap:round;stroke-linejoin:round;stroke-miterlimit:10;}
	.st137{fill:#FFE7B3;stroke:#231F20;stroke-width:3;stroke-linecap:round;stroke-linejoin:round;stroke-miterlimit:10;}
	.st138{fill:#2291AA;stroke:#231F20;stroke-width:3;stroke-linecap:round;stroke-linejoin:round;stroke-miterlimit:10;}
	.st139{fill:#2291AA;stroke:#231F20;stroke-width:3;stroke-miterlimit:10;}
	.st140{stroke:#000000;stroke-width:3;stroke-linecap:round;stroke-linejoin:round;stroke-miterlimit:10;}
	.st141{fill:#FFFFFF;stroke:#010101;stroke-width:3;stroke-linecap:round;stroke-linejoin:round;stroke-miterlimit:10;}
	.st142{fill:none;stroke:#231F20;stroke-width:3;stroke-linecap:round;stroke-linejoin:round;stroke-miterlimit:10;}
	.st143{fill:#FFFFFF;stroke:#231F20;stroke-width:3;stroke-linecap:round;stroke-linejoin:round;stroke-miterlimit:10;}
	.st144{fill:#E7C706;stroke:#000000;stroke-width:3;stroke-linecap:round;stroke-linejoin:round;}
	.st145{fill:none;stroke:#000000;stroke-width:3;stroke-linecap:round;stroke-linejoin:round;}
	.st146{fill:#333333;stroke:#000000;stroke-width:3;stroke-linecap:round;stroke-linejoin:round;}
	.st147{fill:#935328;stroke:#000000;stroke-width:3;stroke-linecap:round;stroke-linejoin:round;}
	.st148{fill:#593E2C;stroke:#000000;stroke-width:2.9408;stroke-miterlimit:10;}
	.st149{fill:#E5AF38;stroke:#000000;stroke-width:3.0793;stroke-linecap:round;stroke-linejoin:round;stroke-miterlimit:10;}
	.st150{fill:#0DA028;stroke:#020100;stroke-width:3;stroke-miterlimit:10;}
	.st151{fill:#0DA028;stroke:#000000;stroke-width:3;stroke-miterlimit:10;}
	.st152{fill:#AD313A;}
	.st153{fill:#AEDAFF;stroke:#000000;stroke-width:2.9408;stroke-miterlimit:10;}
	.st154{fill:#52768E;stroke:#000000;stroke-width:2.9408;stroke-miterlimit:10;}
	.st155{fill:#FBFB67;stroke:#000000;stroke-width:3;stroke-miterlimit:10;}
	.st156{fill:#6EC67E;stroke:#020100;stroke-width:3;stroke-miterlimit:10;}
	.st157{fill:#6EC67E;stroke:#000000;stroke-width:3;stroke-miterlimit:10;}
	.st158{fill:#F9E467;stroke:#000000;stroke-width:3.0817;stroke-linecap:round;stroke-linejoin:round;stroke-miterlimit:10;}
	.st159{fill:#69C8F7;stroke:#000000;stroke-width:3.0742;stroke-linecap:round;stroke-linejoin:round;stroke-miterlimit:10;}
	.st160{fill:#69C8F7;}
	.st161{fill:#69C8F7;stroke:#000000;stroke-width:3.0817;stroke-linecap:round;stroke-linejoin:round;stroke-miterlimit:10;}
	.st162{fill:#EA4B4B;stroke:#000000;stroke-width:2.7219;stroke-linecap:round;stroke-linejoin:round;stroke-miterlimit:10;}
	.st163{fill:#F9E467;}
	.st164{fill:#F16788;stroke:#000000;stroke-width:3;stroke-linecap:round;stroke-linejoin:round;stroke-miterlimit:10;}
	.st165{fill:#448944;}
	.st166{fill:#E74736;}
	.st167{fill:#EFCF88;stroke:#000000;stroke-width:3;stroke-linecap:round;stroke-linejoin:round;stroke-miterlimit:10;}
	.st168{fill:#EC6C5E;stroke:#000000;stroke-width:3;stroke-linecap:round;stroke-linejoin:round;stroke-miterlimit:10;}
	.st169{fill:none;stroke:#9AA6A6;stroke-width:3;stroke-linecap:round;stroke-linejoin:round;stroke-miterlimit:10;}
	.st170{fill:#564E3B;stroke:#010101;stroke-width:3;stroke-miterlimit:10;}
	.st171{fill:#FDC881;}
	.st172{fill:#E5AF38;stroke:#000000;stroke-width:3;stroke-miterlimit:10;}
	.st173{fill:none;stroke:#FF0049;stroke-width:3;stroke-linecap:round;stroke-linejoin:round;stroke-miterlimit:10;}
	.st174{fill:#C95138;stroke:#000000;stroke-width:3;stroke-linecap:round;stroke-linejoin:round;stroke-miterlimit:10;}
	.st175{fill:#BC7B22;stroke:#000000;stroke-width:3;stroke-linecap:round;stroke-linejoin:round;stroke-miterlimit:10;}
	.st176{fill:#FFCC3A;stroke:#000000;stroke-width:3;stroke-linecap:round;stroke-linejoin:round;stroke-miterlimit:10;}
	.st177{fill:#61C16A;stroke:#000000;stroke-width:2.8413;stroke-linecap:round;stroke-linejoin:round;stroke-miterlimit:10;}
	.st178{fill:#ED416A;stroke:#000000;stroke-width:3;stroke-linecap:round;stroke-linejoin:round;stroke-miterlimit:10;}
	.st179{opacity:0.25;}
	.st180{fill:#3C2415;}
	.st181{fill:#BBDD8C;stroke:#000000;stroke-width:3;stroke-miterlimit:10;}
	.st182{fill:#8CA669;}
	.st183{fill:none;stroke:#000000;stroke-width:5;stroke-linecap:round;stroke-linejoin:round;stroke-miterlimit:10;}
	.st184{fill:#775E49;stroke:#000000;stroke-width:3.0146;stroke-linecap:round;stroke-linejoin:round;stroke-miterlimit:10;}
	.st185{fill:#604B3C;stroke:#000000;stroke-width:2.5808;stroke-linecap:round;stroke-linejoin:round;stroke-miterlimit:10;}
	.st186{fill:none;stroke:#AED6D6;stroke-width:0.8108;stroke-miterlimit:10;}
	.st187{fill:none;stroke:#AED6D6;stroke-width:1.7979;stroke-miterlimit:10;}
	.st188{fill:none;stroke:#AED6D6;stroke-width:0.7832;stroke-miterlimit:10;}
	.st189{fill:none;stroke:#AED6D6;stroke-width:0.7585;stroke-miterlimit:10;}
	.st190{fill:none;stroke:#AED6D6;stroke-width:2.6852;stroke-miterlimit:10;}
	.st191{fill:none;stroke:#AED6D6;stroke-width:5.5987;stroke-miterlimit:10;}
	.st192{fill:none;stroke:#AED6D6;stroke-width:10;stroke-linecap:round;stroke-linejoin:round;stroke-miterlimit:10;}
	.st193{fill:#BC7B22;stroke:#231F20;stroke-width:3;stroke-linecap:round;stroke-linejoin:round;stroke-miterlimit:10;}
	.st194{fill:#EA4B4B;stroke:#000000;stroke-width:2.6625;stroke-linecap:round;stroke-linejoin:round;stroke-miterlimit:10;}
	.st195{fill:#BC7B22;stroke:#000000;stroke-width:2.6625;stroke-miterlimit:10;}
	.st196{fill:#FBA42D;stroke:#000000;stroke-width:2.6625;stroke-miterlimit:10;}
	.st197{fill:#FBA42D;stroke:#000000;stroke-width:2.6625;stroke-linecap:round;stroke-linejoin:round;stroke-miterlimit:10;}
	.st198{fill:#BC7B22;stroke:#000000;stroke-width:2.6625;stroke-linecap:round;stroke-linejoin:round;stroke-miterlimit:10;}
	.st199{fill:#23ACAB;stroke:#000000;stroke-width:3.1363;stroke-miterlimit:10;}
	.st200{fill:#90E05C;stroke:#000000;stroke-width:2.6625;stroke-miterlimit:10;}
	.st201{fill:#FBA42D;stroke:#000000;stroke-width:3;stroke-miterlimit:10;}
	.st202{fill:#23ACAB;stroke:#000000;stroke-width:3;stroke-miterlimit:10;}
	.st203{fill:none;stroke:#00FF0C;stroke-width:0.7413;stroke-miterlimit:10;}
	.st204{fill:#593E2C;stroke:#000000;stroke-width:2.9408;stroke-linecap:round;stroke-linejoin:round;stroke-miterlimit:10;}
	.st205{fill:#BD9779;stroke:#010101;stroke-width:3;stroke-linecap:round;stroke-linejoin:round;stroke-miterlimit:10;}
	.st206{fill:#FF6D00;}
	.st207{opacity:0.41;fill:#61BEBF;}
	.st208{opacity:0.5;fill:none;stroke:#2E1B8C;stroke-width:3;stroke-miterlimit:10;}
	.st209{fill:#F9E467;stroke:#000000;stroke-width:2.6479;stroke-linecap:round;stroke-linejoin:round;stroke-miterlimit:10;}
	.st210{fill:none;stroke:#000000;stroke-width:2.6479;stroke-linecap:round;stroke-linejoin:round;stroke-miterlimit:10;}
	.st211{fill:#F9E3B7;stroke:#231F20;stroke-width:3;stroke-linecap:round;stroke-linejoin:round;stroke-miterlimit:10;}
	.st212{fill:#FFF1D1;stroke:#231F20;stroke-width:3;stroke-linecap:round;stroke-linejoin:round;stroke-miterlimit:10;}
	.st213{fill:#F7EFA2;stroke:#231F20;stroke-width:3;stroke-miterlimit:10;}
	.st214{fill:#E58156;stroke:#231F20;stroke-width:3;stroke-linecap:round;stroke-linejoin:round;stroke-miterlimit:10;}
	.st215{fill:#F9E467;stroke:#000000;stroke-width:0.764;stroke-linecap:round;stroke-linejoin:round;stroke-miterlimit:10;}
	.st216{fill:#604B3C;stroke:#000000;stroke-width:1.1908;stroke-linecap:round;stroke-linejoin:round;stroke-miterlimit:10;}
	.st217{fill:#868786;stroke:#000000;stroke-width:3;stroke-linecap:round;stroke-linejoin:round;stroke-miterlimit:10;}
	.st218{fill:#775E49;stroke:#000000;stroke-width:2.5898;stroke-linecap:round;stroke-linejoin:round;stroke-miterlimit:10;}
	.st219{fill:#61C16A;stroke:#000000;stroke-width:3;stroke-miterlimit:10;}
	.st220{fill:#CA5535;stroke:#010101;stroke-width:3;stroke-miterlimit:10;}
	.st221{fill:#775E49;stroke:#010101;stroke-width:2.7722;stroke-miterlimit:10;}
	.st222{fill:#61C16A;stroke:#000000;stroke-width:3.0329;stroke-linecap:round;stroke-linejoin:round;stroke-miterlimit:10;}
	.st223{fill:none;stroke:#000000;stroke-width:3.0329;stroke-linecap:round;stroke-linejoin:round;stroke-miterlimit:10;}
</style>
<g>
	<rect x="0" y="0.01" class="st3" width="239.98" height="360"/>
	<polygon class="st6" points="0,236.62 239.98,220.28 239.98,359.98 0,359.98 	"/>
	<text transform="matrix(1 0 0 1 63.6073 343.9155)" class="st109 st110">EL ÁRBOL</text>
	<text transform="matrix(1 0 0 1 12.3221 28.4911)" class="st109 st110">10</text>
	<path class="st7" d="M210.46,268.16c0-0.66-0.5-1.27-1.37-1.81c-1.93-1.18-5.69-1.99-10.02-1.99c-0.53,0-1.05,0.01-1.55,0.04
		c-1.52,0.07-2.95,0.24-4.22,0.49c0-0.01,0-0.02,0-0.03c0-0.91-0.97-1.75-2.58-2.41c-0.02-0.01-0.05-0.02-0.07-0.02
		c-0.52-0.21-1.1-0.39-1.74-0.56c-0.21-0.05-0.42-0.1-0.63-0.15c-0.41-0.09-0.82-0.18-1.27-0.25c-0.86-0.14-1.78-0.25-2.75-0.32
		c-0.05-0.18-0.11-0.35-0.19-0.52c-0.74-1.55-2.89-2.95-6.03-4.06c-0.91-0.32-1.92-0.62-2.99-0.89c-0.34-0.09-0.69-0.17-1.05-0.25
		c-0.43-0.1-0.87-0.19-1.32-0.28c-0.42-0.08-0.86-0.16-1.3-0.24c-0.27-0.05-0.53-0.09-0.8-0.14c0.38-0.37,0.64-0.76,0.74-1.16
		c0.04-0.13,0.05-0.27,0.05-0.41c0-2.67-6.5-4.84-14.52-4.84c-1.85,0-3.63,0.12-5.25,0.33c-3.58,0.46-6.47,1.39-8.02,2.56
		c-2.35-0.54-5.19-0.86-8.26-0.86c-0.07,0-0.15,0-0.22,0l0,0c-7.92,0.04-14.3,2.19-14.3,4.84c0,0.22,0.06,0.43,0.14,0.64
		c-4.73,0.58-8.31,1.94-9.28,3.63c-1.36-0.07-2.75-0.12-4.18-0.12c-3.58,0-6.97,0.25-10.04,0.69c-1.26-1.64-5.71-2.86-11.03-2.86
		c-6.29,0-11.39,1.7-11.39,3.8c0,0.54,0.34,1.05,0.95,1.51c-1.28-0.16-2.66-0.26-4.11-0.26c-6.29,0-11.39,1.7-11.39,3.8
		c0,0.49,0.29,0.95,0.79,1.38c-3.99,0.59-6.77,1.92-6.77,3.47c0,2.1,5.1,3.8,11.39,3.8c0.12,0,0.23,0,0.35-0.01
		c-0.23,0.43-0.35,0.87-0.35,1.32c0,2.64,4.08,4.97,10.32,6.39c-2.64,0.7-4.34,1.77-4.34,2.98c0,2.1,5.1,3.8,11.39,3.8
		c2.63,0,5.05-0.3,6.98-0.8c3.28,2.14,33.4,6.06,44.89-0.6c0.28,0.1,0.56,0.19,0.85,0.28c0.08,0.03,0.17,0.05,0.26,0.08
		c0.21,0.07,0.43,0.13,0.65,0.19c0.09,0.03,0.19,0.05,0.28,0.08c0.23,0.06,0.47,0.13,0.71,0.19c0.08,0.02,0.16,0.04,0.24,0.06
		c0.3,0.07,0.6,0.15,0.91,0.22c0.02,0.01,0.04,0.01,0.07,0.02c1.07,0.24,2.21,0.46,3.39,0.64c0.01,0,0.02,0,0.02,0
		c0.39,0.06,0.8,0.12,1.2,0.18l0,0l0,0c1.95,0.26,4.03,0.45,6.2,0.55l0,0c0.26,0.01,0.51,0.02,0.77,0.03
		c-0.14,0.27-0.23,0.54-0.23,0.83c0,0.11,0.02,0.22,0.04,0.33c0.01,0.03,0.01,0.06,0.02,0.08c0.03,0.1,0.06,0.2,0.1,0.3
		c0,0.01,0.01,0.02,0.01,0.03c0.05,0.11,0.12,0.22,0.19,0.33c0.01,0.02,0.03,0.04,0.04,0.06c0.07,0.1,0.15,0.2,0.25,0.3
		c0.01,0.01,0.01,0.01,0.02,0.02c0.1,0.11,0.22,0.22,0.35,0.33c0,0,0.01,0.01,0.01,0.01c0.13,0.11,0.27,0.21,0.42,0.32
		c0,0,0.01,0,0.01,0.01c0.31,0.21,0.67,0.42,1.06,0.61l0,0v0c2.02,1,5.11,1.75,8.76,2.1c0,0,0.01,0,0.01,0
		c0.46,0.04,0.93,0.08,1.42,0.11c0.02,0,0.03,0,0.05,0c0.47,0.03,0.95,0.05,1.44,0.07c0.02,0,0.04,0,0.06,0
		c0.49,0.01,0.98,0.02,1.49,0.02c1.9,0,3.72-0.11,5.41-0.31c6.03-0.71,10.33-2.56,10.33-4.73c0-0.31-0.1-0.61-0.27-0.91
		c0-0.01-0.01-0.02-0.01-0.02c0.35,0.02,0.71,0.03,1.07,0.04c0.43,0.01,0.86,0.02,1.3,0.02c0.54,0,1.08-0.01,1.61-0.03
		s1.05-0.04,1.56-0.08c0.26-0.02,0.51-0.04,0.76-0.06c6.79-0.56,11.81-2.53,11.81-4.87l0,0l0,0c0-0.9-0.74-1.74-2.03-2.47
		c-0.16-0.09-0.33-0.18-0.51-0.27c-0.54-0.26-1.15-0.51-1.82-0.73c-0.23-0.08-0.46-0.15-0.7-0.22c-0.72-0.21-1.5-0.4-2.33-0.57
		c1.13-0.27,2.19-0.57,3.16-0.89c4.2-1.41,6.79-3.31,6.79-5.41c0-0.96-0.55-1.89-1.54-2.74
		C206.25,271.64,210.46,270.07,210.46,268.16L210.46,268.16L210.46,268.16z"/>
	<g>
		<path class="st111" d="M172.26,149.41c-1.5-0.68-3-1.36-4.5-2.05c-0.98,1.26-2.05,2.47-2.93,3.8c-1.33,2-3.12,2.29-5.51,1.67
			c2.03-3.05,3.64-6.28,6.37-8.73c-0.23-0.81-0.63-1.57-0.91-2.35c-0.26-0.73-0.11-2.9-2.19-1.67c-2.72,1.6-4.61,0.78-6.96-1.61
			c-3.08,7.31-6.19,14.61-10.25,21.46c-0.12,0.2-0.43,0.28-0.65,0.42c-0.54-0.09-0.82-0.4-0.82-0.95c0.01-4.75-0.35-9.55,0.18-14.24
			c0.25-2.21,0.52-4.42,0.63-6.65c-1.06-0.01-2.11-0.35-3.11-0.44c-1.83-0.17-2.96-1.58-4.59-1.98c0.76,4.4,0.5,8.84,0.36,13.26
			c-0.12,3.88-1.69,7.43-3.48,10.83c-0.43,0.82-1.33,1.25-2.25,0.9c-3.51-1.33-8.08-5.03-8.92-9.4c-0.77-4.03-0.42-8-0.68-11.99
			c-0.05-0.72,0.42-1.7-0.77-2c-1.11,0.11-2.65-0.44-2.48,1.62c0.01,0.59,0.04,1.18,0.01,1.77c-0.03,0.55-2.96,13.64-4.15,16.12
			c-0.65,1.36-5.62-5.11-6.25-5.67c-0.38-0.34-0.87-1.03-1.43-1.94c-0.14-0.23-0.29-0.49-0.44-0.75c-0.02-0.04-0.04-0.08-0.07-0.11
			c-0.15-0.26-0.3-0.53-0.45-0.82c-0.01-0.02-0.02-0.04-0.03-0.06c-0.15-0.28-0.3-0.57-0.45-0.86c-0.01-0.03-0.03-0.06-0.04-0.08
			c-0.15-0.3-0.31-0.61-0.46-0.93c-0.02-0.05-0.05-0.1-0.07-0.15c-0.16-0.32-0.31-0.65-0.47-0.98c0-0.01-0.01-0.02-0.01-0.03
			c-0.15-0.32-0.3-0.65-0.44-0.97c-0.02-0.05-0.05-0.1-0.07-0.15c-0.14-0.32-0.29-0.65-0.42-0.98c-0.02-0.06-0.05-0.11-0.07-0.17
			c-0.14-0.33-0.27-0.65-0.4-0.98c0-0.01-0.01-0.02-0.01-0.03c-0.13-0.33-0.25-0.65-0.37-0.96c-0.02-0.06-0.05-0.13-0.07-0.19
			c-0.12-0.31-0.23-0.61-0.33-0.91c-0.02-0.05-0.03-0.1-0.05-0.14c-0.1-0.28-0.19-0.55-0.27-0.81c-0.01-0.04-0.03-0.08-0.04-0.12
			c-0.09-0.28-0.17-0.55-0.24-0.81c-0.02-0.06-0.03-0.11-0.05-0.17c-0.07-0.26-0.13-0.51-0.18-0.75c-0.01-0.03-0.01-0.05-0.02-0.08
			c-0.05-0.22-0.08-0.42-0.11-0.62c-0.01-0.04-0.01-0.08-0.02-0.12c-0.03-0.2-0.04-0.39-0.05-0.56c0-0.04,0-0.07,0-0.1
			c0-0.17,0-0.33,0.03-0.46v0c-0.53,0-2.74-0.22-4.74-0.42c-0.44-0.04-0.88-0.09-1.28-0.12c-0.4-0.04-0.77-0.07-1.09-0.1
			c-0.16-0.01-0.31-0.02-0.44-0.03c-0.26-0.02-0.46-0.03-0.58-0.03c-0.07,0.41-0.11,0.85-0.12,1.31c0,0.15,0.01,0.31,0.01,0.46
			c0.01,0.32,0.01,0.64,0.04,0.97c0.02,0.19,0.05,0.38,0.07,0.58c0.04,0.31,0.08,0.63,0.14,0.95c0.04,0.21,0.09,0.42,0.13,0.64
			c0.07,0.32,0.14,0.64,0.22,0.97c0.06,0.22,0.12,0.45,0.18,0.67c0.09,0.33,0.19,0.66,0.29,1c0.07,0.23,0.15,0.46,0.23,0.69
			c0.11,0.34,0.23,0.67,0.35,1.01c0.09,0.24,0.17,0.47,0.26,0.71c0.13,0.34,0.26,0.67,0.4,1.01c0.1,0.24,0.2,0.48,0.3,0.72
			c0.14,0.33,0.29,0.66,0.43,0.99c0.11,0.25,0.22,0.49,0.33,0.73c0.14,0.31,0.29,0.61,0.44,0.91c0.13,0.26,0.25,0.52,0.38,0.78
			c0.12,0.24,0.25,0.48,0.37,0.72c1.87,3.66,3.89,6.87,5.18,8.56c2.71,3.57,17.24,17.99,17.97,19.73
			c3.01,7.16,3.55,14.76,3.33,22.38c-0.41,14.26-1.18,18.13-0.86,32.4c0.16,7.13,0.6,3.87-0.39,10.98
			c-1.08,7.77-3.3,15.08-8.08,21.47c-0.78,1.05-2.7,1.85-2.09,3.22c0.49,1.1,2.18,1.68,3.34,2.47c0.1,0.07,0.25,0.05,0.38,0.07
			c1.31,0.67,2.46,1.68,3.98,1.92c0.86,0.6,1.84,0.85,2.85,1.05c2.06,0.84-1.02,1.46,1.23,1.52c3.94,0.82,7.88,0.75,11.82,0.04
			c3.49-0.22,2.68-1.09,5.96-2.24c1.22-0.39,2.52-0.55,3.62-1.27c0.45,0.02,0.87-0.06,1.17-0.44c3.01-0.91,2.98-0.9,2.07-3.9
			c-2.46-8.06-10.25-16.3-11.14-24.67c-0.97-9.12-1.05-7.86-0.44-17.01c0.9-13.44,1.83-16.5,2.16-29.95
			c0.17-6.71,4.27-13.45,5.75-20.07c-0.23-1.27,0.49-2.34,0.72-3.51c0.89-4.35,3.5-2.52,5.74-6.33c0.35-0.6,4.03-6.9,4.67-6.68
			c1.76,0.61,3.46-0.13,5.18-0.04c2.57,0.13,4.22-1,5.22-3.27h0v0c0,0-0.01,0-0.01,0v0c-0.42-0.04-0.84-0.05-1.26-0.05
			c0.42,0,0.84,0.02,1.26,0.05c0.13-0.14,0.26-0.29,0.4-0.43C169.3,153.96,170.68,151.6,172.26,149.41z"/>
		<path class="st112" d="M205.03,88.81c-1.99-2.94-5.88-4.93-10.35-4.93c-0.54,0-1.08,0.03-1.6,0.09c-1.57,0.17-3.04,0.6-4.36,1.22
			c0-0.03,0-0.05,0-0.08c0-2.27-1-4.35-2.67-5.97c-0.02-0.02-0.05-0.04-0.07-0.06c-0.53-0.51-1.14-0.97-1.8-1.38
			c-0.21-0.13-0.43-0.26-0.66-0.38c-0.42-0.23-0.85-0.44-1.31-0.62c-0.89-0.36-1.84-0.63-2.84-0.8c-0.05-0.44-0.11-0.87-0.2-1.3
			c-0.76-3.85-2.99-7.32-6.23-10.08c-0.94-0.8-1.98-1.54-3.09-2.21c-0.35-0.22-0.72-0.42-1.09-0.63c-0.45-0.24-0.9-0.47-1.37-0.69
			c-0.44-0.21-0.88-0.4-1.34-0.59c-0.28-0.11-0.55-0.23-0.83-0.34c0.39-0.92,0.66-1.88,0.77-2.88c0.04-0.33,0.05-0.67,0.05-1.01
			c0-6.63-6.72-12.01-15-12.01c-1.92,0-3.75,0.29-5.43,0.81c-3.7,1.15-6.69,3.45-8.29,6.35c-2.42-1.35-5.36-2.14-8.54-2.14
			c-0.08,0-0.15,0-0.23,0c-8.18,0.1-14.78,5.43-14.78,12c0,0.54,0.06,1.06,0.15,1.58c-4.89,1.43-8.59,4.82-9.59,8.99
			c-1.4-0.19-2.84-0.29-4.32-0.29c-3.7,0-7.21,0.61-10.37,1.71c-1.3-4.07-5.9-7.09-11.39-7.09c-6.5,0-11.77,4.22-11.77,9.42
			c0,1.33,0.35,2.6,0.98,3.75c-1.32-0.41-2.75-0.64-4.24-0.64c-6.5,0-11.77,4.22-11.77,9.42c0,1.21,0.3,2.36,0.82,3.43
			c-4.12,1.47-7,4.76-7,8.61c0,5.2,5.27,9.42,11.77,9.42c0.12,0,0.24-0.01,0.36-0.01c-0.23,1.06-0.36,2.15-0.36,3.26
			c0,6.54,4.21,12.32,10.66,15.85c-2.73,1.73-4.48,4.39-4.48,7.39c0,5.2,5.27,9.42,11.77,9.42c2.72,0,5.21-0.74,7.21-1.98
			c4.65,4.9,9.96,5.84,14.61,4.89c-2.41-5.01-4.34-10.58-3.7-14.28c0.94-0.01,7.19,0.71,8.13,0.7c-0.27,1.64,1.36,6.14,3.2,10.09
			c2.76-2.08,4.51-4.56,4.49-6.28c3.1,12.29,18.7,14.16,19.64,3.38c0.28,0.24,0.58,0.47,0.88,0.7c0.09,0.07,0.18,0.13,0.27,0.2
			c0.22,0.16,0.45,0.33,0.67,0.48c0.1,0.07,0.19,0.13,0.29,0.2c0.24,0.16,0.48,0.32,0.73,0.47c0.08,0.05,0.16,0.1,0.25,0.15
			c0.31,0.19,0.62,0.37,0.94,0.54c0.02,0.01,0.05,0.03,0.07,0.04c1.11,0.6,2.28,1.14,3.51,1.6c0.01,0,0.02,0.01,0.02,0.01
			c0.41,0.15,0.82,0.3,1.24,0.43c2.02,0.66,4.16,1.12,6.41,1.35c0.26,0.03,0.53,0.06,0.8,0.08c-0.14,0.67-0.24,1.35-0.24,2.05
			c0,0.28,0.02,0.56,0.04,0.83c0.01,0.07,0.01,0.14,0.02,0.21c0.03,0.25,0.06,0.49,0.11,0.74c0,0.03,0.01,0.05,0.01,0.08
			c0.05,0.27,0.12,0.55,0.2,0.81c0.01,0.05,0.03,0.09,0.04,0.14c0.08,0.25,0.16,0.5,0.25,0.74c0.01,0.02,0.01,0.04,0.02,0.05
			c0.11,0.28,0.23,0.55,0.36,0.81c0.01,0.01,0.01,0.02,0.02,0.03c0.13,0.27,0.28,0.53,0.43,0.78c0,0,0.01,0.01,0.01,0.01
			c0.32,0.53,0.69,1.04,1.1,1.52c0,0,0,0,0,0v0c2.09,2.47,5.28,4.35,9.05,5.2c0,0,0.01,0,0.01,0c0.48,0.11,0.97,0.2,1.46,0.27
			c0.02,0,0.03,0,0.05,0.01c0.49,0.07,0.98,0.13,1.49,0.17c0.02,0,0.04,0,0.06,0c0.51,0.04,1.02,0.06,1.53,0.06
			c1.96,0,3.85-0.27,5.59-0.76c6.23-1.75,10.67-6.34,10.67-11.72c0-0.77-0.1-1.52-0.28-2.25c0-0.02-0.01-0.04-0.01-0.06
			c0.37,0.04,0.74,0.08,1.11,0.1c0.44,0.03,0.89,0.05,1.34,0.05c0.56,0,1.12-0.02,1.66-0.06c0.55-0.04,1.09-0.11,1.61-0.19
			c0.26-0.04,0.53-0.09,0.79-0.14c7.02-1.39,12.2-6.27,12.2-12.09v0c0-2.23-0.76-4.32-2.1-6.13c-0.17-0.23-0.34-0.45-0.53-0.66
			c-0.55-0.65-1.18-1.26-1.88-1.82c-0.23-0.19-0.47-0.37-0.72-0.54c-0.74-0.53-1.55-1-2.41-1.41c1.17-0.66,2.26-1.4,3.26-2.21
			c4.34-3.49,7.01-8.22,7.01-13.43c0-2.39-0.57-4.68-1.59-6.8c5.67-0.68,10.03-4.58,10.03-9.31v0
			C206.45,91.67,205.94,90.14,205.03,88.81z"/>
		<g>
			<path class="st113" d="M95.59,88.83c-0.06,0.06-0.12,0.12-0.17,0.18c-0.05-0.07-0.09-0.14-0.14-0.21
				c-2.61-3.59-7.07-4.79-9.97-2.68c-2.14,1.55-2.82,4.48-1.99,7.34c-0.8,0.14-1.56,0.45-2.24,0.94c-2.9,2.11-3.13,6.72-0.52,10.31
				c0.6,0.83,1.3,1.52,2.06,2.08c-0.89,0.12-1.74,0.44-2.48,0.98c-2.9,2.11-3.13,6.72-0.52,10.31c1.63,2.25,3.99,3.55,6.24,3.7"/>
			<path class="st113" d="M155.32,134.3c1.8-0.81,3.13-2.25,3.52-4.08c0-0.02,0-0.03,0.01-0.05c1.03,0.79,2.3,1.39,3.73,1.7
				c4.27,0.91,8.32-1.15,9.05-4.6c0.66-3.13-1.65-6.32-5.27-7.56c0.97-1.26,1.67-2.7,2-4.28c0.9-4.25-0.95-8.58-4.55-11.79
				c3.32-0.82,5.87-2.98,6.5-5.94c0.97-4.57-3.03-9.28-8.92-10.54c-0.55-0.12-1.09-0.19-1.63-0.24c0.23-0.47,0.4-0.97,0.51-1.49
				c0.97-4.57-3.03-9.28-8.92-10.54c-5.9-1.25-11.47,1.44-12.44,6c-0.1,0.46-0.13,0.93-0.13,1.39c-0.78-0.1-1.54-0.14-2.3-0.16"/>
		</g>
	</g>
</g>
</svg>
