<?xml version="1.0" encoding="utf-8"?>
<!-- Generator: Adobe Illustrator 24.0.0, SVG Export Plug-In . SVG Version: 6.00 Build 0)  -->
<svg version="1.1" id="Layer_1" xmlns="http://www.w3.org/2000/svg" xmlns:xlink="http://www.w3.org/1999/xlink" x="0px" y="0px"
	 viewBox="0 0 240 360" style="enable-background:new 0 0 240 360;" xml:space="preserve">
<style type="text/css">
	.st0{fill:#AED6D6;}
	.st1{fill:#D3A8B9;}
	.st2{fill:#66CEF5;}
	.st3{fill:#8EDCF4;}
	.st4{fill:#61BEBF;}
	.st5{fill:none;stroke:#000000;stroke-width:3;stroke-linecap:round;stroke-linejoin:round;stroke-miterlimit:10;}
	.st6{fill:#A4D165;}
	.st7{opacity:0.25;fill:#3C2415;}
	.st8{fill:#8DC63F;stroke:#010101;stroke-width:10.905;stroke-linecap:round;stroke-linejoin:round;stroke-miterlimit:10;}
	.st9{fill:#A7744D;stroke:#010101;stroke-width:9.1692;stroke-linecap:round;stroke-linejoin:round;stroke-miterlimit:10;}
	.st10{fill:#0DA028;}
	.st11{fill:#61C16A;}
	.st12{fill:#A3E2F9;}
	.st13{fill:#5AB75A;}
	.st14{fill:none;stroke:#000000;stroke-width:3.0664;stroke-linecap:round;stroke-linejoin:round;stroke-miterlimit:10;}
	.st15{fill:#98DBED;}
	.st16{fill:#9C9BBD;}
	.st17{fill:#FFFFFF;}
	.st18{fill:#EDECFC;stroke:#231F20;stroke-width:3;stroke-miterlimit:10;}
	.st19{fill:none;stroke:#231F20;stroke-width:3;stroke-miterlimit:10;}
	.st20{fill:#FFFFFF;stroke:#000000;stroke-width:3;stroke-linecap:round;stroke-linejoin:round;stroke-miterlimit:10;}
	.st21{fill:#BC7B22;stroke:#000000;stroke-width:3;stroke-miterlimit:10;}
	.st22{fill:#E5AF38;stroke:#000000;stroke-width:3;stroke-linecap:round;stroke-linejoin:round;stroke-miterlimit:10;}
	.st23{fill:none;stroke:#000000;stroke-width:3;stroke-miterlimit:10;}
	.st24{fill:#927E6D;stroke:#000000;stroke-width:3;stroke-linecap:round;stroke-linejoin:round;stroke-miterlimit:10;}
	.st25{fill:#F7D970;}
	.st26{fill:none;}
	.st27{fill:#3F3F3F;stroke:#000000;stroke-width:3;stroke-linecap:round;stroke-linejoin:round;stroke-miterlimit:10;}
	.st28{fill:#775E49;stroke:#000000;stroke-width:3;stroke-linecap:round;stroke-linejoin:round;stroke-miterlimit:10;}
	.st29{fill:#EDBB91;stroke:#000000;stroke-width:3;stroke-linecap:round;stroke-linejoin:round;stroke-miterlimit:10;}
	.st30{fill:#B03838;stroke:#000000;stroke-width:3;stroke-linecap:round;stroke-linejoin:round;stroke-miterlimit:10;}
	.st31{fill:#739144;stroke:#010101;stroke-width:3;stroke-linecap:round;stroke-linejoin:round;stroke-miterlimit:10;}
	.st32{stroke:#000000;stroke-width:2.5622;stroke-linecap:round;stroke-linejoin:round;stroke-miterlimit:10;}
	.st33{stroke:#000000;stroke-width:2.4972;stroke-linecap:round;stroke-linejoin:round;stroke-miterlimit:10;}
	.st34{stroke:#000000;stroke-width:3.4363;stroke-linecap:round;stroke-linejoin:round;stroke-miterlimit:10;}
	.st35{stroke:#000000;stroke-width:2.0766;stroke-linecap:round;stroke-linejoin:round;stroke-miterlimit:10;}
	.st36{fill:#BB502C;stroke:#000000;stroke-width:3;stroke-linecap:round;stroke-linejoin:round;}
	.st37{fill:#B03838;}
	.st38{fill:#EA4B4B;stroke:#000000;stroke-width:3;stroke-linecap:round;stroke-linejoin:round;stroke-miterlimit:10;}
	.st39{fill:#FADD6B;}
	.st40{fill:#7DA5A5;}
	.st41{fill:#EE6F6F;stroke:#000000;stroke-width:3;stroke-linecap:round;stroke-linejoin:round;stroke-miterlimit:10;}
	.st42{fill:#EDBB91;stroke:#000000;stroke-width:3.1272;stroke-linecap:round;stroke-linejoin:round;stroke-miterlimit:10;}
	.st43{fill:#E5EDED;stroke:#010101;stroke-width:3;stroke-linecap:round;stroke-linejoin:round;stroke-miterlimit:10;}
	.st44{fill:#AEDAFF;stroke:#000000;stroke-width:3;stroke-miterlimit:10;}
	.st45{fill:#FFFFFF;stroke:#000000;stroke-width:3;stroke-miterlimit:10;}
	.st46{fill:#FBFB67;stroke:#000000;stroke-width:3;stroke-linecap:round;stroke-linejoin:round;stroke-miterlimit:10;}
	.st47{fill:none;stroke:#000000;stroke-width:2.8924;stroke-linecap:round;stroke-linejoin:round;stroke-miterlimit:10;}
	.st48{fill:#85D8F7;}
	.st49{fill:#66A488;}
	.st50{fill:#A4CAF8;}
	.st51{fill:#E2D881;stroke:#000000;stroke-width:3;stroke-linecap:round;stroke-linejoin:round;stroke-miterlimit:10;}
	.st52{fill:#61C16A;stroke:#000000;stroke-width:3;stroke-linecap:round;stroke-linejoin:round;stroke-miterlimit:10;}
	.st53{fill:#F2618B;stroke:#000000;stroke-width:2.8224;stroke-linecap:round;stroke-linejoin:round;stroke-miterlimit:10;}
	.st54{fill:#D68630;stroke:#000000;stroke-width:3.7448;stroke-linecap:round;stroke-linejoin:round;stroke-miterlimit:10;}
	.st55{fill:#EFCFAC;stroke:#000000;stroke-width:3.7448;stroke-linecap:round;stroke-linejoin:round;stroke-miterlimit:10;}
	.st56{fill:#F9D042;}
	.st57{fill:#D79B80;}
	.st58{fill:#E6DEA0;}
	.st59{fill:#E2A99A;}
	.st60{fill:#61BED4;}
	.st61{fill:#F7E99C;}
	.st62{fill:#DDDCE5;}
	.st63{fill:#EECE66;}
	.st64{fill:#E8DB5F;}
	.st65{fill:#DE959B;}
	.st66{fill:#33BEF2;}
	.st67{font-family:'Futura-Medium';}
	.st68{font-size:24.6402px;}
	.st69{fill:#F1F2F2;stroke:#000000;stroke-width:3;stroke-linecap:round;stroke-linejoin:round;stroke-miterlimit:10;}
	.st70{fill:#FFCC3A;stroke:#231F20;stroke-width:3;stroke-linecap:round;stroke-linejoin:round;stroke-miterlimit:10;}
	.st71{fill:#66A488;stroke:#000000;stroke-width:3;stroke-linecap:round;stroke-linejoin:round;stroke-miterlimit:10;}
	.st72{fill:#5B9CBC;stroke:#000000;stroke-width:2.7298;stroke-linecap:round;stroke-linejoin:round;stroke-miterlimit:10;}
	.st73{fill:#EA4B4B;}
	.st74{fill:#F2618B;stroke:#000000;stroke-width:3;stroke-linecap:round;stroke-linejoin:round;stroke-miterlimit:10;}
	.st75{fill:#F2618B;stroke:#000000;stroke-width:2.8253;stroke-linecap:round;stroke-linejoin:round;stroke-miterlimit:10;}
	.st76{fill:#66A488;stroke:#010101;stroke-width:3;stroke-miterlimit:10;}
	.st77{fill:#EDBB91;stroke:#000000;stroke-width:4.1741;stroke-linecap:round;stroke-linejoin:round;stroke-miterlimit:10;}
	.st78{fill:#EDC620;stroke:#000000;stroke-width:3;stroke-linecap:round;stroke-linejoin:round;stroke-miterlimit:10;}
	.st79{fill:#606060;stroke:#000000;stroke-width:3;stroke-linecap:round;stroke-linejoin:round;stroke-miterlimit:10;}
	.st80{fill:#FFEC8D;stroke:#000000;stroke-width:3;stroke-miterlimit:10;}
	.st81{fill:none;stroke:#FFFFFF;stroke-width:3;stroke-linecap:round;stroke-linejoin:round;stroke-miterlimit:10;}
	.st82{fill:none;stroke:#000000;stroke-width:3.182;stroke-linecap:round;stroke-linejoin:round;stroke-miterlimit:10;}
	.st83{fill:#60605F;stroke:#000000;stroke-width:3;stroke-linecap:round;stroke-linejoin:round;stroke-miterlimit:10;}
	.st84{fill:#EACB49;stroke:#000000;stroke-width:3;stroke-linecap:round;stroke-linejoin:round;stroke-miterlimit:10;}
	.st85{fill:#5AB75A;stroke:#000000;stroke-width:3;stroke-linecap:round;stroke-linejoin:round;stroke-miterlimit:10;}
	.st86{fill:#A57E50;stroke:#000000;stroke-width:3;stroke-linecap:round;stroke-linejoin:round;stroke-miterlimit:10;}
	.st87{fill:#91C3CC;}
	.st88{fill:#FC90A2;}
	.st89{fill:#FB6B83;}
	.st90{fill:#6D9299;}
	.st91{fill:#FCD566;stroke:#010101;stroke-width:3;stroke-linecap:round;stroke-linejoin:round;stroke-miterlimit:10;}
	.st92{fill:#977D33;stroke:#010101;stroke-width:3;stroke-linecap:round;stroke-linejoin:round;stroke-miterlimit:10;}
	.st93{fill:#655833;stroke:#010101;stroke-width:3;stroke-linecap:round;stroke-linejoin:round;stroke-miterlimit:10;}
	.st94{fill:#533F28;stroke:#000000;stroke-width:3;stroke-linecap:round;stroke-linejoin:round;stroke-miterlimit:10;}
	.st95{fill:#F18067;stroke:#231F20;stroke-width:3;stroke-miterlimit:10;}
	.st96{fill:#FFF0A4;stroke:#000000;stroke-width:3;stroke-miterlimit:10;}
	.st97{fill:#648959;stroke:#000000;stroke-width:3;stroke-linecap:round;stroke-linejoin:round;stroke-miterlimit:10;}
	.st98{fill:#FBB8B4;}
	.st99{fill:#9BD1BC;}
	.st100{opacity:0.3;}
	.st101{opacity:0.5;fill:#3C2415;}
	.st102{fill:#BD9779;stroke:#010101;stroke-width:3;stroke-miterlimit:10;}
	.st103{fill:#915120;stroke:#010101;stroke-width:3;stroke-miterlimit:10;}
	.st104{fill:none;stroke:#010101;stroke-width:3;stroke-miterlimit:10;}
	.st105{fill:#F4777C;stroke:#010101;stroke-width:3;stroke-miterlimit:10;}
	.st106{fill:#DBDBDB;stroke:#010101;stroke-width:3;stroke-miterlimit:10;}
	.st107{fill:#335D49;stroke:#010101;stroke-width:3;stroke-miterlimit:10;}
	.st108{fill:#F4777C;stroke:#010101;stroke-width:3;stroke-linecap:round;stroke-linejoin:round;stroke-miterlimit:10;}
	.st109{fill:#66A488;stroke:#010101;stroke-width:3;stroke-linecap:round;stroke-linejoin:round;stroke-miterlimit:10;}
	.st110{fill:#DBDBDB;stroke:#010101;stroke-width:3;stroke-linecap:round;stroke-linejoin:round;stroke-miterlimit:10;}
	.st111{fill:#A7744D;stroke:#010101;stroke-width:3;stroke-linecap:round;stroke-linejoin:round;stroke-miterlimit:10;}
	.st112{fill:#8DC63F;stroke:#010101;stroke-width:3;stroke-linecap:round;stroke-linejoin:round;stroke-miterlimit:10;}
	.st113{fill:none;stroke:#010101;stroke-width:3;stroke-linecap:round;stroke-linejoin:round;stroke-miterlimit:10;}
	.st114{fill:#67BCD9;}
	.st115{fill:#CEC746;stroke:#231F20;stroke-width:3;stroke-miterlimit:10;}
	.st116{fill:#F69E66;stroke:#231F20;stroke-width:3;stroke-miterlimit:10;}
	.st117{fill:#F7815C;stroke:#231F20;stroke-width:3;stroke-miterlimit:10;}
	.st118{fill:#A89F5A;stroke:#231F20;stroke-width:3;stroke-miterlimit:10;}
	.st119{fill:#F29393;stroke:#231F20;stroke-width:3;stroke-miterlimit:10;}
	.st120{fill:#A3E2F9;stroke:#231F20;stroke-width:3;stroke-miterlimit:10;}
	.st121{opacity:0.5;}
	.st122{fill:#593E2C;stroke:#000000;stroke-width:3;stroke-miterlimit:10;}
	.st123{fill:#593E2C;stroke:#000000;stroke-width:2.8651;stroke-miterlimit:10;}
	.st124{fill:#E74736;stroke:#000000;stroke-width:3;stroke-linecap:round;stroke-linejoin:round;stroke-miterlimit:10;}
	.st125{fill:#F9E467;stroke:#000000;stroke-width:3;stroke-linecap:round;stroke-linejoin:round;stroke-miterlimit:10;}
	.st126{fill:#D68630;stroke:#000000;stroke-width:3;stroke-linecap:round;stroke-linejoin:round;stroke-miterlimit:10;}
	.st127{fill:#C95138;stroke:#231F20;stroke-width:3;stroke-linecap:round;stroke-linejoin:round;stroke-miterlimit:10;}
	.st128{fill:#231F20;}
	.st129{stroke:#000000;stroke-width:2.3082;stroke-linecap:round;stroke-linejoin:round;stroke-miterlimit:10;}
	.st130{fill:#E58156;stroke:#231F20;stroke-width:3;stroke-miterlimit:10;}
	.st131{fill:#FBA42D;stroke:#231F20;stroke-width:3;stroke-miterlimit:10;}
	.st132{fill:#BC7B22;stroke:#231F20;stroke-width:3;stroke-miterlimit:10;}
	.st133{stroke:#000000;stroke-width:2.3954;stroke-linecap:round;stroke-linejoin:round;stroke-miterlimit:10;}
	.st134{stroke:#000000;stroke-width:3.0772;stroke-linecap:round;stroke-linejoin:round;stroke-miterlimit:10;}
	.st135{fill:#842A2A;stroke:#000000;stroke-width:3;stroke-linecap:round;stroke-linejoin:round;stroke-miterlimit:10;}
	.st136{fill:#5B9CBC;stroke:#000000;stroke-width:2.495;stroke-linecap:round;stroke-linejoin:round;stroke-miterlimit:10;}
	.st137{fill:#FFE7B3;stroke:#231F20;stroke-width:3;stroke-linecap:round;stroke-linejoin:round;stroke-miterlimit:10;}
	.st138{fill:#2291AA;stroke:#231F20;stroke-width:3;stroke-linecap:round;stroke-linejoin:round;stroke-miterlimit:10;}
	.st139{fill:#2291AA;stroke:#231F20;stroke-width:3;stroke-miterlimit:10;}
	.st140{stroke:#000000;stroke-width:3;stroke-linecap:round;stroke-linejoin:round;stroke-miterlimit:10;}
	.st141{fill:#FFFFFF;stroke:#010101;stroke-width:3;stroke-linecap:round;stroke-linejoin:round;stroke-miterlimit:10;}
	.st142{fill:none;stroke:#231F20;stroke-width:3;stroke-linecap:round;stroke-linejoin:round;stroke-miterlimit:10;}
	.st143{fill:#FFFFFF;stroke:#231F20;stroke-width:3;stroke-linecap:round;stroke-linejoin:round;stroke-miterlimit:10;}
	.st144{fill:#E7C706;stroke:#000000;stroke-width:3;stroke-linecap:round;stroke-linejoin:round;}
	.st145{fill:none;stroke:#000000;stroke-width:3;stroke-linecap:round;stroke-linejoin:round;}
	.st146{fill:#333333;stroke:#000000;stroke-width:3;stroke-linecap:round;stroke-linejoin:round;}
	.st147{fill:#935328;stroke:#000000;stroke-width:3;stroke-linecap:round;stroke-linejoin:round;}
	.st148{fill:#593E2C;stroke:#000000;stroke-width:2.9408;stroke-miterlimit:10;}
	.st149{fill:#E5AF38;stroke:#000000;stroke-width:3.0793;stroke-linecap:round;stroke-linejoin:round;stroke-miterlimit:10;}
	.st150{fill:#0DA028;stroke:#020100;stroke-width:3;stroke-miterlimit:10;}
	.st151{fill:#0DA028;stroke:#000000;stroke-width:3;stroke-miterlimit:10;}
	.st152{fill:#AD313A;}
	.st153{fill:#AEDAFF;stroke:#000000;stroke-width:2.9408;stroke-miterlimit:10;}
	.st154{fill:#52768E;stroke:#000000;stroke-width:2.9408;stroke-miterlimit:10;}
	.st155{fill:#FBFB67;stroke:#000000;stroke-width:3;stroke-miterlimit:10;}
	.st156{fill:#6EC67E;stroke:#020100;stroke-width:3;stroke-miterlimit:10;}
	.st157{fill:#6EC67E;stroke:#000000;stroke-width:3;stroke-miterlimit:10;}
	.st158{fill:#F9E467;stroke:#000000;stroke-width:3.0817;stroke-linecap:round;stroke-linejoin:round;stroke-miterlimit:10;}
	.st159{fill:#69C8F7;stroke:#000000;stroke-width:3.0742;stroke-linecap:round;stroke-linejoin:round;stroke-miterlimit:10;}
	.st160{fill:#69C8F7;}
	.st161{fill:#69C8F7;stroke:#000000;stroke-width:3.0817;stroke-linecap:round;stroke-linejoin:round;stroke-miterlimit:10;}
	.st162{fill:#EA4B4B;stroke:#000000;stroke-width:2.7219;stroke-linecap:round;stroke-linejoin:round;stroke-miterlimit:10;}
	.st163{fill:#F9E467;}
	.st164{fill:#F16788;stroke:#000000;stroke-width:3;stroke-linecap:round;stroke-linejoin:round;stroke-miterlimit:10;}
	.st165{fill:#448944;}
	.st166{fill:#E74736;}
	.st167{fill:#EFCF88;stroke:#000000;stroke-width:3;stroke-linecap:round;stroke-linejoin:round;stroke-miterlimit:10;}
	.st168{fill:#EC6C5E;stroke:#000000;stroke-width:3;stroke-linecap:round;stroke-linejoin:round;stroke-miterlimit:10;}
	.st169{fill:none;stroke:#9AA6A6;stroke-width:3;stroke-linecap:round;stroke-linejoin:round;stroke-miterlimit:10;}
	.st170{fill:#564E3B;stroke:#010101;stroke-width:3;stroke-miterlimit:10;}
	.st171{fill:#FDC881;}
	.st172{fill:#E5AF38;stroke:#000000;stroke-width:3;stroke-miterlimit:10;}
	.st173{fill:none;stroke:#FF0049;stroke-width:3;stroke-linecap:round;stroke-linejoin:round;stroke-miterlimit:10;}
	.st174{fill:#C95138;stroke:#000000;stroke-width:3;stroke-linecap:round;stroke-linejoin:round;stroke-miterlimit:10;}
	.st175{fill:#BC7B22;stroke:#000000;stroke-width:3;stroke-linecap:round;stroke-linejoin:round;stroke-miterlimit:10;}
	.st176{fill:#FFCC3A;stroke:#000000;stroke-width:3;stroke-linecap:round;stroke-linejoin:round;stroke-miterlimit:10;}
	.st177{fill:#61C16A;stroke:#000000;stroke-width:2.8413;stroke-linecap:round;stroke-linejoin:round;stroke-miterlimit:10;}
	.st178{fill:#ED416A;stroke:#000000;stroke-width:3;stroke-linecap:round;stroke-linejoin:round;stroke-miterlimit:10;}
	.st179{opacity:0.25;}
	.st180{fill:#3C2415;}
	.st181{fill:#BBDD8C;stroke:#000000;stroke-width:3;stroke-miterlimit:10;}
	.st182{fill:#8CA669;}
	.st183{fill:none;stroke:#000000;stroke-width:5;stroke-linecap:round;stroke-linejoin:round;stroke-miterlimit:10;}
	.st184{fill:#775E49;stroke:#000000;stroke-width:3.0146;stroke-linecap:round;stroke-linejoin:round;stroke-miterlimit:10;}
	.st185{fill:#604B3C;stroke:#000000;stroke-width:2.5808;stroke-linecap:round;stroke-linejoin:round;stroke-miterlimit:10;}
	.st186{fill:none;stroke:#AED6D6;stroke-width:0.8108;stroke-miterlimit:10;}
	.st187{fill:none;stroke:#AED6D6;stroke-width:1.7979;stroke-miterlimit:10;}
	.st188{fill:none;stroke:#AED6D6;stroke-width:0.7832;stroke-miterlimit:10;}
	.st189{fill:none;stroke:#AED6D6;stroke-width:0.7585;stroke-miterlimit:10;}
	.st190{fill:none;stroke:#AED6D6;stroke-width:2.6852;stroke-miterlimit:10;}
	.st191{fill:none;stroke:#AED6D6;stroke-width:5.5987;stroke-miterlimit:10;}
	.st192{fill:none;stroke:#AED6D6;stroke-width:10;stroke-linecap:round;stroke-linejoin:round;stroke-miterlimit:10;}
	.st193{fill:#BC7B22;stroke:#231F20;stroke-width:3;stroke-linecap:round;stroke-linejoin:round;stroke-miterlimit:10;}
	.st194{fill:#EA4B4B;stroke:#000000;stroke-width:2.6625;stroke-linecap:round;stroke-linejoin:round;stroke-miterlimit:10;}
	.st195{fill:#BC7B22;stroke:#000000;stroke-width:2.6625;stroke-miterlimit:10;}
	.st196{fill:#FBA42D;stroke:#000000;stroke-width:2.6625;stroke-miterlimit:10;}
	.st197{fill:#FBA42D;stroke:#000000;stroke-width:2.6625;stroke-linecap:round;stroke-linejoin:round;stroke-miterlimit:10;}
	.st198{fill:#BC7B22;stroke:#000000;stroke-width:2.6625;stroke-linecap:round;stroke-linejoin:round;stroke-miterlimit:10;}
	.st199{fill:#23ACAB;stroke:#000000;stroke-width:3.1363;stroke-miterlimit:10;}
	.st200{fill:#90E05C;stroke:#000000;stroke-width:2.6625;stroke-miterlimit:10;}
	.st201{fill:#FBA42D;stroke:#000000;stroke-width:3;stroke-miterlimit:10;}
	.st202{fill:#23ACAB;stroke:#000000;stroke-width:3;stroke-miterlimit:10;}
	.st203{fill:none;stroke:#00FF0C;stroke-width:0.7413;stroke-miterlimit:10;}
	.st204{fill:#593E2C;stroke:#000000;stroke-width:2.9408;stroke-linecap:round;stroke-linejoin:round;stroke-miterlimit:10;}
	.st205{fill:#BD9779;stroke:#010101;stroke-width:3;stroke-linecap:round;stroke-linejoin:round;stroke-miterlimit:10;}
	.st206{fill:#FF6D00;}
	.st207{opacity:0.41;fill:#61BEBF;}
	.st208{opacity:0.5;fill:none;stroke:#2E1B8C;stroke-width:3;stroke-miterlimit:10;}
	.st209{fill:#F9E467;stroke:#000000;stroke-width:2.6479;stroke-linecap:round;stroke-linejoin:round;stroke-miterlimit:10;}
	.st210{fill:none;stroke:#000000;stroke-width:2.6479;stroke-linecap:round;stroke-linejoin:round;stroke-miterlimit:10;}
	.st211{fill:#F9E3B7;stroke:#231F20;stroke-width:3;stroke-linecap:round;stroke-linejoin:round;stroke-miterlimit:10;}
	.st212{fill:#FFF1D1;stroke:#231F20;stroke-width:3;stroke-linecap:round;stroke-linejoin:round;stroke-miterlimit:10;}
	.st213{fill:#F7EFA2;stroke:#231F20;stroke-width:3;stroke-miterlimit:10;}
	.st214{fill:#E58156;stroke:#231F20;stroke-width:3;stroke-linecap:round;stroke-linejoin:round;stroke-miterlimit:10;}
	.st215{fill:#F9E467;stroke:#000000;stroke-width:0.764;stroke-linecap:round;stroke-linejoin:round;stroke-miterlimit:10;}
	.st216{fill:#604B3C;stroke:#000000;stroke-width:1.1908;stroke-linecap:round;stroke-linejoin:round;stroke-miterlimit:10;}
	.st217{fill:#868786;stroke:#000000;stroke-width:3;stroke-linecap:round;stroke-linejoin:round;stroke-miterlimit:10;}
	.st218{fill:#775E49;stroke:#000000;stroke-width:2.5898;stroke-linecap:round;stroke-linejoin:round;stroke-miterlimit:10;}
	.st219{fill:#61C16A;stroke:#000000;stroke-width:3;stroke-miterlimit:10;}
	.st220{fill:#CA5535;stroke:#010101;stroke-width:3;stroke-miterlimit:10;}
	.st221{fill:#775E49;stroke:#010101;stroke-width:2.7722;stroke-miterlimit:10;}
	.st222{fill:#61C16A;stroke:#000000;stroke-width:3.0329;stroke-linecap:round;stroke-linejoin:round;stroke-miterlimit:10;}
	.st223{fill:none;stroke:#000000;stroke-width:3.0329;stroke-linecap:round;stroke-linejoin:round;stroke-miterlimit:10;}
</style>
<rect x="0" y="0" class="st40" width="240" height="360"/>
<rect x="0" y="238.17" class="st57" width="239.99" height="121.83"/>
<g>
	<text transform="matrix(1 0 0 1 47.076 343.9155)" class="st67 st68">EL VALIENTE</text>
</g>
<text transform="matrix(1 0 0 1 12.3221 28.4911)" class="st67 st68">12</text>
<ellipse class="st129" cx="137.64" cy="34.28" rx="3.74" ry="10.06"/>
<ellipse class="st7" cx="112.42" cy="290.44" rx="89.78" ry="27.07"/>
<path class="st29" d="M122.15,66.77L122.15,66.77c5.44,0,13.59-7.77,13.29-16.6l1.68-15.1c-0.25-7.26-6.4-13-13.66-12.75l-2.84,0.1
	c-7.26,0.25-13,6.4-12.75,13.66l2.82,17.93C110.94,61.29,118.15,66.77,122.15,66.77z"/>
<path class="st29" d="M123.46,22.33l-2.84,0.1c-7.26,0.25-13,6.4-12.75,13.66l2.82,17.93c0.25,7.26,7.46,12.75,11.46,12.75
	c5.44,0,13.59-7.77,13.29-16.6l1.68-15.1C136.87,27.82,130.72,22.08,123.46,22.33z"/>
<ellipse transform="matrix(0.9271 -0.3747 0.3747 0.9271 -99.8256 39.9187)" class="st130" cx="52.74" cy="276.68" rx="14.16" ry="9.18"/>
<ellipse transform="matrix(0.6021 -0.7984 0.7984 0.6021 -162.8313 244.0285)" class="st130" cx="163.42" cy="285.38" rx="9.16" ry="18.87"/>
<ellipse transform="matrix(0.9827 -0.1851 0.1851 0.9827 -51.4376 23.4886)" class="st131" cx="100.11" cy="287.3" rx="36.79" ry="23.94"/>
<ellipse transform="matrix(0.9827 -0.1851 0.1851 0.9827 -50.7147 23.2345)" class="st132" cx="99.11" cy="283.3" rx="14.69" ry="9.56"/>
<path class="st29" d="M129.87,62.91c-2.47,2.39-5.36,3.86-7.72,3.86c-4,0-11.21-5.49-11.46-12.75l-0.95-6.04v20.73l18.33,28.27
	L129.87,62.91z"/>
<path class="st27" d="M182.15,218.69l-29.91-66.99c-6.1-5.59-15.6-9.19-26.27-9.19c-12.23,0-22.92,4.72-28.73,11.75
	c-0.05,0.06-0.12,0.1-0.17,0.15l-24.69,56.76c-0.52,0.72-0.95,1.54-1.25,2.42l-20.86,48.65c-1.63,4.8,0.95,10.01,5.75,11.64
	c4.8,1.63,10.01-0.95,11.64-5.75l18.18-40.73c2.49-1.09,4.58-3.09,5.69-5.79l33.36-59.57l37.46,65.61c0.55,1.2,1.3,2.25,2.18,3.14
	l-14.75,40.39c-1.17,4.25,1.34,8.69,5.59,9.86c4.25,1.17,8.69-1.34,9.86-5.59l16.67-47.33
	C183.36,225.28,183.56,221.82,182.15,218.69z"/>
<path class="st38" d="M199.57,136.43l-20.65-35.79c-0.33-0.96-0.8-1.88-1.41-2.74l-16.68-23.33c-1.71-4.55-6.1-7.81-11.23-7.81
	c0,0-8.61-1.67-19.74-2.72l-1.79,32.93l-18.33-28.27v-4.87c-11.34,1.14-21.69,3.91-21.69,3.91c-8.96,0.41-14.83,10.58-15.92,12.06
	l-21.27,29.04c-1.92,2.62-2.48,5.84-1.82,8.8l2.52,42.14c0.3,4.44,4.17,7.83,8.62,7.54s7.83-4.17,7.54-8.62l-2.06-34.42
	c1.03-0.68,1.96-1.54,2.73-2.59l16.42-22.4l11.43,41.02c5.52-7.74,16.75-14.05,29.73-14.05c11.47,0,21.59,5.15,27.6,11.47l3.3-31.39
	l2.99,4.18c0.19,0.26,0.39,0.51,0.6,0.76l25.67,34.13c2.47,3.7,7.53,4.71,11.23,2.23h0C201.04,145.19,202.05,140.14,199.57,136.43z"
	/>
<ellipse transform="matrix(0.5 -0.866 0.866 0.5 -112.0262 132.4077)" class="st29" cx="58.66" cy="163.22" rx="12.9" ry="10.14"/>
<path class="st91" d="M180.32,175.07v-34.56c0-5.6,4.54-10.14,10.14-10.14h0c5.6,0,10.14,4.54,10.14,10.14l-10,74.22l24.24-11
	l-2-65.27c0-12.31-10.07-22.38-22.38-22.38h0c-12.31,0-22.38,10.07-22.38,22.38v32.61c0,2.02,0.04,2.55,1.75,3.76
	c0,0,4.43,2.64,5.37,3.08C176.58,178.57,180.32,177.09,180.32,175.07z"/>
<path class="st38" d="M109.72,63.69c0,0-9.77,6.99-8.08,17.51l13.17-4.55l-5.07-7.93L109.72,63.69z"/>
<path class="st38" d="M129.86,64.05l-0.66,12.26l14.88,5.14C144.09,81.45,141.71,65.23,129.86,64.05z"/>
<line class="st38" x1="128.07" y1="96.98" x2="127.91" y2="125.42"/>
<ellipse transform="matrix(0.5 -0.866 0.866 0.5 -26.4269 235.5036)" class="st29" cx="190.74" cy="140.64" rx="12.9" ry="10.14"/>
<path class="st43" d="M61.94,160.09c0,0,28.5,7,43.5,11c-10.5,7.25-28,4.5-34.25,2.75s-13-7.5-13-7.5L61.94,160.09z"/>
<ellipse class="st133" cx="107.47" cy="32.41" rx="3.27" ry="12.39"/>
<ellipse class="st134" cx="121.57" cy="21.82" rx="15.54" ry="4.3"/>
<path class="st30" d="M159.19,142.31c0.75-6.15-12.85-16.02-33.23-16.02c-20.38,0-33.98,9.87-33.23,16.02
	c-0.01,1.52-0.03,3.98-0.05,5.51c-0.18,1.84-0.06,3.64,0.31,5.37c0.43,1.96,2.96,2.61,4.23,1.06c5.8-7.03,16.5-11.75,28.73-11.75
	c10.89,0,20.56,3.74,26.64,9.52c2.55,2.42,6.79,0.61,6.71-2.91c-0.01-0.43-0.04-0.86-0.08-1.3
	C159.22,146.3,159.2,143.84,159.19,142.31z"/>
<circle cx="130.89" cy="38.36" r="2.7"/>
<circle cx="118.86" cy="38.12" r="2.7"/>
<path class="st38" d="M125.35,35.1c0.79-0.99,2.23-1.64,3.86-1.64c1.52,0,2.86,0.57,3.68,1.44"/>
<path class="st38" d="M111.89,35.42c0.79-0.89,2.23-1.48,3.86-1.48c1.52,0,2.86,0.51,3.68,1.3"/>
<path d="M118.31,55.15c0-1.78,2.26-3.23,5.06-3.23c2.79,0,5.06,1.44,5.06,3.23c0,1.78-1.12,3.23-3.91,3.23
	C121.72,58.37,118.31,56.93,118.31,55.15z"/>
</svg>
