<?xml version="1.0" encoding="utf-8"?>
<!-- Generator: Adobe Illustrator 24.0.0, SVG Export Plug-In . SVG Version: 6.00 Build 0)  -->
<svg version="1.1" id="Layer_1" xmlns="http://www.w3.org/2000/svg" xmlns:xlink="http://www.w3.org/1999/xlink" x="0px" y="0px"
	 viewBox="0 0 240 360" style="enable-background:new 0 0 240 360;" xml:space="preserve">
<style type="text/css">
	.st0{fill:#AED6D6;}
	.st1{fill:#D3A8B9;}
	.st2{fill:#66CEF5;}
	.st3{fill:#8EDCF4;}
	.st4{fill:#61BEBF;}
	.st5{fill:none;stroke:#000000;stroke-width:3;stroke-linecap:round;stroke-linejoin:round;stroke-miterlimit:10;}
	.st6{fill:#A4D165;}
	.st7{opacity:0.25;fill:#3C2415;}
	.st8{fill:#8DC63F;stroke:#010101;stroke-width:10.905;stroke-linecap:round;stroke-linejoin:round;stroke-miterlimit:10;}
	.st9{fill:#A7744D;stroke:#010101;stroke-width:9.1692;stroke-linecap:round;stroke-linejoin:round;stroke-miterlimit:10;}
	.st10{fill:#0DA028;}
	.st11{fill:#61C16A;}
	.st12{fill:#A3E2F9;}
	.st13{fill:#5AB75A;}
	.st14{fill:none;stroke:#000000;stroke-width:3.0664;stroke-linecap:round;stroke-linejoin:round;stroke-miterlimit:10;}
	.st15{fill:#98DBED;}
	.st16{fill:#9C9BBD;}
	.st17{fill:#FFFFFF;}
	.st18{fill:#EDECFC;stroke:#231F20;stroke-width:3;stroke-miterlimit:10;}
	.st19{fill:none;stroke:#231F20;stroke-width:3;stroke-miterlimit:10;}
	.st20{fill:#FFFFFF;stroke:#000000;stroke-width:3;stroke-linecap:round;stroke-linejoin:round;stroke-miterlimit:10;}
	.st21{fill:#BC7B22;stroke:#000000;stroke-width:3;stroke-miterlimit:10;}
	.st22{fill:#E5AF38;stroke:#000000;stroke-width:3;stroke-linecap:round;stroke-linejoin:round;stroke-miterlimit:10;}
	.st23{fill:none;stroke:#000000;stroke-width:3;stroke-miterlimit:10;}
	.st24{fill:#927E6D;stroke:#000000;stroke-width:3;stroke-linecap:round;stroke-linejoin:round;stroke-miterlimit:10;}
	.st25{fill:#F7D970;}
	.st26{fill:none;}
	.st27{fill:#3F3F3F;stroke:#000000;stroke-width:3;stroke-linecap:round;stroke-linejoin:round;stroke-miterlimit:10;}
	.st28{fill:#775E49;stroke:#000000;stroke-width:3;stroke-linecap:round;stroke-linejoin:round;stroke-miterlimit:10;}
	.st29{fill:#EDBB91;stroke:#000000;stroke-width:3;stroke-linecap:round;stroke-linejoin:round;stroke-miterlimit:10;}
	.st30{fill:#B03838;stroke:#000000;stroke-width:3;stroke-linecap:round;stroke-linejoin:round;stroke-miterlimit:10;}
	.st31{fill:#739144;stroke:#010101;stroke-width:3;stroke-linecap:round;stroke-linejoin:round;stroke-miterlimit:10;}
	.st32{stroke:#000000;stroke-width:2.5622;stroke-linecap:round;stroke-linejoin:round;stroke-miterlimit:10;}
	.st33{stroke:#000000;stroke-width:2.4972;stroke-linecap:round;stroke-linejoin:round;stroke-miterlimit:10;}
	.st34{stroke:#000000;stroke-width:3.4363;stroke-linecap:round;stroke-linejoin:round;stroke-miterlimit:10;}
	.st35{stroke:#000000;stroke-width:2.0766;stroke-linecap:round;stroke-linejoin:round;stroke-miterlimit:10;}
	.st36{fill:#BB502C;stroke:#000000;stroke-width:3;stroke-linecap:round;stroke-linejoin:round;}
	.st37{fill:#B03838;}
	.st38{fill:#EA4B4B;stroke:#000000;stroke-width:3;stroke-linecap:round;stroke-linejoin:round;stroke-miterlimit:10;}
	.st39{fill:#FADD6B;}
	.st40{fill:#7DA5A5;}
	.st41{fill:#EE6F6F;stroke:#000000;stroke-width:3;stroke-linecap:round;stroke-linejoin:round;stroke-miterlimit:10;}
	.st42{fill:#EDBB91;stroke:#000000;stroke-width:3.1272;stroke-linecap:round;stroke-linejoin:round;stroke-miterlimit:10;}
	.st43{fill:#E5EDED;stroke:#010101;stroke-width:3;stroke-linecap:round;stroke-linejoin:round;stroke-miterlimit:10;}
	.st44{fill:#AEDAFF;stroke:#000000;stroke-width:3;stroke-miterlimit:10;}
	.st45{fill:#FFFFFF;stroke:#000000;stroke-width:3;stroke-miterlimit:10;}
	.st46{fill:#FBFB67;stroke:#000000;stroke-width:3;stroke-linecap:round;stroke-linejoin:round;stroke-miterlimit:10;}
	.st47{fill:none;stroke:#000000;stroke-width:2.8924;stroke-linecap:round;stroke-linejoin:round;stroke-miterlimit:10;}
	.st48{fill:#85D8F7;}
	.st49{fill:#66A488;}
	.st50{fill:#A4CAF8;}
	.st51{fill:#E2D881;stroke:#000000;stroke-width:3;stroke-linecap:round;stroke-linejoin:round;stroke-miterlimit:10;}
	.st52{fill:#61C16A;stroke:#000000;stroke-width:3;stroke-linecap:round;stroke-linejoin:round;stroke-miterlimit:10;}
	.st53{fill:#F2618B;stroke:#000000;stroke-width:2.8224;stroke-linecap:round;stroke-linejoin:round;stroke-miterlimit:10;}
	.st54{fill:#D68630;stroke:#000000;stroke-width:3.7448;stroke-linecap:round;stroke-linejoin:round;stroke-miterlimit:10;}
	.st55{fill:#EFCFAC;stroke:#000000;stroke-width:3.7448;stroke-linecap:round;stroke-linejoin:round;stroke-miterlimit:10;}
	.st56{fill:#F9D042;}
	.st57{fill:#D79B80;}
	.st58{fill:#E6DEA0;}
	.st59{fill:#E2A99A;}
	.st60{fill:#61BED4;}
	.st61{fill:#F7E99C;}
	.st62{fill:#DDDCE5;}
	.st63{fill:#EECE66;}
	.st64{fill:#E8DB5F;}
	.st65{fill:#DE959B;}
	.st66{fill:#33BEF2;}
	.st67{font-family:'Futura-Medium';}
	.st68{font-size:24.6402px;}
	.st69{fill:#F1F2F2;stroke:#000000;stroke-width:3;stroke-linecap:round;stroke-linejoin:round;stroke-miterlimit:10;}
	.st70{fill:#FFCC3A;stroke:#231F20;stroke-width:3;stroke-linecap:round;stroke-linejoin:round;stroke-miterlimit:10;}
	.st71{fill:#66A488;stroke:#000000;stroke-width:3;stroke-linecap:round;stroke-linejoin:round;stroke-miterlimit:10;}
	.st72{fill:#5B9CBC;stroke:#000000;stroke-width:2.7298;stroke-linecap:round;stroke-linejoin:round;stroke-miterlimit:10;}
	.st73{fill:#EA4B4B;}
	.st74{fill:#F2618B;stroke:#000000;stroke-width:3;stroke-linecap:round;stroke-linejoin:round;stroke-miterlimit:10;}
	.st75{fill:#F2618B;stroke:#000000;stroke-width:2.8253;stroke-linecap:round;stroke-linejoin:round;stroke-miterlimit:10;}
	.st76{fill:#66A488;stroke:#010101;stroke-width:3;stroke-miterlimit:10;}
	.st77{fill:#EDBB91;stroke:#000000;stroke-width:4.1741;stroke-linecap:round;stroke-linejoin:round;stroke-miterlimit:10;}
	.st78{fill:#EDC620;stroke:#000000;stroke-width:3;stroke-linecap:round;stroke-linejoin:round;stroke-miterlimit:10;}
	.st79{fill:#606060;stroke:#000000;stroke-width:3;stroke-linecap:round;stroke-linejoin:round;stroke-miterlimit:10;}
	.st80{fill:#FFEC8D;stroke:#000000;stroke-width:3;stroke-miterlimit:10;}
	.st81{fill:none;stroke:#FFFFFF;stroke-width:3;stroke-linecap:round;stroke-linejoin:round;stroke-miterlimit:10;}
	.st82{fill:none;stroke:#000000;stroke-width:3.182;stroke-linecap:round;stroke-linejoin:round;stroke-miterlimit:10;}
	.st83{fill:#60605F;stroke:#000000;stroke-width:3;stroke-linecap:round;stroke-linejoin:round;stroke-miterlimit:10;}
	.st84{fill:#EACB49;stroke:#000000;stroke-width:3;stroke-linecap:round;stroke-linejoin:round;stroke-miterlimit:10;}
	.st85{fill:#5AB75A;stroke:#000000;stroke-width:3;stroke-linecap:round;stroke-linejoin:round;stroke-miterlimit:10;}
	.st86{fill:#A57E50;stroke:#000000;stroke-width:3;stroke-linecap:round;stroke-linejoin:round;stroke-miterlimit:10;}
	.st87{fill:#91C3CC;}
	.st88{fill:#FC90A2;}
	.st89{fill:#FB6B83;}
	.st90{fill:#6D9299;}
	.st91{fill:#FCD566;stroke:#010101;stroke-width:3;stroke-linecap:round;stroke-linejoin:round;stroke-miterlimit:10;}
	.st92{fill:#977D33;stroke:#010101;stroke-width:3;stroke-linecap:round;stroke-linejoin:round;stroke-miterlimit:10;}
	.st93{fill:#655833;stroke:#010101;stroke-width:3;stroke-linecap:round;stroke-linejoin:round;stroke-miterlimit:10;}
	.st94{fill:#533F28;stroke:#000000;stroke-width:3;stroke-linecap:round;stroke-linejoin:round;stroke-miterlimit:10;}
	.st95{fill:#F18067;stroke:#231F20;stroke-width:3;stroke-miterlimit:10;}
	.st96{fill:#FFF0A4;stroke:#000000;stroke-width:3;stroke-miterlimit:10;}
	.st97{fill:#648959;stroke:#000000;stroke-width:3;stroke-linecap:round;stroke-linejoin:round;stroke-miterlimit:10;}
	.st98{fill:#FBB8B4;}
	.st99{fill:#9BD1BC;}
	.st100{opacity:0.3;}
	.st101{opacity:0.5;fill:#3C2415;}
	.st102{fill:#BD9779;stroke:#010101;stroke-width:3;stroke-miterlimit:10;}
	.st103{fill:#915120;stroke:#010101;stroke-width:3;stroke-miterlimit:10;}
	.st104{fill:none;stroke:#010101;stroke-width:3;stroke-miterlimit:10;}
	.st105{fill:#F4777C;stroke:#010101;stroke-width:3;stroke-miterlimit:10;}
	.st106{fill:#DBDBDB;stroke:#010101;stroke-width:3;stroke-miterlimit:10;}
	.st107{fill:#335D49;stroke:#010101;stroke-width:3;stroke-miterlimit:10;}
	.st108{fill:#F4777C;stroke:#010101;stroke-width:3;stroke-linecap:round;stroke-linejoin:round;stroke-miterlimit:10;}
	.st109{fill:#66A488;stroke:#010101;stroke-width:3;stroke-linecap:round;stroke-linejoin:round;stroke-miterlimit:10;}
	.st110{fill:#DBDBDB;stroke:#010101;stroke-width:3;stroke-linecap:round;stroke-linejoin:round;stroke-miterlimit:10;}
	.st111{fill:#A7744D;stroke:#010101;stroke-width:3;stroke-linecap:round;stroke-linejoin:round;stroke-miterlimit:10;}
	.st112{fill:#8DC63F;stroke:#010101;stroke-width:3;stroke-linecap:round;stroke-linejoin:round;stroke-miterlimit:10;}
	.st113{fill:none;stroke:#010101;stroke-width:3;stroke-linecap:round;stroke-linejoin:round;stroke-miterlimit:10;}
	.st114{fill:#67BCD9;}
	.st115{fill:#CEC746;stroke:#231F20;stroke-width:3;stroke-miterlimit:10;}
	.st116{fill:#F69E66;stroke:#231F20;stroke-width:3;stroke-miterlimit:10;}
	.st117{fill:#F7815C;stroke:#231F20;stroke-width:3;stroke-miterlimit:10;}
	.st118{fill:#A89F5A;stroke:#231F20;stroke-width:3;stroke-miterlimit:10;}
	.st119{fill:#F29393;stroke:#231F20;stroke-width:3;stroke-miterlimit:10;}
	.st120{fill:#A3E2F9;stroke:#231F20;stroke-width:3;stroke-miterlimit:10;}
	.st121{opacity:0.5;}
	.st122{fill:#593E2C;stroke:#000000;stroke-width:3;stroke-miterlimit:10;}
	.st123{fill:#593E2C;stroke:#000000;stroke-width:2.8651;stroke-miterlimit:10;}
	.st124{fill:#E74736;stroke:#000000;stroke-width:3;stroke-linecap:round;stroke-linejoin:round;stroke-miterlimit:10;}
	.st125{fill:#F9E467;stroke:#000000;stroke-width:3;stroke-linecap:round;stroke-linejoin:round;stroke-miterlimit:10;}
	.st126{fill:#D68630;stroke:#000000;stroke-width:3;stroke-linecap:round;stroke-linejoin:round;stroke-miterlimit:10;}
	.st127{fill:#C95138;stroke:#231F20;stroke-width:3;stroke-linecap:round;stroke-linejoin:round;stroke-miterlimit:10;}
	.st128{fill:#231F20;}
	.st129{stroke:#000000;stroke-width:2.3082;stroke-linecap:round;stroke-linejoin:round;stroke-miterlimit:10;}
	.st130{fill:#E58156;stroke:#231F20;stroke-width:3;stroke-miterlimit:10;}
	.st131{fill:#FBA42D;stroke:#231F20;stroke-width:3;stroke-miterlimit:10;}
	.st132{fill:#BC7B22;stroke:#231F20;stroke-width:3;stroke-miterlimit:10;}
	.st133{stroke:#000000;stroke-width:2.3954;stroke-linecap:round;stroke-linejoin:round;stroke-miterlimit:10;}
	.st134{stroke:#000000;stroke-width:3.0772;stroke-linecap:round;stroke-linejoin:round;stroke-miterlimit:10;}
	.st135{fill:#842A2A;stroke:#000000;stroke-width:3;stroke-linecap:round;stroke-linejoin:round;stroke-miterlimit:10;}
	.st136{fill:#5B9CBC;stroke:#000000;stroke-width:2.495;stroke-linecap:round;stroke-linejoin:round;stroke-miterlimit:10;}
	.st137{fill:#FFE7B3;stroke:#231F20;stroke-width:3;stroke-linecap:round;stroke-linejoin:round;stroke-miterlimit:10;}
	.st138{fill:#2291AA;stroke:#231F20;stroke-width:3;stroke-linecap:round;stroke-linejoin:round;stroke-miterlimit:10;}
	.st139{fill:#2291AA;stroke:#231F20;stroke-width:3;stroke-miterlimit:10;}
	.st140{stroke:#000000;stroke-width:3;stroke-linecap:round;stroke-linejoin:round;stroke-miterlimit:10;}
	.st141{fill:#FFFFFF;stroke:#010101;stroke-width:3;stroke-linecap:round;stroke-linejoin:round;stroke-miterlimit:10;}
	.st142{fill:none;stroke:#231F20;stroke-width:3;stroke-linecap:round;stroke-linejoin:round;stroke-miterlimit:10;}
	.st143{fill:#FFFFFF;stroke:#231F20;stroke-width:3;stroke-linecap:round;stroke-linejoin:round;stroke-miterlimit:10;}
	.st144{fill:#E7C706;stroke:#000000;stroke-width:3;stroke-linecap:round;stroke-linejoin:round;}
	.st145{fill:none;stroke:#000000;stroke-width:3;stroke-linecap:round;stroke-linejoin:round;}
	.st146{fill:#333333;stroke:#000000;stroke-width:3;stroke-linecap:round;stroke-linejoin:round;}
	.st147{fill:#935328;stroke:#000000;stroke-width:3;stroke-linecap:round;stroke-linejoin:round;}
	.st148{fill:#593E2C;stroke:#000000;stroke-width:2.9408;stroke-miterlimit:10;}
	.st149{fill:#E5AF38;stroke:#000000;stroke-width:3.0793;stroke-linecap:round;stroke-linejoin:round;stroke-miterlimit:10;}
	.st150{fill:#0DA028;stroke:#020100;stroke-width:3;stroke-miterlimit:10;}
	.st151{fill:#0DA028;stroke:#000000;stroke-width:3;stroke-miterlimit:10;}
	.st152{fill:#AD313A;}
	.st153{fill:#AEDAFF;stroke:#000000;stroke-width:2.9408;stroke-miterlimit:10;}
	.st154{fill:#52768E;stroke:#000000;stroke-width:2.9408;stroke-miterlimit:10;}
	.st155{fill:#FBFB67;stroke:#000000;stroke-width:3;stroke-miterlimit:10;}
	.st156{fill:#6EC67E;stroke:#020100;stroke-width:3;stroke-miterlimit:10;}
	.st157{fill:#6EC67E;stroke:#000000;stroke-width:3;stroke-miterlimit:10;}
	.st158{fill:#F9E467;stroke:#000000;stroke-width:3.0817;stroke-linecap:round;stroke-linejoin:round;stroke-miterlimit:10;}
	.st159{fill:#69C8F7;stroke:#000000;stroke-width:3.0742;stroke-linecap:round;stroke-linejoin:round;stroke-miterlimit:10;}
	.st160{fill:#69C8F7;}
	.st161{fill:#69C8F7;stroke:#000000;stroke-width:3.0817;stroke-linecap:round;stroke-linejoin:round;stroke-miterlimit:10;}
	.st162{fill:#EA4B4B;stroke:#000000;stroke-width:2.7219;stroke-linecap:round;stroke-linejoin:round;stroke-miterlimit:10;}
	.st163{fill:#F9E467;}
	.st164{fill:#F16788;stroke:#000000;stroke-width:3;stroke-linecap:round;stroke-linejoin:round;stroke-miterlimit:10;}
	.st165{fill:#448944;}
	.st166{fill:#E74736;}
	.st167{fill:#EFCF88;stroke:#000000;stroke-width:3;stroke-linecap:round;stroke-linejoin:round;stroke-miterlimit:10;}
	.st168{fill:#EC6C5E;stroke:#000000;stroke-width:3;stroke-linecap:round;stroke-linejoin:round;stroke-miterlimit:10;}
	.st169{fill:none;stroke:#9AA6A6;stroke-width:3;stroke-linecap:round;stroke-linejoin:round;stroke-miterlimit:10;}
	.st170{fill:#564E3B;stroke:#010101;stroke-width:3;stroke-miterlimit:10;}
	.st171{fill:#FDC881;}
	.st172{fill:#E5AF38;stroke:#000000;stroke-width:3;stroke-miterlimit:10;}
	.st173{fill:none;stroke:#FF0049;stroke-width:3;stroke-linecap:round;stroke-linejoin:round;stroke-miterlimit:10;}
	.st174{fill:#C95138;stroke:#000000;stroke-width:3;stroke-linecap:round;stroke-linejoin:round;stroke-miterlimit:10;}
	.st175{fill:#BC7B22;stroke:#000000;stroke-width:3;stroke-linecap:round;stroke-linejoin:round;stroke-miterlimit:10;}
	.st176{fill:#FFCC3A;stroke:#000000;stroke-width:3;stroke-linecap:round;stroke-linejoin:round;stroke-miterlimit:10;}
	.st177{fill:#61C16A;stroke:#000000;stroke-width:2.8413;stroke-linecap:round;stroke-linejoin:round;stroke-miterlimit:10;}
	.st178{fill:#ED416A;stroke:#000000;stroke-width:3;stroke-linecap:round;stroke-linejoin:round;stroke-miterlimit:10;}
	.st179{opacity:0.25;}
	.st180{fill:#3C2415;}
	.st181{fill:#BBDD8C;stroke:#000000;stroke-width:3;stroke-miterlimit:10;}
	.st182{fill:#8CA669;}
	.st183{fill:none;stroke:#000000;stroke-width:5;stroke-linecap:round;stroke-linejoin:round;stroke-miterlimit:10;}
	.st184{fill:#775E49;stroke:#000000;stroke-width:3.0146;stroke-linecap:round;stroke-linejoin:round;stroke-miterlimit:10;}
	.st185{fill:#604B3C;stroke:#000000;stroke-width:2.5808;stroke-linecap:round;stroke-linejoin:round;stroke-miterlimit:10;}
	.st186{fill:none;stroke:#AED6D6;stroke-width:0.8108;stroke-miterlimit:10;}
	.st187{fill:none;stroke:#AED6D6;stroke-width:1.7979;stroke-miterlimit:10;}
	.st188{fill:none;stroke:#AED6D6;stroke-width:0.7832;stroke-miterlimit:10;}
	.st189{fill:none;stroke:#AED6D6;stroke-width:0.7585;stroke-miterlimit:10;}
	.st190{fill:none;stroke:#AED6D6;stroke-width:2.6852;stroke-miterlimit:10;}
	.st191{fill:none;stroke:#AED6D6;stroke-width:5.5987;stroke-miterlimit:10;}
	.st192{fill:none;stroke:#AED6D6;stroke-width:10;stroke-linecap:round;stroke-linejoin:round;stroke-miterlimit:10;}
	.st193{fill:#BC7B22;stroke:#231F20;stroke-width:3;stroke-linecap:round;stroke-linejoin:round;stroke-miterlimit:10;}
	.st194{fill:#EA4B4B;stroke:#000000;stroke-width:2.6625;stroke-linecap:round;stroke-linejoin:round;stroke-miterlimit:10;}
	.st195{fill:#BC7B22;stroke:#000000;stroke-width:2.6625;stroke-miterlimit:10;}
	.st196{fill:#FBA42D;stroke:#000000;stroke-width:2.6625;stroke-miterlimit:10;}
	.st197{fill:#FBA42D;stroke:#000000;stroke-width:2.6625;stroke-linecap:round;stroke-linejoin:round;stroke-miterlimit:10;}
	.st198{fill:#BC7B22;stroke:#000000;stroke-width:2.6625;stroke-linecap:round;stroke-linejoin:round;stroke-miterlimit:10;}
	.st199{fill:#23ACAB;stroke:#000000;stroke-width:3.1363;stroke-miterlimit:10;}
	.st200{fill:#90E05C;stroke:#000000;stroke-width:2.6625;stroke-miterlimit:10;}
	.st201{fill:#FBA42D;stroke:#000000;stroke-width:3;stroke-miterlimit:10;}
	.st202{fill:#23ACAB;stroke:#000000;stroke-width:3;stroke-miterlimit:10;}
	.st203{fill:none;stroke:#00FF0C;stroke-width:0.7413;stroke-miterlimit:10;}
	.st204{fill:#593E2C;stroke:#000000;stroke-width:2.9408;stroke-linecap:round;stroke-linejoin:round;stroke-miterlimit:10;}
	.st205{fill:#BD9779;stroke:#010101;stroke-width:3;stroke-linecap:round;stroke-linejoin:round;stroke-miterlimit:10;}
	.st206{fill:#FF6D00;}
	.st207{opacity:0.41;fill:#61BEBF;}
	.st208{opacity:0.5;fill:none;stroke:#2E1B8C;stroke-width:3;stroke-miterlimit:10;}
	.st209{fill:#F9E467;stroke:#000000;stroke-width:2.6479;stroke-linecap:round;stroke-linejoin:round;stroke-miterlimit:10;}
	.st210{fill:none;stroke:#000000;stroke-width:2.6479;stroke-linecap:round;stroke-linejoin:round;stroke-miterlimit:10;}
	.st211{fill:#F9E3B7;stroke:#231F20;stroke-width:3;stroke-linecap:round;stroke-linejoin:round;stroke-miterlimit:10;}
	.st212{fill:#FFF1D1;stroke:#231F20;stroke-width:3;stroke-linecap:round;stroke-linejoin:round;stroke-miterlimit:10;}
	.st213{fill:#F7EFA2;stroke:#231F20;stroke-width:3;stroke-miterlimit:10;}
	.st214{fill:#E58156;stroke:#231F20;stroke-width:3;stroke-linecap:round;stroke-linejoin:round;stroke-miterlimit:10;}
	.st215{fill:#F9E467;stroke:#000000;stroke-width:0.764;stroke-linecap:round;stroke-linejoin:round;stroke-miterlimit:10;}
	.st216{fill:#604B3C;stroke:#000000;stroke-width:1.1908;stroke-linecap:round;stroke-linejoin:round;stroke-miterlimit:10;}
	.st217{fill:#868786;stroke:#000000;stroke-width:3;stroke-linecap:round;stroke-linejoin:round;stroke-miterlimit:10;}
	.st218{fill:#775E49;stroke:#000000;stroke-width:2.5898;stroke-linecap:round;stroke-linejoin:round;stroke-miterlimit:10;}
	.st219{fill:#61C16A;stroke:#000000;stroke-width:3;stroke-miterlimit:10;}
	.st220{fill:#CA5535;stroke:#010101;stroke-width:3;stroke-miterlimit:10;}
	.st221{fill:#775E49;stroke:#010101;stroke-width:2.7722;stroke-miterlimit:10;}
	.st222{fill:#61C16A;stroke:#000000;stroke-width:3.0329;stroke-linecap:round;stroke-linejoin:round;stroke-miterlimit:10;}
	.st223{fill:none;stroke:#000000;stroke-width:3.0329;stroke-linecap:round;stroke-linejoin:round;stroke-miterlimit:10;}
</style>
<g>
	<rect x="0" y="0" class="st48" width="240" height="360"/>
	<g>
		<g>
			<polygon class="st49" points="7.09,250.71 3.53,91.74 17.48,220.25 14.75,121.16 24.87,210.75 26.51,58.64 29.79,199.44 
				34.17,125.67 47.85,241.87 42.38,113.81 53.05,199.44 59.34,52.91 62.08,199.71 66.18,115.62 69.46,233.26 78.76,94.05 
				80.68,241.87 90.25,79.58 95.73,250.71 			"/>
			<polygon class="st49" points="84.42,250.71 80.86,91.74 94.81,220.25 92.08,121.16 102.2,210.75 103.84,58.64 107.12,199.44 
				111.5,125.67 125.18,241.87 119.71,113.81 130.38,199.44 136.67,52.91 139.41,199.71 143.51,115.62 146.79,233.26 156.09,94.05 
				158.01,241.87 167.58,79.58 173.06,250.71 			"/>
			<polygon class="st49" points="151.04,250.71 147.48,91.74 161.43,220.25 158.7,121.16 168.82,210.75 170.46,58.64 173.74,199.44 
				178.12,125.67 191.8,241.87 186.33,113.81 197,199.44 203.29,52.91 206.03,199.71 210.13,115.62 213.41,233.26 222.71,94.05 
				224.63,241.87 234.2,79.58 239.68,250.71 			"/>
			<path class="st50" d="M223.09,237.63c-2.66,3.4-9.32,5.82-17.15,5.82c-7.83,0-14.5-2.42-17.15-5.82
				c-2.66,3.4-9.32,5.82-17.15,5.82c-7.83,0-14.5-2.42-17.15-5.82c-2.66,3.4-9.32,5.82-17.15,5.82c-7.83,0-14.5-2.42-17.15-5.82
				c-2.66,3.4-9.32,5.82-17.15,5.82c-7.83,0-14.5-2.42-17.15-5.82c-2.66,3.4-9.32,5.82-17.15,5.82c-7.83,0-14.5-2.42-17.15-5.82
				c-2.66,3.4-9.32,5.82-17.15,5.82c-7.83,0-14.5-2.42-17.15-5.82c-2.66,3.4-9.32,5.82-17.15,5.82V360h240.14V243.45
				C232.41,243.45,225.74,241.03,223.09,237.63z"/>
			<path class="st5" d="M0.09,243.63c7.83,0,14.5-2.42,17.15-5.82c2.66,3.4,9.32,5.82,17.15,5.82s14.5-2.42,17.15-5.82
				c2.66,3.4,9.32,5.82,17.15,5.82s14.5-2.42,17.15-5.82c2.66,3.4,9.32,5.82,17.15,5.82s14.5-2.42,17.15-5.82
				c2.66,3.4,9.32,5.82,17.15,5.82c7.83,0,14.5-2.42,17.15-5.82c2.66,3.4,9.32,5.82,17.15,5.82s14.5-2.42,17.15-5.82
				c2.66,3.4,9.32,5.82,17.15,5.82c7.83,0,14.5-2.42,17.15-5.82c2.66,3.4,9.32,5.82,17.15,5.82"/>
			<path class="st20" d="M144,39.47c-1.07,0-2.13,0.06-3.18,0.15l0-0.01l-0.15,0.02c-0.9,0.08-1.79,0.2-2.66,0.35l-50.58,6.56
				c-10.8,0-19.56,8.76-19.56,19.56c0,7.87,4.66,14.63,11.36,17.74l0,0.02l46.27,22.69l0,0c5.41,3.24,11.74,5.11,18.51,5.11
				c19.93,0,36.09-16.16,36.09-36.09C180.09,55.63,163.93,39.47,144,39.47z"/>
			<path class="st20" d="M153.62,106.41c0.29,6.35,1.06,19.74-5.31,20.17c-5.04,0.35-10.37-1.12-13.24-23"/>
			<path class="st20" d="M164.08,105.48c0.29,6.35,1.06,19.74-5.31,20.17c-5.04,0.35-10.37-1.12-13.24-23"/>
			<path class="st20" d="M159.08,108.32c14,1.71,48,12.53,54,15.62c6,3.09,15-7.81,15-7.81l-51.33-48.76"/>
			<path class="st20" d="M108,69.84c6.33,7.33,58.33,40.7,98.67,32.35c0.33,0.98,7.67-4.68,0-9.68c-7.67-5-33.98-40.11-38.21-43.47"
				/>
			<g>
				<polygon class="st51" points="75.16,211.78 59.41,301.2 62.88,225.61 49.63,303.31 55.48,207.3 				"/>
				<g>
					<path class="st52" d="M65.62,265.32c0,0-10.88,7.56-15.06,7.56S43,269.5,43,265.32c0-4.17,3.38-7.56,7.56-7.56
						S65.62,265.32,65.62,265.32z"/>
					<path class="st52" d="M66.73,258.54c3.19-2.6,8.28-1.98,8.28-1.98s1.73,3.36-1.43,5.95c-3.54,2.88-8.58,2.22-8.58,2.22
						S63.17,261.45,66.73,258.54z"/>
					<path class="st52" d="M72.83,268.12c2.38,2.98-0.3,6.02-0.3,6.02s-5.18-0.1-7.55-3.06c-2.64-3.31,0.08-6.31,0.08-6.31
						S70.18,264.79,72.83,268.12z"/>
				</g>
				<polyline class="st51" points="62.88,225.61 49.63,303.31 55.48,207.3 				"/>
				<path class="st53" d="M71.93,125.38c-1.17-3.17-2.38-6.45-3.63-9.96c-6.07-17.11,2.61-31.53,10.97-40.61
					c1.87-2.03,1.74-5.2-0.29-7.06c-2.03-1.87-5.2-1.74-7.07,0.29c-14.44,15.7-19.07,33.71-13.03,50.73
					c1.27,3.57,2.49,6.88,3.67,10.08c5.41,14.66,9.32,25.25,8.08,35.65c-0.98,8.2-4.35,21.06-6.84,29.86
					c-6.15,0.94-10.87,6.24-10.87,12.66c0,7.08,5.74,12.82,12.82,12.82s12.82-5.74,12.82-12.82c0-4.17-2-7.86-5.08-10.2
					c2.57-9.09,6.02-22.31,7.07-31.13C82.08,152.89,77.6,140.75,71.93,125.38z"/>
				<circle class="st20" cx="65.83" cy="206.76" r="5.94"/>
				<circle cx="65.4" cy="208.76" r="3.52"/>
			</g>
			<path class="st54" d="M175.87,263.62l-19.91-10.86c-0.06-0.06-0.13-0.1-0.19-0.15l15.88-75.02c0.11-0.49,0.1-1.01-0.01-1.5
				l-11.67-51.42c-0.43-1.88-2.3-3.07-4.19-2.64c-1.88,0.43-3.07,2.3-2.64,4.19l11.5,50.68l-16.05,75.84l-27.31,6.39
				c-2.11,0.49-3.41,2.6-2.92,4.7c0.49,2.11,2.6,3.41,4.7,2.92l18.04-4.22l-13.83,12.29c-1.45,1.28-1.58,3.5-0.29,4.94
				c1.28,1.45,3.5,1.58,4.94,0.29l19.17-17.03l6.02,25.22c0.42,1.75,2.09,2.88,3.84,2.66c0.12-0.02,0.25-0.04,0.38-0.07
				c1.88-0.45,3.04-2.34,2.59-4.22l-5.65-23.66l13.76,7.51c1.89,1.06,4.27,0.39,5.33-1.49
				C178.42,267.07,177.75,264.68,175.87,263.62z"/>
			<path class="st54" d="M164.49,270.99l-19.06-10.4l9.6-73.61c0.03-0.24,0.04-0.49,0.02-0.74l-5-61.09
				c-0.16-1.93-1.86-3.36-3.77-3.2c-1.93,0.16-3.36,1.85-3.2,3.77l4.97,60.72l-9.57,73.35l-28.57,6.68c-2.11,0.49-3.41,2.6-2.92,4.7
				c0.49,2.11,2.6,3.41,4.7,2.92l18.04-4.22l-13.83,12.29c-1.45,1.28-1.58,3.5-0.29,4.94c1.28,1.45,3.5,1.58,4.94,0.29l19.17-17.03
				l6.02,25.22c0.42,1.75,2.09,2.88,3.84,2.66c0.12-0.02,0.25-0.04,0.38-0.07c1.88-0.45,3.04-2.34,2.59-4.22l-5.65-23.66l13.76,7.51
				c1.89,1.06,4.27,0.39,5.33-1.49v0C167.04,274.43,166.37,272.05,164.49,270.99z"/>
		</g>
		<path class="st5" d="M92.02,256c7.83,0,14.5-1.5,17.15-3.62c2.66,2.11,9.32,3.62,17.15,3.62s14.5-1.5,17.15-3.62
			c2.66,2.11,9.32,3.62,17.15,3.62c7.83,0,14.5-1.5,17.15-3.62c2.66,2.11,9.32,3.62,17.15,3.62"/>
		<path class="st5" d="M4.8,297.37c7.83,0,14.5-1.5,17.15-3.62c2.66,2.11,9.32,3.62,17.15,3.62s14.5-1.5,17.15-3.62
			c2.66,2.11,9.32,3.62,17.15,3.62s14.5-1.5,17.15-3.62c2.66,2.11,9.32,3.62,17.15,3.62"/>
		<path class="st55" d="M175.87,263.62l-14-7.64c-0.41,0.01-0.82,0.01-1.23,0.01c-6.38,0-11.99-1-15.29-2.51l-24.06,5.63
			c-2.11,0.49-3.41,2.6-2.92,4.7c0.49,2.11,2.6,3.41,4.7,2.92l18.04-4.22l-13.83,12.29c-1.45,1.28-1.58,3.5-0.29,4.94
			c1.28,1.45,3.5,1.58,4.94,0.29l19.17-17.03l6.02,25.22c0.42,1.75,2.09,2.88,3.84,2.66c0.12-0.02,0.25-0.04,0.38-0.07
			c1.88-0.45,3.04-2.34,2.59-4.22l-5.65-23.66l13.76,7.51c1.89,1.06,4.27,0.39,5.33-1.49C178.42,267.07,177.75,264.68,175.87,263.62
			z"/>
		<path class="st55" d="M111.69,274.1l18.04-4.22l-13.83,12.29c-1.45,1.28-1.58,3.5-0.29,4.94c1.28,1.45,3.5,1.58,4.94,0.29
			l19.17-17.03l6.02,25.22c0.42,1.75,2.09,2.88,3.84,2.66c0.12-0.02,0.25-0.04,0.38-0.07c1.88-0.45,3.04-2.34,2.59-4.22l-5.65-23.66
			l13.76,7.51c1.89,1.06,4.27,0.39,5.33-1.49v0c1.06-1.89,0.39-4.27-1.49-5.33l-19.06-10.4l0.87-6.7c-1.18-0.45-2.14-0.96-2.83-1.5
			c-0.96,0.76-2.44,1.44-4.3,2l-0.71,5.41l-28.57,6.68c-2.11,0.49-3.41,2.6-2.92,4.7C107.47,273.29,109.58,274.59,111.69,274.1z"/>
	</g>
</g>
<g>
	<text transform="matrix(1 0 0 1 58.0009 343.9155)" class="st67 st68">LA GARZA</text>
</g>
<text transform="matrix(1 0 0 1 12.3221 28.4911)" class="st67 st68">19</text>
</svg>
