<?xml version="1.0" encoding="utf-8"?>
<!-- Generator: Adobe Illustrator 24.0.0, SVG Export Plug-In . SVG Version: 6.00 Build 0)  -->
<svg version="1.1" id="Layer_1" xmlns="http://www.w3.org/2000/svg" xmlns:xlink="http://www.w3.org/1999/xlink" x="0px" y="0px"
	 viewBox="0 0 240 360" style="enable-background:new 0 0 240 360;" xml:space="preserve">
<style type="text/css">
	.st0{fill:#AED6D6;}
	.st1{fill:#D3A8B9;}
	.st2{fill:#66CEF5;}
	.st3{fill:#8EDCF4;}
	.st4{fill:#61BEBF;}
	.st5{fill:none;stroke:#000000;stroke-width:3;stroke-linecap:round;stroke-linejoin:round;stroke-miterlimit:10;}
	.st6{fill:#A4D165;}
	.st7{opacity:0.25;fill:#3C2415;}
	.st8{fill:#8DC63F;stroke:#010101;stroke-width:10.905;stroke-linecap:round;stroke-linejoin:round;stroke-miterlimit:10;}
	.st9{fill:#A7744D;stroke:#010101;stroke-width:9.1692;stroke-linecap:round;stroke-linejoin:round;stroke-miterlimit:10;}
	.st10{fill:#0DA028;}
	.st11{fill:#61C16A;}
	.st12{fill:#A3E2F9;}
	.st13{fill:#5AB75A;}
	.st14{fill:none;stroke:#000000;stroke-width:3.0664;stroke-linecap:round;stroke-linejoin:round;stroke-miterlimit:10;}
	.st15{fill:#98DBED;}
	.st16{fill:#9C9BBD;}
	.st17{fill:#FFFFFF;}
	.st18{fill:#EDECFC;stroke:#231F20;stroke-width:3;stroke-miterlimit:10;}
	.st19{fill:none;stroke:#231F20;stroke-width:3;stroke-miterlimit:10;}
	.st20{fill:#FFFFFF;stroke:#000000;stroke-width:3;stroke-linecap:round;stroke-linejoin:round;stroke-miterlimit:10;}
	.st21{fill:#BC7B22;stroke:#000000;stroke-width:3;stroke-miterlimit:10;}
	.st22{fill:#E5AF38;stroke:#000000;stroke-width:3;stroke-linecap:round;stroke-linejoin:round;stroke-miterlimit:10;}
	.st23{fill:none;stroke:#000000;stroke-width:3;stroke-miterlimit:10;}
	.st24{fill:#927E6D;stroke:#000000;stroke-width:3;stroke-linecap:round;stroke-linejoin:round;stroke-miterlimit:10;}
	.st25{fill:#F7D970;}
	.st26{fill:none;}
	.st27{fill:#3F3F3F;stroke:#000000;stroke-width:3;stroke-linecap:round;stroke-linejoin:round;stroke-miterlimit:10;}
	.st28{fill:#775E49;stroke:#000000;stroke-width:3;stroke-linecap:round;stroke-linejoin:round;stroke-miterlimit:10;}
	.st29{fill:#EDBB91;stroke:#000000;stroke-width:3;stroke-linecap:round;stroke-linejoin:round;stroke-miterlimit:10;}
	.st30{fill:#B03838;stroke:#000000;stroke-width:3;stroke-linecap:round;stroke-linejoin:round;stroke-miterlimit:10;}
	.st31{fill:#739144;stroke:#010101;stroke-width:3;stroke-linecap:round;stroke-linejoin:round;stroke-miterlimit:10;}
	.st32{stroke:#000000;stroke-width:2.5622;stroke-linecap:round;stroke-linejoin:round;stroke-miterlimit:10;}
	.st33{stroke:#000000;stroke-width:2.4972;stroke-linecap:round;stroke-linejoin:round;stroke-miterlimit:10;}
	.st34{stroke:#000000;stroke-width:3.4363;stroke-linecap:round;stroke-linejoin:round;stroke-miterlimit:10;}
	.st35{stroke:#000000;stroke-width:2.0766;stroke-linecap:round;stroke-linejoin:round;stroke-miterlimit:10;}
	.st36{fill:#BB502C;stroke:#000000;stroke-width:3;stroke-linecap:round;stroke-linejoin:round;}
	.st37{fill:#B03838;}
	.st38{fill:#EA4B4B;stroke:#000000;stroke-width:3;stroke-linecap:round;stroke-linejoin:round;stroke-miterlimit:10;}
	.st39{fill:#FADD6B;}
	.st40{fill:#7DA5A5;}
	.st41{fill:#EE6F6F;stroke:#000000;stroke-width:3;stroke-linecap:round;stroke-linejoin:round;stroke-miterlimit:10;}
	.st42{fill:#EDBB91;stroke:#000000;stroke-width:3.1272;stroke-linecap:round;stroke-linejoin:round;stroke-miterlimit:10;}
	.st43{fill:#E5EDED;stroke:#010101;stroke-width:3;stroke-linecap:round;stroke-linejoin:round;stroke-miterlimit:10;}
	.st44{fill:#AEDAFF;stroke:#000000;stroke-width:3;stroke-miterlimit:10;}
	.st45{fill:#FFFFFF;stroke:#000000;stroke-width:3;stroke-miterlimit:10;}
	.st46{fill:#FBFB67;stroke:#000000;stroke-width:3;stroke-linecap:round;stroke-linejoin:round;stroke-miterlimit:10;}
	.st47{fill:none;stroke:#000000;stroke-width:2.8924;stroke-linecap:round;stroke-linejoin:round;stroke-miterlimit:10;}
	.st48{fill:#85D8F7;}
	.st49{fill:#66A488;}
	.st50{fill:#A4CAF8;}
	.st51{fill:#E2D881;stroke:#000000;stroke-width:3;stroke-linecap:round;stroke-linejoin:round;stroke-miterlimit:10;}
	.st52{fill:#61C16A;stroke:#000000;stroke-width:3;stroke-linecap:round;stroke-linejoin:round;stroke-miterlimit:10;}
	.st53{fill:#F2618B;stroke:#000000;stroke-width:2.8224;stroke-linecap:round;stroke-linejoin:round;stroke-miterlimit:10;}
	.st54{fill:#D68630;stroke:#000000;stroke-width:3.7448;stroke-linecap:round;stroke-linejoin:round;stroke-miterlimit:10;}
	.st55{fill:#EFCFAC;stroke:#000000;stroke-width:3.7448;stroke-linecap:round;stroke-linejoin:round;stroke-miterlimit:10;}
	.st56{fill:#F9D042;}
	.st57{fill:#D79B80;}
	.st58{fill:#E6DEA0;}
	.st59{fill:#E2A99A;}
	.st60{fill:#61BED4;}
	.st61{fill:#F7E99C;}
	.st62{fill:#DDDCE5;}
	.st63{fill:#EECE66;}
	.st64{fill:#E8DB5F;}
	.st65{fill:#DE959B;}
	.st66{fill:#33BEF2;}
	.st67{font-family:'Futura-Medium';}
	.st68{font-size:24.6402px;}
	.st69{fill:#F1F2F2;stroke:#000000;stroke-width:3;stroke-linecap:round;stroke-linejoin:round;stroke-miterlimit:10;}
	.st70{fill:#FFCC3A;stroke:#231F20;stroke-width:3;stroke-linecap:round;stroke-linejoin:round;stroke-miterlimit:10;}
	.st71{fill:#66A488;stroke:#000000;stroke-width:3;stroke-linecap:round;stroke-linejoin:round;stroke-miterlimit:10;}
	.st72{fill:#5B9CBC;stroke:#000000;stroke-width:2.7298;stroke-linecap:round;stroke-linejoin:round;stroke-miterlimit:10;}
	.st73{fill:#EA4B4B;}
	.st74{fill:#F2618B;stroke:#000000;stroke-width:3;stroke-linecap:round;stroke-linejoin:round;stroke-miterlimit:10;}
	.st75{fill:#F2618B;stroke:#000000;stroke-width:2.8253;stroke-linecap:round;stroke-linejoin:round;stroke-miterlimit:10;}
	.st76{fill:#66A488;stroke:#010101;stroke-width:3;stroke-miterlimit:10;}
	.st77{fill:#EDBB91;stroke:#000000;stroke-width:4.1741;stroke-linecap:round;stroke-linejoin:round;stroke-miterlimit:10;}
	.st78{fill:#EDC620;stroke:#000000;stroke-width:3;stroke-linecap:round;stroke-linejoin:round;stroke-miterlimit:10;}
	.st79{fill:#606060;stroke:#000000;stroke-width:3;stroke-linecap:round;stroke-linejoin:round;stroke-miterlimit:10;}
	.st80{fill:#FFEC8D;stroke:#000000;stroke-width:3;stroke-miterlimit:10;}
	.st81{fill:none;stroke:#FFFFFF;stroke-width:3;stroke-linecap:round;stroke-linejoin:round;stroke-miterlimit:10;}
	.st82{fill:none;stroke:#000000;stroke-width:3.182;stroke-linecap:round;stroke-linejoin:round;stroke-miterlimit:10;}
	.st83{fill:#60605F;stroke:#000000;stroke-width:3;stroke-linecap:round;stroke-linejoin:round;stroke-miterlimit:10;}
	.st84{fill:#EACB49;stroke:#000000;stroke-width:3;stroke-linecap:round;stroke-linejoin:round;stroke-miterlimit:10;}
	.st85{fill:#5AB75A;stroke:#000000;stroke-width:3;stroke-linecap:round;stroke-linejoin:round;stroke-miterlimit:10;}
	.st86{fill:#A57E50;stroke:#000000;stroke-width:3;stroke-linecap:round;stroke-linejoin:round;stroke-miterlimit:10;}
	.st87{fill:#91C3CC;}
	.st88{fill:#FC90A2;}
	.st89{fill:#FB6B83;}
	.st90{fill:#6D9299;}
	.st91{fill:#FCD566;stroke:#010101;stroke-width:3;stroke-linecap:round;stroke-linejoin:round;stroke-miterlimit:10;}
	.st92{fill:#977D33;stroke:#010101;stroke-width:3;stroke-linecap:round;stroke-linejoin:round;stroke-miterlimit:10;}
	.st93{fill:#655833;stroke:#010101;stroke-width:3;stroke-linecap:round;stroke-linejoin:round;stroke-miterlimit:10;}
	.st94{fill:#533F28;stroke:#000000;stroke-width:3;stroke-linecap:round;stroke-linejoin:round;stroke-miterlimit:10;}
	.st95{fill:#F18067;stroke:#231F20;stroke-width:3;stroke-miterlimit:10;}
	.st96{fill:#FFF0A4;stroke:#000000;stroke-width:3;stroke-miterlimit:10;}
	.st97{fill:#648959;stroke:#000000;stroke-width:3;stroke-linecap:round;stroke-linejoin:round;stroke-miterlimit:10;}
	.st98{fill:#FBB8B4;}
	.st99{fill:#9BD1BC;}
	.st100{opacity:0.3;}
	.st101{opacity:0.5;fill:#3C2415;}
	.st102{fill:#BD9779;stroke:#010101;stroke-width:3;stroke-miterlimit:10;}
	.st103{fill:#915120;stroke:#010101;stroke-width:3;stroke-miterlimit:10;}
	.st104{fill:none;stroke:#010101;stroke-width:3;stroke-miterlimit:10;}
	.st105{fill:#F4777C;stroke:#010101;stroke-width:3;stroke-miterlimit:10;}
	.st106{fill:#DBDBDB;stroke:#010101;stroke-width:3;stroke-miterlimit:10;}
	.st107{fill:#335D49;stroke:#010101;stroke-width:3;stroke-miterlimit:10;}
	.st108{fill:#F4777C;stroke:#010101;stroke-width:3;stroke-linecap:round;stroke-linejoin:round;stroke-miterlimit:10;}
	.st109{fill:#66A488;stroke:#010101;stroke-width:3;stroke-linecap:round;stroke-linejoin:round;stroke-miterlimit:10;}
	.st110{fill:#DBDBDB;stroke:#010101;stroke-width:3;stroke-linecap:round;stroke-linejoin:round;stroke-miterlimit:10;}
	.st111{fill:#A7744D;stroke:#010101;stroke-width:3;stroke-linecap:round;stroke-linejoin:round;stroke-miterlimit:10;}
	.st112{fill:#8DC63F;stroke:#010101;stroke-width:3;stroke-linecap:round;stroke-linejoin:round;stroke-miterlimit:10;}
	.st113{fill:none;stroke:#010101;stroke-width:3;stroke-linecap:round;stroke-linejoin:round;stroke-miterlimit:10;}
	.st114{fill:#67BCD9;}
	.st115{fill:#CEC746;stroke:#231F20;stroke-width:3;stroke-miterlimit:10;}
	.st116{fill:#F69E66;stroke:#231F20;stroke-width:3;stroke-miterlimit:10;}
	.st117{fill:#F7815C;stroke:#231F20;stroke-width:3;stroke-miterlimit:10;}
	.st118{fill:#A89F5A;stroke:#231F20;stroke-width:3;stroke-miterlimit:10;}
	.st119{fill:#F29393;stroke:#231F20;stroke-width:3;stroke-miterlimit:10;}
	.st120{fill:#A3E2F9;stroke:#231F20;stroke-width:3;stroke-miterlimit:10;}
	.st121{opacity:0.5;}
	.st122{fill:#593E2C;stroke:#000000;stroke-width:3;stroke-miterlimit:10;}
	.st123{fill:#593E2C;stroke:#000000;stroke-width:2.8651;stroke-miterlimit:10;}
	.st124{fill:#E74736;stroke:#000000;stroke-width:3;stroke-linecap:round;stroke-linejoin:round;stroke-miterlimit:10;}
	.st125{fill:#F9E467;stroke:#000000;stroke-width:3;stroke-linecap:round;stroke-linejoin:round;stroke-miterlimit:10;}
	.st126{fill:#D68630;stroke:#000000;stroke-width:3;stroke-linecap:round;stroke-linejoin:round;stroke-miterlimit:10;}
	.st127{fill:#C95138;stroke:#231F20;stroke-width:3;stroke-linecap:round;stroke-linejoin:round;stroke-miterlimit:10;}
	.st128{fill:#231F20;}
	.st129{stroke:#000000;stroke-width:2.3082;stroke-linecap:round;stroke-linejoin:round;stroke-miterlimit:10;}
	.st130{fill:#E58156;stroke:#231F20;stroke-width:3;stroke-miterlimit:10;}
	.st131{fill:#FBA42D;stroke:#231F20;stroke-width:3;stroke-miterlimit:10;}
	.st132{fill:#BC7B22;stroke:#231F20;stroke-width:3;stroke-miterlimit:10;}
	.st133{stroke:#000000;stroke-width:2.3954;stroke-linecap:round;stroke-linejoin:round;stroke-miterlimit:10;}
	.st134{stroke:#000000;stroke-width:3.0772;stroke-linecap:round;stroke-linejoin:round;stroke-miterlimit:10;}
	.st135{fill:#842A2A;stroke:#000000;stroke-width:3;stroke-linecap:round;stroke-linejoin:round;stroke-miterlimit:10;}
	.st136{fill:#5B9CBC;stroke:#000000;stroke-width:2.495;stroke-linecap:round;stroke-linejoin:round;stroke-miterlimit:10;}
	.st137{fill:#FFE7B3;stroke:#231F20;stroke-width:3;stroke-linecap:round;stroke-linejoin:round;stroke-miterlimit:10;}
	.st138{fill:#2291AA;stroke:#231F20;stroke-width:3;stroke-linecap:round;stroke-linejoin:round;stroke-miterlimit:10;}
	.st139{fill:#2291AA;stroke:#231F20;stroke-width:3;stroke-miterlimit:10;}
	.st140{stroke:#000000;stroke-width:3;stroke-linecap:round;stroke-linejoin:round;stroke-miterlimit:10;}
	.st141{fill:#FFFFFF;stroke:#010101;stroke-width:3;stroke-linecap:round;stroke-linejoin:round;stroke-miterlimit:10;}
	.st142{fill:none;stroke:#231F20;stroke-width:3;stroke-linecap:round;stroke-linejoin:round;stroke-miterlimit:10;}
	.st143{fill:#FFFFFF;stroke:#231F20;stroke-width:3;stroke-linecap:round;stroke-linejoin:round;stroke-miterlimit:10;}
	.st144{fill:#E7C706;stroke:#000000;stroke-width:3;stroke-linecap:round;stroke-linejoin:round;}
	.st145{fill:none;stroke:#000000;stroke-width:3;stroke-linecap:round;stroke-linejoin:round;}
	.st146{fill:#333333;stroke:#000000;stroke-width:3;stroke-linecap:round;stroke-linejoin:round;}
	.st147{fill:#935328;stroke:#000000;stroke-width:3;stroke-linecap:round;stroke-linejoin:round;}
	.st148{fill:#593E2C;stroke:#000000;stroke-width:2.9408;stroke-miterlimit:10;}
	.st149{fill:#E5AF38;stroke:#000000;stroke-width:3.0793;stroke-linecap:round;stroke-linejoin:round;stroke-miterlimit:10;}
	.st150{fill:#0DA028;stroke:#020100;stroke-width:3;stroke-miterlimit:10;}
	.st151{fill:#0DA028;stroke:#000000;stroke-width:3;stroke-miterlimit:10;}
	.st152{fill:#AD313A;}
	.st153{fill:#AEDAFF;stroke:#000000;stroke-width:2.9408;stroke-miterlimit:10;}
	.st154{fill:#52768E;stroke:#000000;stroke-width:2.9408;stroke-miterlimit:10;}
	.st155{fill:#FBFB67;stroke:#000000;stroke-width:3;stroke-miterlimit:10;}
	.st156{fill:#6EC67E;stroke:#020100;stroke-width:3;stroke-miterlimit:10;}
	.st157{fill:#6EC67E;stroke:#000000;stroke-width:3;stroke-miterlimit:10;}
	.st158{fill:#F9E467;stroke:#000000;stroke-width:3.0817;stroke-linecap:round;stroke-linejoin:round;stroke-miterlimit:10;}
	.st159{fill:#69C8F7;stroke:#000000;stroke-width:3.0742;stroke-linecap:round;stroke-linejoin:round;stroke-miterlimit:10;}
	.st160{fill:#69C8F7;}
	.st161{fill:#69C8F7;stroke:#000000;stroke-width:3.0817;stroke-linecap:round;stroke-linejoin:round;stroke-miterlimit:10;}
	.st162{fill:#EA4B4B;stroke:#000000;stroke-width:2.7219;stroke-linecap:round;stroke-linejoin:round;stroke-miterlimit:10;}
	.st163{fill:#F9E467;}
	.st164{fill:#F16788;stroke:#000000;stroke-width:3;stroke-linecap:round;stroke-linejoin:round;stroke-miterlimit:10;}
	.st165{fill:#448944;}
	.st166{fill:#E74736;}
	.st167{fill:#EFCF88;stroke:#000000;stroke-width:3;stroke-linecap:round;stroke-linejoin:round;stroke-miterlimit:10;}
	.st168{fill:#EC6C5E;stroke:#000000;stroke-width:3;stroke-linecap:round;stroke-linejoin:round;stroke-miterlimit:10;}
	.st169{fill:none;stroke:#9AA6A6;stroke-width:3;stroke-linecap:round;stroke-linejoin:round;stroke-miterlimit:10;}
	.st170{fill:#564E3B;stroke:#010101;stroke-width:3;stroke-miterlimit:10;}
	.st171{fill:#FDC881;}
	.st172{fill:#E5AF38;stroke:#000000;stroke-width:3;stroke-miterlimit:10;}
	.st173{fill:none;stroke:#FF0049;stroke-width:3;stroke-linecap:round;stroke-linejoin:round;stroke-miterlimit:10;}
	.st174{fill:#C95138;stroke:#000000;stroke-width:3;stroke-linecap:round;stroke-linejoin:round;stroke-miterlimit:10;}
	.st175{fill:#BC7B22;stroke:#000000;stroke-width:3;stroke-linecap:round;stroke-linejoin:round;stroke-miterlimit:10;}
	.st176{fill:#FFCC3A;stroke:#000000;stroke-width:3;stroke-linecap:round;stroke-linejoin:round;stroke-miterlimit:10;}
	.st177{fill:#61C16A;stroke:#000000;stroke-width:2.8413;stroke-linecap:round;stroke-linejoin:round;stroke-miterlimit:10;}
	.st178{fill:#ED416A;stroke:#000000;stroke-width:3;stroke-linecap:round;stroke-linejoin:round;stroke-miterlimit:10;}
	.st179{opacity:0.25;}
	.st180{fill:#3C2415;}
	.st181{fill:#BBDD8C;stroke:#000000;stroke-width:3;stroke-miterlimit:10;}
	.st182{fill:#8CA669;}
	.st183{fill:none;stroke:#000000;stroke-width:5;stroke-linecap:round;stroke-linejoin:round;stroke-miterlimit:10;}
	.st184{fill:#775E49;stroke:#000000;stroke-width:3.0146;stroke-linecap:round;stroke-linejoin:round;stroke-miterlimit:10;}
	.st185{fill:#604B3C;stroke:#000000;stroke-width:2.5808;stroke-linecap:round;stroke-linejoin:round;stroke-miterlimit:10;}
	.st186{fill:none;stroke:#AED6D6;stroke-width:0.8108;stroke-miterlimit:10;}
	.st187{fill:none;stroke:#AED6D6;stroke-width:1.7979;stroke-miterlimit:10;}
	.st188{fill:none;stroke:#AED6D6;stroke-width:0.7832;stroke-miterlimit:10;}
	.st189{fill:none;stroke:#AED6D6;stroke-width:0.7585;stroke-miterlimit:10;}
	.st190{fill:none;stroke:#AED6D6;stroke-width:2.6852;stroke-miterlimit:10;}
	.st191{fill:none;stroke:#AED6D6;stroke-width:5.5987;stroke-miterlimit:10;}
	.st192{fill:none;stroke:#AED6D6;stroke-width:10;stroke-linecap:round;stroke-linejoin:round;stroke-miterlimit:10;}
	.st193{fill:#BC7B22;stroke:#231F20;stroke-width:3;stroke-linecap:round;stroke-linejoin:round;stroke-miterlimit:10;}
	.st194{fill:#EA4B4B;stroke:#000000;stroke-width:2.6625;stroke-linecap:round;stroke-linejoin:round;stroke-miterlimit:10;}
	.st195{fill:#BC7B22;stroke:#000000;stroke-width:2.6625;stroke-miterlimit:10;}
	.st196{fill:#FBA42D;stroke:#000000;stroke-width:2.6625;stroke-miterlimit:10;}
	.st197{fill:#FBA42D;stroke:#000000;stroke-width:2.6625;stroke-linecap:round;stroke-linejoin:round;stroke-miterlimit:10;}
	.st198{fill:#BC7B22;stroke:#000000;stroke-width:2.6625;stroke-linecap:round;stroke-linejoin:round;stroke-miterlimit:10;}
	.st199{fill:#23ACAB;stroke:#000000;stroke-width:3.1363;stroke-miterlimit:10;}
	.st200{fill:#90E05C;stroke:#000000;stroke-width:2.6625;stroke-miterlimit:10;}
	.st201{fill:#FBA42D;stroke:#000000;stroke-width:3;stroke-miterlimit:10;}
	.st202{fill:#23ACAB;stroke:#000000;stroke-width:3;stroke-miterlimit:10;}
	.st203{fill:none;stroke:#00FF0C;stroke-width:0.7413;stroke-miterlimit:10;}
	.st204{fill:#593E2C;stroke:#000000;stroke-width:2.9408;stroke-linecap:round;stroke-linejoin:round;stroke-miterlimit:10;}
	.st205{fill:#BD9779;stroke:#010101;stroke-width:3;stroke-linecap:round;stroke-linejoin:round;stroke-miterlimit:10;}
	.st206{fill:#FF6D00;}
	.st207{opacity:0.41;fill:#61BEBF;}
	.st208{opacity:0.5;fill:none;stroke:#2E1B8C;stroke-width:3;stroke-miterlimit:10;}
	.st209{fill:#F9E467;stroke:#000000;stroke-width:2.6479;stroke-linecap:round;stroke-linejoin:round;stroke-miterlimit:10;}
	.st210{fill:none;stroke:#000000;stroke-width:2.6479;stroke-linecap:round;stroke-linejoin:round;stroke-miterlimit:10;}
	.st211{fill:#F9E3B7;stroke:#231F20;stroke-width:3;stroke-linecap:round;stroke-linejoin:round;stroke-miterlimit:10;}
	.st212{fill:#FFF1D1;stroke:#231F20;stroke-width:3;stroke-linecap:round;stroke-linejoin:round;stroke-miterlimit:10;}
	.st213{fill:#F7EFA2;stroke:#231F20;stroke-width:3;stroke-miterlimit:10;}
	.st214{fill:#E58156;stroke:#231F20;stroke-width:3;stroke-linecap:round;stroke-linejoin:round;stroke-miterlimit:10;}
	.st215{fill:#F9E467;stroke:#000000;stroke-width:0.764;stroke-linecap:round;stroke-linejoin:round;stroke-miterlimit:10;}
	.st216{fill:#604B3C;stroke:#000000;stroke-width:1.1908;stroke-linecap:round;stroke-linejoin:round;stroke-miterlimit:10;}
	.st217{fill:#868786;stroke:#000000;stroke-width:3;stroke-linecap:round;stroke-linejoin:round;stroke-miterlimit:10;}
	.st218{fill:#775E49;stroke:#000000;stroke-width:2.5898;stroke-linecap:round;stroke-linejoin:round;stroke-miterlimit:10;}
	.st219{fill:#61C16A;stroke:#000000;stroke-width:3;stroke-miterlimit:10;}
	.st220{fill:#CA5535;stroke:#010101;stroke-width:3;stroke-miterlimit:10;}
	.st221{fill:#775E49;stroke:#010101;stroke-width:2.7722;stroke-miterlimit:10;}
	.st222{fill:#61C16A;stroke:#000000;stroke-width:3.0329;stroke-linecap:round;stroke-linejoin:round;stroke-miterlimit:10;}
	.st223{fill:none;stroke:#000000;stroke-width:3.0329;stroke-linecap:round;stroke-linejoin:round;stroke-miterlimit:10;}
</style>
<rect x="0" y="0" class="st63" width="240" height="360"/>
<g>
	<text transform="matrix(1 0 0 1 48.1591 343.9155)" class="st67 st68">EL NEGRITO</text>
</g>
<text transform="matrix(1 0 0 1 12.3221 28.4911)" class="st67 st68">26</text>
<g>
	<path class="st7" d="M214.22,213.16c0.65-1.34,0.59-2.03-0.45-2.88c-0.04-0.04-0.07-0.09-0.11-0.13c-0.48-0.48-1.14-0.89-1.93-1.22
		L184.8,194.9c-2.1-1.35-6.19-1.63-9.74-0.8c-1.08-0.26-2.32-0.41-3.68-0.39l-13.43,0.14l-0.19,0.27l-2.91-0.14l0.73-2.38
		c5.1-0.1,9.83-2.09,10.56-4.48l2.33-4.48c3.78-0.15,7.22-1.65,7.77-3.42c0.48-1.55-1.4-2.84-4.36-3.19
		c0.05-0.17,0.08-0.33,0.1-0.49c8.76-0.85,14.7-2.14,15.13-3.54c0.39-1.26-3.74-2.34-10.59-3.03l0.27-0.88l1.36-4.4c0,0,0,0,0,0
		c0,0,0,0,0-0.01c0.44-1.44-9.1-2.5-21.31-2.37c-12.21,0.13-22.47,1.39-22.91,2.83c0,0,0,0,0,0s0,0,0,0.01l-1.36,4.4l-0.27,0.88
		c-7.32,0.84-12.14,2.01-12.53,3.27c-0.44,1.43,4.98,2.64,13.59,3.3c-0.07,0.15-0.14,0.31-0.19,0.46c-3.11,0.44-5.71,1.76-6.18,3.28
		c-0.54,1.74,1.9,3.16,5.5,3.28l-0.47,4.65c-0.57,1.85,3.04,3.39,7.04,3.9l-1.07,2.59l-2.79,0.13l-0.02-0.2l-12.46,0.13
		c-1.1,0.01-2.18,0.13-3.22,0.32c-3.09-0.81-7.48-0.42-10.46,1.01l-34.98,15.04c-1.15,0.39-2.22,0.87-3.12,1.45
		c-0.12,0.08-0.23,0.16-0.35,0.24c-1.29,0.72-2.03,1.56-2.21,2.38l-8.84,0.09l-0.84,2.73l11.51-0.12c0.32,0.16,0.67,0.31,1.09,0.43
		l0.39,0.17c0.75,0.33,1.64,0.55,2.6,0.69l25.65,9.71c0.61,0.18,1.28,0.29,2,0.36l-4.92,14.68c-0.94,3.04-3.37,5.52,3.18,5.46
		l0.45,0l-3.39,15.57c-0.27,0.71-0.24,1.39,0.02,2.03l-1.06,9.89l-16.79,6.83c-2.12,1.24-3.18,2.66-3.24,4.01
		c-2.45,2.17-3.31,5.59-1.87,9.14c2.17,5.33,8.68,8.9,14.55,7.98c2.97-0.47,5.2-2,6.41-4.09c0.59,0.17,1.33,0.3,2.19,0.41
		c-1.69,0.73-2.84,1.62-3.13,2.56c-0.75,2.43,4.32,4.34,11.33,4.26s13.3-2.1,14.05-4.52c0.44-1.43-1.15-2.68-3.96-3.45
		c2.1-0.52,3.5-1.17,3.57-1.91l1.83-17.31l31.7-12.9c0.67-0.39,1.22-0.8,1.69-1.22c1.17-0.94,1.88-1.99,1.94-3.06l3.99-14.84
		c6.2-0.15,5.35-2.56,6.27-5.55l4.08-14.43c1.17-0.05,2.36-0.21,3.49-0.51C174.33,227.73,213.57,214.5,214.22,213.16z M105.56,217.9
		l-2.14-0.88l2.44-0.03c0.28-0.92,0.57-1.84,0.84-2.73l-9.74,0.1L93,212.74l16.62-6.94L105.56,217.9z M130.99,262.18l-8.25,3.36
		l0.21-1.94c0.01-0.13,0-0.25-0.01-0.38l8.26-16.63L130.99,262.18z M186.07,213.45l-11.03,0.11l-0.76,2.73l4.22-0.04l-4.77,1.76
		l3.74-13.25l13.73,6.79L186.07,213.45z"/>
	<path class="st7" d="M70.61,290.14c-0.01-0.01-0.01-0.02-0.02-0.04c0.01,0,0.02,0,0.03-0.01L70.61,290.14z"/>
	<g>
		<g>
			<path class="st28" d="M127.46,78.23H97.55c-3.41,0-6.19-2.79-6.19-6.19v0c0-3.41,2.79-6.19,6.19-6.19h29.91
				c3.41,0,6.19,2.79,6.19,6.19v0C133.66,75.44,130.87,78.23,127.46,78.23z"/>
			<ellipse class="st30" cx="106.98" cy="299.47" rx="10.9" ry="8.09"/>
			
				<ellipse transform="matrix(0.949 -0.3152 0.3152 0.949 -84.9934 41.4682)" class="st30" cx="85.72" cy="283.53" rx="9.18" ry="18.87"/>
			<polygon class="st20" points="129.03,100.14 119.15,98.89 111.9,105.89 104.68,98.89 95.71,99.62 102.37,154.31 123.91,154.14 
							"/>
			<path class="st158" d="M138.96,226.56l-0.81-43.7c-0.7-5.94-11.12-10.22-17.06-9.53c-0.04,0,4.93,0.01,4.89,0.02l-24.22,0
				c-5.6,0.26-15.18,4.81-15.36,10.5l1.88,44.08c-0.04,1.31,0.17,2.56,0.56,3.74l5.67,60.18c0.63,5.94,22.24,3.67,21.61-2.28
				l-5.93-62.66c-0.02-0.24-0.07-0.47-0.11-0.7l2.7-30.57l4.61,33.45c0.7,5.94,6.12,10.22,12.06,9.53
				C135.37,237.92,139.66,232.49,138.96,226.56z"/>
			<path class="st159" d="M138.19,199.23c5.63,0,4.19-4.54,4.19-10.14l-1-81.27c0-5-3.63-9.1-8.06-9.1h-11.53l-9.89,50l-9.66-50
				H91.53c-4.43,0-8.06,4.09-8.06,9.1l-1,81.27c0,5.6-1.44,10.14,4.19,10.14h17.13l9.92-13.89l8.66,13.89H138.19z"/>
			<polygon class="st20" points="121.7,99.21 119.15,98.89 111.9,105.89 119.64,109.59 			"/>
			<polygon class="st20" points="102.31,99.08 104.68,98.89 111.92,105.89 104.34,109.55 			"/>
			<polygon class="st38" points="114,106.98 111.92,105.89 109.66,107.05 107.17,123.89 111.9,148.72 116.63,124.38 			"/>
			<polygon class="st28" points="119.15,98.89 111.9,105.89 104.68,98.89 105.71,77.38 119.15,77.38 			"/>
			<path class="st28" d="M118.98,94.52h-11.44c-4.25,0-9.74-3.48-9.74-7.74l-2-20.56c0-6.6,5.4-12,12-12h9.26c6.6,0,12,5.4,12,12
				l-2,20.22C127.06,90.88,123.42,94.52,118.98,94.52z"/>
			<g>
				<ellipse class="st158" cx="112.18" cy="58.89" rx="28.92" ry="7.7"/>
				<path class="st125" d="M112.18,38.58c-10.49,0-18.99,2.14-18.99,4.79v12.9c0,2.64,8.5,4.79,18.99,4.79
					c10.49,0,18.99-2.14,18.99-4.79v-12.9C131.17,40.72,122.67,38.58,112.18,38.58z"/>
				<ellipse class="st125" cx="112.18" cy="43.35" rx="18.99" ry="4.79"/>
				<path class="st38" d="M112.18,56.24c-10.48,0-18.97-2.14-18.99-4.78c0,0,0,0.01,0,0.01v4.9c0,2.64,8.5,4.79,18.99,4.79
					c10.49,0,18.99-2.14,18.99-4.79v-4.9c0,0,0-0.01,0-0.01C131.15,54.1,122.66,56.24,112.18,56.24z"/>
			</g>
			<polyline class="st5" points="99.85,99.63 96.7,113.2 98.77,114.18 92.35,117.9 111.9,148.72 			"/>
			<polyline class="st5" points="111.95,148.72 132.29,118.42 125.97,114.54 128.06,113.61 125.27,99.97 			"/>
			<line class="st5" x1="111.9" y1="148.72" x2="113.72" y2="185.34"/>
			<ellipse class="st28" cx="90.45" cy="162.01" rx="6.28" ry="9.41"/>
			<ellipse class="st28" cx="133.56" cy="162.01" rx="6.28" ry="9.41"/>
			<rect x="84.17" y="166.14" class="st160" width="16.68" height="18"/>
			<rect x="123.15" y="166.14" class="st160" width="17.83" height="17.83"/>
			<line class="st5" x1="82.69" y1="166.14" x2="99.37" y2="166.14"/>
			<line class="st5" x1="123.23" y1="166.14" x2="142.24" y2="166.14"/>
			<path class="st161" d="M91.28,101.1l-1.24-1.04c-2.97-2.49-7.43-2.1-9.93,0.86l-26.14,27.12c-0.89,0.69-1.68,1.57-2.3,2.62
				c-0.08,0.14-0.16,0.29-0.23,0.44c-1.77,2.51-1.69,5.86,0.1,8.27c0.01,0.02,0.03,0.03,0.04,0.05c0.03,0.05,0.07,0.09,0.1,0.14
				c0.48,0.69,1.1,1.28,1.84,1.72l0.38,0.32c0.73,0.62,1.56,1.05,2.42,1.32L81,161.36c3.34,1.97,7.95,0.38,10.25-3.52
				c2.3-3.9,1.44-8.7-1.9-10.67l-18.49-14.81l21.29-21.34C94.63,108.06,94.25,103.6,91.28,101.1z"/>
			<path class="st161" d="M174.36,138.12c1.59-2.38,1.61-5.58-0.09-7.98c-0.04-0.08-0.08-0.16-0.13-0.24
				c-0.54-0.9-1.22-1.67-1.99-2.28l-26.94-26.44c-2.52-2.94-6.99-3.29-9.93-0.77l-1.28,1.1c-2.94,2.52-3.29,6.99-0.77,9.93
				l21.94,20.6l-18.41,16.01c-3.32,2-4.2,6.69-1.95,10.42c2.25,3.73,6.8,5.15,10.12,3.15l24.44-19.61c0.88-0.28,1.72-0.73,2.46-1.36
				l0.43-0.37C173.14,139.73,173.84,138.99,174.36,138.12z"/>
			<path class="st38" d="M141.77,135.46l0.07,5.02h37.32c0-1.69,0-3.4,0-5.02H141.77z"/>
			<path class="st162" d="M42.57,135.46v5.02h40.5c0-1.69,0-3.4,0-5.02H42.57z"/>
			<path class="st158" d="M185.36,135.46h-6.2c0,1.63,0,3.33,0,5.02h6.43c2.09,0,3.76,1.84,3.49,3.98
				c-0.23,1.77-1.82,3.05-3.61,3.05h-5.88c-1.36,0-2.47,1.11-2.47,2.47c0,1.41,1.14,2.55,2.55,2.55h5.91c4.66,0,8.46-3.75,8.54-8.39
				C194.21,139.36,190.14,135.46,185.36,135.46z"/>
			<path class="st158" d="M80.92,277.29L80.92,277.29c-4.97-3.31-6.33-10.09-3.02-15.07l40.99-39.86
				c3.31-4.97,10.09-6.33,15.07-3.02l0,0c4.97,3.31,6.33,10.09,3.02,15.07l-40.99,39.86C92.67,279.25,85.89,280.6,80.92,277.29z"/>
			<polygon class="st163" points="137.09,209.35 137.22,229.18 119.03,230.03 116.53,211.84 			"/>
			<path d="M118.45,72.89L118.45,72.89c-1.21,0-2.2-0.99-2.2-2.2v0c0-1.21,0.99-2.2,2.2-2.2h0c1.21,0,2.2,0.99,2.2,2.2v0
				C120.65,71.9,119.66,72.89,118.45,72.89z"/>
			<path d="M107.12,72.89L107.12,72.89c-1.21,0-2.2-0.99-2.2-2.2v0c0-1.21,0.99-2.2,2.2-2.2h0c1.21,0,2.2,0.99,2.2,2.2v0
				C109.32,71.9,108.33,72.89,107.12,72.89z"/>
			<path class="st28" d="M105.68,85.3c1.84,0.98,4.28,1.58,6.96,1.58c2.68,0,5.12-0.6,6.96-1.58"/>
			<path class="st28" d="M109.64,77.2c0.74,0.39,1.71,0.63,2.79,0.63c1.07,0,2.05-0.24,2.79-0.63"/>
		</g>
		<circle class="st38" cx="128.66" cy="115.64" r="5.43"/>
	</g>
</g>
</svg>
