<?xml version="1.0" encoding="utf-8"?>
<!-- Generator: Adobe Illustrator 24.0.0, SVG Export Plug-In . SVG Version: 6.00 Build 0)  -->
<svg version="1.1" id="Layer_1" xmlns="http://www.w3.org/2000/svg" xmlns:xlink="http://www.w3.org/1999/xlink" x="0px" y="0px"
	 viewBox="0 0 240 360" style="enable-background:new 0 0 240 360;" xml:space="preserve">
<style type="text/css">
	.st0{fill:#AED6D6;}
	.st1{fill:#D3A8B9;}
	.st2{fill:#66CEF5;}
	.st3{fill:#8EDCF4;}
	.st4{fill:#61BEBF;}
	.st5{fill:none;stroke:#000000;stroke-width:3;stroke-linecap:round;stroke-linejoin:round;stroke-miterlimit:10;}
	.st6{fill:#A4D165;}
	.st7{opacity:0.25;fill:#3C2415;}
	.st8{fill:#8DC63F;stroke:#010101;stroke-width:10.905;stroke-linecap:round;stroke-linejoin:round;stroke-miterlimit:10;}
	.st9{fill:#A7744D;stroke:#010101;stroke-width:9.1692;stroke-linecap:round;stroke-linejoin:round;stroke-miterlimit:10;}
	.st10{fill:#0DA028;}
	.st11{fill:#61C16A;}
	.st12{fill:#A3E2F9;}
	.st13{fill:#5AB75A;}
	.st14{fill:none;stroke:#000000;stroke-width:3.0664;stroke-linecap:round;stroke-linejoin:round;stroke-miterlimit:10;}
	.st15{fill:#98DBED;}
	.st16{fill:#9C9BBD;}
	.st17{fill:#FFFFFF;}
	.st18{fill:#EDECFC;stroke:#231F20;stroke-width:3;stroke-miterlimit:10;}
	.st19{fill:none;stroke:#231F20;stroke-width:3;stroke-miterlimit:10;}
	.st20{fill:#FFFFFF;stroke:#000000;stroke-width:3;stroke-linecap:round;stroke-linejoin:round;stroke-miterlimit:10;}
	.st21{fill:#BC7B22;stroke:#000000;stroke-width:3;stroke-miterlimit:10;}
	.st22{fill:#E5AF38;stroke:#000000;stroke-width:3;stroke-linecap:round;stroke-linejoin:round;stroke-miterlimit:10;}
	.st23{fill:none;stroke:#000000;stroke-width:3;stroke-miterlimit:10;}
	.st24{fill:#927E6D;stroke:#000000;stroke-width:3;stroke-linecap:round;stroke-linejoin:round;stroke-miterlimit:10;}
	.st25{fill:#F7D970;}
	.st26{fill:none;}
	.st27{fill:#3F3F3F;stroke:#000000;stroke-width:3;stroke-linecap:round;stroke-linejoin:round;stroke-miterlimit:10;}
	.st28{fill:#775E49;stroke:#000000;stroke-width:3;stroke-linecap:round;stroke-linejoin:round;stroke-miterlimit:10;}
	.st29{fill:#EDBB91;stroke:#000000;stroke-width:3;stroke-linecap:round;stroke-linejoin:round;stroke-miterlimit:10;}
	.st30{fill:#B03838;stroke:#000000;stroke-width:3;stroke-linecap:round;stroke-linejoin:round;stroke-miterlimit:10;}
	.st31{fill:#739144;stroke:#010101;stroke-width:3;stroke-linecap:round;stroke-linejoin:round;stroke-miterlimit:10;}
	.st32{stroke:#000000;stroke-width:2.5622;stroke-linecap:round;stroke-linejoin:round;stroke-miterlimit:10;}
	.st33{stroke:#000000;stroke-width:2.4972;stroke-linecap:round;stroke-linejoin:round;stroke-miterlimit:10;}
	.st34{stroke:#000000;stroke-width:3.4363;stroke-linecap:round;stroke-linejoin:round;stroke-miterlimit:10;}
	.st35{stroke:#000000;stroke-width:2.0766;stroke-linecap:round;stroke-linejoin:round;stroke-miterlimit:10;}
	.st36{fill:#BB502C;stroke:#000000;stroke-width:3;stroke-linecap:round;stroke-linejoin:round;}
	.st37{fill:#B03838;}
	.st38{fill:#EA4B4B;stroke:#000000;stroke-width:3;stroke-linecap:round;stroke-linejoin:round;stroke-miterlimit:10;}
	.st39{fill:#FADD6B;}
	.st40{fill:#7DA5A5;}
	.st41{fill:#EE6F6F;stroke:#000000;stroke-width:3;stroke-linecap:round;stroke-linejoin:round;stroke-miterlimit:10;}
	.st42{fill:#EDBB91;stroke:#000000;stroke-width:3.1272;stroke-linecap:round;stroke-linejoin:round;stroke-miterlimit:10;}
	.st43{fill:#E5EDED;stroke:#010101;stroke-width:3;stroke-linecap:round;stroke-linejoin:round;stroke-miterlimit:10;}
	.st44{fill:#AEDAFF;stroke:#000000;stroke-width:3;stroke-miterlimit:10;}
	.st45{fill:#FFFFFF;stroke:#000000;stroke-width:3;stroke-miterlimit:10;}
	.st46{fill:#FBFB67;stroke:#000000;stroke-width:3;stroke-linecap:round;stroke-linejoin:round;stroke-miterlimit:10;}
	.st47{fill:none;stroke:#000000;stroke-width:2.8924;stroke-linecap:round;stroke-linejoin:round;stroke-miterlimit:10;}
	.st48{fill:#85D8F7;}
	.st49{fill:#66A488;}
	.st50{fill:#A4CAF8;}
	.st51{fill:#E2D881;stroke:#000000;stroke-width:3;stroke-linecap:round;stroke-linejoin:round;stroke-miterlimit:10;}
	.st52{fill:#61C16A;stroke:#000000;stroke-width:3;stroke-linecap:round;stroke-linejoin:round;stroke-miterlimit:10;}
	.st53{fill:#F2618B;stroke:#000000;stroke-width:2.8224;stroke-linecap:round;stroke-linejoin:round;stroke-miterlimit:10;}
	.st54{fill:#D68630;stroke:#000000;stroke-width:3.7448;stroke-linecap:round;stroke-linejoin:round;stroke-miterlimit:10;}
	.st55{fill:#EFCFAC;stroke:#000000;stroke-width:3.7448;stroke-linecap:round;stroke-linejoin:round;stroke-miterlimit:10;}
	.st56{fill:#F9D042;}
	.st57{fill:#D79B80;}
	.st58{fill:#E6DEA0;}
	.st59{fill:#E2A99A;}
	.st60{fill:#61BED4;}
	.st61{fill:#F7E99C;}
	.st62{fill:#DDDCE5;}
	.st63{fill:#EECE66;}
	.st64{fill:#E8DB5F;}
	.st65{fill:#DE959B;}
	.st66{fill:#33BEF2;}
	.st67{font-family:'Futura-Medium';}
	.st68{font-size:24.6402px;}
	.st69{fill:#F1F2F2;stroke:#000000;stroke-width:3;stroke-linecap:round;stroke-linejoin:round;stroke-miterlimit:10;}
	.st70{fill:#FFCC3A;stroke:#231F20;stroke-width:3;stroke-linecap:round;stroke-linejoin:round;stroke-miterlimit:10;}
	.st71{fill:#66A488;stroke:#000000;stroke-width:3;stroke-linecap:round;stroke-linejoin:round;stroke-miterlimit:10;}
	.st72{fill:#5B9CBC;stroke:#000000;stroke-width:2.7298;stroke-linecap:round;stroke-linejoin:round;stroke-miterlimit:10;}
	.st73{fill:#EA4B4B;}
	.st74{fill:#F2618B;stroke:#000000;stroke-width:3;stroke-linecap:round;stroke-linejoin:round;stroke-miterlimit:10;}
	.st75{fill:#F2618B;stroke:#000000;stroke-width:2.8253;stroke-linecap:round;stroke-linejoin:round;stroke-miterlimit:10;}
	.st76{fill:#66A488;stroke:#010101;stroke-width:3;stroke-miterlimit:10;}
	.st77{fill:#EDBB91;stroke:#000000;stroke-width:4.1741;stroke-linecap:round;stroke-linejoin:round;stroke-miterlimit:10;}
	.st78{fill:#EDC620;stroke:#000000;stroke-width:3;stroke-linecap:round;stroke-linejoin:round;stroke-miterlimit:10;}
	.st79{fill:#606060;stroke:#000000;stroke-width:3;stroke-linecap:round;stroke-linejoin:round;stroke-miterlimit:10;}
	.st80{fill:#FFEC8D;stroke:#000000;stroke-width:3;stroke-miterlimit:10;}
	.st81{fill:none;stroke:#FFFFFF;stroke-width:3;stroke-linecap:round;stroke-linejoin:round;stroke-miterlimit:10;}
	.st82{fill:none;stroke:#000000;stroke-width:3.182;stroke-linecap:round;stroke-linejoin:round;stroke-miterlimit:10;}
	.st83{fill:#60605F;stroke:#000000;stroke-width:3;stroke-linecap:round;stroke-linejoin:round;stroke-miterlimit:10;}
	.st84{fill:#EACB49;stroke:#000000;stroke-width:3;stroke-linecap:round;stroke-linejoin:round;stroke-miterlimit:10;}
	.st85{fill:#5AB75A;stroke:#000000;stroke-width:3;stroke-linecap:round;stroke-linejoin:round;stroke-miterlimit:10;}
	.st86{fill:#A57E50;stroke:#000000;stroke-width:3;stroke-linecap:round;stroke-linejoin:round;stroke-miterlimit:10;}
	.st87{fill:#91C3CC;}
	.st88{fill:#FC90A2;}
	.st89{fill:#FB6B83;}
	.st90{fill:#6D9299;}
	.st91{fill:#FCD566;stroke:#010101;stroke-width:3;stroke-linecap:round;stroke-linejoin:round;stroke-miterlimit:10;}
	.st92{fill:#977D33;stroke:#010101;stroke-width:3;stroke-linecap:round;stroke-linejoin:round;stroke-miterlimit:10;}
	.st93{fill:#655833;stroke:#010101;stroke-width:3;stroke-linecap:round;stroke-linejoin:round;stroke-miterlimit:10;}
	.st94{fill:#533F28;stroke:#000000;stroke-width:3;stroke-linecap:round;stroke-linejoin:round;stroke-miterlimit:10;}
	.st95{fill:#F18067;stroke:#231F20;stroke-width:3;stroke-miterlimit:10;}
	.st96{fill:#FFF0A4;stroke:#000000;stroke-width:3;stroke-miterlimit:10;}
	.st97{fill:#648959;stroke:#000000;stroke-width:3;stroke-linecap:round;stroke-linejoin:round;stroke-miterlimit:10;}
	.st98{fill:#FBB8B4;}
	.st99{fill:#9BD1BC;}
	.st100{opacity:0.3;}
	.st101{opacity:0.5;fill:#3C2415;}
	.st102{fill:#BD9779;stroke:#010101;stroke-width:3;stroke-miterlimit:10;}
	.st103{fill:#915120;stroke:#010101;stroke-width:3;stroke-miterlimit:10;}
	.st104{fill:none;stroke:#010101;stroke-width:3;stroke-miterlimit:10;}
	.st105{fill:#F4777C;stroke:#010101;stroke-width:3;stroke-miterlimit:10;}
	.st106{fill:#DBDBDB;stroke:#010101;stroke-width:3;stroke-miterlimit:10;}
	.st107{fill:#335D49;stroke:#010101;stroke-width:3;stroke-miterlimit:10;}
	.st108{fill:#F4777C;stroke:#010101;stroke-width:3;stroke-linecap:round;stroke-linejoin:round;stroke-miterlimit:10;}
	.st109{fill:#66A488;stroke:#010101;stroke-width:3;stroke-linecap:round;stroke-linejoin:round;stroke-miterlimit:10;}
	.st110{fill:#DBDBDB;stroke:#010101;stroke-width:3;stroke-linecap:round;stroke-linejoin:round;stroke-miterlimit:10;}
	.st111{fill:#A7744D;stroke:#010101;stroke-width:3;stroke-linecap:round;stroke-linejoin:round;stroke-miterlimit:10;}
	.st112{fill:#8DC63F;stroke:#010101;stroke-width:3;stroke-linecap:round;stroke-linejoin:round;stroke-miterlimit:10;}
	.st113{fill:none;stroke:#010101;stroke-width:3;stroke-linecap:round;stroke-linejoin:round;stroke-miterlimit:10;}
	.st114{fill:#67BCD9;}
	.st115{fill:#CEC746;stroke:#231F20;stroke-width:3;stroke-miterlimit:10;}
	.st116{fill:#F69E66;stroke:#231F20;stroke-width:3;stroke-miterlimit:10;}
	.st117{fill:#F7815C;stroke:#231F20;stroke-width:3;stroke-miterlimit:10;}
	.st118{fill:#A89F5A;stroke:#231F20;stroke-width:3;stroke-miterlimit:10;}
	.st119{fill:#F29393;stroke:#231F20;stroke-width:3;stroke-miterlimit:10;}
	.st120{fill:#A3E2F9;stroke:#231F20;stroke-width:3;stroke-miterlimit:10;}
	.st121{opacity:0.5;}
	.st122{fill:#593E2C;stroke:#000000;stroke-width:3;stroke-miterlimit:10;}
	.st123{fill:#593E2C;stroke:#000000;stroke-width:2.8651;stroke-miterlimit:10;}
	.st124{fill:#E74736;stroke:#000000;stroke-width:3;stroke-linecap:round;stroke-linejoin:round;stroke-miterlimit:10;}
	.st125{fill:#F9E467;stroke:#000000;stroke-width:3;stroke-linecap:round;stroke-linejoin:round;stroke-miterlimit:10;}
	.st126{fill:#D68630;stroke:#000000;stroke-width:3;stroke-linecap:round;stroke-linejoin:round;stroke-miterlimit:10;}
	.st127{fill:#C95138;stroke:#231F20;stroke-width:3;stroke-linecap:round;stroke-linejoin:round;stroke-miterlimit:10;}
	.st128{fill:#231F20;}
	.st129{stroke:#000000;stroke-width:2.3082;stroke-linecap:round;stroke-linejoin:round;stroke-miterlimit:10;}
	.st130{fill:#E58156;stroke:#231F20;stroke-width:3;stroke-miterlimit:10;}
	.st131{fill:#FBA42D;stroke:#231F20;stroke-width:3;stroke-miterlimit:10;}
	.st132{fill:#BC7B22;stroke:#231F20;stroke-width:3;stroke-miterlimit:10;}
	.st133{stroke:#000000;stroke-width:2.3954;stroke-linecap:round;stroke-linejoin:round;stroke-miterlimit:10;}
	.st134{stroke:#000000;stroke-width:3.0772;stroke-linecap:round;stroke-linejoin:round;stroke-miterlimit:10;}
	.st135{fill:#842A2A;stroke:#000000;stroke-width:3;stroke-linecap:round;stroke-linejoin:round;stroke-miterlimit:10;}
	.st136{fill:#5B9CBC;stroke:#000000;stroke-width:2.495;stroke-linecap:round;stroke-linejoin:round;stroke-miterlimit:10;}
	.st137{fill:#FFE7B3;stroke:#231F20;stroke-width:3;stroke-linecap:round;stroke-linejoin:round;stroke-miterlimit:10;}
	.st138{fill:#2291AA;stroke:#231F20;stroke-width:3;stroke-linecap:round;stroke-linejoin:round;stroke-miterlimit:10;}
	.st139{fill:#2291AA;stroke:#231F20;stroke-width:3;stroke-miterlimit:10;}
	.st140{stroke:#000000;stroke-width:3;stroke-linecap:round;stroke-linejoin:round;stroke-miterlimit:10;}
	.st141{fill:#FFFFFF;stroke:#010101;stroke-width:3;stroke-linecap:round;stroke-linejoin:round;stroke-miterlimit:10;}
	.st142{fill:none;stroke:#231F20;stroke-width:3;stroke-linecap:round;stroke-linejoin:round;stroke-miterlimit:10;}
	.st143{fill:#FFFFFF;stroke:#231F20;stroke-width:3;stroke-linecap:round;stroke-linejoin:round;stroke-miterlimit:10;}
	.st144{fill:#E7C706;stroke:#000000;stroke-width:3;stroke-linecap:round;stroke-linejoin:round;}
	.st145{fill:none;stroke:#000000;stroke-width:3;stroke-linecap:round;stroke-linejoin:round;}
	.st146{fill:#333333;stroke:#000000;stroke-width:3;stroke-linecap:round;stroke-linejoin:round;}
	.st147{fill:#935328;stroke:#000000;stroke-width:3;stroke-linecap:round;stroke-linejoin:round;}
	.st148{fill:#593E2C;stroke:#000000;stroke-width:2.9408;stroke-miterlimit:10;}
	.st149{fill:#E5AF38;stroke:#000000;stroke-width:3.0793;stroke-linecap:round;stroke-linejoin:round;stroke-miterlimit:10;}
	.st150{fill:#0DA028;stroke:#020100;stroke-width:3;stroke-miterlimit:10;}
	.st151{fill:#0DA028;stroke:#000000;stroke-width:3;stroke-miterlimit:10;}
	.st152{fill:#AD313A;}
	.st153{fill:#AEDAFF;stroke:#000000;stroke-width:2.9408;stroke-miterlimit:10;}
	.st154{fill:#52768E;stroke:#000000;stroke-width:2.9408;stroke-miterlimit:10;}
	.st155{fill:#FBFB67;stroke:#000000;stroke-width:3;stroke-miterlimit:10;}
	.st156{fill:#6EC67E;stroke:#020100;stroke-width:3;stroke-miterlimit:10;}
	.st157{fill:#6EC67E;stroke:#000000;stroke-width:3;stroke-miterlimit:10;}
	.st158{fill:#F9E467;stroke:#000000;stroke-width:3.0817;stroke-linecap:round;stroke-linejoin:round;stroke-miterlimit:10;}
	.st159{fill:#69C8F7;stroke:#000000;stroke-width:3.0742;stroke-linecap:round;stroke-linejoin:round;stroke-miterlimit:10;}
	.st160{fill:#69C8F7;}
	.st161{fill:#69C8F7;stroke:#000000;stroke-width:3.0817;stroke-linecap:round;stroke-linejoin:round;stroke-miterlimit:10;}
	.st162{fill:#EA4B4B;stroke:#000000;stroke-width:2.7219;stroke-linecap:round;stroke-linejoin:round;stroke-miterlimit:10;}
	.st163{fill:#F9E467;}
	.st164{fill:#F16788;stroke:#000000;stroke-width:3;stroke-linecap:round;stroke-linejoin:round;stroke-miterlimit:10;}
	.st165{fill:#448944;}
	.st166{fill:#E74736;}
	.st167{fill:#EFCF88;stroke:#000000;stroke-width:3;stroke-linecap:round;stroke-linejoin:round;stroke-miterlimit:10;}
	.st168{fill:#EC6C5E;stroke:#000000;stroke-width:3;stroke-linecap:round;stroke-linejoin:round;stroke-miterlimit:10;}
	.st169{fill:none;stroke:#9AA6A6;stroke-width:3;stroke-linecap:round;stroke-linejoin:round;stroke-miterlimit:10;}
	.st170{fill:#564E3B;stroke:#010101;stroke-width:3;stroke-miterlimit:10;}
	.st171{fill:#FDC881;}
	.st172{fill:#E5AF38;stroke:#000000;stroke-width:3;stroke-miterlimit:10;}
	.st173{fill:none;stroke:#FF0049;stroke-width:3;stroke-linecap:round;stroke-linejoin:round;stroke-miterlimit:10;}
	.st174{fill:#C95138;stroke:#000000;stroke-width:3;stroke-linecap:round;stroke-linejoin:round;stroke-miterlimit:10;}
	.st175{fill:#BC7B22;stroke:#000000;stroke-width:3;stroke-linecap:round;stroke-linejoin:round;stroke-miterlimit:10;}
	.st176{fill:#FFCC3A;stroke:#000000;stroke-width:3;stroke-linecap:round;stroke-linejoin:round;stroke-miterlimit:10;}
	.st177{fill:#61C16A;stroke:#000000;stroke-width:2.8413;stroke-linecap:round;stroke-linejoin:round;stroke-miterlimit:10;}
	.st178{fill:#ED416A;stroke:#000000;stroke-width:3;stroke-linecap:round;stroke-linejoin:round;stroke-miterlimit:10;}
	.st179{opacity:0.25;}
	.st180{fill:#3C2415;}
	.st181{fill:#BBDD8C;stroke:#000000;stroke-width:3;stroke-miterlimit:10;}
	.st182{fill:#8CA669;}
	.st183{fill:none;stroke:#000000;stroke-width:5;stroke-linecap:round;stroke-linejoin:round;stroke-miterlimit:10;}
	.st184{fill:#775E49;stroke:#000000;stroke-width:3.0146;stroke-linecap:round;stroke-linejoin:round;stroke-miterlimit:10;}
	.st185{fill:#604B3C;stroke:#000000;stroke-width:2.5808;stroke-linecap:round;stroke-linejoin:round;stroke-miterlimit:10;}
	.st186{fill:none;stroke:#AED6D6;stroke-width:0.8108;stroke-miterlimit:10;}
	.st187{fill:none;stroke:#AED6D6;stroke-width:1.7979;stroke-miterlimit:10;}
	.st188{fill:none;stroke:#AED6D6;stroke-width:0.7832;stroke-miterlimit:10;}
	.st189{fill:none;stroke:#AED6D6;stroke-width:0.7585;stroke-miterlimit:10;}
	.st190{fill:none;stroke:#AED6D6;stroke-width:2.6852;stroke-miterlimit:10;}
	.st191{fill:none;stroke:#AED6D6;stroke-width:5.5987;stroke-miterlimit:10;}
	.st192{fill:none;stroke:#AED6D6;stroke-width:10;stroke-linecap:round;stroke-linejoin:round;stroke-miterlimit:10;}
	.st193{fill:#BC7B22;stroke:#231F20;stroke-width:3;stroke-linecap:round;stroke-linejoin:round;stroke-miterlimit:10;}
	.st194{fill:#EA4B4B;stroke:#000000;stroke-width:2.6625;stroke-linecap:round;stroke-linejoin:round;stroke-miterlimit:10;}
	.st195{fill:#BC7B22;stroke:#000000;stroke-width:2.6625;stroke-miterlimit:10;}
	.st196{fill:#FBA42D;stroke:#000000;stroke-width:2.6625;stroke-miterlimit:10;}
	.st197{fill:#FBA42D;stroke:#000000;stroke-width:2.6625;stroke-linecap:round;stroke-linejoin:round;stroke-miterlimit:10;}
	.st198{fill:#BC7B22;stroke:#000000;stroke-width:2.6625;stroke-linecap:round;stroke-linejoin:round;stroke-miterlimit:10;}
	.st199{fill:#23ACAB;stroke:#000000;stroke-width:3.1363;stroke-miterlimit:10;}
	.st200{fill:#90E05C;stroke:#000000;stroke-width:2.6625;stroke-miterlimit:10;}
	.st201{fill:#FBA42D;stroke:#000000;stroke-width:3;stroke-miterlimit:10;}
	.st202{fill:#23ACAB;stroke:#000000;stroke-width:3;stroke-miterlimit:10;}
	.st203{fill:none;stroke:#00FF0C;stroke-width:0.7413;stroke-miterlimit:10;}
	.st204{fill:#593E2C;stroke:#000000;stroke-width:2.9408;stroke-linecap:round;stroke-linejoin:round;stroke-miterlimit:10;}
	.st205{fill:#BD9779;stroke:#010101;stroke-width:3;stroke-linecap:round;stroke-linejoin:round;stroke-miterlimit:10;}
	.st206{fill:#FF6D00;}
	.st207{opacity:0.41;fill:#61BEBF;}
	.st208{opacity:0.5;fill:none;stroke:#2E1B8C;stroke-width:3;stroke-miterlimit:10;}
	.st209{fill:#F9E467;stroke:#000000;stroke-width:2.6479;stroke-linecap:round;stroke-linejoin:round;stroke-miterlimit:10;}
	.st210{fill:none;stroke:#000000;stroke-width:2.6479;stroke-linecap:round;stroke-linejoin:round;stroke-miterlimit:10;}
	.st211{fill:#F9E3B7;stroke:#231F20;stroke-width:3;stroke-linecap:round;stroke-linejoin:round;stroke-miterlimit:10;}
	.st212{fill:#FFF1D1;stroke:#231F20;stroke-width:3;stroke-linecap:round;stroke-linejoin:round;stroke-miterlimit:10;}
	.st213{fill:#F7EFA2;stroke:#231F20;stroke-width:3;stroke-miterlimit:10;}
	.st214{fill:#E58156;stroke:#231F20;stroke-width:3;stroke-linecap:round;stroke-linejoin:round;stroke-miterlimit:10;}
	.st215{fill:#F9E467;stroke:#000000;stroke-width:0.764;stroke-linecap:round;stroke-linejoin:round;stroke-miterlimit:10;}
	.st216{fill:#604B3C;stroke:#000000;stroke-width:1.1908;stroke-linecap:round;stroke-linejoin:round;stroke-miterlimit:10;}
	.st217{fill:#868786;stroke:#000000;stroke-width:3;stroke-linecap:round;stroke-linejoin:round;stroke-miterlimit:10;}
	.st218{fill:#775E49;stroke:#000000;stroke-width:2.5898;stroke-linecap:round;stroke-linejoin:round;stroke-miterlimit:10;}
	.st219{fill:#61C16A;stroke:#000000;stroke-width:3;stroke-miterlimit:10;}
	.st220{fill:#CA5535;stroke:#010101;stroke-width:3;stroke-miterlimit:10;}
	.st221{fill:#775E49;stroke:#010101;stroke-width:2.7722;stroke-miterlimit:10;}
	.st222{fill:#61C16A;stroke:#000000;stroke-width:3.0329;stroke-linecap:round;stroke-linejoin:round;stroke-miterlimit:10;}
	.st223{fill:none;stroke:#000000;stroke-width:3.0329;stroke-linecap:round;stroke-linejoin:round;stroke-miterlimit:10;}
</style>
<rect x="0" y="245.79" class="st0" width="240" height="114.21"/>
<rect x="0" y="0" class="st16" width="240" height="245.79"/>
<g>
	<text transform="matrix(1 0 0 1 42.2274 343.9155)" class="st67 st68">EL SOLDADO</text>
</g>
<text transform="matrix(1 0 0 1 12.3221 28.4911)" class="st67 st68">34</text>
<g>
	<ellipse class="st7" cx="123.65" cy="268.67" rx="70.94" ry="8.06"/>
	<g>
		<g>
			<path class="st31" d="M97.2,179.9c0-4.42-9.59,2.67-14.01,2.67h0c-4.42,0-1.99-7.09-1.99-2.67v37.59l-35.52-12.33
				c-4.18-1.45-8.74,0.76-10.19,4.93c-1.45,4.18,0.76,8.74,4.93,10.19l46.14,16.03c0.02,0.01,0.05,0.01,0.07,0.02
				c0.18,0.06,0.37,0.11,0.55,0.16c0.08,0.02,0.16,0.04,0.24,0.06c0.16,0.04,0.32,0.06,0.49,0.09c0.11,0.02,0.22,0.04,0.33,0.05
				c0.14,0.02,0.27,0.02,0.41,0.03c0.14,0.01,0.27,0.02,0.41,0.02c0.04,0,0.09,0.01,0.13,0.01h0c0.09,0,0.17-0.01,0.25-0.01
				c0.14,0,0.27-0.01,0.41-0.02c0.14-0.01,0.29-0.03,0.43-0.05c0.11-0.02,0.22-0.03,0.33-0.05c0.17-0.03,0.33-0.07,0.49-0.11
				c0.08-0.02,0.16-0.04,0.24-0.06c0.18-0.05,0.35-0.11,0.53-0.17c0.06-0.02,0.13-0.05,0.19-0.07c0.18-0.07,0.35-0.14,0.53-0.23
				c0.06-0.03,0.12-0.06,0.18-0.09c0.17-0.08,0.33-0.17,0.49-0.27c0.06-0.04,0.13-0.08,0.19-0.12c0.15-0.09,0.29-0.19,0.43-0.29
				c0.07-0.05,0.15-0.11,0.22-0.16c0.13-0.1,0.25-0.2,0.37-0.3c0.08-0.07,0.15-0.14,0.23-0.21c0.11-0.1,0.21-0.21,0.32-0.32
				c0.08-0.08,0.15-0.16,0.22-0.24c0.1-0.11,0.19-0.23,0.29-0.35c0.06-0.08,0.13-0.17,0.19-0.25c0.1-0.13,0.19-0.27,0.27-0.41
				c0.05-0.08,0.09-0.15,0.14-0.23c0.09-0.16,0.18-0.33,0.27-0.5c0.03-0.06,0.06-0.12,0.09-0.18c0.09-0.19,0.17-0.39,0.24-0.59
				c0.01-0.03,0.03-0.06,0.04-0.1c0.01-0.02,0.01-0.03,0.01-0.05c0.07-0.2,0.12-0.4,0.18-0.61c0.02-0.06,0.03-0.13,0.05-0.19
				c0.04-0.17,0.07-0.35,0.1-0.52c0.02-0.1,0.03-0.2,0.05-0.3c0.02-0.14,0.03-0.28,0.04-0.42c0.01-0.13,0.02-0.27,0.02-0.4
				c0-0.04,0.01-0.08,0.01-0.13V179.9z"/>
			<path class="st170" d="M95.01,234.23c0.08-0.08,0.15-0.16,0.22-0.24c0.1-0.11,0.19-0.23,0.29-0.35c0.06-0.08,0.13-0.17,0.19-0.25
				c0.1-0.13,0.19-0.27,0.27-0.41c0.05-0.08,0.09-0.15,0.14-0.23c0.09-0.16,0.18-0.33,0.27-0.5c0.03-0.06,0.06-0.12,0.09-0.18
				c0.09-0.19,0.17-0.39,0.24-0.59c0.01-0.03,0.03-0.06,0.04-0.1c0.01-0.02,0.01-0.03,0.01-0.05c0.07-0.2,0.12-0.4,0.18-0.61
				c0.02-0.06,0.03-0.13,0.05-0.19c0.04-0.17,0.07-0.35,0.1-0.52c0.02-0.1,0.03-0.2,0.05-0.3c0.02-0.14,0.03-0.28,0.04-0.42
				c0.01-0.13,0.02-0.27,0.02-0.4c0-0.04,0.01-0.08,0.01-0.13v-14.77c-5.1-3.93-11.04-5.59-16.01-4.6v8.12l-7.96-2.76
				c-2.86,4.53-2.69,10.98,0.25,17.03l13.09,4.54c0.02,0.01,0.05,0.01,0.07,0.02c0.18,0.06,0.37,0.11,0.55,0.16
				c0.08,0.02,0.16,0.04,0.24,0.06c0.16,0.04,0.32,0.06,0.49,0.09c0.11,0.02,0.22,0.04,0.33,0.05c0.14,0.02,0.27,0.02,0.41,0.03
				c0.14,0.01,0.27,0.02,0.41,0.02c0.04,0,0.09,0.01,0.13,0.01h0c0.09,0,0.17-0.01,0.25-0.01c0.14,0,0.27-0.01,0.41-0.02
				c0.14-0.01,0.29-0.03,0.43-0.05c0.11-0.02,0.22-0.03,0.33-0.05c0.17-0.03,0.33-0.07,0.49-0.11c0.08-0.02,0.16-0.04,0.24-0.06
				c0.18-0.05,0.35-0.11,0.53-0.17c0.06-0.02,0.13-0.05,0.19-0.07c0.18-0.07,0.35-0.14,0.53-0.23c0.06-0.03,0.12-0.06,0.18-0.09
				c0.17-0.08,0.33-0.17,0.49-0.27c0.06-0.04,0.13-0.08,0.19-0.12c0.15-0.09,0.29-0.19,0.43-0.29c0.07-0.05,0.15-0.11,0.22-0.16
				c0.13-0.1,0.25-0.2,0.37-0.3c0.08-0.07,0.15-0.14,0.23-0.21C94.81,234.44,94.91,234.34,95.01,234.23z"/>
		</g>
		<path class="st31" d="M133.04,208.49l-32.84-34.87c-3.03-3.22-8.1-3.37-11.31-0.34h0c-3.22,3.03-3.37,8.09-0.34,11.31l30.17,32.04
			l-15.52,40.91c-1.57,4.13,0.51,8.75,4.64,10.32h0c4.13,1.57,8.75-0.51,10.32-4.64l17.33-45.67
			C136.75,214.23,135.66,210.6,133.04,208.49z"/>
		<path class="st170" d="M133.04,208.49l-7.69-8.16c-6.46,0.76-11.85,3.79-14.54,7.91l7.9,8.39l-3.08,8.13
			c3.44,2.17,7.95,3.49,12.88,3.49c1.01,0,2-0.06,2.97-0.16l4-10.54C136.75,214.23,135.66,210.6,133.04,208.49z"/>
		
			<ellipse transform="matrix(0.1131 -0.9936 0.9936 0.1131 -42.1238 290.0368)" class="st29" cx="141.4" cy="168.61" rx="7.53" ry="10.79"/>
		<path class="st31" d="M137.54,158.42l-15.28-3.61l8-18.21c2.02-3.93,0.48-8.76-3.45-10.78c-3.93-2.02-8.76-0.48-10.78,3.45
			l-12.68,27.3c-1.72,3.34-0.86,7.32,1.85,9.68c0.04,0.04,0.09,0.08,0.13,0.12c0.12,0.1,0.24,0.19,0.37,0.28
			c0.1,0.08,0.2,0.15,0.31,0.23c0.08,0.05,0.17,0.11,0.25,0.16c0.16,0.1,0.32,0.19,0.48,0.28c0.02,0.01,0.04,0.02,0.06,0.03h0
			c0.04,0.02,0.07,0.03,0.11,0.05c0.19,0.1,0.38,0.18,0.58,0.26c0.05,0.02,0.1,0.04,0.15,0.05c0.2,0.08,0.41,0.15,0.62,0.21
			c0.04,0.01,0.09,0.02,0.13,0.03c0.14,0.04,0.28,0.08,0.43,0.11l25.39,5.99c4.32,0.92,8.57-1.84,9.49-6.16v0
			C144.62,163.59,141.86,159.34,137.54,158.42z"/>
		
			<ellipse transform="matrix(0.7984 -0.6021 0.6021 0.7984 -123.3638 63.7324)" class="st27" cx="33.5" cy="216.1" rx="15.47" ry="7.51"/>
		<path class="st31" d="M111.19,190.6l24.24-51.29c2.82-4.41,3.1-5.7-0.79-8.18l-9.46-5.24c-3.89-2.48-9.37-0.91-12.19,3.5
			l-19.17,34.18l-21,15.14L111.19,190.6z"/>
		
			<ellipse transform="matrix(0.1131 -0.9936 0.9936 0.1131 -160.4489 349.4885)" class="st27" cx="115.53" cy="264.62" rx="7.53" ry="15.47"/>
		
			<ellipse transform="matrix(0.1131 -0.9936 0.9936 0.1131 -36.7429 320.9058)" class="st29" cx="161.38" cy="181.03" rx="7.53" ry="10.79"/>
		
			<ellipse transform="matrix(0.1131 -0.9936 0.9936 0.1131 -1.1873 338.4634)" class="st29" cx="188.99" cy="169.9" rx="7.53" ry="10.79"/>
		<path class="st29" d="M140.49,125.24l-4.78-1.39c-5.51-1.6-8.7-7.42-7.1-12.92l5.12-17.58c1.6-5.51,7.42-8.7,12.92-7.1l4.78,1.39
			c5.51,1.6,8.7,7.42,7.1,12.92l-5.12,17.58C151.81,123.65,145.99,126.84,140.49,125.24z"/>
		<path class="st29" d="M132.59,123.85c-1.66-0.48-3-1.53-3.88-2.88l-3.65,7.18l9.82,4.99l3.82-7.51L132.59,123.85z"/>
		<path class="st31" d="M145.06,96.35c-6.42,0-12.59-0.36-18.3-1.02c-0.03,0.55-0.05,1.1-0.05,1.65c0,0.99,0.05,1.95,0.14,2.91
			c5.61,1.01,11.75,1.57,18.21,1.57c6.45,0,12.6-0.56,18.21-1.57c0.09-0.95,0.14-1.92,0.14-2.91c0-0.56-0.02-1.11-0.05-1.65
			C157.65,95.99,151.49,96.35,145.06,96.35z"/>
		<path class="st31" d="M145.06,78.47c-8.56,0-15.5,6.94-15.5,15.5c0,0.65,0.04,1.29,0.12,1.92c4.73,0.66,9.93,1.03,15.38,1.03
			s10.64-0.37,15.38-1.03c0.08-0.63,0.12-1.27,0.12-1.92C160.56,85.41,153.62,78.47,145.06,78.47z"/>
		<path class="st29" d="M135.25,111.56h-1.2c-1.38,0-2.51-1.13-2.51-2.51v-3.11c0-1.38,1.13-2.51,2.51-2.51h1.2
			c1.38,0,2.51,1.13,2.51,2.51v3.11C137.76,110.43,136.63,111.56,135.25,111.56z"/>
		<path class="st29" d="M153.49,110.69l2.28,3c0.97,1.39,0.62,3.32-0.78,4.29l-0.05,0.03c-1.39,0.97-3.32,0.62-4.29-0.78"/>
		<path class="st31" d="M141.61,111.6c-0.63-5.3-0.88-10.42-0.79-15.21c-0.55,0.04-1.09,0.09-1.65,0.16
			c-0.98,0.12-1.94,0.28-2.87,0.46c-0.45,4.74-0.4,9.88,0.24,15.19c0.64,5.32,1.8,10.32,3.35,14.82c0.96-0.04,1.92-0.11,2.9-0.23
			c0.55-0.07,1.1-0.15,1.64-0.24C143.21,121.93,142.24,116.9,141.61,111.6z"/>
		<g>
			<polygon class="st28" points="159.32,168.08 127.76,173.34 127.76,160.13 159.32,160.13 			"/>
			<rect x="159.32" y="160.13" class="st27" width="23.52" height="9.77"/>
			<rect x="182.83" y="161.63" class="st79" width="23.52" height="6.77"/>
			<rect x="206.35" y="163.38" class="st27" width="23.52" height="3.4"/>
			<path class="st27" d="M177.3,169.9h-9.5c1.41,9.07,3.81,16.9,7.34,23.91l8.38-4.22C180.62,183.84,178.59,177.37,177.3,169.9z"/>
		</g>
		<polygon class="st31" points="135.12,140.29 119.38,129.36 117.37,117.17 144.11,135.05 		"/>
		<polygon class="st27" points="91.71,168 118.09,183.99 121.66,177.45 96.99,158.83 		"/>
		<path class="st27" d="M92.95,172.14l-2.99-1.73c-2.42-1.4-3.26-4.52-1.86-6.94l2.7-4.67c1.4-2.42,4.52-3.26,6.94-1.86l2.99,1.73
			c2.42,1.4,3.26,4.52,1.86,6.94l-2.7,4.67C98.49,172.7,95.37,173.54,92.95,172.14z"/>
		<path class="st27" d="M113.07,186.49l-3.84-2.22c-2.19-1.26-2.94-4.08-1.68-6.27l3.19-5.52c1.26-2.19,4.08-2.94,6.27-1.68
			l3.84,2.22c2.19,1.26,2.94,4.08,1.68,6.27l-3.19,5.52C118.08,187,115.26,187.76,113.07,186.49z"/>
		<path d="M142.28,120.26c0-1.04,1.32-1.89,2.95-1.89s2.95,0.84,2.95,1.89c0,1.04-0.65,1.89-2.28,1.89S142.28,121.3,142.28,120.26z"
			/>
		<path class="st29" d="M149.43,105.74c0.48-0.17,1.33-0.28,2.31-0.28c0.91,0,1.72,0.1,2.21,0.25"/>
		<circle cx="152.43" cy="107.25" r="1.51"/>
		<g>
			<path class="st31" d="M157.12,169.81l-34.83-7.61l2.46-22.28c1.23-4.24-1.21-8.69-5.45-9.92l0,0c-4.24-1.23-8.69,1.2-9.92,5.45
				l-4.83,30.43c-1.09,3.75,0.69,7.64,4.04,9.36c0.67,0.38,1.41,0.66,2.2,0.84l42.91,9.38c4.32,0.94,8.58-1.79,9.53-6.11
				C164.17,175.02,161.44,170.76,157.12,169.81z"/>
			<path class="st170" d="M122.29,162.2l0.95-10.31c-3.83,0.12-6.09,1.2-10.27,3.61c-2.78,1.6-5.15,3.53-7.02,5.6l-1.39,4.77
				c-1.09,3.75,0.69,7.64,4.04,9.36c0.67,0.38,1.41,0.66,2.2,0.84l9.58,2.09c1.49-0.56,2.98-1.27,4.45-2.12
				c5.1-2.94,8.84-6.99,10.62-10.97L122.29,162.2z"/>
		</g>
	</g>
</g>
</svg>
