<?xml version="1.0" encoding="utf-8"?>
<!-- Generator: Adobe Illustrator 24.0.0, SVG Export Plug-In . SVG Version: 6.00 Build 0)  -->
<svg version="1.1" id="Layer_1" xmlns="http://www.w3.org/2000/svg" xmlns:xlink="http://www.w3.org/1999/xlink" x="0px" y="0px"
	 viewBox="0 0 240 360" style="enable-background:new 0 0 240 360;" xml:space="preserve">
<style type="text/css">
	.st0{fill:#AED6D6;}
	.st1{fill:#D3A8B9;}
	.st2{fill:#66CEF5;}
	.st3{fill:#8EDCF4;}
	.st4{fill:#61BEBF;}
	.st5{fill:none;stroke:#000000;stroke-width:3;stroke-linecap:round;stroke-linejoin:round;stroke-miterlimit:10;}
	.st6{fill:#A4D165;}
	.st7{opacity:0.25;fill:#3C2415;}
	.st8{fill:#8DC63F;stroke:#010101;stroke-width:10.905;stroke-linecap:round;stroke-linejoin:round;stroke-miterlimit:10;}
	.st9{fill:#A7744D;stroke:#010101;stroke-width:9.1692;stroke-linecap:round;stroke-linejoin:round;stroke-miterlimit:10;}
	.st10{fill:#0DA028;}
	.st11{fill:#61C16A;}
	.st12{fill:#A3E2F9;}
	.st13{fill:#5AB75A;}
	.st14{fill:none;stroke:#000000;stroke-width:3.0664;stroke-linecap:round;stroke-linejoin:round;stroke-miterlimit:10;}
	.st15{fill:#98DBED;}
	.st16{fill:#9C9BBD;}
	.st17{fill:#FFFFFF;}
	.st18{fill:#EDECFC;stroke:#231F20;stroke-width:3;stroke-miterlimit:10;}
	.st19{fill:none;stroke:#231F20;stroke-width:3;stroke-miterlimit:10;}
	.st20{fill:#FFFFFF;stroke:#000000;stroke-width:3;stroke-linecap:round;stroke-linejoin:round;stroke-miterlimit:10;}
	.st21{fill:#BC7B22;stroke:#000000;stroke-width:3;stroke-miterlimit:10;}
	.st22{fill:#E5AF38;stroke:#000000;stroke-width:3;stroke-linecap:round;stroke-linejoin:round;stroke-miterlimit:10;}
	.st23{fill:none;stroke:#000000;stroke-width:3;stroke-miterlimit:10;}
	.st24{fill:#927E6D;stroke:#000000;stroke-width:3;stroke-linecap:round;stroke-linejoin:round;stroke-miterlimit:10;}
	.st25{fill:#F7D970;}
	.st26{fill:none;}
	.st27{fill:#3F3F3F;stroke:#000000;stroke-width:3;stroke-linecap:round;stroke-linejoin:round;stroke-miterlimit:10;}
	.st28{fill:#775E49;stroke:#000000;stroke-width:3;stroke-linecap:round;stroke-linejoin:round;stroke-miterlimit:10;}
	.st29{fill:#EDBB91;stroke:#000000;stroke-width:3;stroke-linecap:round;stroke-linejoin:round;stroke-miterlimit:10;}
	.st30{fill:#B03838;stroke:#000000;stroke-width:3;stroke-linecap:round;stroke-linejoin:round;stroke-miterlimit:10;}
	.st31{fill:#739144;stroke:#010101;stroke-width:3;stroke-linecap:round;stroke-linejoin:round;stroke-miterlimit:10;}
	.st32{stroke:#000000;stroke-width:2.5622;stroke-linecap:round;stroke-linejoin:round;stroke-miterlimit:10;}
	.st33{stroke:#000000;stroke-width:2.4972;stroke-linecap:round;stroke-linejoin:round;stroke-miterlimit:10;}
	.st34{stroke:#000000;stroke-width:3.4363;stroke-linecap:round;stroke-linejoin:round;stroke-miterlimit:10;}
	.st35{stroke:#000000;stroke-width:2.0766;stroke-linecap:round;stroke-linejoin:round;stroke-miterlimit:10;}
	.st36{fill:#BB502C;stroke:#000000;stroke-width:3;stroke-linecap:round;stroke-linejoin:round;}
	.st37{fill:#B03838;}
	.st38{fill:#EA4B4B;stroke:#000000;stroke-width:3;stroke-linecap:round;stroke-linejoin:round;stroke-miterlimit:10;}
	.st39{fill:#FADD6B;}
	.st40{fill:#7DA5A5;}
	.st41{fill:#EE6F6F;stroke:#000000;stroke-width:3;stroke-linecap:round;stroke-linejoin:round;stroke-miterlimit:10;}
	.st42{fill:#EDBB91;stroke:#000000;stroke-width:3.1272;stroke-linecap:round;stroke-linejoin:round;stroke-miterlimit:10;}
	.st43{fill:#E5EDED;stroke:#010101;stroke-width:3;stroke-linecap:round;stroke-linejoin:round;stroke-miterlimit:10;}
	.st44{fill:#AEDAFF;stroke:#000000;stroke-width:3;stroke-miterlimit:10;}
	.st45{fill:#FFFFFF;stroke:#000000;stroke-width:3;stroke-miterlimit:10;}
	.st46{fill:#FBFB67;stroke:#000000;stroke-width:3;stroke-linecap:round;stroke-linejoin:round;stroke-miterlimit:10;}
	.st47{fill:none;stroke:#000000;stroke-width:2.8924;stroke-linecap:round;stroke-linejoin:round;stroke-miterlimit:10;}
	.st48{fill:#85D8F7;}
	.st49{fill:#66A488;}
	.st50{fill:#A4CAF8;}
	.st51{fill:#E2D881;stroke:#000000;stroke-width:3;stroke-linecap:round;stroke-linejoin:round;stroke-miterlimit:10;}
	.st52{fill:#61C16A;stroke:#000000;stroke-width:3;stroke-linecap:round;stroke-linejoin:round;stroke-miterlimit:10;}
	.st53{fill:#F2618B;stroke:#000000;stroke-width:2.8224;stroke-linecap:round;stroke-linejoin:round;stroke-miterlimit:10;}
	.st54{fill:#D68630;stroke:#000000;stroke-width:3.7448;stroke-linecap:round;stroke-linejoin:round;stroke-miterlimit:10;}
	.st55{fill:#EFCFAC;stroke:#000000;stroke-width:3.7448;stroke-linecap:round;stroke-linejoin:round;stroke-miterlimit:10;}
	.st56{fill:#F9D042;}
	.st57{fill:#D79B80;}
	.st58{fill:#E6DEA0;}
	.st59{fill:#E2A99A;}
	.st60{fill:#61BED4;}
	.st61{fill:#F7E99C;}
	.st62{fill:#DDDCE5;}
	.st63{fill:#EECE66;}
	.st64{fill:#E8DB5F;}
	.st65{fill:#DE959B;}
	.st66{fill:#33BEF2;}
	.st67{font-family:'Futura-Medium';}
	.st68{font-size:24.6402px;}
	.st69{fill:#F1F2F2;stroke:#000000;stroke-width:3;stroke-linecap:round;stroke-linejoin:round;stroke-miterlimit:10;}
	.st70{fill:#FFCC3A;stroke:#231F20;stroke-width:3;stroke-linecap:round;stroke-linejoin:round;stroke-miterlimit:10;}
	.st71{fill:#66A488;stroke:#000000;stroke-width:3;stroke-linecap:round;stroke-linejoin:round;stroke-miterlimit:10;}
	.st72{fill:#5B9CBC;stroke:#000000;stroke-width:2.7298;stroke-linecap:round;stroke-linejoin:round;stroke-miterlimit:10;}
	.st73{fill:#EA4B4B;}
	.st74{fill:#F2618B;stroke:#000000;stroke-width:3;stroke-linecap:round;stroke-linejoin:round;stroke-miterlimit:10;}
	.st75{fill:#F2618B;stroke:#000000;stroke-width:2.8253;stroke-linecap:round;stroke-linejoin:round;stroke-miterlimit:10;}
	.st76{fill:#66A488;stroke:#010101;stroke-width:3;stroke-miterlimit:10;}
	.st77{fill:#EDBB91;stroke:#000000;stroke-width:4.1741;stroke-linecap:round;stroke-linejoin:round;stroke-miterlimit:10;}
	.st78{fill:#EDC620;stroke:#000000;stroke-width:3;stroke-linecap:round;stroke-linejoin:round;stroke-miterlimit:10;}
	.st79{fill:#606060;stroke:#000000;stroke-width:3;stroke-linecap:round;stroke-linejoin:round;stroke-miterlimit:10;}
	.st80{fill:#FFEC8D;stroke:#000000;stroke-width:3;stroke-miterlimit:10;}
	.st81{fill:none;stroke:#FFFFFF;stroke-width:3;stroke-linecap:round;stroke-linejoin:round;stroke-miterlimit:10;}
	.st82{fill:none;stroke:#000000;stroke-width:3.182;stroke-linecap:round;stroke-linejoin:round;stroke-miterlimit:10;}
	.st83{fill:#60605F;stroke:#000000;stroke-width:3;stroke-linecap:round;stroke-linejoin:round;stroke-miterlimit:10;}
	.st84{fill:#EACB49;stroke:#000000;stroke-width:3;stroke-linecap:round;stroke-linejoin:round;stroke-miterlimit:10;}
	.st85{fill:#5AB75A;stroke:#000000;stroke-width:3;stroke-linecap:round;stroke-linejoin:round;stroke-miterlimit:10;}
	.st86{fill:#A57E50;stroke:#000000;stroke-width:3;stroke-linecap:round;stroke-linejoin:round;stroke-miterlimit:10;}
	.st87{fill:#91C3CC;}
	.st88{fill:#FC90A2;}
	.st89{fill:#FB6B83;}
	.st90{fill:#6D9299;}
	.st91{fill:#FCD566;stroke:#010101;stroke-width:3;stroke-linecap:round;stroke-linejoin:round;stroke-miterlimit:10;}
	.st92{fill:#977D33;stroke:#010101;stroke-width:3;stroke-linecap:round;stroke-linejoin:round;stroke-miterlimit:10;}
	.st93{fill:#655833;stroke:#010101;stroke-width:3;stroke-linecap:round;stroke-linejoin:round;stroke-miterlimit:10;}
	.st94{fill:#533F28;stroke:#000000;stroke-width:3;stroke-linecap:round;stroke-linejoin:round;stroke-miterlimit:10;}
	.st95{fill:#F18067;stroke:#231F20;stroke-width:3;stroke-miterlimit:10;}
	.st96{fill:#FFF0A4;stroke:#000000;stroke-width:3;stroke-miterlimit:10;}
	.st97{fill:#648959;stroke:#000000;stroke-width:3;stroke-linecap:round;stroke-linejoin:round;stroke-miterlimit:10;}
	.st98{fill:#FBB8B4;}
	.st99{fill:#9BD1BC;}
	.st100{opacity:0.3;}
	.st101{opacity:0.5;fill:#3C2415;}
	.st102{fill:#BD9779;stroke:#010101;stroke-width:3;stroke-miterlimit:10;}
	.st103{fill:#915120;stroke:#010101;stroke-width:3;stroke-miterlimit:10;}
	.st104{fill:none;stroke:#010101;stroke-width:3;stroke-miterlimit:10;}
	.st105{fill:#F4777C;stroke:#010101;stroke-width:3;stroke-miterlimit:10;}
	.st106{fill:#DBDBDB;stroke:#010101;stroke-width:3;stroke-miterlimit:10;}
	.st107{fill:#335D49;stroke:#010101;stroke-width:3;stroke-miterlimit:10;}
	.st108{fill:#F4777C;stroke:#010101;stroke-width:3;stroke-linecap:round;stroke-linejoin:round;stroke-miterlimit:10;}
	.st109{fill:#66A488;stroke:#010101;stroke-width:3;stroke-linecap:round;stroke-linejoin:round;stroke-miterlimit:10;}
	.st110{fill:#DBDBDB;stroke:#010101;stroke-width:3;stroke-linecap:round;stroke-linejoin:round;stroke-miterlimit:10;}
	.st111{fill:#A7744D;stroke:#010101;stroke-width:3;stroke-linecap:round;stroke-linejoin:round;stroke-miterlimit:10;}
	.st112{fill:#8DC63F;stroke:#010101;stroke-width:3;stroke-linecap:round;stroke-linejoin:round;stroke-miterlimit:10;}
	.st113{fill:none;stroke:#010101;stroke-width:3;stroke-linecap:round;stroke-linejoin:round;stroke-miterlimit:10;}
	.st114{fill:#67BCD9;}
	.st115{fill:#CEC746;stroke:#231F20;stroke-width:3;stroke-miterlimit:10;}
	.st116{fill:#F69E66;stroke:#231F20;stroke-width:3;stroke-miterlimit:10;}
	.st117{fill:#F7815C;stroke:#231F20;stroke-width:3;stroke-miterlimit:10;}
	.st118{fill:#A89F5A;stroke:#231F20;stroke-width:3;stroke-miterlimit:10;}
	.st119{fill:#F29393;stroke:#231F20;stroke-width:3;stroke-miterlimit:10;}
	.st120{fill:#A3E2F9;stroke:#231F20;stroke-width:3;stroke-miterlimit:10;}
	.st121{opacity:0.5;}
	.st122{fill:#593E2C;stroke:#000000;stroke-width:3;stroke-miterlimit:10;}
	.st123{fill:#593E2C;stroke:#000000;stroke-width:2.8651;stroke-miterlimit:10;}
	.st124{fill:#E74736;stroke:#000000;stroke-width:3;stroke-linecap:round;stroke-linejoin:round;stroke-miterlimit:10;}
	.st125{fill:#F9E467;stroke:#000000;stroke-width:3;stroke-linecap:round;stroke-linejoin:round;stroke-miterlimit:10;}
	.st126{fill:#D68630;stroke:#000000;stroke-width:3;stroke-linecap:round;stroke-linejoin:round;stroke-miterlimit:10;}
	.st127{fill:#C95138;stroke:#231F20;stroke-width:3;stroke-linecap:round;stroke-linejoin:round;stroke-miterlimit:10;}
	.st128{fill:#231F20;}
	.st129{stroke:#000000;stroke-width:2.3082;stroke-linecap:round;stroke-linejoin:round;stroke-miterlimit:10;}
	.st130{fill:#E58156;stroke:#231F20;stroke-width:3;stroke-miterlimit:10;}
	.st131{fill:#FBA42D;stroke:#231F20;stroke-width:3;stroke-miterlimit:10;}
	.st132{fill:#BC7B22;stroke:#231F20;stroke-width:3;stroke-miterlimit:10;}
	.st133{stroke:#000000;stroke-width:2.3954;stroke-linecap:round;stroke-linejoin:round;stroke-miterlimit:10;}
	.st134{stroke:#000000;stroke-width:3.0772;stroke-linecap:round;stroke-linejoin:round;stroke-miterlimit:10;}
	.st135{fill:#842A2A;stroke:#000000;stroke-width:3;stroke-linecap:round;stroke-linejoin:round;stroke-miterlimit:10;}
	.st136{fill:#5B9CBC;stroke:#000000;stroke-width:2.495;stroke-linecap:round;stroke-linejoin:round;stroke-miterlimit:10;}
	.st137{fill:#FFE7B3;stroke:#231F20;stroke-width:3;stroke-linecap:round;stroke-linejoin:round;stroke-miterlimit:10;}
	.st138{fill:#2291AA;stroke:#231F20;stroke-width:3;stroke-linecap:round;stroke-linejoin:round;stroke-miterlimit:10;}
	.st139{fill:#2291AA;stroke:#231F20;stroke-width:3;stroke-miterlimit:10;}
	.st140{stroke:#000000;stroke-width:3;stroke-linecap:round;stroke-linejoin:round;stroke-miterlimit:10;}
	.st141{fill:#FFFFFF;stroke:#010101;stroke-width:3;stroke-linecap:round;stroke-linejoin:round;stroke-miterlimit:10;}
	.st142{fill:none;stroke:#231F20;stroke-width:3;stroke-linecap:round;stroke-linejoin:round;stroke-miterlimit:10;}
	.st143{fill:#FFFFFF;stroke:#231F20;stroke-width:3;stroke-linecap:round;stroke-linejoin:round;stroke-miterlimit:10;}
	.st144{fill:#E7C706;stroke:#000000;stroke-width:3;stroke-linecap:round;stroke-linejoin:round;}
	.st145{fill:none;stroke:#000000;stroke-width:3;stroke-linecap:round;stroke-linejoin:round;}
	.st146{fill:#333333;stroke:#000000;stroke-width:3;stroke-linecap:round;stroke-linejoin:round;}
	.st147{fill:#935328;stroke:#000000;stroke-width:3;stroke-linecap:round;stroke-linejoin:round;}
	.st148{fill:#593E2C;stroke:#000000;stroke-width:2.9408;stroke-miterlimit:10;}
	.st149{fill:#E5AF38;stroke:#000000;stroke-width:3.0793;stroke-linecap:round;stroke-linejoin:round;stroke-miterlimit:10;}
	.st150{fill:#0DA028;stroke:#020100;stroke-width:3;stroke-miterlimit:10;}
	.st151{fill:#0DA028;stroke:#000000;stroke-width:3;stroke-miterlimit:10;}
	.st152{fill:#AD313A;}
	.st153{fill:#AEDAFF;stroke:#000000;stroke-width:2.9408;stroke-miterlimit:10;}
	.st154{fill:#52768E;stroke:#000000;stroke-width:2.9408;stroke-miterlimit:10;}
	.st155{fill:#FBFB67;stroke:#000000;stroke-width:3;stroke-miterlimit:10;}
	.st156{fill:#6EC67E;stroke:#020100;stroke-width:3;stroke-miterlimit:10;}
	.st157{fill:#6EC67E;stroke:#000000;stroke-width:3;stroke-miterlimit:10;}
	.st158{fill:#F9E467;stroke:#000000;stroke-width:3.0817;stroke-linecap:round;stroke-linejoin:round;stroke-miterlimit:10;}
	.st159{fill:#69C8F7;stroke:#000000;stroke-width:3.0742;stroke-linecap:round;stroke-linejoin:round;stroke-miterlimit:10;}
	.st160{fill:#69C8F7;}
	.st161{fill:#69C8F7;stroke:#000000;stroke-width:3.0817;stroke-linecap:round;stroke-linejoin:round;stroke-miterlimit:10;}
	.st162{fill:#EA4B4B;stroke:#000000;stroke-width:2.7219;stroke-linecap:round;stroke-linejoin:round;stroke-miterlimit:10;}
	.st163{fill:#F9E467;}
	.st164{fill:#F16788;stroke:#000000;stroke-width:3;stroke-linecap:round;stroke-linejoin:round;stroke-miterlimit:10;}
	.st165{fill:#448944;}
	.st166{fill:#E74736;}
	.st167{fill:#EFCF88;stroke:#000000;stroke-width:3;stroke-linecap:round;stroke-linejoin:round;stroke-miterlimit:10;}
	.st168{fill:#EC6C5E;stroke:#000000;stroke-width:3;stroke-linecap:round;stroke-linejoin:round;stroke-miterlimit:10;}
	.st169{fill:none;stroke:#9AA6A6;stroke-width:3;stroke-linecap:round;stroke-linejoin:round;stroke-miterlimit:10;}
	.st170{fill:#564E3B;stroke:#010101;stroke-width:3;stroke-miterlimit:10;}
	.st171{fill:#FDC881;}
	.st172{fill:#E5AF38;stroke:#000000;stroke-width:3;stroke-miterlimit:10;}
	.st173{fill:none;stroke:#FF0049;stroke-width:3;stroke-linecap:round;stroke-linejoin:round;stroke-miterlimit:10;}
	.st174{fill:#C95138;stroke:#000000;stroke-width:3;stroke-linecap:round;stroke-linejoin:round;stroke-miterlimit:10;}
	.st175{fill:#BC7B22;stroke:#000000;stroke-width:3;stroke-linecap:round;stroke-linejoin:round;stroke-miterlimit:10;}
	.st176{fill:#FFCC3A;stroke:#000000;stroke-width:3;stroke-linecap:round;stroke-linejoin:round;stroke-miterlimit:10;}
	.st177{fill:#61C16A;stroke:#000000;stroke-width:2.8413;stroke-linecap:round;stroke-linejoin:round;stroke-miterlimit:10;}
	.st178{fill:#ED416A;stroke:#000000;stroke-width:3;stroke-linecap:round;stroke-linejoin:round;stroke-miterlimit:10;}
	.st179{opacity:0.25;}
	.st180{fill:#3C2415;}
	.st181{fill:#BBDD8C;stroke:#000000;stroke-width:3;stroke-miterlimit:10;}
	.st182{fill:#8CA669;}
	.st183{fill:none;stroke:#000000;stroke-width:5;stroke-linecap:round;stroke-linejoin:round;stroke-miterlimit:10;}
	.st184{fill:#775E49;stroke:#000000;stroke-width:3.0146;stroke-linecap:round;stroke-linejoin:round;stroke-miterlimit:10;}
	.st185{fill:#604B3C;stroke:#000000;stroke-width:2.5808;stroke-linecap:round;stroke-linejoin:round;stroke-miterlimit:10;}
	.st186{fill:none;stroke:#AED6D6;stroke-width:0.8108;stroke-miterlimit:10;}
	.st187{fill:none;stroke:#AED6D6;stroke-width:1.7979;stroke-miterlimit:10;}
	.st188{fill:none;stroke:#AED6D6;stroke-width:0.7832;stroke-miterlimit:10;}
	.st189{fill:none;stroke:#AED6D6;stroke-width:0.7585;stroke-miterlimit:10;}
	.st190{fill:none;stroke:#AED6D6;stroke-width:2.6852;stroke-miterlimit:10;}
	.st191{fill:none;stroke:#AED6D6;stroke-width:5.5987;stroke-miterlimit:10;}
	.st192{fill:none;stroke:#AED6D6;stroke-width:10;stroke-linecap:round;stroke-linejoin:round;stroke-miterlimit:10;}
	.st193{fill:#BC7B22;stroke:#231F20;stroke-width:3;stroke-linecap:round;stroke-linejoin:round;stroke-miterlimit:10;}
	.st194{fill:#EA4B4B;stroke:#000000;stroke-width:2.6625;stroke-linecap:round;stroke-linejoin:round;stroke-miterlimit:10;}
	.st195{fill:#BC7B22;stroke:#000000;stroke-width:2.6625;stroke-miterlimit:10;}
	.st196{fill:#FBA42D;stroke:#000000;stroke-width:2.6625;stroke-miterlimit:10;}
	.st197{fill:#FBA42D;stroke:#000000;stroke-width:2.6625;stroke-linecap:round;stroke-linejoin:round;stroke-miterlimit:10;}
	.st198{fill:#BC7B22;stroke:#000000;stroke-width:2.6625;stroke-linecap:round;stroke-linejoin:round;stroke-miterlimit:10;}
	.st199{fill:#23ACAB;stroke:#000000;stroke-width:3.1363;stroke-miterlimit:10;}
	.st200{fill:#90E05C;stroke:#000000;stroke-width:2.6625;stroke-miterlimit:10;}
	.st201{fill:#FBA42D;stroke:#000000;stroke-width:3;stroke-miterlimit:10;}
	.st202{fill:#23ACAB;stroke:#000000;stroke-width:3;stroke-miterlimit:10;}
	.st203{fill:none;stroke:#00FF0C;stroke-width:0.7413;stroke-miterlimit:10;}
	.st204{fill:#593E2C;stroke:#000000;stroke-width:2.9408;stroke-linecap:round;stroke-linejoin:round;stroke-miterlimit:10;}
	.st205{fill:#BD9779;stroke:#010101;stroke-width:3;stroke-linecap:round;stroke-linejoin:round;stroke-miterlimit:10;}
	.st206{fill:#FF6D00;}
	.st207{opacity:0.41;fill:#61BEBF;}
	.st208{opacity:0.5;fill:none;stroke:#2E1B8C;stroke-width:3;stroke-miterlimit:10;}
	.st209{fill:#F9E467;stroke:#000000;stroke-width:2.6479;stroke-linecap:round;stroke-linejoin:round;stroke-miterlimit:10;}
	.st210{fill:none;stroke:#000000;stroke-width:2.6479;stroke-linecap:round;stroke-linejoin:round;stroke-miterlimit:10;}
	.st211{fill:#F9E3B7;stroke:#231F20;stroke-width:3;stroke-linecap:round;stroke-linejoin:round;stroke-miterlimit:10;}
	.st212{fill:#FFF1D1;stroke:#231F20;stroke-width:3;stroke-linecap:round;stroke-linejoin:round;stroke-miterlimit:10;}
	.st213{fill:#F7EFA2;stroke:#231F20;stroke-width:3;stroke-miterlimit:10;}
	.st214{fill:#E58156;stroke:#231F20;stroke-width:3;stroke-linecap:round;stroke-linejoin:round;stroke-miterlimit:10;}
	.st215{fill:#F9E467;stroke:#000000;stroke-width:0.764;stroke-linecap:round;stroke-linejoin:round;stroke-miterlimit:10;}
	.st216{fill:#604B3C;stroke:#000000;stroke-width:1.1908;stroke-linecap:round;stroke-linejoin:round;stroke-miterlimit:10;}
	.st217{fill:#868786;stroke:#000000;stroke-width:3;stroke-linecap:round;stroke-linejoin:round;stroke-miterlimit:10;}
	.st218{fill:#775E49;stroke:#000000;stroke-width:2.5898;stroke-linecap:round;stroke-linejoin:round;stroke-miterlimit:10;}
	.st219{fill:#61C16A;stroke:#000000;stroke-width:3;stroke-miterlimit:10;}
	.st220{fill:#CA5535;stroke:#010101;stroke-width:3;stroke-miterlimit:10;}
	.st221{fill:#775E49;stroke:#010101;stroke-width:2.7722;stroke-miterlimit:10;}
	.st222{fill:#61C16A;stroke:#000000;stroke-width:3.0329;stroke-linecap:round;stroke-linejoin:round;stroke-miterlimit:10;}
	.st223{fill:none;stroke:#000000;stroke-width:3.0329;stroke-linecap:round;stroke-linejoin:round;stroke-miterlimit:10;}
</style>
<rect x="0.14" y="255.79" class="st0" width="240" height="104.21"/>
<rect x="0.14" y="0" class="st1" width="240" height="255.79"/>
<g>
	<g>
		<ellipse class="st7" cx="120.67" cy="293.94" rx="84.42" ry="18.17"/>
		<path class="st21" d="M121.79,259.25c-22.4,0-40.56,4.41-40.56,9.86v24.47c0,5.44,18.16,9.86,40.56,9.86
			c22.4,0,40.56-4.41,40.56-9.86v-24.47C162.35,263.67,144.19,259.25,121.79,259.25z"/>
		<ellipse class="st21" cx="121.79" cy="269.08" rx="40.56" ry="9.83"/>
		<path class="st21" d="M121.79,241.02c-11.58,0-20.96,2.28-20.96,5.09v19.61c0,2.81,9.39,5.09,20.96,5.09
			c11.58,0,20.96-2.28,20.96-5.09v-19.61C142.75,243.3,133.37,241.02,121.79,241.02z"/>
		<ellipse class="st21" cx="121.79" cy="246.1" rx="20.96" ry="5.08"/>
		<path class="st21" d="M121.79,233.86c-2.33,0-4.22,0.93-4.22,2.08v8.01c0,1.15,1.89,2.08,4.22,2.08c2.33,0,4.22-0.93,4.22-2.08
			v-8.01C126.01,234.79,124.12,233.86,121.79,233.86z"/>
	</g>
	<g>
		<line class="st5" x1="106.23" y1="35.19" x2="135.59" y2="224.69"/>
		<path class="st22" d="M140.42,223.82c-1.33,0.28-2.66,0.53-4.01,0.75c-48.39,7.82-93.95-25.07-101.77-73.46
			c-7.82-48.39,25.07-93.95,73.46-101.77c1.73-0.28,3.46-0.5,5.19-0.68l-1.56-10.04c-1.75,0.19-3.5,0.42-5.25,0.7
			c-53.92,8.71-90.57,59.49-81.85,113.41c8.71,53.92,59.49,90.57,113.41,81.85c1.33-0.21,2.64-0.46,3.95-0.73L140.42,223.82z"/>
		<g>
			<circle class="st2" cx="122" cy="136.99" r="81.07"/>
			<circle class="st23" cx="122" cy="136.99" r="81.07"/>
			<circle class="st23" cx="122" cy="136.99" r="81.07"/>
			<circle class="st23" cx="122" cy="136.99" r="81.07"/>
			<path class="st7" d="M150.02,194.53c-41.43,16.97-88.78-2.86-105.75-44.29c-1.31-3.2-2.4-6.44-3.28-9.69
				c0.4,9.09,2.34,18.27,5.99,27.18c16.97,41.43,64.32,61.26,105.75,44.29c38.23-15.66,58.07-57.18,47.57-96.06
				C201.75,149.16,182.55,181.2,150.02,194.53z"/>
			<path class="st24" d="M120.54,55.92c-0.61,0.08-1.21,0.16-1.82,0.23l0,0c0.8,1.56-0.45,2.1,2.52,4.74
				c2.6-0.81,4.19,0.19,6.06,0.69c2.59,1.11,3.29,0.02,4.91,0.01c1.51,0.92,6.31-1.15,3.95,3.29c2.03-1.59,4.3-0.85,6.66,0.74
				c3.13,1.66,3.13,2.21,3.15,2.75l-0.34,1.29c-0.5-0.81-1.03-1.32-1.79-0.13c-0.26-3.12-1.93-1.83-3.39-1.21
				c0,0-0.65-0.89-2.98-0.22c-2.33,0.66-2.27,1.51-2.27,1.51l1.45,1.43l4.82-0.42c1.13,1.31,2.2,2.92,3.68,2.13l0.81,1.98
				c0,0-2.93,5.53-1.79,6.22c1.15,0.69,4.34,2.84,4.34,2.84l3.17-0.72l2.4-3.3l0.22-2.98c1.58,0.1,3.05-2.66,5.5,0.45
				c0.76,0.97,2.5,0.24,3.79,0.37l-0.73,1.74l3.49,1.46l3.87-0.43l3.34,1.81l-2.48-0.26l-3.46,1.68l-3.57-0.85
				c0,0-3.11-3.19-4.4-2.09c-1.28,1.1-8.25,4.54-8.25,4.54l-2.3,3.54l0.53,4.12l-3.62,4.22l4.93,10.26l-3.57,2.85l7.88,8.38
				l4.65,3.59l5.15-1.53l3.67-0.92l2.61-2.8l2.9,2.85l5.25-1.28l0.08,3.72l-2.15,4.63l4.24,2.6l0.16,7.44l-1.11,3.63l-0.14,6.7
				l1.44,6.34l4.21,4.63l3.35,3.25l6.96-4.87l5.4-12.9c0.42-0.81,0.76-1.63,1.03-2.47c0.61-11.59-1.26-23.49-5.95-34.94
				C183.98,74.42,152.99,55.34,120.54,55.92z"/>
			<path class="st24" d="M128.31,131.55l-14.77-4.57l-9.5-3.61l-9.36-2.15c-1.32,0.04-2.42,0.34-3.22,0.98
				c0,0.57-0.16,1.12-0.88,1.59c-0.81-0.15-1.16-0.58-1.2-1.18c-0.64-0.18-1.21-0.13-1.63,0.54l-1.23,1.47l-2.11,2.45
				c-2.01,0.1-4.03,0.11-5.99,0.97l-1.81-2.68c-1.63-2.11-1.62-2.92,0.23-4.43c-0.63-1.48-2.5-0.76-3.93-0.99
				c-0.04-0.93-0.2-1.92,0.55-2.52c0.37-0.86,1.43-1.87,0.96-2.89c-1.4,0.24-3.35,0.5-4.44,1.51l-0.16,2.86l-1.51,1.04
				c-1.01,0.07-1.62-0.79-2.23-1.69c-0.45-1.44-1.02-2.91-0.46-4.1c1.1-2.72,2.59-4.94,4.25-6.95c1.86-1.45,3.84-2.75,6.01-3.79
				l1.32,1.64l2.68,5.51c1.95,0.64,2.14,0,2.77-0.72l-2.04-8.97l3.59-7.19l6.34-5.46l4.88-4.04l5.06,0.38l-6.92-4.93l5.9,0.44
				l4.42-0.18l-3.55-4.67l-6.28-4.37l-4.1,4.95l-3.07,2.48l-4.5-1.02l-2.75-1.73c0,0-3.47-2.18-6.41-3.28
				c-4.42,3.33-8.44,7.07-12.02,11.14l0.89,2.18l-1.89,9.35l-4.5,7.97c-0.7,1.47-1.4,2.93-1.13,5.47c0.14,1.89,1.13,3.77,1.91,5.65
				c1.06,0.41,1.09-0.3,1.49-0.61c-0.38-1.4-0.66-2.48-0.34-5.07l1.01-0.16c-0.51,1.26-0.71,3.3,0.56,9.22
				c0.85,2.98,2.58,4.3,4.33,5.58c3.07,1.02,5.81-1.58,9.55,2.62l4.2,5.53c1.26-0.59,1.4,0.7,1.88,1.33
				c0.44,0.57,1.32-1.37,2.1-1.56c2.28-0.55,2.84-0.93,5.02-1.37l-5.58,15.41c0.45,4.3,2.59,5.55,4.55,7.12l5.52,5.5l1.37,4.34
				l8.18,12.99l1.88,6.58l8.37,19.45c3.58,2.16,5.34,1.39,7.38,1.06c0,0-2.1-5.88-3.06-8.96c-0.57-1.84,3.64-5.58,3.64-5.58
				c-2.19-5.2-0.47-6.09,1.21-7.03l4.47-3.06c0.77-4.1,1.41-8.08,0.27-10.32l3.89-0.98l2.13-5.77c0.18-4.57-0.99-5.94-0.2-7.84
				l3.69-4.07l-0.31-6.75l-1.05-6.38L128.31,131.55z"/>
		</g>
	</g>
</g>
<g>
	<text transform="matrix(1 0 0 1 52.6049 343.9155)" class="st67 st68">EL MUNDO</text>
</g>
<text transform="matrix(1 0 0 1 12.3221 28.4911)" class="st67 st68">37</text>
</svg>
