<?xml version="1.0" encoding="utf-8"?>
<!-- Generator: Adobe Illustrator 24.0.0, SVG Export Plug-In . SVG Version: 6.00 Build 0)  -->
<svg version="1.1" id="Layer_1" xmlns="http://www.w3.org/2000/svg" xmlns:xlink="http://www.w3.org/1999/xlink" x="0px" y="0px"
	 viewBox="0 0 240 360" style="enable-background:new 0 0 240 360;" xml:space="preserve">
<style type="text/css">
	.st0{fill:#AED6D6;}
	.st1{fill:#D3A8B9;}
	.st2{fill:#66CEF5;}
	.st3{fill:#8EDCF4;}
	.st4{fill:#61BEBF;}
	.st5{fill:none;stroke:#000000;stroke-width:3;stroke-linecap:round;stroke-linejoin:round;stroke-miterlimit:10;}
	.st6{fill:#A4D165;}
	.st7{opacity:0.25;fill:#3C2415;}
	.st8{fill:#8DC63F;stroke:#010101;stroke-width:10.905;stroke-linecap:round;stroke-linejoin:round;stroke-miterlimit:10;}
	.st9{fill:#A7744D;stroke:#010101;stroke-width:9.1692;stroke-linecap:round;stroke-linejoin:round;stroke-miterlimit:10;}
	.st10{fill:#0DA028;}
	.st11{fill:#61C16A;}
	.st12{fill:#A3E2F9;}
	.st13{fill:#5AB75A;}
	.st14{fill:none;stroke:#000000;stroke-width:3.0664;stroke-linecap:round;stroke-linejoin:round;stroke-miterlimit:10;}
	.st15{fill:#98DBED;}
	.st16{fill:#9C9BBD;}
	.st17{fill:#FFFFFF;}
	.st18{fill:#EDECFC;stroke:#231F20;stroke-width:3;stroke-miterlimit:10;}
	.st19{fill:none;stroke:#231F20;stroke-width:3;stroke-miterlimit:10;}
	.st20{fill:#FFFFFF;stroke:#000000;stroke-width:3;stroke-linecap:round;stroke-linejoin:round;stroke-miterlimit:10;}
	.st21{fill:#BC7B22;stroke:#000000;stroke-width:3;stroke-miterlimit:10;}
	.st22{fill:#E5AF38;stroke:#000000;stroke-width:3;stroke-linecap:round;stroke-linejoin:round;stroke-miterlimit:10;}
	.st23{fill:none;stroke:#000000;stroke-width:3;stroke-miterlimit:10;}
	.st24{fill:#927E6D;stroke:#000000;stroke-width:3;stroke-linecap:round;stroke-linejoin:round;stroke-miterlimit:10;}
	.st25{fill:#F7D970;}
	.st26{fill:none;}
	.st27{fill:#3F3F3F;stroke:#000000;stroke-width:3;stroke-linecap:round;stroke-linejoin:round;stroke-miterlimit:10;}
	.st28{fill:#775E49;stroke:#000000;stroke-width:3;stroke-linecap:round;stroke-linejoin:round;stroke-miterlimit:10;}
	.st29{fill:#EDBB91;stroke:#000000;stroke-width:3;stroke-linecap:round;stroke-linejoin:round;stroke-miterlimit:10;}
	.st30{fill:#B03838;stroke:#000000;stroke-width:3;stroke-linecap:round;stroke-linejoin:round;stroke-miterlimit:10;}
	.st31{fill:#739144;stroke:#010101;stroke-width:3;stroke-linecap:round;stroke-linejoin:round;stroke-miterlimit:10;}
	.st32{stroke:#000000;stroke-width:2.5622;stroke-linecap:round;stroke-linejoin:round;stroke-miterlimit:10;}
	.st33{stroke:#000000;stroke-width:2.4972;stroke-linecap:round;stroke-linejoin:round;stroke-miterlimit:10;}
	.st34{stroke:#000000;stroke-width:3.4363;stroke-linecap:round;stroke-linejoin:round;stroke-miterlimit:10;}
	.st35{stroke:#000000;stroke-width:2.0766;stroke-linecap:round;stroke-linejoin:round;stroke-miterlimit:10;}
	.st36{fill:#BB502C;stroke:#000000;stroke-width:3;stroke-linecap:round;stroke-linejoin:round;}
	.st37{fill:#B03838;}
	.st38{fill:#EA4B4B;stroke:#000000;stroke-width:3;stroke-linecap:round;stroke-linejoin:round;stroke-miterlimit:10;}
	.st39{fill:#FADD6B;}
	.st40{fill:#7DA5A5;}
	.st41{fill:#EE6F6F;stroke:#000000;stroke-width:3;stroke-linecap:round;stroke-linejoin:round;stroke-miterlimit:10;}
	.st42{fill:#EDBB91;stroke:#000000;stroke-width:3.1272;stroke-linecap:round;stroke-linejoin:round;stroke-miterlimit:10;}
	.st43{fill:#E5EDED;stroke:#010101;stroke-width:3;stroke-linecap:round;stroke-linejoin:round;stroke-miterlimit:10;}
	.st44{fill:#AEDAFF;stroke:#000000;stroke-width:3;stroke-miterlimit:10;}
	.st45{fill:#FFFFFF;stroke:#000000;stroke-width:3;stroke-miterlimit:10;}
	.st46{fill:#FBFB67;stroke:#000000;stroke-width:3;stroke-linecap:round;stroke-linejoin:round;stroke-miterlimit:10;}
	.st47{fill:none;stroke:#000000;stroke-width:2.8924;stroke-linecap:round;stroke-linejoin:round;stroke-miterlimit:10;}
	.st48{fill:#85D8F7;}
	.st49{fill:#66A488;}
	.st50{fill:#A4CAF8;}
	.st51{fill:#E2D881;stroke:#000000;stroke-width:3;stroke-linecap:round;stroke-linejoin:round;stroke-miterlimit:10;}
	.st52{fill:#61C16A;stroke:#000000;stroke-width:3;stroke-linecap:round;stroke-linejoin:round;stroke-miterlimit:10;}
	.st53{fill:#F2618B;stroke:#000000;stroke-width:2.8224;stroke-linecap:round;stroke-linejoin:round;stroke-miterlimit:10;}
	.st54{fill:#D68630;stroke:#000000;stroke-width:3.7448;stroke-linecap:round;stroke-linejoin:round;stroke-miterlimit:10;}
	.st55{fill:#EFCFAC;stroke:#000000;stroke-width:3.7448;stroke-linecap:round;stroke-linejoin:round;stroke-miterlimit:10;}
	.st56{fill:#F9D042;}
	.st57{fill:#D79B80;}
	.st58{fill:#E6DEA0;}
	.st59{fill:#E2A99A;}
	.st60{fill:#61BED4;}
	.st61{fill:#F7E99C;}
	.st62{fill:#DDDCE5;}
	.st63{fill:#EECE66;}
	.st64{fill:#E8DB5F;}
	.st65{fill:#DE959B;}
	.st66{fill:#33BEF2;}
	.st67{font-family:'Futura-Medium';}
	.st68{font-size:24.6402px;}
	.st69{fill:#F1F2F2;stroke:#000000;stroke-width:3;stroke-linecap:round;stroke-linejoin:round;stroke-miterlimit:10;}
	.st70{fill:#FFCC3A;stroke:#231F20;stroke-width:3;stroke-linecap:round;stroke-linejoin:round;stroke-miterlimit:10;}
	.st71{fill:#66A488;stroke:#000000;stroke-width:3;stroke-linecap:round;stroke-linejoin:round;stroke-miterlimit:10;}
	.st72{fill:#5B9CBC;stroke:#000000;stroke-width:2.7298;stroke-linecap:round;stroke-linejoin:round;stroke-miterlimit:10;}
	.st73{fill:#EA4B4B;}
	.st74{fill:#F2618B;stroke:#000000;stroke-width:3;stroke-linecap:round;stroke-linejoin:round;stroke-miterlimit:10;}
	.st75{fill:#F2618B;stroke:#000000;stroke-width:2.8253;stroke-linecap:round;stroke-linejoin:round;stroke-miterlimit:10;}
	.st76{fill:#66A488;stroke:#010101;stroke-width:3;stroke-miterlimit:10;}
	.st77{fill:#EDBB91;stroke:#000000;stroke-width:4.1741;stroke-linecap:round;stroke-linejoin:round;stroke-miterlimit:10;}
	.st78{fill:#EDC620;stroke:#000000;stroke-width:3;stroke-linecap:round;stroke-linejoin:round;stroke-miterlimit:10;}
	.st79{fill:#606060;stroke:#000000;stroke-width:3;stroke-linecap:round;stroke-linejoin:round;stroke-miterlimit:10;}
	.st80{fill:#FFEC8D;stroke:#000000;stroke-width:3;stroke-miterlimit:10;}
	.st81{fill:none;stroke:#FFFFFF;stroke-width:3;stroke-linecap:round;stroke-linejoin:round;stroke-miterlimit:10;}
	.st82{fill:none;stroke:#000000;stroke-width:3.182;stroke-linecap:round;stroke-linejoin:round;stroke-miterlimit:10;}
	.st83{fill:#60605F;stroke:#000000;stroke-width:3;stroke-linecap:round;stroke-linejoin:round;stroke-miterlimit:10;}
	.st84{fill:#EACB49;stroke:#000000;stroke-width:3;stroke-linecap:round;stroke-linejoin:round;stroke-miterlimit:10;}
	.st85{fill:#5AB75A;stroke:#000000;stroke-width:3;stroke-linecap:round;stroke-linejoin:round;stroke-miterlimit:10;}
	.st86{fill:#A57E50;stroke:#000000;stroke-width:3;stroke-linecap:round;stroke-linejoin:round;stroke-miterlimit:10;}
	.st87{fill:#91C3CC;}
	.st88{fill:#FC90A2;}
	.st89{fill:#FB6B83;}
	.st90{fill:#6D9299;}
	.st91{fill:#FCD566;stroke:#010101;stroke-width:3;stroke-linecap:round;stroke-linejoin:round;stroke-miterlimit:10;}
	.st92{fill:#977D33;stroke:#010101;stroke-width:3;stroke-linecap:round;stroke-linejoin:round;stroke-miterlimit:10;}
	.st93{fill:#655833;stroke:#010101;stroke-width:3;stroke-linecap:round;stroke-linejoin:round;stroke-miterlimit:10;}
	.st94{fill:#533F28;stroke:#000000;stroke-width:3;stroke-linecap:round;stroke-linejoin:round;stroke-miterlimit:10;}
	.st95{fill:#F18067;stroke:#231F20;stroke-width:3;stroke-miterlimit:10;}
	.st96{fill:#FFF0A4;stroke:#000000;stroke-width:3;stroke-miterlimit:10;}
	.st97{fill:#648959;stroke:#000000;stroke-width:3;stroke-linecap:round;stroke-linejoin:round;stroke-miterlimit:10;}
	.st98{fill:#FBB8B4;}
	.st99{fill:#9BD1BC;}
	.st100{opacity:0.3;}
	.st101{opacity:0.5;fill:#3C2415;}
	.st102{fill:#BD9779;stroke:#010101;stroke-width:3;stroke-miterlimit:10;}
	.st103{fill:#915120;stroke:#010101;stroke-width:3;stroke-miterlimit:10;}
	.st104{fill:none;stroke:#010101;stroke-width:3;stroke-miterlimit:10;}
	.st105{fill:#F4777C;stroke:#010101;stroke-width:3;stroke-miterlimit:10;}
	.st106{fill:#DBDBDB;stroke:#010101;stroke-width:3;stroke-miterlimit:10;}
	.st107{fill:#335D49;stroke:#010101;stroke-width:3;stroke-miterlimit:10;}
	.st108{fill:#F4777C;stroke:#010101;stroke-width:3;stroke-linecap:round;stroke-linejoin:round;stroke-miterlimit:10;}
	.st109{fill:#66A488;stroke:#010101;stroke-width:3;stroke-linecap:round;stroke-linejoin:round;stroke-miterlimit:10;}
	.st110{fill:#DBDBDB;stroke:#010101;stroke-width:3;stroke-linecap:round;stroke-linejoin:round;stroke-miterlimit:10;}
	.st111{fill:#A7744D;stroke:#010101;stroke-width:3;stroke-linecap:round;stroke-linejoin:round;stroke-miterlimit:10;}
	.st112{fill:#8DC63F;stroke:#010101;stroke-width:3;stroke-linecap:round;stroke-linejoin:round;stroke-miterlimit:10;}
	.st113{fill:none;stroke:#010101;stroke-width:3;stroke-linecap:round;stroke-linejoin:round;stroke-miterlimit:10;}
	.st114{fill:#67BCD9;}
	.st115{fill:#CEC746;stroke:#231F20;stroke-width:3;stroke-miterlimit:10;}
	.st116{fill:#F69E66;stroke:#231F20;stroke-width:3;stroke-miterlimit:10;}
	.st117{fill:#F7815C;stroke:#231F20;stroke-width:3;stroke-miterlimit:10;}
	.st118{fill:#A89F5A;stroke:#231F20;stroke-width:3;stroke-miterlimit:10;}
	.st119{fill:#F29393;stroke:#231F20;stroke-width:3;stroke-miterlimit:10;}
	.st120{fill:#A3E2F9;stroke:#231F20;stroke-width:3;stroke-miterlimit:10;}
	.st121{opacity:0.5;}
	.st122{fill:#593E2C;stroke:#000000;stroke-width:3;stroke-miterlimit:10;}
	.st123{fill:#593E2C;stroke:#000000;stroke-width:2.8651;stroke-miterlimit:10;}
	.st124{fill:#E74736;stroke:#000000;stroke-width:3;stroke-linecap:round;stroke-linejoin:round;stroke-miterlimit:10;}
	.st125{fill:#F9E467;stroke:#000000;stroke-width:3;stroke-linecap:round;stroke-linejoin:round;stroke-miterlimit:10;}
	.st126{fill:#D68630;stroke:#000000;stroke-width:3;stroke-linecap:round;stroke-linejoin:round;stroke-miterlimit:10;}
	.st127{fill:#C95138;stroke:#231F20;stroke-width:3;stroke-linecap:round;stroke-linejoin:round;stroke-miterlimit:10;}
	.st128{fill:#231F20;}
	.st129{stroke:#000000;stroke-width:2.3082;stroke-linecap:round;stroke-linejoin:round;stroke-miterlimit:10;}
	.st130{fill:#E58156;stroke:#231F20;stroke-width:3;stroke-miterlimit:10;}
	.st131{fill:#FBA42D;stroke:#231F20;stroke-width:3;stroke-miterlimit:10;}
	.st132{fill:#BC7B22;stroke:#231F20;stroke-width:3;stroke-miterlimit:10;}
	.st133{stroke:#000000;stroke-width:2.3954;stroke-linecap:round;stroke-linejoin:round;stroke-miterlimit:10;}
	.st134{stroke:#000000;stroke-width:3.0772;stroke-linecap:round;stroke-linejoin:round;stroke-miterlimit:10;}
	.st135{fill:#842A2A;stroke:#000000;stroke-width:3;stroke-linecap:round;stroke-linejoin:round;stroke-miterlimit:10;}
	.st136{fill:#5B9CBC;stroke:#000000;stroke-width:2.495;stroke-linecap:round;stroke-linejoin:round;stroke-miterlimit:10;}
	.st137{fill:#FFE7B3;stroke:#231F20;stroke-width:3;stroke-linecap:round;stroke-linejoin:round;stroke-miterlimit:10;}
	.st138{fill:#2291AA;stroke:#231F20;stroke-width:3;stroke-linecap:round;stroke-linejoin:round;stroke-miterlimit:10;}
	.st139{fill:#2291AA;stroke:#231F20;stroke-width:3;stroke-miterlimit:10;}
	.st140{stroke:#000000;stroke-width:3;stroke-linecap:round;stroke-linejoin:round;stroke-miterlimit:10;}
	.st141{fill:#FFFFFF;stroke:#010101;stroke-width:3;stroke-linecap:round;stroke-linejoin:round;stroke-miterlimit:10;}
	.st142{fill:none;stroke:#231F20;stroke-width:3;stroke-linecap:round;stroke-linejoin:round;stroke-miterlimit:10;}
	.st143{fill:#FFFFFF;stroke:#231F20;stroke-width:3;stroke-linecap:round;stroke-linejoin:round;stroke-miterlimit:10;}
	.st144{fill:#E7C706;stroke:#000000;stroke-width:3;stroke-linecap:round;stroke-linejoin:round;}
	.st145{fill:none;stroke:#000000;stroke-width:3;stroke-linecap:round;stroke-linejoin:round;}
	.st146{fill:#333333;stroke:#000000;stroke-width:3;stroke-linecap:round;stroke-linejoin:round;}
	.st147{fill:#935328;stroke:#000000;stroke-width:3;stroke-linecap:round;stroke-linejoin:round;}
	.st148{fill:#593E2C;stroke:#000000;stroke-width:2.9408;stroke-miterlimit:10;}
	.st149{fill:#E5AF38;stroke:#000000;stroke-width:3.0793;stroke-linecap:round;stroke-linejoin:round;stroke-miterlimit:10;}
	.st150{fill:#0DA028;stroke:#020100;stroke-width:3;stroke-miterlimit:10;}
	.st151{fill:#0DA028;stroke:#000000;stroke-width:3;stroke-miterlimit:10;}
	.st152{fill:#AD313A;}
	.st153{fill:#AEDAFF;stroke:#000000;stroke-width:2.9408;stroke-miterlimit:10;}
	.st154{fill:#52768E;stroke:#000000;stroke-width:2.9408;stroke-miterlimit:10;}
	.st155{fill:#FBFB67;stroke:#000000;stroke-width:3;stroke-miterlimit:10;}
	.st156{fill:#6EC67E;stroke:#020100;stroke-width:3;stroke-miterlimit:10;}
	.st157{fill:#6EC67E;stroke:#000000;stroke-width:3;stroke-miterlimit:10;}
	.st158{fill:#F9E467;stroke:#000000;stroke-width:3.0817;stroke-linecap:round;stroke-linejoin:round;stroke-miterlimit:10;}
	.st159{fill:#69C8F7;stroke:#000000;stroke-width:3.0742;stroke-linecap:round;stroke-linejoin:round;stroke-miterlimit:10;}
	.st160{fill:#69C8F7;}
	.st161{fill:#69C8F7;stroke:#000000;stroke-width:3.0817;stroke-linecap:round;stroke-linejoin:round;stroke-miterlimit:10;}
	.st162{fill:#EA4B4B;stroke:#000000;stroke-width:2.7219;stroke-linecap:round;stroke-linejoin:round;stroke-miterlimit:10;}
	.st163{fill:#F9E467;}
	.st164{fill:#F16788;stroke:#000000;stroke-width:3;stroke-linecap:round;stroke-linejoin:round;stroke-miterlimit:10;}
	.st165{fill:#448944;}
	.st166{fill:#E74736;}
	.st167{fill:#EFCF88;stroke:#000000;stroke-width:3;stroke-linecap:round;stroke-linejoin:round;stroke-miterlimit:10;}
	.st168{fill:#EC6C5E;stroke:#000000;stroke-width:3;stroke-linecap:round;stroke-linejoin:round;stroke-miterlimit:10;}
	.st169{fill:none;stroke:#9AA6A6;stroke-width:3;stroke-linecap:round;stroke-linejoin:round;stroke-miterlimit:10;}
	.st170{fill:#564E3B;stroke:#010101;stroke-width:3;stroke-miterlimit:10;}
	.st171{fill:#FDC881;}
	.st172{fill:#E5AF38;stroke:#000000;stroke-width:3;stroke-miterlimit:10;}
	.st173{fill:none;stroke:#FF0049;stroke-width:3;stroke-linecap:round;stroke-linejoin:round;stroke-miterlimit:10;}
	.st174{fill:#C95138;stroke:#000000;stroke-width:3;stroke-linecap:round;stroke-linejoin:round;stroke-miterlimit:10;}
	.st175{fill:#BC7B22;stroke:#000000;stroke-width:3;stroke-linecap:round;stroke-linejoin:round;stroke-miterlimit:10;}
	.st176{fill:#FFCC3A;stroke:#000000;stroke-width:3;stroke-linecap:round;stroke-linejoin:round;stroke-miterlimit:10;}
	.st177{fill:#61C16A;stroke:#000000;stroke-width:2.8413;stroke-linecap:round;stroke-linejoin:round;stroke-miterlimit:10;}
	.st178{fill:#ED416A;stroke:#000000;stroke-width:3;stroke-linecap:round;stroke-linejoin:round;stroke-miterlimit:10;}
	.st179{opacity:0.25;}
	.st180{fill:#3C2415;}
	.st181{fill:#BBDD8C;stroke:#000000;stroke-width:3;stroke-miterlimit:10;}
	.st182{fill:#8CA669;}
	.st183{fill:none;stroke:#000000;stroke-width:5;stroke-linecap:round;stroke-linejoin:round;stroke-miterlimit:10;}
	.st184{fill:#775E49;stroke:#000000;stroke-width:3.0146;stroke-linecap:round;stroke-linejoin:round;stroke-miterlimit:10;}
	.st185{fill:#604B3C;stroke:#000000;stroke-width:2.5808;stroke-linecap:round;stroke-linejoin:round;stroke-miterlimit:10;}
	.st186{fill:none;stroke:#AED6D6;stroke-width:0.8108;stroke-miterlimit:10;}
	.st187{fill:none;stroke:#AED6D6;stroke-width:1.7979;stroke-miterlimit:10;}
	.st188{fill:none;stroke:#AED6D6;stroke-width:0.7832;stroke-miterlimit:10;}
	.st189{fill:none;stroke:#AED6D6;stroke-width:0.7585;stroke-miterlimit:10;}
	.st190{fill:none;stroke:#AED6D6;stroke-width:2.6852;stroke-miterlimit:10;}
	.st191{fill:none;stroke:#AED6D6;stroke-width:5.5987;stroke-miterlimit:10;}
	.st192{fill:none;stroke:#AED6D6;stroke-width:10;stroke-linecap:round;stroke-linejoin:round;stroke-miterlimit:10;}
	.st193{fill:#BC7B22;stroke:#231F20;stroke-width:3;stroke-linecap:round;stroke-linejoin:round;stroke-miterlimit:10;}
	.st194{fill:#EA4B4B;stroke:#000000;stroke-width:2.6625;stroke-linecap:round;stroke-linejoin:round;stroke-miterlimit:10;}
	.st195{fill:#BC7B22;stroke:#000000;stroke-width:2.6625;stroke-miterlimit:10;}
	.st196{fill:#FBA42D;stroke:#000000;stroke-width:2.6625;stroke-miterlimit:10;}
	.st197{fill:#FBA42D;stroke:#000000;stroke-width:2.6625;stroke-linecap:round;stroke-linejoin:round;stroke-miterlimit:10;}
	.st198{fill:#BC7B22;stroke:#000000;stroke-width:2.6625;stroke-linecap:round;stroke-linejoin:round;stroke-miterlimit:10;}
	.st199{fill:#23ACAB;stroke:#000000;stroke-width:3.1363;stroke-miterlimit:10;}
	.st200{fill:#90E05C;stroke:#000000;stroke-width:2.6625;stroke-miterlimit:10;}
	.st201{fill:#FBA42D;stroke:#000000;stroke-width:3;stroke-miterlimit:10;}
	.st202{fill:#23ACAB;stroke:#000000;stroke-width:3;stroke-miterlimit:10;}
	.st203{fill:none;stroke:#00FF0C;stroke-width:0.7413;stroke-miterlimit:10;}
	.st204{fill:#593E2C;stroke:#000000;stroke-width:2.9408;stroke-linecap:round;stroke-linejoin:round;stroke-miterlimit:10;}
	.st205{fill:#BD9779;stroke:#010101;stroke-width:3;stroke-linecap:round;stroke-linejoin:round;stroke-miterlimit:10;}
	.st206{fill:#FF6D00;}
	.st207{opacity:0.41;fill:#61BEBF;}
	.st208{opacity:0.5;fill:none;stroke:#2E1B8C;stroke-width:3;stroke-miterlimit:10;}
	.st209{fill:#F9E467;stroke:#000000;stroke-width:2.6479;stroke-linecap:round;stroke-linejoin:round;stroke-miterlimit:10;}
	.st210{fill:none;stroke:#000000;stroke-width:2.6479;stroke-linecap:round;stroke-linejoin:round;stroke-miterlimit:10;}
	.st211{fill:#F9E3B7;stroke:#231F20;stroke-width:3;stroke-linecap:round;stroke-linejoin:round;stroke-miterlimit:10;}
	.st212{fill:#FFF1D1;stroke:#231F20;stroke-width:3;stroke-linecap:round;stroke-linejoin:round;stroke-miterlimit:10;}
	.st213{fill:#F7EFA2;stroke:#231F20;stroke-width:3;stroke-miterlimit:10;}
	.st214{fill:#E58156;stroke:#231F20;stroke-width:3;stroke-linecap:round;stroke-linejoin:round;stroke-miterlimit:10;}
	.st215{fill:#F9E467;stroke:#000000;stroke-width:0.764;stroke-linecap:round;stroke-linejoin:round;stroke-miterlimit:10;}
	.st216{fill:#604B3C;stroke:#000000;stroke-width:1.1908;stroke-linecap:round;stroke-linejoin:round;stroke-miterlimit:10;}
	.st217{fill:#868786;stroke:#000000;stroke-width:3;stroke-linecap:round;stroke-linejoin:round;stroke-miterlimit:10;}
	.st218{fill:#775E49;stroke:#000000;stroke-width:2.5898;stroke-linecap:round;stroke-linejoin:round;stroke-miterlimit:10;}
	.st219{fill:#61C16A;stroke:#000000;stroke-width:3;stroke-miterlimit:10;}
	.st220{fill:#CA5535;stroke:#010101;stroke-width:3;stroke-miterlimit:10;}
	.st221{fill:#775E49;stroke:#010101;stroke-width:2.7722;stroke-miterlimit:10;}
	.st222{fill:#61C16A;stroke:#000000;stroke-width:3.0329;stroke-linecap:round;stroke-linejoin:round;stroke-miterlimit:10;}
	.st223{fill:none;stroke:#000000;stroke-width:3.0329;stroke-linecap:round;stroke-linejoin:round;stroke-miterlimit:10;}
</style>
<rect x="0" y="0" class="st39" width="240" height="360"/>
<g>
	<text transform="matrix(1 0 0 1 44.6156 343.9155)" class="st67 st68">EL ALACRÁN</text>
</g>
<text transform="matrix(1 0 0 1 12.3221 28.4911)" class="st67 st68">40</text>
<g>
	<g class="st179">
		<path class="st180" d="M122.74,204.62c3.46,0,6.28-2.77,6.28-6.15v-2.78c0-3.39-2.83-6.15-6.28-6.15h4.34
			c2.37,0,4.45-1.31,5.52-3.22l8.16,5.44c0.42,0.28,0.91,0.42,1.41,0.42h15.92c0.55,0,1.09-0.18,1.53-0.51l15.28-11.56
			c1.09-0.83,1.29-2.36,0.45-3.43c-0.84-1.07-2.41-1.27-3.51-0.44l-14.6,11.05h-14.3l-9.57-6.38v-0.3c0-3.38-2.83-6.15-6.28-6.15
			c2.36,0,4.42-1.29,5.5-3.18l11.96,7.03c0.39,0.23,0.84,0.35,1.29,0.35c0.25,0,0.5-0.04,0.75-0.11l19.58-6
			c0.49-0.15,0.93-0.45,1.24-0.85l13.27-17.03c0.84-1.08,0.63-2.61-0.47-3.43c-1.1-0.82-2.67-0.61-3.5,0.46l-12.78,16.41
			l-17.75,5.44l-12.78-7.51v-0.5c0-3.38-2.83-6.15-6.28-6.15c2.73,0,5.07-1.74,5.93-4.14l11.57,7.18c0.41,0.25,0.87,0.38,1.34,0.38
			c0.28,0,0.56-0.05,0.84-0.14l18.3-6.36c0.43-0.15,0.82-0.42,1.11-0.77l13.17-15.95c0.87-1.05,0.7-2.59-0.37-3.44
			c-1.07-0.85-2.65-0.69-3.52,0.36l-12.73,15.41l-16.49,5.73l-12.92-8.02c-0.41-3-3.05-5.34-6.22-5.34h-4.34
			c3.19,0,5.85-2.37,6.23-5.4l10.32,6.25c0.4,0.24,0.86,0.37,1.31,0.37c0.29,0,0.58-0.05,0.85-0.15l12.35-4.39
			c0.42-0.15,0.79-0.41,1.08-0.75l6.77-8.06c0.88-1.04,0.72-2.59-0.34-3.45c-1.07-0.86-2.64-0.71-3.52,0.34l-6.34,7.55l-10.57,3.76
			l-11.87-7.19v-2.63c0-1.8-0.8-3.41-2.06-4.54h17.82c0.97,0,1.85-0.55,2.26-1.41l8.92-18.7c0.18-0.39,0.26-0.81,0.23-1.24
			l-1.99-23.6c0.41-0.32,0.79-0.67,1.1-1.07c0.42-0.47,0.78-1.11,1.03-1.91c0.29-0.83,0.44-1.73,0.44-2.67
			c0.07-1.72-0.18-3.57-0.69-5.32c0,0,0,0,0,0c-0.72-3.26-5.03-16.3-8.67-14.32c1.51,3.05,3.76,9.41,1.79,13.62
			c-0.29,0.58-0.52,1.29-0.66,2.13c-0.07,0.43-0.12,0.88-0.14,1.34c-0.49-0.53-1-1.02-1.52-1.46c-0.73-0.61-1.43-1.07-2.09-1.39
			c-4.66-2.39-7.27-8.74-8.35-12.06c-4.3,0.34,2.01,13.39,3.86,16.46c0,0,0,0,0,0c0.93,1.79,2.18,3.52,3.58,4.92
			c0.65,0.71,1.37,1.31,2.14,1.78c0.96,0.63,1.86,0.99,2.64,1.09c0.21,0.05,0.42,0.09,0.63,0.12l1.86,22.11l-7.97,16.7h-18.44
			c-1.38,0-2.5,1.1-2.5,2.45c0,0.29,0.06,0.57,0.16,0.84h-15.77c0.1-0.26,0.16-0.54,0.16-0.84c0-1.35-1.12-2.45-2.5-2.45H85.85
			l-7.97-16.7l1.86-22.11c0.21-0.03,0.42-0.07,0.63-0.12c0.78-0.1,1.67-0.46,2.64-1.09c0.77-0.47,1.49-1.07,2.14-1.78
			c1.4-1.4,2.64-3.13,3.58-4.92c0,0,0,0,0,0c1.85-3.07,8.16-16.12,3.86-16.46c-1.08,3.32-3.69,9.67-8.35,12.06
			c-0.66,0.32-1.36,0.78-2.09,1.39c-0.53,0.44-1.03,0.93-1.52,1.46c-0.02-0.46-0.07-0.91-0.14-1.34c-0.14-0.83-0.37-1.54-0.66-2.13
			c-1.97-4.21,0.27-10.57,1.79-13.62c-3.64-1.98-7.95,11.06-8.67,14.32c0,0,0,0,0,0c-0.51,1.75-0.77,3.61-0.69,5.32
			c0,0.94,0.15,1.84,0.44,2.67c0.26,0.8,0.61,1.44,1.03,1.91c0.31,0.4,0.69,0.75,1.1,1.07l-1.99,23.6
			c-0.04,0.42,0.04,0.85,0.23,1.24l8.92,18.7c0.41,0.86,1.29,1.41,2.26,1.41h17.47c-1.26,1.13-2.06,2.75-2.06,4.54v1.84l-13.16,7.97
			l-10.57-3.76l-6.34-7.55c-0.88-1.05-2.45-1.19-3.52-0.34c-1.07,0.86-1.22,2.4-0.34,3.45l6.77,8.06c0.28,0.34,0.66,0.6,1.08,0.75
			l12.35,4.39c0.28,0.1,0.57,0.15,0.85,0.15c0.46,0,0.92-0.12,1.31-0.37l11.56-7c0,3.38,2.83,6.15,6.28,6.15h-4.34
			c-2.9,0-5.35,1.95-6.06,4.57c-0.23,0.06-0.46,0.15-0.67,0.28l-13.7,8.5l-16.49-5.73l-12.73-15.41c-0.87-1.05-2.44-1.22-3.52-0.36
			c-1.07,0.85-1.24,2.39-0.37,3.44l13.17,15.95c0.29,0.35,0.67,0.62,1.11,0.77l18.3,6.36c0.27,0.09,0.55,0.14,0.84,0.14
			c0.47,0,0.93-0.13,1.34-0.38l12.66-7.86c0.63,2.75,3.14,4.82,6.13,4.82c-3.38,0-6.16,2.66-6.27,5.94
			c-0.14,0.05-0.28,0.11-0.42,0.19l-13.68,8.04l-17.75-5.44l-12.78-16.41c-0.84-1.07-2.41-1.28-3.5-0.46
			c-1.1,0.82-1.31,2.36-0.47,3.43L60,171.68c0.31,0.4,0.75,0.7,1.24,0.85l19.58,6c0.24,0.07,0.5,0.11,0.75,0.11
			c0.45,0,0.89-0.12,1.29-0.35l12.96-7.62c0.96,2.21,3.2,3.77,5.79,3.77c-3.3,0-6.02,2.53-6.26,5.7c-0.22,0.07-0.44,0.16-0.64,0.29
			l-10.25,6.83h-14.3l-14.6-11.05c-1.09-0.83-2.66-0.63-3.51,0.44c-0.84,1.07-0.64,2.61,0.45,3.43l15.28,11.56
			c0.44,0.33,0.98,0.51,1.53,0.51h15.92c0.5,0,0.99-0.15,1.41-0.42l9.14-6.09c0.93,2.27,3.2,3.88,5.83,3.88h4.34
			c-3.46,0-6.28,2.77-6.28,6.15v2.78c0,3.38,2.83,6.15,6.28,6.15H122.74z"/>
		<path class="st180" d="M190.67,273.72c-3.19,3.93-5.5,5.48-13.84,0.81c-1.17-0.69-2.48-1.22-3.89-1.52
			c-6.49-1.4-12.91,2.22-15.04,8.22c0.3,0.29,0.57,0.62,0.82,0.95l-12.69-6.54c-1.66-0.86-3.64-0.53-4.96,0.65
			c0.21-1.2-0.09-2.48-0.96-3.48l-9.66-11.08c-1.1-1.26-2.8-1.72-4.35-1.35c0.49-0.98,0.6-2.14,0.21-3.25l-4.83-13.77
			c-0.42-1.19-1.34-2.07-2.44-2.53c0.44-0.67,0.7-1.45,0.7-2.3v-14.56c0-2.31-1.9-4.19-4.24-4.25h2.94c3.46,0,6.28-2.77,6.28-6.15
			v-2.78c0-3.39-2.83-6.15-6.28-6.15h-8.17c-3.46,0-6.28,2.77-6.28,6.15v2.78c0,3.38,2.83,6.15,6.28,6.15h2.94
			c-2.34,0.06-4.24,1.94-4.24,4.25v14.56c0,1.94,1.35,3.58,3.18,4.08c-0.99,1.11-1.38,2.69-0.85,4.17l4.83,13.77
			c0.78,2.22,3.27,3.41,5.53,2.64l0.71-0.24c-1.44,1.56-1.53,3.97-0.1,5.62l9.66,11.08c1.55,1.78,4.31,2,6.13,0.47l1.17-0.98
			l-0.03,0.06c-1.11,2.07-0.29,4.66,1.82,5.76l13.16,6.78c2.06,1.06,4.6,0.32,5.76-1.62c-0.24,0.64-0.54,1.24-0.91,1.79
			c1.77,2.9,4.7,5.11,8.33,5.89c3.52,0.76,7.03,0.04,9.84-1.74c0,0,0,0,0,0C181.46,294.11,197.22,282.66,190.67,273.72z"/>
	</g>
	<g>
		<path class="st174" d="M114.49,207.29h-16.8c-3.46,0-6.28-2.83-6.28-6.28v-2.84c0-3.46,2.83-6.28,6.28-6.28h16.8
			c3.46,0,6.28,2.83,6.28,6.28V201C120.77,204.46,117.94,207.29,114.49,207.29z"/>
		<path class="st174" d="M110.18,222.7H102c-3.46,0-6.28-2.83-6.28-6.28v-2.84c0-3.46,2.83-6.28,6.28-6.28h8.17
			c3.46,0,6.28,2.83,6.28,6.28v2.84C116.46,219.87,113.63,222.7,110.18,222.7z"/>
		<path class="st174" d="M110.18,222.7H102c-3.46,0-6.28-2.83-6.28-6.28v-2.84c0-3.46,2.83-6.28,6.28-6.28h8.17
			c3.46,0,6.28,2.83,6.28,6.28v2.84C116.46,219.87,113.63,222.7,110.18,222.7z"/>
		<path class="st174" d="M107.13,246.26h-2.08c-2.39,0-4.35-1.96-4.35-4.35v-14.87c0-2.39,1.96-4.35,4.35-4.35h2.08
			c2.39,0,4.35,1.96,4.35,4.35v14.87C111.48,244.3,109.52,246.26,107.13,246.26z"/>
		<path class="st174" d="M115.35,266.43l-1.97,0.68c-2.26,0.78-4.75-0.44-5.53-2.7l-4.83-14.06c-0.78-2.26,0.44-4.75,2.7-5.53
			l1.97-0.68c2.26-0.78,4.75,0.44,5.53,2.7l4.83,14.06C118.83,263.16,117.62,265.65,115.35,266.43z"/>
		<path class="st174" d="M131.37,283.03l-1.58,1.35c-1.82,1.55-4.58,1.34-6.13-0.48L114,272.59c-1.55-1.82-1.34-4.58,0.48-6.13
			l1.58-1.35c1.82-1.55,4.58-1.34,6.13,0.48l9.66,11.31C133.41,278.72,133.19,281.48,131.37,283.03z"/>
		<path class="st174" d="M152.75,292.59l-0.97,1.84c-1.11,2.12-3.76,2.94-5.88,1.82l-13.16-6.93c-2.12-1.11-2.94-3.76-1.82-5.88
			l0.97-1.84c1.11-2.12,3.76-2.94,5.88-1.82l13.16,6.93C153.04,287.83,153.86,290.47,152.75,292.59z"/>
		<path class="st174" d="M182.41,277.83c-3.19,4.02-5.5,5.59-13.84,0.82c-1.17-0.71-2.48-1.24-3.89-1.55
			c-6.49-1.43-12.91,2.27-15.04,8.4c2.03,2.03,3.02,5.01,2.35,8.02c-0.24,1.07-0.67,2.04-1.23,2.9c1.77,2.96,4.7,5.22,8.33,6.02
			c3.52,0.78,7.03,0.04,9.84-1.77c0,0,0,0,0,0C173.21,298.65,188.96,286.96,182.41,277.83z"/>
		<path class="st174" d="M78.53,146.91c-0.29,0-0.58-0.05-0.85-0.15l-12.35-4.48c-0.42-0.15-0.79-0.42-1.08-0.76l-6.77-8.23
			c-0.88-1.07-0.72-2.64,0.34-3.52c1.07-0.88,2.64-0.72,3.52,0.34l6.34,7.71l10.57,3.84l14.07-8.7c1.17-0.72,2.71-0.36,3.44,0.81
			c0.73,1.17,0.36,2.71-0.81,3.44l-15.1,9.33C79.44,146.78,78.99,146.91,78.53,146.91z"/>
		<path class="st174" d="M73.22,164.57c-0.28,0-0.56-0.05-0.84-0.14l-18.3-6.5c-0.43-0.15-0.82-0.42-1.11-0.78l-13.17-16.29
			c-0.87-1.07-0.7-2.65,0.37-3.52c1.07-0.87,2.65-0.7,3.52,0.37l12.73,15.74l16.49,5.85l13.7-8.68c1.17-0.74,2.71-0.39,3.45,0.77
			c0.74,1.17,0.39,2.71-0.77,3.45l-14.73,9.33C74.15,164.43,73.69,164.57,73.22,164.57z"/>
		<path class="st174" d="M73.31,180.76c-0.25,0-0.5-0.04-0.75-0.11l-19.58-6.13c-0.49-0.15-0.93-0.46-1.24-0.87l-13.27-17.38
			c-0.84-1.1-0.63-2.67,0.47-3.5c1.1-0.84,2.67-0.63,3.5,0.47l12.78,16.75l17.75,5.56l13.68-8.21c1.18-0.71,2.72-0.33,3.43,0.86
			c0.71,1.18,0.33,2.72-0.86,3.43L74.6,180.4C74.21,180.64,73.76,180.76,73.31,180.76z"/>
		<path class="st174" d="M76.97,194.57H61.05c-0.55,0-1.09-0.18-1.53-0.52l-15.28-11.8c-1.09-0.84-1.29-2.41-0.45-3.51
			c0.84-1.09,2.41-1.29,3.51-0.45l14.6,11.28h14.3l10.25-6.98c1.14-0.78,2.7-0.48,3.47,0.66c0.78,1.14,0.48,2.7-0.66,3.47
			l-10.89,7.41C77.96,194.42,77.47,194.57,76.97,194.57z"/>
		<path class="st174" d="M132.35,146.91c0.29,0,0.58-0.05,0.85-0.15l12.35-4.48c0.42-0.15,0.79-0.42,1.08-0.76l6.77-8.23
			c0.88-1.07,0.72-2.64-0.34-3.52c-1.07-0.88-2.64-0.72-3.52,0.34l-6.34,7.71l-10.57,3.84l-14.07-8.7
			c-1.17-0.72-2.71-0.36-3.44,0.81c-0.73,1.17-0.36,2.71,0.81,3.44l15.1,9.33C131.44,146.78,131.89,146.91,132.35,146.91z"/>
		<path class="st174" d="M137.66,164.57c0.28,0,0.56-0.05,0.84-0.14l18.3-6.5c0.43-0.15,0.82-0.42,1.11-0.78l13.17-16.29
			c0.87-1.07,0.7-2.65-0.37-3.52c-1.07-0.87-2.65-0.7-3.52,0.37l-12.73,15.74l-16.49,5.85l-13.7-8.68
			c-1.17-0.74-2.71-0.39-3.45,0.77c-0.74,1.17-0.39,2.71,0.77,3.45l14.73,9.33C136.73,164.43,137.19,164.57,137.66,164.57z"/>
		<path class="st174" d="M137.57,180.76c0.25,0,0.5-0.04,0.75-0.11l19.58-6.13c0.49-0.15,0.93-0.46,1.24-0.87l13.27-17.38
			c0.84-1.1,0.63-2.67-0.47-3.5c-1.1-0.84-2.67-0.63-3.5,0.47l-12.78,16.75l-17.75,5.56l-13.68-8.21c-1.18-0.71-2.72-0.33-3.43,0.86
			c-0.71,1.18-0.33,2.72,0.86,3.43l14.64,8.78C136.67,180.64,137.12,180.76,137.57,180.76z"/>
		<path class="st174" d="M133.91,194.57h15.92c0.55,0,1.09-0.18,1.53-0.52l15.28-11.8c1.09-0.84,1.29-2.41,0.45-3.51
			c-0.84-1.09-2.41-1.29-3.51-0.45l-14.6,11.28h-14.3l-10.25-6.98c-1.14-0.78-2.7-0.48-3.47,0.66c-0.78,1.14-0.48,2.7,0.66,3.47
			l10.89,7.41C132.92,194.42,133.41,194.57,133.91,194.57z"/>
		<path class="st174" d="M114.49,145.66h-16.8c-3.46,0-6.28-2.83-6.28-6.28v-7.75c0-3.46,2.83-6.28,6.28-6.28h16.8
			c3.46,0,6.28,2.83,6.28,6.28v7.75C120.77,142.84,117.94,145.66,114.49,145.66z"/>
		<path class="st174" d="M118.82,161.07H93.35c-3.46,0-6.28-2.83-6.28-6.28v-2.84c0-3.46,2.83-6.28,6.28-6.28h25.47
			c3.46,0,6.28,2.83,6.28,6.28v2.84C125.11,158.24,122.28,161.07,118.82,161.07z"/>
		<path class="st174" d="M118.82,176.47H93.35c-3.46,0-6.28-2.83-6.28-6.28v-2.84c0-3.46,2.83-6.28,6.28-6.28h25.47
			c3.46,0,6.28,2.83,6.28,6.28v2.84C125.11,173.65,122.28,176.47,118.82,176.47z"/>
		<path class="st174" d="M118.82,191.88H93.35c-3.46,0-6.28-2.83-6.28-6.28v-2.84c0-3.46,2.83-6.28,6.28-6.28h25.47
			c3.46,0,6.28,2.83,6.28,6.28v2.84C125.11,189.05,122.28,191.88,118.82,191.88z"/>
		<g>
			<g>
				<path class="st174" d="M84.34,57.49c-1.08,3.39-3.69,9.87-8.35,12.31c-0.66,0.33-1.36,0.8-2.09,1.42
					c-0.53,0.45-1.03,0.95-1.52,1.49c-0.02-0.47-0.07-0.93-0.14-1.37c-0.14-0.85-0.37-1.58-0.66-2.17
					c-1.97-4.3,0.28-10.79,1.79-13.91c-3.64-2.02-7.95,11.29-8.67,14.62c0,0,0,0,0,0c-0.51,1.79-0.77,3.68-0.69,5.44
					c0,0.96,0.15,1.88,0.44,2.72c0.26,0.82,0.61,1.47,1.03,1.95c0.47,0.62,1.06,1.15,1.75,1.57c1.48,0.88,3.21,1.07,4.9,0.68
					c0.78-0.1,1.67-0.47,2.64-1.11c0.77-0.48,1.49-1.09,2.14-1.82c1.4-1.43,2.64-3.2,3.58-5.02c0,0,0,0,0,0
					C82.33,71.16,88.64,57.84,84.34,57.49z"/>
				<path class="st174" d="M96.04,126.99H76.01c-0.97,0-1.85-0.56-2.26-1.44l-8.92-19.09c-0.18-0.39-0.26-0.83-0.23-1.26l2.05-24.86
					c0.11-1.38,1.35-2.39,2.7-2.29c1.38,0.11,2.4,1.32,2.29,2.7l-1.99,24.2l7.97,17.05h18.44c1.38,0,2.5,1.12,2.5,2.5
					S97.42,126.99,96.04,126.99z"/>
			</g>
			<g>
				<path class="st174" d="M128.19,57.49c1.08,3.39,3.69,9.87,8.35,12.31c0.66,0.33,1.36,0.8,2.09,1.42
					c0.53,0.45,1.03,0.95,1.52,1.49c0.02-0.47,0.07-0.93,0.14-1.37c0.14-0.85,0.37-1.58,0.66-2.17c1.97-4.3-0.28-10.79-1.79-13.91
					c3.64-2.02,7.95,11.29,8.67,14.62c0,0,0,0,0,0c0.51,1.79,0.77,3.68,0.69,5.44c0,0.96-0.15,1.88-0.44,2.72
					c-0.26,0.82-0.61,1.47-1.03,1.95c-0.47,0.62-1.06,1.15-1.75,1.57c-1.48,0.88-3.21,1.07-4.9,0.68c-0.78-0.1-1.67-0.47-2.64-1.11
					c-0.77-0.48-1.49-1.09-2.14-1.82c-1.4-1.43-2.64-3.2-3.58-5.02c0,0,0,0,0,0C130.2,71.16,123.89,57.84,128.19,57.49z"/>
				<path class="st174" d="M116.49,126.99h20.04c0.97,0,1.85-0.56,2.26-1.44l8.92-19.09c0.18-0.39,0.26-0.83,0.23-1.26l-2.05-24.86
					c-0.11-1.38-1.35-2.39-2.7-2.29c-1.38,0.11-2.4,1.32-2.29,2.7l1.99,24.2l-7.97,17.05h-18.44c-1.38,0-2.5,1.12-2.5,2.5
					S115.11,126.99,116.49,126.99z"/>
			</g>
		</g>
	</g>
</g>
</svg>
