<?xml version="1.0" encoding="utf-8"?>
<!-- Generator: Adobe Illustrator 24.0.0, SVG Export Plug-In . SVG Version: 6.00 Build 0)  -->
<svg version="1.1" id="Layer_1" xmlns="http://www.w3.org/2000/svg" xmlns:xlink="http://www.w3.org/1999/xlink" x="0px" y="0px"
	 viewBox="0 0 240 360" style="enable-background:new 0 0 240 360;" xml:space="preserve">
<style type="text/css">
	.st0{fill:#AED6D6;}
	.st1{fill:#D3A8B9;}
	.st2{fill:#66CEF5;}
	.st3{fill:#8EDCF4;}
	.st4{fill:#61BEBF;}
	.st5{fill:none;stroke:#000000;stroke-width:3;stroke-linecap:round;stroke-linejoin:round;stroke-miterlimit:10;}
	.st6{fill:#A4D165;}
	.st7{opacity:0.25;fill:#3C2415;}
	.st8{fill:#8DC63F;stroke:#010101;stroke-width:10.905;stroke-linecap:round;stroke-linejoin:round;stroke-miterlimit:10;}
	.st9{fill:#A7744D;stroke:#010101;stroke-width:9.1692;stroke-linecap:round;stroke-linejoin:round;stroke-miterlimit:10;}
	.st10{fill:#0DA028;}
	.st11{fill:#61C16A;}
	.st12{fill:#A3E2F9;}
	.st13{fill:#5AB75A;}
	.st14{fill:none;stroke:#000000;stroke-width:3.0664;stroke-linecap:round;stroke-linejoin:round;stroke-miterlimit:10;}
	.st15{fill:#98DBED;}
	.st16{fill:#9C9BBD;}
	.st17{fill:#FFFFFF;}
	.st18{fill:#EDECFC;stroke:#231F20;stroke-width:3;stroke-miterlimit:10;}
	.st19{fill:none;stroke:#231F20;stroke-width:3;stroke-miterlimit:10;}
	.st20{fill:#FFFFFF;stroke:#000000;stroke-width:3;stroke-linecap:round;stroke-linejoin:round;stroke-miterlimit:10;}
	.st21{fill:#BC7B22;stroke:#000000;stroke-width:3;stroke-miterlimit:10;}
	.st22{fill:#E5AF38;stroke:#000000;stroke-width:3;stroke-linecap:round;stroke-linejoin:round;stroke-miterlimit:10;}
	.st23{fill:none;stroke:#000000;stroke-width:3;stroke-miterlimit:10;}
	.st24{fill:#927E6D;stroke:#000000;stroke-width:3;stroke-linecap:round;stroke-linejoin:round;stroke-miterlimit:10;}
	.st25{fill:#F7D970;}
	.st26{fill:none;}
	.st27{fill:#3F3F3F;stroke:#000000;stroke-width:3;stroke-linecap:round;stroke-linejoin:round;stroke-miterlimit:10;}
	.st28{fill:#775E49;stroke:#000000;stroke-width:3;stroke-linecap:round;stroke-linejoin:round;stroke-miterlimit:10;}
	.st29{fill:#EDBB91;stroke:#000000;stroke-width:3;stroke-linecap:round;stroke-linejoin:round;stroke-miterlimit:10;}
	.st30{fill:#B03838;stroke:#000000;stroke-width:3;stroke-linecap:round;stroke-linejoin:round;stroke-miterlimit:10;}
	.st31{fill:#739144;stroke:#010101;stroke-width:3;stroke-linecap:round;stroke-linejoin:round;stroke-miterlimit:10;}
	.st32{stroke:#000000;stroke-width:2.5622;stroke-linecap:round;stroke-linejoin:round;stroke-miterlimit:10;}
	.st33{stroke:#000000;stroke-width:2.4972;stroke-linecap:round;stroke-linejoin:round;stroke-miterlimit:10;}
	.st34{stroke:#000000;stroke-width:3.4363;stroke-linecap:round;stroke-linejoin:round;stroke-miterlimit:10;}
	.st35{stroke:#000000;stroke-width:2.0766;stroke-linecap:round;stroke-linejoin:round;stroke-miterlimit:10;}
	.st36{fill:#BB502C;stroke:#000000;stroke-width:3;stroke-linecap:round;stroke-linejoin:round;}
	.st37{fill:#B03838;}
	.st38{fill:#EA4B4B;stroke:#000000;stroke-width:3;stroke-linecap:round;stroke-linejoin:round;stroke-miterlimit:10;}
	.st39{fill:#FADD6B;}
	.st40{fill:#7DA5A5;}
	.st41{fill:#EE6F6F;stroke:#000000;stroke-width:3;stroke-linecap:round;stroke-linejoin:round;stroke-miterlimit:10;}
	.st42{fill:#EDBB91;stroke:#000000;stroke-width:3.1272;stroke-linecap:round;stroke-linejoin:round;stroke-miterlimit:10;}
	.st43{fill:#E5EDED;stroke:#010101;stroke-width:3;stroke-linecap:round;stroke-linejoin:round;stroke-miterlimit:10;}
	.st44{fill:#AEDAFF;stroke:#000000;stroke-width:3;stroke-miterlimit:10;}
	.st45{fill:#FFFFFF;stroke:#000000;stroke-width:3;stroke-miterlimit:10;}
	.st46{fill:#FBFB67;stroke:#000000;stroke-width:3;stroke-linecap:round;stroke-linejoin:round;stroke-miterlimit:10;}
	.st47{fill:none;stroke:#000000;stroke-width:2.8924;stroke-linecap:round;stroke-linejoin:round;stroke-miterlimit:10;}
	.st48{fill:#85D8F7;}
	.st49{fill:#66A488;}
	.st50{fill:#A4CAF8;}
	.st51{fill:#E2D881;stroke:#000000;stroke-width:3;stroke-linecap:round;stroke-linejoin:round;stroke-miterlimit:10;}
	.st52{fill:#61C16A;stroke:#000000;stroke-width:3;stroke-linecap:round;stroke-linejoin:round;stroke-miterlimit:10;}
	.st53{fill:#F2618B;stroke:#000000;stroke-width:2.8224;stroke-linecap:round;stroke-linejoin:round;stroke-miterlimit:10;}
	.st54{fill:#D68630;stroke:#000000;stroke-width:3.7448;stroke-linecap:round;stroke-linejoin:round;stroke-miterlimit:10;}
	.st55{fill:#EFCFAC;stroke:#000000;stroke-width:3.7448;stroke-linecap:round;stroke-linejoin:round;stroke-miterlimit:10;}
	.st56{fill:#F9D042;}
	.st57{fill:#D79B80;}
	.st58{fill:#E6DEA0;}
	.st59{fill:#E2A99A;}
	.st60{fill:#61BED4;}
	.st61{fill:#F7E99C;}
	.st62{fill:#DDDCE5;}
	.st63{fill:#EECE66;}
	.st64{fill:#E8DB5F;}
	.st65{fill:#DE959B;}
	.st66{fill:#33BEF2;}
	.st67{font-family:'Futura-Medium';}
	.st68{font-size:24.6402px;}
	.st69{fill:#F1F2F2;stroke:#000000;stroke-width:3;stroke-linecap:round;stroke-linejoin:round;stroke-miterlimit:10;}
	.st70{fill:#FFCC3A;stroke:#231F20;stroke-width:3;stroke-linecap:round;stroke-linejoin:round;stroke-miterlimit:10;}
	.st71{fill:#66A488;stroke:#000000;stroke-width:3;stroke-linecap:round;stroke-linejoin:round;stroke-miterlimit:10;}
	.st72{fill:#5B9CBC;stroke:#000000;stroke-width:2.7298;stroke-linecap:round;stroke-linejoin:round;stroke-miterlimit:10;}
	.st73{fill:#EA4B4B;}
	.st74{fill:#F2618B;stroke:#000000;stroke-width:3;stroke-linecap:round;stroke-linejoin:round;stroke-miterlimit:10;}
	.st75{fill:#F2618B;stroke:#000000;stroke-width:2.8253;stroke-linecap:round;stroke-linejoin:round;stroke-miterlimit:10;}
	.st76{fill:#66A488;stroke:#010101;stroke-width:3;stroke-miterlimit:10;}
	.st77{fill:#EDBB91;stroke:#000000;stroke-width:4.1741;stroke-linecap:round;stroke-linejoin:round;stroke-miterlimit:10;}
	.st78{fill:#EDC620;stroke:#000000;stroke-width:3;stroke-linecap:round;stroke-linejoin:round;stroke-miterlimit:10;}
	.st79{fill:#606060;stroke:#000000;stroke-width:3;stroke-linecap:round;stroke-linejoin:round;stroke-miterlimit:10;}
	.st80{fill:#FFEC8D;stroke:#000000;stroke-width:3;stroke-miterlimit:10;}
	.st81{fill:none;stroke:#FFFFFF;stroke-width:3;stroke-linecap:round;stroke-linejoin:round;stroke-miterlimit:10;}
	.st82{fill:none;stroke:#000000;stroke-width:3.182;stroke-linecap:round;stroke-linejoin:round;stroke-miterlimit:10;}
	.st83{fill:#60605F;stroke:#000000;stroke-width:3;stroke-linecap:round;stroke-linejoin:round;stroke-miterlimit:10;}
	.st84{fill:#EACB49;stroke:#000000;stroke-width:3;stroke-linecap:round;stroke-linejoin:round;stroke-miterlimit:10;}
	.st85{fill:#5AB75A;stroke:#000000;stroke-width:3;stroke-linecap:round;stroke-linejoin:round;stroke-miterlimit:10;}
	.st86{fill:#A57E50;stroke:#000000;stroke-width:3;stroke-linecap:round;stroke-linejoin:round;stroke-miterlimit:10;}
	.st87{fill:#91C3CC;}
	.st88{fill:#FC90A2;}
	.st89{fill:#FB6B83;}
	.st90{fill:#6D9299;}
	.st91{fill:#FCD566;stroke:#010101;stroke-width:3;stroke-linecap:round;stroke-linejoin:round;stroke-miterlimit:10;}
	.st92{fill:#977D33;stroke:#010101;stroke-width:3;stroke-linecap:round;stroke-linejoin:round;stroke-miterlimit:10;}
	.st93{fill:#655833;stroke:#010101;stroke-width:3;stroke-linecap:round;stroke-linejoin:round;stroke-miterlimit:10;}
	.st94{fill:#533F28;stroke:#000000;stroke-width:3;stroke-linecap:round;stroke-linejoin:round;stroke-miterlimit:10;}
	.st95{fill:#F18067;stroke:#231F20;stroke-width:3;stroke-miterlimit:10;}
	.st96{fill:#FFF0A4;stroke:#000000;stroke-width:3;stroke-miterlimit:10;}
	.st97{fill:#648959;stroke:#000000;stroke-width:3;stroke-linecap:round;stroke-linejoin:round;stroke-miterlimit:10;}
	.st98{fill:#FBB8B4;}
	.st99{fill:#9BD1BC;}
	.st100{opacity:0.3;}
	.st101{opacity:0.5;fill:#3C2415;}
	.st102{fill:#BD9779;stroke:#010101;stroke-width:3;stroke-miterlimit:10;}
	.st103{fill:#915120;stroke:#010101;stroke-width:3;stroke-miterlimit:10;}
	.st104{fill:none;stroke:#010101;stroke-width:3;stroke-miterlimit:10;}
	.st105{fill:#F4777C;stroke:#010101;stroke-width:3;stroke-miterlimit:10;}
	.st106{fill:#DBDBDB;stroke:#010101;stroke-width:3;stroke-miterlimit:10;}
	.st107{fill:#335D49;stroke:#010101;stroke-width:3;stroke-miterlimit:10;}
	.st108{fill:#F4777C;stroke:#010101;stroke-width:3;stroke-linecap:round;stroke-linejoin:round;stroke-miterlimit:10;}
	.st109{fill:#66A488;stroke:#010101;stroke-width:3;stroke-linecap:round;stroke-linejoin:round;stroke-miterlimit:10;}
	.st110{fill:#DBDBDB;stroke:#010101;stroke-width:3;stroke-linecap:round;stroke-linejoin:round;stroke-miterlimit:10;}
	.st111{fill:#A7744D;stroke:#010101;stroke-width:3;stroke-linecap:round;stroke-linejoin:round;stroke-miterlimit:10;}
	.st112{fill:#8DC63F;stroke:#010101;stroke-width:3;stroke-linecap:round;stroke-linejoin:round;stroke-miterlimit:10;}
	.st113{fill:none;stroke:#010101;stroke-width:3;stroke-linecap:round;stroke-linejoin:round;stroke-miterlimit:10;}
	.st114{fill:#67BCD9;}
	.st115{fill:#CEC746;stroke:#231F20;stroke-width:3;stroke-miterlimit:10;}
	.st116{fill:#F69E66;stroke:#231F20;stroke-width:3;stroke-miterlimit:10;}
	.st117{fill:#F7815C;stroke:#231F20;stroke-width:3;stroke-miterlimit:10;}
	.st118{fill:#A89F5A;stroke:#231F20;stroke-width:3;stroke-miterlimit:10;}
	.st119{fill:#F29393;stroke:#231F20;stroke-width:3;stroke-miterlimit:10;}
	.st120{fill:#A3E2F9;stroke:#231F20;stroke-width:3;stroke-miterlimit:10;}
	.st121{opacity:0.5;}
	.st122{fill:#593E2C;stroke:#000000;stroke-width:3;stroke-miterlimit:10;}
	.st123{fill:#593E2C;stroke:#000000;stroke-width:2.8651;stroke-miterlimit:10;}
	.st124{fill:#E74736;stroke:#000000;stroke-width:3;stroke-linecap:round;stroke-linejoin:round;stroke-miterlimit:10;}
	.st125{fill:#F9E467;stroke:#000000;stroke-width:3;stroke-linecap:round;stroke-linejoin:round;stroke-miterlimit:10;}
	.st126{fill:#D68630;stroke:#000000;stroke-width:3;stroke-linecap:round;stroke-linejoin:round;stroke-miterlimit:10;}
	.st127{fill:#C95138;stroke:#231F20;stroke-width:3;stroke-linecap:round;stroke-linejoin:round;stroke-miterlimit:10;}
	.st128{fill:#231F20;}
	.st129{stroke:#000000;stroke-width:2.3082;stroke-linecap:round;stroke-linejoin:round;stroke-miterlimit:10;}
	.st130{fill:#E58156;stroke:#231F20;stroke-width:3;stroke-miterlimit:10;}
	.st131{fill:#FBA42D;stroke:#231F20;stroke-width:3;stroke-miterlimit:10;}
	.st132{fill:#BC7B22;stroke:#231F20;stroke-width:3;stroke-miterlimit:10;}
	.st133{stroke:#000000;stroke-width:2.3954;stroke-linecap:round;stroke-linejoin:round;stroke-miterlimit:10;}
	.st134{stroke:#000000;stroke-width:3.0772;stroke-linecap:round;stroke-linejoin:round;stroke-miterlimit:10;}
	.st135{fill:#842A2A;stroke:#000000;stroke-width:3;stroke-linecap:round;stroke-linejoin:round;stroke-miterlimit:10;}
	.st136{fill:#5B9CBC;stroke:#000000;stroke-width:2.495;stroke-linecap:round;stroke-linejoin:round;stroke-miterlimit:10;}
	.st137{fill:#FFE7B3;stroke:#231F20;stroke-width:3;stroke-linecap:round;stroke-linejoin:round;stroke-miterlimit:10;}
	.st138{fill:#2291AA;stroke:#231F20;stroke-width:3;stroke-linecap:round;stroke-linejoin:round;stroke-miterlimit:10;}
	.st139{fill:#2291AA;stroke:#231F20;stroke-width:3;stroke-miterlimit:10;}
	.st140{stroke:#000000;stroke-width:3;stroke-linecap:round;stroke-linejoin:round;stroke-miterlimit:10;}
	.st141{fill:#FFFFFF;stroke:#010101;stroke-width:3;stroke-linecap:round;stroke-linejoin:round;stroke-miterlimit:10;}
	.st142{fill:none;stroke:#231F20;stroke-width:3;stroke-linecap:round;stroke-linejoin:round;stroke-miterlimit:10;}
	.st143{fill:#FFFFFF;stroke:#231F20;stroke-width:3;stroke-linecap:round;stroke-linejoin:round;stroke-miterlimit:10;}
	.st144{fill:#E7C706;stroke:#000000;stroke-width:3;stroke-linecap:round;stroke-linejoin:round;}
	.st145{fill:none;stroke:#000000;stroke-width:3;stroke-linecap:round;stroke-linejoin:round;}
	.st146{fill:#333333;stroke:#000000;stroke-width:3;stroke-linecap:round;stroke-linejoin:round;}
	.st147{fill:#935328;stroke:#000000;stroke-width:3;stroke-linecap:round;stroke-linejoin:round;}
	.st148{fill:#593E2C;stroke:#000000;stroke-width:2.9408;stroke-miterlimit:10;}
	.st149{fill:#E5AF38;stroke:#000000;stroke-width:3.0793;stroke-linecap:round;stroke-linejoin:round;stroke-miterlimit:10;}
	.st150{fill:#0DA028;stroke:#020100;stroke-width:3;stroke-miterlimit:10;}
	.st151{fill:#0DA028;stroke:#000000;stroke-width:3;stroke-miterlimit:10;}
	.st152{fill:#AD313A;}
	.st153{fill:#AEDAFF;stroke:#000000;stroke-width:2.9408;stroke-miterlimit:10;}
	.st154{fill:#52768E;stroke:#000000;stroke-width:2.9408;stroke-miterlimit:10;}
	.st155{fill:#FBFB67;stroke:#000000;stroke-width:3;stroke-miterlimit:10;}
	.st156{fill:#6EC67E;stroke:#020100;stroke-width:3;stroke-miterlimit:10;}
	.st157{fill:#6EC67E;stroke:#000000;stroke-width:3;stroke-miterlimit:10;}
	.st158{fill:#F9E467;stroke:#000000;stroke-width:3.0817;stroke-linecap:round;stroke-linejoin:round;stroke-miterlimit:10;}
	.st159{fill:#69C8F7;stroke:#000000;stroke-width:3.0742;stroke-linecap:round;stroke-linejoin:round;stroke-miterlimit:10;}
	.st160{fill:#69C8F7;}
	.st161{fill:#69C8F7;stroke:#000000;stroke-width:3.0817;stroke-linecap:round;stroke-linejoin:round;stroke-miterlimit:10;}
	.st162{fill:#EA4B4B;stroke:#000000;stroke-width:2.7219;stroke-linecap:round;stroke-linejoin:round;stroke-miterlimit:10;}
	.st163{fill:#F9E467;}
	.st164{fill:#F16788;stroke:#000000;stroke-width:3;stroke-linecap:round;stroke-linejoin:round;stroke-miterlimit:10;}
	.st165{fill:#448944;}
	.st166{fill:#E74736;}
	.st167{fill:#EFCF88;stroke:#000000;stroke-width:3;stroke-linecap:round;stroke-linejoin:round;stroke-miterlimit:10;}
	.st168{fill:#EC6C5E;stroke:#000000;stroke-width:3;stroke-linecap:round;stroke-linejoin:round;stroke-miterlimit:10;}
	.st169{fill:none;stroke:#9AA6A6;stroke-width:3;stroke-linecap:round;stroke-linejoin:round;stroke-miterlimit:10;}
	.st170{fill:#564E3B;stroke:#010101;stroke-width:3;stroke-miterlimit:10;}
	.st171{fill:#FDC881;}
	.st172{fill:#E5AF38;stroke:#000000;stroke-width:3;stroke-miterlimit:10;}
	.st173{fill:none;stroke:#FF0049;stroke-width:3;stroke-linecap:round;stroke-linejoin:round;stroke-miterlimit:10;}
	.st174{fill:#C95138;stroke:#000000;stroke-width:3;stroke-linecap:round;stroke-linejoin:round;stroke-miterlimit:10;}
	.st175{fill:#BC7B22;stroke:#000000;stroke-width:3;stroke-linecap:round;stroke-linejoin:round;stroke-miterlimit:10;}
	.st176{fill:#FFCC3A;stroke:#000000;stroke-width:3;stroke-linecap:round;stroke-linejoin:round;stroke-miterlimit:10;}
	.st177{fill:#61C16A;stroke:#000000;stroke-width:2.8413;stroke-linecap:round;stroke-linejoin:round;stroke-miterlimit:10;}
	.st178{fill:#ED416A;stroke:#000000;stroke-width:3;stroke-linecap:round;stroke-linejoin:round;stroke-miterlimit:10;}
	.st179{opacity:0.25;}
	.st180{fill:#3C2415;}
	.st181{fill:#BBDD8C;stroke:#000000;stroke-width:3;stroke-miterlimit:10;}
	.st182{fill:#8CA669;}
	.st183{fill:none;stroke:#000000;stroke-width:5;stroke-linecap:round;stroke-linejoin:round;stroke-miterlimit:10;}
	.st184{fill:#775E49;stroke:#000000;stroke-width:3.0146;stroke-linecap:round;stroke-linejoin:round;stroke-miterlimit:10;}
	.st185{fill:#604B3C;stroke:#000000;stroke-width:2.5808;stroke-linecap:round;stroke-linejoin:round;stroke-miterlimit:10;}
	.st186{fill:none;stroke:#AED6D6;stroke-width:0.8108;stroke-miterlimit:10;}
	.st187{fill:none;stroke:#AED6D6;stroke-width:1.7979;stroke-miterlimit:10;}
	.st188{fill:none;stroke:#AED6D6;stroke-width:0.7832;stroke-miterlimit:10;}
	.st189{fill:none;stroke:#AED6D6;stroke-width:0.7585;stroke-miterlimit:10;}
	.st190{fill:none;stroke:#AED6D6;stroke-width:2.6852;stroke-miterlimit:10;}
	.st191{fill:none;stroke:#AED6D6;stroke-width:5.5987;stroke-miterlimit:10;}
	.st192{fill:none;stroke:#AED6D6;stroke-width:10;stroke-linecap:round;stroke-linejoin:round;stroke-miterlimit:10;}
	.st193{fill:#BC7B22;stroke:#231F20;stroke-width:3;stroke-linecap:round;stroke-linejoin:round;stroke-miterlimit:10;}
	.st194{fill:#EA4B4B;stroke:#000000;stroke-width:2.6625;stroke-linecap:round;stroke-linejoin:round;stroke-miterlimit:10;}
	.st195{fill:#BC7B22;stroke:#000000;stroke-width:2.6625;stroke-miterlimit:10;}
	.st196{fill:#FBA42D;stroke:#000000;stroke-width:2.6625;stroke-miterlimit:10;}
	.st197{fill:#FBA42D;stroke:#000000;stroke-width:2.6625;stroke-linecap:round;stroke-linejoin:round;stroke-miterlimit:10;}
	.st198{fill:#BC7B22;stroke:#000000;stroke-width:2.6625;stroke-linecap:round;stroke-linejoin:round;stroke-miterlimit:10;}
	.st199{fill:#23ACAB;stroke:#000000;stroke-width:3.1363;stroke-miterlimit:10;}
	.st200{fill:#90E05C;stroke:#000000;stroke-width:2.6625;stroke-miterlimit:10;}
	.st201{fill:#FBA42D;stroke:#000000;stroke-width:3;stroke-miterlimit:10;}
	.st202{fill:#23ACAB;stroke:#000000;stroke-width:3;stroke-miterlimit:10;}
	.st203{fill:none;stroke:#00FF0C;stroke-width:0.7413;stroke-miterlimit:10;}
	.st204{fill:#593E2C;stroke:#000000;stroke-width:2.9408;stroke-linecap:round;stroke-linejoin:round;stroke-miterlimit:10;}
	.st205{fill:#BD9779;stroke:#010101;stroke-width:3;stroke-linecap:round;stroke-linejoin:round;stroke-miterlimit:10;}
	.st206{fill:#FF6D00;}
	.st207{opacity:0.41;fill:#61BEBF;}
	.st208{opacity:0.5;fill:none;stroke:#2E1B8C;stroke-width:3;stroke-miterlimit:10;}
	.st209{fill:#F9E467;stroke:#000000;stroke-width:2.6479;stroke-linecap:round;stroke-linejoin:round;stroke-miterlimit:10;}
	.st210{fill:none;stroke:#000000;stroke-width:2.6479;stroke-linecap:round;stroke-linejoin:round;stroke-miterlimit:10;}
	.st211{fill:#F9E3B7;stroke:#231F20;stroke-width:3;stroke-linecap:round;stroke-linejoin:round;stroke-miterlimit:10;}
	.st212{fill:#FFF1D1;stroke:#231F20;stroke-width:3;stroke-linecap:round;stroke-linejoin:round;stroke-miterlimit:10;}
	.st213{fill:#F7EFA2;stroke:#231F20;stroke-width:3;stroke-miterlimit:10;}
	.st214{fill:#E58156;stroke:#231F20;stroke-width:3;stroke-linecap:round;stroke-linejoin:round;stroke-miterlimit:10;}
	.st215{fill:#F9E467;stroke:#000000;stroke-width:0.764;stroke-linecap:round;stroke-linejoin:round;stroke-miterlimit:10;}
	.st216{fill:#604B3C;stroke:#000000;stroke-width:1.1908;stroke-linecap:round;stroke-linejoin:round;stroke-miterlimit:10;}
	.st217{fill:#868786;stroke:#000000;stroke-width:3;stroke-linecap:round;stroke-linejoin:round;stroke-miterlimit:10;}
	.st218{fill:#775E49;stroke:#000000;stroke-width:2.5898;stroke-linecap:round;stroke-linejoin:round;stroke-miterlimit:10;}
	.st219{fill:#61C16A;stroke:#000000;stroke-width:3;stroke-miterlimit:10;}
	.st220{fill:#CA5535;stroke:#010101;stroke-width:3;stroke-miterlimit:10;}
	.st221{fill:#775E49;stroke:#010101;stroke-width:2.7722;stroke-miterlimit:10;}
	.st222{fill:#61C16A;stroke:#000000;stroke-width:3.0329;stroke-linecap:round;stroke-linejoin:round;stroke-miterlimit:10;}
	.st223{fill:none;stroke:#000000;stroke-width:3.0329;stroke-linecap:round;stroke-linejoin:round;stroke-miterlimit:10;}
</style>
<rect x="0" y="0" class="st0" width="240" height="360"/>
<g>
	<text transform="matrix(1 0 0 1 67.0121 343.9155)" class="st67 st68">LA ROSA</text>
</g>
<text transform="matrix(1 0 0 1 12.3221 28.4911)" class="st67 st68">41</text>
<g>
	<ellipse class="st7" cx="125.87" cy="283.57" rx="61.43" ry="13.21"/>
	<g>
		<g>
			<path class="st71" d="M170.09,215.49c-17.76,11.6-43.15,4.18-43.15,4.18s3.41-26.23,21.17-37.83
				c17.76-11.6,43.15-4.18,43.15-4.18S187.85,203.89,170.09,215.49z"/>
			<line class="st5" x1="116.71" y1="226.64" x2="175.81" y2="188.29"/>
			<polyline class="st5" points="165.81,206.04 152.06,203.49 154.61,189.74 			"/>
		</g>
		<g>
			<path class="st71" d="M92.37,193.8c12.53,16.07,7.46,40.97,7.46,40.97s-25.38-1.16-37.91-17.24s-7.46-40.97-7.46-40.97
				S79.84,177.72,92.37,193.8z"/>
			<line class="st5" x1="107.32" y1="244" x2="65.88" y2="190.5"/>
			<polyline class="st5" points="83.67,198.65 82.33,212.01 68.97,210.67 			"/>
		</g>
		<polygon class="st71" points="107.19,273.03 111.67,257.7 119.22,272.63 		"/>
		<polygon class="st71" points="115.2,156.9 125.15,157.92 116.65,240.96 126.4,281.58 117.95,289.36 106.53,241.64 		"/>
		<g>
			<path class="st38" d="M195.72,139.16c-4.26-11.06-11.37-15.54-11.84-15.83l0-0.08c3.47-3.5,3.05-6.14,4.8-11.4
				c1.76-5.28,2.64-5.28,3.52-9.69s-3.08-5.72-7.93-7.93c-4.84-2.2-3.96-5.28-11.45-7.93c1.32-6.61,0.88-2.2-5.28-10.13
				c-6.17-7.93-7.05-7.05-12.77-8.81c-5.72-1.76-3.96-3.52-9.25-10.13c-5.28-6.61-3.08-4.4-9.25-5.28
				c-6.17-0.88-7.05,3.08-15.41,5.28c-2.72,0.71-4.36,1.71-5.42,2.89l-1.18-0.25c-7.93-2.64-7.93-9.25-15.41-5.72
				s-7.93,0.88-11.89,7.05c-3.96,6.17-10.13,12.33-14.53,16.29c-2.01,1.81-1.72,4.9-0.82,8.31l-0.5,0.93c0,0-3.96,2.64-9.69,4.4
				c-5.72,1.76-3.96,2.64-6.17,14.97c-2.2,12.33-0.44,10.13,1.32,18.06c0.64,2.88,1.75,5.3,3.24,7.33c-0.1,0.37-0.16,0.59-0.16,0.59
				s-0.88,2.64-3.96,10.13c-3.08,7.49,2.64,15.41,5.72,19.82c3.08,4.4,7.49,1.76,13.21,5.28c2.79,1.72,4.85,1.86,6.74,1.2l1.63,2.32
				c2.64,3.08,0,4.84,11.89,7.93c11.89,3.08,9.69,2.2,18.06,8.37c8.37,6.17,17.61,7.93,21.14,7.49c3.52-0.44,11.01-1.32,14.53-5.28
				c3.52-3.96,9.25-2.2,11.45-10.13c1.71-6.15,2.61-10.7,2.12-14.49c4.95,0.64,5.52,5.52,11.98-1.36
				c6.61-7.05,7.49-8.37,11.45-11.01c3.96-2.64,4.84,0.44,8.37-3.52C197.48,144.88,200.12,150.61,195.72,139.16z"/>
			<g>
				<path class="st5" d="M115.54,132.23c-2.2-6.61-5.25-15.97,3.12-17.29s5.28,3.08,9.25,6.17c3.96,3.08,0.88,7.05-3.52,11.01
					c-4.4,3.96-7.05-0.88-12.77-0.44c-5.72,0.44-7.49,0-7.93-6.61c-0.44-6.61-1.76-11.89,2.2-19.82s8.37-3.96,12.77-6.17
					c4.4-2.2,9.25,2.64,14.09,2.2c4.84-0.44,0.88,11.01,10.57,13.21c9.69,2.2,5.28,8.81,2.2,13.21
					c-3.08,4.4-11.89,12.77-12.33,15.41c-0.44,2.64-10.13,7.93-11.89,4.84c-1.76-3.08-4.4-3.08-11.01-3.52s-5.93-1.31-5.93-5.27
					c0-3.96,1.35-8.1,1.35-8.1s-5.64,6.89-12.59,1.92c-11.03-7.9-7.05-5.72-7.49-14.53c-0.44-8.81,2.2-7.05,3.96-16.29
					c1.76-9.25,1.32-3.52,7.05-10.57s9.69-7.93,14.53-8.81c4.84-0.88,7.05-3.52,11.89,0.44s2.2,6.61,9.25,9.69
					c7.05,3.08,6.61,10.57,5.72,14.09"/>
				<path class="st5" d="M139.35,96c3.08,0.88,7.93-1.32,9.69,2.2c1.76,3.52,3.96,3.96,5.72,7.05c1.76,3.08-0.44,9.69-0.44,9.69
					s2.64,1.76,3.08,3.52c0.44,1.76,6.61,6.17,2.2,9.69c-4.4,3.52-4.84,11.89-5.72,14.09c-0.88,2.2-1.76,5.72-3.96,7.49
					c-2.2,1.76-2.2,0.44-5.72,1.32c-3.52,0.88-5.28,3.96-8.81,7.49c-3.52,3.52-6.17,10.57-11.89,7.05
					c-5.72-3.52-2.64,1.32-14.53-5.28c-11.89-6.61-13.85-7.99-14.53-16.73c-0.49-6.32,1-9.26,1-9.26"/>
				<path class="st5" d="M84.75,92.04c-0.44-4.84,3.08-11.45,7.49-14.97c4.4-3.52,11.45-8.37,17.61-7.49
					c6.17,0.88,4.84,3.96,18.06,3.96s14.09,0,17.61,4.4c3.52,4.4,11.45,9.69,10.57,12.77c-0.88,3.08-0.88,9.69-0.88,9.69
					c7.05-0.44,11.45-3.08,11.89,0.44c0.44,3.52,3.08,2.2,4.4,9.25c1.32,7.05,7.05,1.76,5.28,13.21
					c-1.76,11.45,2.64,16.29-3.08,23.34s-17.61,15.85-22.02,21.58c-4.4,5.72-8.37,12.77-13.21,11.89c-4.84-0.88-1.76,3.52-11.45-2.2
					s-8.37-14.09-8.37-14.09s4.84,10.13-4.4,10.13s-9.69,4.4-15.85-0.44c-6.17-4.84-10.13-7.05-9.69-11.45s0.88-3.96-4.84-9.25
					c-5.72-5.28-8.37-5.72-10.13-11.45c-1.76-5.72-5.72-12.33-4.4-18.06s-1.32-9.25,3.08-18.06c4.4-8.81,4.4-7.05,9.25-9.69
					C86.51,92.92,94,92.48,94,92.48"/>
				<path class="st5" d="M112.05,69.14c2.2-4.84,0.44-9.69,8.81-11.89c8.37-2.2,9.25-6.17,15.41-5.28c6.17,0.88,3.96-1.32,9.25,5.28
					s3.52,8.37,9.25,10.13c5.72,1.76,6.61,0.88,12.77,8.81c6.17,7.93,6.61,3.52,5.28,10.13c-1.32,6.61,0.44,18.5-1.32,23.78"/>
				<path class="st5" d="M114.25,59.89c-7.93-2.64-7.93-9.25-15.41-5.72c-7.49,3.52-7.93,0.88-11.89,7.05
					c-3.96,6.17-10.13,12.33-14.53,16.29c-4.4,3.96,2.2,14.09,2.2,20.26"/>
				<path class="st5" d="M70.66,139.16c-7.05-2.64-12.33-7.05-14.09-14.97c-1.76-7.93-3.52-5.72-1.32-18.06
					c2.2-12.33,0.44-13.21,6.17-14.97c5.72-1.76,9.69-4.4,9.69-4.4"/>
				<path class="st5" d="M87.39,164.7c-4.4,3.08-7.05,6.17-12.77,2.64s-10.13-0.88-13.21-5.28c-3.08-4.4-8.81-12.33-5.72-19.82
					c3.08-7.49,3.96-10.13,3.96-10.13"/>
				<path class="st5" d="M82.99,170.87c2.64,3.08,0,4.84,11.89,7.93c11.89,3.08,9.69,2.2,18.06,8.37
					c8.37,6.17,17.61,7.93,21.14,7.49c3.52-0.44,11.01-1.32,14.53-5.28c3.52-3.96,9.25-2.2,11.45-10.13
					c2.2-7.93,3.08-13.21,1.32-17.61"/>
				<path class="st5" d="M172.82,86.32c7.49,2.64,6.61,5.72,11.45,7.93s8.81,3.52,7.93,7.93s-1.76,4.4-3.52,9.69
					c-1.76,5.28-1.32,7.93-4.84,11.45c-3.52,3.52-7.05,4.4-7.05,4.4"/>
				<path class="st5" d="M161.81,164.7c5.28,0.44,5.72,5.72,12.33-1.32c6.61-7.05,7.49-8.37,11.45-11.01
					c3.96-2.64,4.84,0.44,8.37-3.52c3.52-3.96,6.17,1.76,1.76-9.69c-4.4-11.45-11.89-15.85-11.89-15.85"/>
			</g>
		</g>
		<polygon class="st71" points="115.05,200.39 111.83,216.04 103.09,201.77 		"/>
		<polygon class="st71" points="115.61,258.61 113.01,242.85 126.28,253.03 		"/>
	</g>
</g>
</svg>
