<?xml version="1.0" encoding="utf-8"?>
<!-- Generator: Adobe Illustrator 24.0.0, SVG Export Plug-In . SVG Version: 6.00 Build 0)  -->
<svg version="1.1" id="Layer_1" xmlns="http://www.w3.org/2000/svg" xmlns:xlink="http://www.w3.org/1999/xlink" x="0px" y="0px"
	 viewBox="0 0 240 360" style="enable-background:new 0 0 240 360;" xml:space="preserve">
<style type="text/css">
	.st0{fill:#AED6D6;}
	.st1{fill:#D3A8B9;}
	.st2{fill:#66CEF5;}
	.st3{fill:#8EDCF4;}
	.st4{fill:#61BEBF;}
	.st5{fill:none;stroke:#000000;stroke-width:3;stroke-linecap:round;stroke-linejoin:round;stroke-miterlimit:10;}
	.st6{fill:#A4D165;}
	.st7{opacity:0.25;fill:#3C2415;}
	.st8{fill:#8DC63F;stroke:#010101;stroke-width:10.905;stroke-linecap:round;stroke-linejoin:round;stroke-miterlimit:10;}
	.st9{fill:#A7744D;stroke:#010101;stroke-width:9.1692;stroke-linecap:round;stroke-linejoin:round;stroke-miterlimit:10;}
	.st10{fill:#0DA028;}
	.st11{fill:#61C16A;}
	.st12{fill:#A3E2F9;}
	.st13{fill:#5AB75A;}
	.st14{fill:none;stroke:#000000;stroke-width:3.0664;stroke-linecap:round;stroke-linejoin:round;stroke-miterlimit:10;}
	.st15{fill:#98DBED;}
	.st16{fill:#9C9BBD;}
	.st17{fill:#FFFFFF;}
	.st18{fill:#EDECFC;stroke:#231F20;stroke-width:3;stroke-miterlimit:10;}
	.st19{fill:none;stroke:#231F20;stroke-width:3;stroke-miterlimit:10;}
	.st20{fill:#FFFFFF;stroke:#000000;stroke-width:3;stroke-linecap:round;stroke-linejoin:round;stroke-miterlimit:10;}
	.st21{fill:#BC7B22;stroke:#000000;stroke-width:3;stroke-miterlimit:10;}
	.st22{fill:#E5AF38;stroke:#000000;stroke-width:3;stroke-linecap:round;stroke-linejoin:round;stroke-miterlimit:10;}
	.st23{fill:none;stroke:#000000;stroke-width:3;stroke-miterlimit:10;}
	.st24{fill:#927E6D;stroke:#000000;stroke-width:3;stroke-linecap:round;stroke-linejoin:round;stroke-miterlimit:10;}
	.st25{fill:#F7D970;}
	.st26{fill:none;}
	.st27{fill:#3F3F3F;stroke:#000000;stroke-width:3;stroke-linecap:round;stroke-linejoin:round;stroke-miterlimit:10;}
	.st28{fill:#775E49;stroke:#000000;stroke-width:3;stroke-linecap:round;stroke-linejoin:round;stroke-miterlimit:10;}
	.st29{fill:#EDBB91;stroke:#000000;stroke-width:3;stroke-linecap:round;stroke-linejoin:round;stroke-miterlimit:10;}
	.st30{fill:#B03838;stroke:#000000;stroke-width:3;stroke-linecap:round;stroke-linejoin:round;stroke-miterlimit:10;}
	.st31{fill:#739144;stroke:#010101;stroke-width:3;stroke-linecap:round;stroke-linejoin:round;stroke-miterlimit:10;}
	.st32{stroke:#000000;stroke-width:2.5622;stroke-linecap:round;stroke-linejoin:round;stroke-miterlimit:10;}
	.st33{stroke:#000000;stroke-width:2.4972;stroke-linecap:round;stroke-linejoin:round;stroke-miterlimit:10;}
	.st34{stroke:#000000;stroke-width:3.4363;stroke-linecap:round;stroke-linejoin:round;stroke-miterlimit:10;}
	.st35{stroke:#000000;stroke-width:2.0766;stroke-linecap:round;stroke-linejoin:round;stroke-miterlimit:10;}
	.st36{fill:#BB502C;stroke:#000000;stroke-width:3;stroke-linecap:round;stroke-linejoin:round;}
	.st37{fill:#B03838;}
	.st38{fill:#EA4B4B;stroke:#000000;stroke-width:3;stroke-linecap:round;stroke-linejoin:round;stroke-miterlimit:10;}
	.st39{fill:#FADD6B;}
	.st40{fill:#7DA5A5;}
	.st41{fill:#EE6F6F;stroke:#000000;stroke-width:3;stroke-linecap:round;stroke-linejoin:round;stroke-miterlimit:10;}
	.st42{fill:#EDBB91;stroke:#000000;stroke-width:3.1272;stroke-linecap:round;stroke-linejoin:round;stroke-miterlimit:10;}
	.st43{fill:#E5EDED;stroke:#010101;stroke-width:3;stroke-linecap:round;stroke-linejoin:round;stroke-miterlimit:10;}
	.st44{fill:#AEDAFF;stroke:#000000;stroke-width:3;stroke-miterlimit:10;}
	.st45{fill:#FFFFFF;stroke:#000000;stroke-width:3;stroke-miterlimit:10;}
	.st46{fill:#FBFB67;stroke:#000000;stroke-width:3;stroke-linecap:round;stroke-linejoin:round;stroke-miterlimit:10;}
	.st47{fill:none;stroke:#000000;stroke-width:2.8924;stroke-linecap:round;stroke-linejoin:round;stroke-miterlimit:10;}
	.st48{fill:#85D8F7;}
	.st49{fill:#66A488;}
	.st50{fill:#A4CAF8;}
	.st51{fill:#E2D881;stroke:#000000;stroke-width:3;stroke-linecap:round;stroke-linejoin:round;stroke-miterlimit:10;}
	.st52{fill:#61C16A;stroke:#000000;stroke-width:3;stroke-linecap:round;stroke-linejoin:round;stroke-miterlimit:10;}
	.st53{fill:#F2618B;stroke:#000000;stroke-width:2.8224;stroke-linecap:round;stroke-linejoin:round;stroke-miterlimit:10;}
	.st54{fill:#D68630;stroke:#000000;stroke-width:3.7448;stroke-linecap:round;stroke-linejoin:round;stroke-miterlimit:10;}
	.st55{fill:#EFCFAC;stroke:#000000;stroke-width:3.7448;stroke-linecap:round;stroke-linejoin:round;stroke-miterlimit:10;}
	.st56{fill:#F9D042;}
	.st57{fill:#D79B80;}
	.st58{fill:#E6DEA0;}
	.st59{fill:#E2A99A;}
	.st60{fill:#61BED4;}
	.st61{fill:#F7E99C;}
	.st62{fill:#DDDCE5;}
	.st63{fill:#EECE66;}
	.st64{fill:#E8DB5F;}
	.st65{fill:#DE959B;}
	.st66{fill:#33BEF2;}
	.st67{font-family:'Futura-Medium';}
	.st68{font-size:24.6402px;}
	.st69{fill:#F1F2F2;stroke:#000000;stroke-width:3;stroke-linecap:round;stroke-linejoin:round;stroke-miterlimit:10;}
	.st70{fill:#FFCC3A;stroke:#231F20;stroke-width:3;stroke-linecap:round;stroke-linejoin:round;stroke-miterlimit:10;}
	.st71{fill:#66A488;stroke:#000000;stroke-width:3;stroke-linecap:round;stroke-linejoin:round;stroke-miterlimit:10;}
	.st72{fill:#5B9CBC;stroke:#000000;stroke-width:2.7298;stroke-linecap:round;stroke-linejoin:round;stroke-miterlimit:10;}
	.st73{fill:#EA4B4B;}
	.st74{fill:#F2618B;stroke:#000000;stroke-width:3;stroke-linecap:round;stroke-linejoin:round;stroke-miterlimit:10;}
	.st75{fill:#F2618B;stroke:#000000;stroke-width:2.8253;stroke-linecap:round;stroke-linejoin:round;stroke-miterlimit:10;}
	.st76{fill:#66A488;stroke:#010101;stroke-width:3;stroke-miterlimit:10;}
	.st77{fill:#EDBB91;stroke:#000000;stroke-width:4.1741;stroke-linecap:round;stroke-linejoin:round;stroke-miterlimit:10;}
	.st78{fill:#EDC620;stroke:#000000;stroke-width:3;stroke-linecap:round;stroke-linejoin:round;stroke-miterlimit:10;}
	.st79{fill:#606060;stroke:#000000;stroke-width:3;stroke-linecap:round;stroke-linejoin:round;stroke-miterlimit:10;}
	.st80{fill:#FFEC8D;stroke:#000000;stroke-width:3;stroke-miterlimit:10;}
	.st81{fill:none;stroke:#FFFFFF;stroke-width:3;stroke-linecap:round;stroke-linejoin:round;stroke-miterlimit:10;}
	.st82{fill:none;stroke:#000000;stroke-width:3.182;stroke-linecap:round;stroke-linejoin:round;stroke-miterlimit:10;}
	.st83{fill:#60605F;stroke:#000000;stroke-width:3;stroke-linecap:round;stroke-linejoin:round;stroke-miterlimit:10;}
	.st84{fill:#EACB49;stroke:#000000;stroke-width:3;stroke-linecap:round;stroke-linejoin:round;stroke-miterlimit:10;}
	.st85{fill:#5AB75A;stroke:#000000;stroke-width:3;stroke-linecap:round;stroke-linejoin:round;stroke-miterlimit:10;}
	.st86{fill:#A57E50;stroke:#000000;stroke-width:3;stroke-linecap:round;stroke-linejoin:round;stroke-miterlimit:10;}
	.st87{fill:#91C3CC;}
	.st88{fill:#FC90A2;}
	.st89{fill:#FB6B83;}
	.st90{fill:#6D9299;}
	.st91{fill:#FCD566;stroke:#010101;stroke-width:3;stroke-linecap:round;stroke-linejoin:round;stroke-miterlimit:10;}
	.st92{fill:#977D33;stroke:#010101;stroke-width:3;stroke-linecap:round;stroke-linejoin:round;stroke-miterlimit:10;}
	.st93{fill:#655833;stroke:#010101;stroke-width:3;stroke-linecap:round;stroke-linejoin:round;stroke-miterlimit:10;}
	.st94{fill:#533F28;stroke:#000000;stroke-width:3;stroke-linecap:round;stroke-linejoin:round;stroke-miterlimit:10;}
	.st95{fill:#F18067;stroke:#231F20;stroke-width:3;stroke-miterlimit:10;}
	.st96{fill:#FFF0A4;stroke:#000000;stroke-width:3;stroke-miterlimit:10;}
	.st97{fill:#648959;stroke:#000000;stroke-width:3;stroke-linecap:round;stroke-linejoin:round;stroke-miterlimit:10;}
	.st98{fill:#FBB8B4;}
	.st99{fill:#9BD1BC;}
	.st100{opacity:0.3;}
	.st101{opacity:0.5;fill:#3C2415;}
	.st102{fill:#BD9779;stroke:#010101;stroke-width:3;stroke-miterlimit:10;}
	.st103{fill:#915120;stroke:#010101;stroke-width:3;stroke-miterlimit:10;}
	.st104{fill:none;stroke:#010101;stroke-width:3;stroke-miterlimit:10;}
	.st105{fill:#F4777C;stroke:#010101;stroke-width:3;stroke-miterlimit:10;}
	.st106{fill:#DBDBDB;stroke:#010101;stroke-width:3;stroke-miterlimit:10;}
	.st107{fill:#335D49;stroke:#010101;stroke-width:3;stroke-miterlimit:10;}
	.st108{fill:#F4777C;stroke:#010101;stroke-width:3;stroke-linecap:round;stroke-linejoin:round;stroke-miterlimit:10;}
	.st109{fill:#66A488;stroke:#010101;stroke-width:3;stroke-linecap:round;stroke-linejoin:round;stroke-miterlimit:10;}
	.st110{fill:#DBDBDB;stroke:#010101;stroke-width:3;stroke-linecap:round;stroke-linejoin:round;stroke-miterlimit:10;}
	.st111{fill:#A7744D;stroke:#010101;stroke-width:3;stroke-linecap:round;stroke-linejoin:round;stroke-miterlimit:10;}
	.st112{fill:#8DC63F;stroke:#010101;stroke-width:3;stroke-linecap:round;stroke-linejoin:round;stroke-miterlimit:10;}
	.st113{fill:none;stroke:#010101;stroke-width:3;stroke-linecap:round;stroke-linejoin:round;stroke-miterlimit:10;}
	.st114{fill:#67BCD9;}
	.st115{fill:#CEC746;stroke:#231F20;stroke-width:3;stroke-miterlimit:10;}
	.st116{fill:#F69E66;stroke:#231F20;stroke-width:3;stroke-miterlimit:10;}
	.st117{fill:#F7815C;stroke:#231F20;stroke-width:3;stroke-miterlimit:10;}
	.st118{fill:#A89F5A;stroke:#231F20;stroke-width:3;stroke-miterlimit:10;}
	.st119{fill:#F29393;stroke:#231F20;stroke-width:3;stroke-miterlimit:10;}
	.st120{fill:#A3E2F9;stroke:#231F20;stroke-width:3;stroke-miterlimit:10;}
	.st121{opacity:0.5;}
	.st122{fill:#593E2C;stroke:#000000;stroke-width:3;stroke-miterlimit:10;}
	.st123{fill:#593E2C;stroke:#000000;stroke-width:2.8651;stroke-miterlimit:10;}
	.st124{fill:#E74736;stroke:#000000;stroke-width:3;stroke-linecap:round;stroke-linejoin:round;stroke-miterlimit:10;}
	.st125{fill:#F9E467;stroke:#000000;stroke-width:3;stroke-linecap:round;stroke-linejoin:round;stroke-miterlimit:10;}
	.st126{fill:#D68630;stroke:#000000;stroke-width:3;stroke-linecap:round;stroke-linejoin:round;stroke-miterlimit:10;}
	.st127{fill:#C95138;stroke:#231F20;stroke-width:3;stroke-linecap:round;stroke-linejoin:round;stroke-miterlimit:10;}
	.st128{fill:#231F20;}
	.st129{stroke:#000000;stroke-width:2.3082;stroke-linecap:round;stroke-linejoin:round;stroke-miterlimit:10;}
	.st130{fill:#E58156;stroke:#231F20;stroke-width:3;stroke-miterlimit:10;}
	.st131{fill:#FBA42D;stroke:#231F20;stroke-width:3;stroke-miterlimit:10;}
	.st132{fill:#BC7B22;stroke:#231F20;stroke-width:3;stroke-miterlimit:10;}
	.st133{stroke:#000000;stroke-width:2.3954;stroke-linecap:round;stroke-linejoin:round;stroke-miterlimit:10;}
	.st134{stroke:#000000;stroke-width:3.0772;stroke-linecap:round;stroke-linejoin:round;stroke-miterlimit:10;}
	.st135{fill:#842A2A;stroke:#000000;stroke-width:3;stroke-linecap:round;stroke-linejoin:round;stroke-miterlimit:10;}
	.st136{fill:#5B9CBC;stroke:#000000;stroke-width:2.495;stroke-linecap:round;stroke-linejoin:round;stroke-miterlimit:10;}
	.st137{fill:#FFE7B3;stroke:#231F20;stroke-width:3;stroke-linecap:round;stroke-linejoin:round;stroke-miterlimit:10;}
	.st138{fill:#2291AA;stroke:#231F20;stroke-width:3;stroke-linecap:round;stroke-linejoin:round;stroke-miterlimit:10;}
	.st139{fill:#2291AA;stroke:#231F20;stroke-width:3;stroke-miterlimit:10;}
	.st140{stroke:#000000;stroke-width:3;stroke-linecap:round;stroke-linejoin:round;stroke-miterlimit:10;}
	.st141{fill:#FFFFFF;stroke:#010101;stroke-width:3;stroke-linecap:round;stroke-linejoin:round;stroke-miterlimit:10;}
	.st142{fill:none;stroke:#231F20;stroke-width:3;stroke-linecap:round;stroke-linejoin:round;stroke-miterlimit:10;}
	.st143{fill:#FFFFFF;stroke:#231F20;stroke-width:3;stroke-linecap:round;stroke-linejoin:round;stroke-miterlimit:10;}
	.st144{fill:#E7C706;stroke:#000000;stroke-width:3;stroke-linecap:round;stroke-linejoin:round;}
	.st145{fill:none;stroke:#000000;stroke-width:3;stroke-linecap:round;stroke-linejoin:round;}
	.st146{fill:#333333;stroke:#000000;stroke-width:3;stroke-linecap:round;stroke-linejoin:round;}
	.st147{fill:#935328;stroke:#000000;stroke-width:3;stroke-linecap:round;stroke-linejoin:round;}
	.st148{fill:#593E2C;stroke:#000000;stroke-width:2.9408;stroke-miterlimit:10;}
	.st149{fill:#E5AF38;stroke:#000000;stroke-width:3.0793;stroke-linecap:round;stroke-linejoin:round;stroke-miterlimit:10;}
	.st150{fill:#0DA028;stroke:#020100;stroke-width:3;stroke-miterlimit:10;}
	.st151{fill:#0DA028;stroke:#000000;stroke-width:3;stroke-miterlimit:10;}
	.st152{fill:#AD313A;}
	.st153{fill:#AEDAFF;stroke:#000000;stroke-width:2.9408;stroke-miterlimit:10;}
	.st154{fill:#52768E;stroke:#000000;stroke-width:2.9408;stroke-miterlimit:10;}
	.st155{fill:#FBFB67;stroke:#000000;stroke-width:3;stroke-miterlimit:10;}
	.st156{fill:#6EC67E;stroke:#020100;stroke-width:3;stroke-miterlimit:10;}
	.st157{fill:#6EC67E;stroke:#000000;stroke-width:3;stroke-miterlimit:10;}
	.st158{fill:#F9E467;stroke:#000000;stroke-width:3.0817;stroke-linecap:round;stroke-linejoin:round;stroke-miterlimit:10;}
	.st159{fill:#69C8F7;stroke:#000000;stroke-width:3.0742;stroke-linecap:round;stroke-linejoin:round;stroke-miterlimit:10;}
	.st160{fill:#69C8F7;}
	.st161{fill:#69C8F7;stroke:#000000;stroke-width:3.0817;stroke-linecap:round;stroke-linejoin:round;stroke-miterlimit:10;}
	.st162{fill:#EA4B4B;stroke:#000000;stroke-width:2.7219;stroke-linecap:round;stroke-linejoin:round;stroke-miterlimit:10;}
	.st163{fill:#F9E467;}
	.st164{fill:#F16788;stroke:#000000;stroke-width:3;stroke-linecap:round;stroke-linejoin:round;stroke-miterlimit:10;}
	.st165{fill:#448944;}
	.st166{fill:#E74736;}
	.st167{fill:#EFCF88;stroke:#000000;stroke-width:3;stroke-linecap:round;stroke-linejoin:round;stroke-miterlimit:10;}
	.st168{fill:#EC6C5E;stroke:#000000;stroke-width:3;stroke-linecap:round;stroke-linejoin:round;stroke-miterlimit:10;}
	.st169{fill:none;stroke:#9AA6A6;stroke-width:3;stroke-linecap:round;stroke-linejoin:round;stroke-miterlimit:10;}
	.st170{fill:#564E3B;stroke:#010101;stroke-width:3;stroke-miterlimit:10;}
	.st171{fill:#FDC881;}
	.st172{fill:#E5AF38;stroke:#000000;stroke-width:3;stroke-miterlimit:10;}
	.st173{fill:none;stroke:#FF0049;stroke-width:3;stroke-linecap:round;stroke-linejoin:round;stroke-miterlimit:10;}
	.st174{fill:#C95138;stroke:#000000;stroke-width:3;stroke-linecap:round;stroke-linejoin:round;stroke-miterlimit:10;}
	.st175{fill:#BC7B22;stroke:#000000;stroke-width:3;stroke-linecap:round;stroke-linejoin:round;stroke-miterlimit:10;}
	.st176{fill:#FFCC3A;stroke:#000000;stroke-width:3;stroke-linecap:round;stroke-linejoin:round;stroke-miterlimit:10;}
	.st177{fill:#61C16A;stroke:#000000;stroke-width:2.8413;stroke-linecap:round;stroke-linejoin:round;stroke-miterlimit:10;}
	.st178{fill:#ED416A;stroke:#000000;stroke-width:3;stroke-linecap:round;stroke-linejoin:round;stroke-miterlimit:10;}
	.st179{opacity:0.25;}
	.st180{fill:#3C2415;}
	.st181{fill:#BBDD8C;stroke:#000000;stroke-width:3;stroke-miterlimit:10;}
	.st182{fill:#8CA669;}
	.st183{fill:none;stroke:#000000;stroke-width:5;stroke-linecap:round;stroke-linejoin:round;stroke-miterlimit:10;}
	.st184{fill:#775E49;stroke:#000000;stroke-width:3.0146;stroke-linecap:round;stroke-linejoin:round;stroke-miterlimit:10;}
	.st185{fill:#604B3C;stroke:#000000;stroke-width:2.5808;stroke-linecap:round;stroke-linejoin:round;stroke-miterlimit:10;}
	.st186{fill:none;stroke:#AED6D6;stroke-width:0.8108;stroke-miterlimit:10;}
	.st187{fill:none;stroke:#AED6D6;stroke-width:1.7979;stroke-miterlimit:10;}
	.st188{fill:none;stroke:#AED6D6;stroke-width:0.7832;stroke-miterlimit:10;}
	.st189{fill:none;stroke:#AED6D6;stroke-width:0.7585;stroke-miterlimit:10;}
	.st190{fill:none;stroke:#AED6D6;stroke-width:2.6852;stroke-miterlimit:10;}
	.st191{fill:none;stroke:#AED6D6;stroke-width:5.5987;stroke-miterlimit:10;}
	.st192{fill:none;stroke:#AED6D6;stroke-width:10;stroke-linecap:round;stroke-linejoin:round;stroke-miterlimit:10;}
	.st193{fill:#BC7B22;stroke:#231F20;stroke-width:3;stroke-linecap:round;stroke-linejoin:round;stroke-miterlimit:10;}
	.st194{fill:#EA4B4B;stroke:#000000;stroke-width:2.6625;stroke-linecap:round;stroke-linejoin:round;stroke-miterlimit:10;}
	.st195{fill:#BC7B22;stroke:#000000;stroke-width:2.6625;stroke-miterlimit:10;}
	.st196{fill:#FBA42D;stroke:#000000;stroke-width:2.6625;stroke-miterlimit:10;}
	.st197{fill:#FBA42D;stroke:#000000;stroke-width:2.6625;stroke-linecap:round;stroke-linejoin:round;stroke-miterlimit:10;}
	.st198{fill:#BC7B22;stroke:#000000;stroke-width:2.6625;stroke-linecap:round;stroke-linejoin:round;stroke-miterlimit:10;}
	.st199{fill:#23ACAB;stroke:#000000;stroke-width:3.1363;stroke-miterlimit:10;}
	.st200{fill:#90E05C;stroke:#000000;stroke-width:2.6625;stroke-miterlimit:10;}
	.st201{fill:#FBA42D;stroke:#000000;stroke-width:3;stroke-miterlimit:10;}
	.st202{fill:#23ACAB;stroke:#000000;stroke-width:3;stroke-miterlimit:10;}
	.st203{fill:none;stroke:#00FF0C;stroke-width:0.7413;stroke-miterlimit:10;}
	.st204{fill:#593E2C;stroke:#000000;stroke-width:2.9408;stroke-linecap:round;stroke-linejoin:round;stroke-miterlimit:10;}
	.st205{fill:#BD9779;stroke:#010101;stroke-width:3;stroke-linecap:round;stroke-linejoin:round;stroke-miterlimit:10;}
	.st206{fill:#FF6D00;}
	.st207{opacity:0.41;fill:#61BEBF;}
	.st208{opacity:0.5;fill:none;stroke:#2E1B8C;stroke-width:3;stroke-miterlimit:10;}
	.st209{fill:#F9E467;stroke:#000000;stroke-width:2.6479;stroke-linecap:round;stroke-linejoin:round;stroke-miterlimit:10;}
	.st210{fill:none;stroke:#000000;stroke-width:2.6479;stroke-linecap:round;stroke-linejoin:round;stroke-miterlimit:10;}
	.st211{fill:#F9E3B7;stroke:#231F20;stroke-width:3;stroke-linecap:round;stroke-linejoin:round;stroke-miterlimit:10;}
	.st212{fill:#FFF1D1;stroke:#231F20;stroke-width:3;stroke-linecap:round;stroke-linejoin:round;stroke-miterlimit:10;}
	.st213{fill:#F7EFA2;stroke:#231F20;stroke-width:3;stroke-miterlimit:10;}
	.st214{fill:#E58156;stroke:#231F20;stroke-width:3;stroke-linecap:round;stroke-linejoin:round;stroke-miterlimit:10;}
	.st215{fill:#F9E467;stroke:#000000;stroke-width:0.764;stroke-linecap:round;stroke-linejoin:round;stroke-miterlimit:10;}
	.st216{fill:#604B3C;stroke:#000000;stroke-width:1.1908;stroke-linecap:round;stroke-linejoin:round;stroke-miterlimit:10;}
	.st217{fill:#868786;stroke:#000000;stroke-width:3;stroke-linecap:round;stroke-linejoin:round;stroke-miterlimit:10;}
	.st218{fill:#775E49;stroke:#000000;stroke-width:2.5898;stroke-linecap:round;stroke-linejoin:round;stroke-miterlimit:10;}
	.st219{fill:#61C16A;stroke:#000000;stroke-width:3;stroke-miterlimit:10;}
	.st220{fill:#CA5535;stroke:#010101;stroke-width:3;stroke-miterlimit:10;}
	.st221{fill:#775E49;stroke:#010101;stroke-width:2.7722;stroke-miterlimit:10;}
	.st222{fill:#61C16A;stroke:#000000;stroke-width:3.0329;stroke-linecap:round;stroke-linejoin:round;stroke-miterlimit:10;}
	.st223{fill:none;stroke:#000000;stroke-width:3.0329;stroke-linecap:round;stroke-linejoin:round;stroke-miterlimit:10;}
</style>
<g>
	<polygon class="st4" points="240,85.47 240,360 -0.29,360 -0.29,169.71 	"/>
	<polygon class="st10" points="240,85.47 -0.29,170.69 -0.29,128.08 240,76.19 	"/>
	<polygon class="st11" points="240,76.19 -0.29,90.06 -0.29,128.08 	"/>
	<g>
		<polygon class="st12" points="-0.29,90.06 -0.29,-0.29 240,-0.29 240,76.19 		"/>
		<path class="st13" d="M35.97,44.92c-0.29-2.1-2.17-3.72-4.44-3.72s-4.15,1.62-4.44,3.72h0c0,0-2.9,55.99-2.9,56.28
			c0,3.88,3.29,7.03,7.34,7.03s7.34-3.15,7.34-7.03C38.88,100.92,35.97,44.92,35.97,44.92z"/>
		<path class="st13" d="M56.1,41.94c-0.29-2.1-2.17-3.72-4.44-3.72c-2.27,0-4.15,1.62-4.44,3.72h0c0,0-2.9,55.99-2.9,56.28
			c0,3.88,3.29,7.03,7.34,7.03S59,102.1,59,98.22C59,97.93,56.1,41.94,56.1,41.94z"/>
		<path class="st13" d="M76.23,38.83c-0.29-2.1-2.17-3.72-4.44-3.72s-4.15,1.62-4.44,3.72h0c0,0-2.9,55.99-2.9,56.28
			c0,3.88,3.29,7.03,7.34,7.03c4.06,0,7.34-3.15,7.34-7.03C79.13,94.82,76.23,38.83,76.23,38.83z"/>
		<path class="st13" d="M96.35,34.68c-0.29-2.1-2.17-3.72-4.44-3.72c-2.27,0-4.15,1.62-4.44,3.72h0c0,0-2.9,55.99-2.9,56.28
			c0,3.88,3.29,7.03,7.34,7.03c4.06,0,7.34-3.15,7.34-7.03C99.26,90.68,96.35,34.68,96.35,34.68z"/>
		<path class="st13" d="M116.48,31.79c-0.29-2.1-2.17-3.72-4.44-3.72s-4.15,1.62-4.44,3.72h0c0,0-2.9,55.99-2.9,56.28
			c0,3.88,3.29,7.03,7.34,7.03s7.34-3.15,7.34-7.03C119.39,87.78,116.48,31.79,116.48,31.79z"/>
		<path class="st13" d="M136.61,27.98c-0.29-2.1-2.17-3.72-4.44-3.72s-4.15,1.62-4.44,3.72h0c0,0-2.9,55.99-2.9,56.28
			c0,3.88,3.29,7.03,7.34,7.03s7.34-3.15,7.34-7.03C139.52,83.98,136.61,27.98,136.61,27.98z"/>
		<path class="st13" d="M156.74,25.59c-0.29-2.1-2.17-3.72-4.44-3.72c-2.27,0-4.15,1.62-4.44,3.72h0c0,0-2.9,55.99-2.9,56.28
			c0,3.88,3.29,7.03,7.34,7.03c4.06,0,7.34-3.15,7.34-7.03C159.64,81.58,156.74,25.59,156.74,25.59z"/>
		<path class="st13" d="M176.87,21.48c-0.29-2.1-2.17-3.72-4.44-3.72s-4.15,1.62-4.44,3.72h0c0,0-2.9,55.99-2.9,56.28
			c0,3.88,3.29,7.03,7.34,7.03s7.34-3.15,7.34-7.03C179.77,77.47,176.87,21.48,176.87,21.48z"/>
		<path class="st13" d="M197,19.64c-0.29-2.1-2.17-3.72-4.44-3.72s-4.15,1.62-4.44,3.72h0c0,0-2.9,55.99-2.9,56.28
			c0,3.88,3.29,7.03,7.34,7.03s7.34-3.15,7.34-7.03C199.9,75.63,197,19.64,197,19.64z"/>
		<path class="st13" d="M217.12,17.07c-0.29-2.1-2.17-3.72-4.44-3.72c-2.27,0-4.15,1.62-4.44,3.72h0c0,0-2.9,55.99-2.9,56.28
			c0,3.88,3.29,7.03,7.34,7.03c4.06,0,7.34-3.15,7.34-7.03C220.03,73.06,217.12,17.07,217.12,17.07z"/>
		<path class="st13" d="M15.84,49.38c-0.29-2.1-2.17-3.72-4.44-3.72s-4.15,1.62-4.44,3.72h0c0,0-2.9,55.99-2.9,56.28
			c0,3.88,3.29,7.03,7.34,7.03s7.34-3.15,7.34-7.03C18.75,105.37,15.84,49.38,15.84,49.38z"/>
	</g>
	<line class="st14" x1="240" y1="85.47" x2="-0.29" y2="170.69"/>
	<line class="st14" x1="240" y1="76.19" x2="-1.25" y2="128.08"/>
</g>
<g>
	<text transform="matrix(1 0 0 1 44.6097 343.9155)" class="st67 st68">LA CHALUPA</text>
</g>
<text transform="matrix(1 0 0 1 12.3221 28.4911)" class="st67 st68">48</text>
<g>
	<line class="st81" x1="230.98" y1="274.09" x2="195.38" y2="274.09"/>
	<line class="st81" x1="200.79" y1="292.31" x2="163.41" y2="292.31"/>
	<line class="st81" x1="215.65" y1="246.44" x2="185.77" y2="246.44"/>
	<line class="st81" x1="29.17" y1="220.44" x2="6.06" y2="220.44"/>
	<line class="st81" x1="38.48" y1="231.75" x2="16.15" y2="231.75"/>
	<line class="st81" x1="57.08" y1="168.63" x2="31.32" y2="168.63"/>
	<g>
		<path class="st29" d="M158.03,73.97L158.03,73.97c-3.08-1.55-6.87-0.3-8.42,2.78l-17.49,34.74c-0.03,0.04-0.06,0.08-0.08,0.12
			l-19.75,33.68c-1.75,2.98-0.74,6.84,2.24,8.59l0,0c2.98,1.75,6.84,0.74,8.59-2.24l19.75-33.68c0.02-0.03,0.03-0.06,0.05-0.09
			c0.13-0.19,0.24-0.39,0.35-0.6l17.56-34.87C162.36,79.31,161.11,75.52,158.03,73.97z"/>
		<path class="st20" d="M155.07,100.45l6.95-18.16c1.8-4.69-0.57-10-5.26-11.79c-4.69-1.8-10,0.57-11.79,5.26l-6.88,17.98
			C143.73,96.04,149.35,98.39,155.07,100.45z"/>
		<g>
			<path class="st204" d="M208.25,102.85c-0.43-3.34-0.78-5.98-0.75-7.64c0.01-1.03-0.5-2-1.37-2.56c-0.86-0.56-1.96-0.64-2.89-0.21
				c-70.64,32.62-106.25,72.11-121.19,92.74c-19.74,27.27-45.11,89.34-58.48,123.91c-0.58,1.51-0.98,2.26,0.52,2.89l3.37,1.91
				c0.37,0.16,0.77,0.24,1.16,0.24c0.48,0,0.97-0.12,1.41-0.35c42.08-22.34,132.07-85.58,153.58-113.46
				C215.52,158.97,210.61,121.07,208.25,102.85z"/>
			<path class="st205" d="M28.62,314.13c-0.4,0-0.79-0.08-1.16-0.24l-3.37-1.91c-1.5-0.63-1.1-1.37-0.52-2.89
				c13.37-34.57,38.74-96.64,58.48-123.91c14.94-20.63,50.54-60.12,121.19-92.74c0.94-0.43,2.03-0.35,2.89,0.21
				c0.86,0.56,1.38,1.53,1.37,2.56c-0.02,1.66,0.32,4.3,0.75,7.64c2.36,18.21,7.27,56.12-24.64,97.47
				C162.1,228.2,72.11,291.44,30.03,313.78C29.59,314.01,29.11,314.13,28.62,314.13z M201.81,99.74
				c-66.79,31.67-100.59,69.2-114.9,88.97c-18.46,25.5-42.2,82.7-55.85,117.69c42.25-23.33,127.73-83.72,147.81-109.74
				c30.39-39.38,25.69-75.62,23.44-93.03C202.12,102.21,201.95,100.92,201.81,99.74z"/>
			<polygon class="st205" points="23.06,318.97 23.06,310.98 28.62,314.13 28.62,322.51 			"/>
			<path class="st204" d="M207.73,98.51c0.14,1.26,0.32,2.72,0.54,4.35c2.36,18.21,7.27,56.12-24.64,97.47
				C162.11,228.2,72.12,291.44,30.04,313.78c-0.44,0.23-0.92,0.35-1.41,0.35v8.38c0,0,22.39-13.14,29.88-18.43
				C66,298.8,257.03,272.85,207.73,98.51z"/>
		</g>
		<path class="st20" d="M159.95,135.3l42.86,4.74c0,0-2.58,22.73-11.57,37.38c-26.53-4.08-54.52-17.02-62.48-28.07
			C130.56,145.35,159.95,135.3,159.95,135.3z"/>
		<g>
			<path class="st38" d="M126.05,174.36c-9.08,0.76-16.41,5.55-18.44,11.44c-0.89-1.63-1.34-3.44-1.22-5.37
				c0.4-6.79,8.06-12.8,17.82-14.01c11.61-1.43,21.8,4.11,22.47,12.03c0,0.01,0,0.03,0,0.04c0.09,1.17-2.11,1.75-3.1,0.84
				C139.67,175.79,133.18,173.76,126.05,174.36z"/>
			<path class="st38" d="M126.73,159.64c-9.4,2.6-15.98,8.76-16.71,14.91c-1.33-1.41-2.24-3.07-2.58-4.97
				c-1.2-6.69,5.43-14.11,15.44-17.29c11.91-3.78,23.99-0.46,26.59,7.11c0,0.01,0.01,0.03,0.01,0.04c0.38,1.12-1.81,2.14-3.07,1.46
				C141.44,158.24,134.12,157.59,126.73,159.64z"/>
			<path class="st38" d="M119.35,168.31c-7.96,4.21-12.52,11.38-11.75,17.49c-1.54-1.13-2.76-2.59-3.52-4.38
				c-2.66-6.3,1.65-14.7,10.03-19.58c9.98-5.8,21.77-4.74,25.92,2.16c0.01,0.01,0.01,0.02,0.02,0.04c0.61,1.02-1.15,2.4-2.46,1.97
				C132.44,164.31,125.61,164.99,119.35,168.31z"/>
		</g>
		<circle class="st38" cx="124.15" cy="189.68" r="5.61"/>
		<path class="st22" d="M83.03,235.3c9.51,0,17.54,4.65,20.17,11.04c0.78-1.91,1.09-3.97,0.8-6.11c-1.01-7.55-9.5-13.54-19.74-13.97
			c-12.2-0.51-22.3,6.65-22.3,15.54c0,0.02,0,0.03,0,0.05c0.01,1.31,2.35,1.76,3.3,0.65C69,238.17,75.56,235.3,83.03,235.3z"/>
		<path class="st22" d="M85.85,231.26c9.29,2.03,16.15,8.28,17.35,15.08c1.17-1.7,1.91-3.64,2.09-5.8
			c0.62-7.59-6.39-15.25-16.32-17.85c-11.81-3.1-23.21,1.74-25.1,10.44c0,0.02-0.01,0.03-0.01,0.05c-0.27,1.28,1.92,2.21,3.09,1.34
			C71.52,231.08,78.55,229.67,85.85,231.26z"/>
		<g>
			<ellipse class="st22" cx="103.62" cy="189.68" rx="25.16" ry="14.86"/>
			<g>
				<path class="st21" d="M78.47,189.68c0,0.21,0.01,0.41,0.03,0.62C78.49,190.09,78.47,189.89,78.47,189.68z"/>
				<path class="st21" d="M128.76,190.45c-0.68,7.85-11.67,14.09-25.13,14.09c-13.23,0-24.07-6.03-25.08-13.69l5.25,21.32
					c0.43,7.96,7.3,14.34,19.83,14.34c12.39,0,19.18-6.23,19.82-14.08h0L128.76,190.45L128.76,190.45L128.76,190.45z"/>
			</g>
			<g>
				<circle class="st177" cx="110.07" cy="197.54" r="5.61"/>
				<circle class="st177" cx="99.82" cy="197.54" r="5.61"/>
				<circle class="st177" cx="88.72" cy="193.31" r="5.61"/>
				<circle class="st177" cx="97.54" cy="186.39" r="5.61"/>
				<circle class="st177" cx="107.42" cy="187.7" r="5.61"/>
			</g>
		</g>
		<g>
			<g>
				<ellipse class="st22" cx="145.68" cy="191.65" rx="28.5" ry="16.83"/>
				<g>
					<path class="st21" d="M117.2,191.65c0,0.23,0.01,0.47,0.03,0.7C117.21,192.12,117.2,191.89,117.2,191.65z"/>
					<path class="st21" d="M174.16,192.52c-0.77,8.89-13.22,15.96-28.46,15.96c-14.99,0-27.26-6.83-28.41-15.51l5.95,24.15
						c0.49,9.02,8.27,16.24,22.46,16.24c14.03,0,21.73-7.06,22.45-15.95h0L174.16,192.52L174.16,192.52L174.16,192.52z"/>
				</g>
			</g>
			<circle class="st38" cx="164.03" cy="195.59" r="5.61"/>
			<circle class="st38" cx="154.41" cy="201.2" r="5.61"/>
			<circle class="st38" cx="141.83" cy="201.2" r="5.61"/>
			<circle class="st38" cx="129.9" cy="198.92" r="5.61"/>
			<circle class="st38" cx="135.53" cy="189.68" r="5.61"/>
			<circle class="st38" cx="154.41" cy="189.99" r="5.61"/>
			<circle class="st38" cx="145.68" cy="189.99" r="5.61"/>
		</g>
		<path class="st22" d="M87.71,227.91c9.51,3.96,15.42,11.53,15.12,18.43c1.66-1.41,2.91-3.15,3.6-5.22
			c2.44-7.28-3.3-16.26-13.35-20.92c-11.97-5.54-25.35-3.24-29.43,4.85c-0.01,0.01-0.01,0.03-0.02,0.04c-0.6,1.2,1.54,2.57,3,1.96
			C72.35,224.68,80.23,224.8,87.71,227.91z"/>
		<g>
			<path class="st22" d="M114.05,238.44c0,10.3-4.72,18.66-11.21,21.04c1.94,0.99,4.03,1.47,6.2,1.32
				c7.66-0.54,13.75-9.29,14.18-20.37c0.52-13.18-6.75-24.65-15.78-25.31c-0.02,0-0.03,0-0.05,0c-1.33-0.09-1.78,2.41-0.66,3.53
				C111.14,223.03,114.05,230.35,114.05,238.44z"/>
			<path class="st22" d="M119.39,242.32c-2.82,9.91-9.65,16.66-16.54,17.16c1.59,1.48,3.47,2.52,5.6,2.97
				c7.52,1.58,15.77-5.17,19.22-15.7c4.11-12.53,0.26-25.56-8.25-28.66c-0.02-0.01-0.03-0.01-0.05-0.02
				c-1.26-0.45-2.37,1.83-1.6,3.21C120.81,226.69,121.61,234.53,119.39,242.32z"/>
			<path class="st22" d="M114.05,238.44c0,10.3-4.72,18.66-11.21,21.04c1.94,0.99,4.03,1.47,6.2,1.32
				c7.66-0.54,13.75-9.29,14.18-20.37c0.52-13.18-6.75-24.65-15.78-25.31c-0.02,0-0.03,0-0.05,0c-1.33-0.09-1.78,2.41-0.66,3.53
				C111.14,223.03,114.05,230.35,114.05,238.44z"/>
			<path class="st22" d="M119.39,242.32c-2.82,9.91-9.65,16.66-16.54,17.16c1.59,1.48,3.47,2.52,5.6,2.97
				c7.52,1.58,15.77-5.17,19.22-15.7c4.11-12.53,0.26-25.56-8.25-28.66c-0.02-0.01-0.03-0.01-0.05-0.02
				c-1.26-0.45-2.37,1.83-1.6,3.21C120.81,226.69,121.61,234.53,119.39,242.32z"/>
			<path class="st22" d="M106.08,237.99c0,10.3,4.72,18.66,11.21,21.04c-1.94,0.99-4.03,1.47-6.2,1.32
				c-7.66-0.54-13.75-9.29-14.18-20.37c-0.52-13.18,6.75-24.65,15.78-25.31c0.02,0,0.03,0,0.05,0c1.33-0.09,1.78,2.41,0.66,3.53
				C109,222.58,106.08,229.9,106.08,237.99z"/>
			<path class="st22" d="M100.75,241.87c2.82,9.91,9.65,16.66,16.54,17.16c-1.59,1.48-3.47,2.52-5.6,2.97
				c-7.52,1.58-15.77-5.17-19.22-15.7c-4.11-12.53-0.26-25.56,8.25-28.66c0.02-0.01,0.03-0.01,0.05-0.02
				c1.26-0.45,2.37,1.83,1.6,3.21C99.33,226.24,98.53,234.08,100.75,241.87z"/>
		</g>
		<path class="st205" d="M28.62,314.13c-0.4,0-0.79-0.08-1.16-0.24l-3.37-1.91c-1.5-0.63-1.1-1.37-0.52-2.89
			c13.37-34.57,38.74-96.64,58.48-123.91c14.94-20.63,50.54-60.12,121.19-92.74c0.94-0.43,2.03-0.35,2.89,0.21
			c0.86,0.56,1.38,1.53,1.37,2.56c-0.02,1.66,0.32,4.3,0.75,7.64c2.36,18.21,7.27,56.12-24.64,97.47
			C162.1,228.2,72.11,291.44,30.03,313.78C29.59,314.01,29.11,314.13,28.62,314.13z M201.81,99.74
			c-66.79,31.67-100.59,69.2-114.9,88.97c-18.46,25.5-42.2,82.7-55.85,117.69c42.25-23.33,127.73-83.72,147.81-109.74
			c30.39-39.38,25.69-75.62,23.44-93.03C202.12,102.21,201.95,100.92,201.81,99.74z"/>
		<path class="st204" d="M207.73,98.51c0.14,1.26,0.32,2.72,0.54,4.35c2.36,18.21,7.27,56.12-24.64,97.47
			C162.11,228.2,72.12,291.44,30.04,313.78c-0.44,0.23-0.92,0.35-1.41,0.35v8.38c0,0,22.39-13.14,29.88-18.43
			C66,298.8,257.03,272.85,207.73,98.51z"/>
		<g>
			<path class="st158" d="M62.62,305.94h-6.1c-0.9,0-1.64-0.74-1.64-1.64l1.25-6.56c0-0.9,0.74-1.64,1.64-1.64h3.6
				c0.9,0,1.64,0.74,1.64,1.64l1.25,6.56C64.26,305.21,63.52,305.94,62.62,305.94z"/>
			<path class="st158" d="M73.4,294.28l-2.16,5.71c-0.32,0.84-1.27,1.27-2.12,0.95l-5.69-3.49c-0.84-0.32-1.27-1.27-0.95-2.12
				l1.28-3.37c0.32-0.84,1.27-1.27,2.12-0.95l6.58,1.15C73.29,292.49,73.72,293.44,73.4,294.28z"/>
			<path class="st158" d="M65.7,279.76l4.76,3.82c0.7,0.56,0.82,1.6,0.25,2.31l-5.08,4.33c-0.56,0.7-1.6,0.82-2.31,0.25l-2.81-2.25
				c-0.7-0.56-0.82-1.6-0.25-2.31l3.13-5.9C63.96,279.31,64.99,279.2,65.7,279.76z"/>
			<path class="st158" d="M49.48,282.64l5.08-3.38c0.75-0.5,1.78-0.29,2.28,0.46l2.59,6.15c0.5,0.75,0.29,1.78-0.46,2.28l-3,1.99
				c-0.75,0.5-1.78,0.29-2.28-0.46l-4.67-4.77C48.52,284.16,48.73,283.14,49.48,282.64z"/>
			<path class="st158" d="M47.29,298.97l-1.67-5.87c-0.25-0.87,0.26-1.78,1.13-2.03l6.65-0.59c0.87-0.25,1.78,0.26,2.03,1.13
				l0.98,3.46c0.25,0.87-0.26,1.78-1.13,2.03l-5.97,3C48.44,300.35,47.53,299.84,47.29,298.97z"/>
			<circle class="st185" cx="59.57" cy="292.31" r="3.8"/>
		</g>
		<g>
			<path class="st158" d="M62.99,278.99h-6.1c-0.9,0-1.64-0.74-1.64-1.64l1.25-6.56c0-0.9,0.74-1.64,1.64-1.64h3.6
				c0.9,0,1.64,0.74,1.64,1.64l1.25,6.56C64.63,278.25,63.9,278.99,62.99,278.99z"/>
			<path class="st158" d="M73.78,267.33l-2.16,5.71c-0.32,0.84-1.27,1.27-2.12,0.95l-5.69-3.49c-0.84-0.32-1.27-1.27-0.95-2.12
				l1.28-3.37c0.32-0.84,1.27-1.27,2.12-0.95l6.58,1.15C73.67,265.53,74.09,266.48,73.78,267.33z"/>
			<path class="st158" d="M66.07,252.81l4.76,3.82c0.7,0.56,0.82,1.6,0.25,2.31L66,263.27c-0.56,0.7-1.6,0.82-2.31,0.25l-2.81-2.25
				c-0.7-0.56-0.82-1.6-0.25-2.31l3.13-5.9C64.33,252.36,65.37,252.24,66.07,252.81z"/>
			<path class="st158" d="M49.85,255.68l5.08-3.38c0.75-0.5,1.78-0.29,2.28,0.46l2.59,6.15c0.5,0.75,0.29,1.78-0.46,2.28l-3,1.99
				c-0.75,0.5-1.78,0.29-2.28-0.46l-4.67-4.77C48.89,257.2,49.1,256.18,49.85,255.68z"/>
			<path class="st158" d="M47.66,272.01l-1.67-5.87c-0.25-0.87,0.26-1.78,1.13-2.03l6.65-0.59c0.87-0.25,1.78,0.26,2.03,1.13
				l0.98,3.46c0.25,0.87-0.26,1.78-1.13,2.03l-5.97,3C48.82,273.39,47.9,272.88,47.66,272.01z"/>
			<circle class="st185" cx="59.94" cy="265.35" r="3.8"/>
		</g>
		<g>
			<path class="st158" d="M45.24,295.29h-6.1c-0.9,0-1.64-0.74-1.64-1.64l1.25-6.56c0-0.9,0.74-1.64,1.64-1.64h3.6
				c0.9,0,1.64,0.74,1.64,1.64l1.25,6.56C46.88,294.55,46.14,295.29,45.24,295.29z"/>
			<path class="st158" d="M56.02,283.63l-2.16,5.71c-0.32,0.84-1.27,1.27-2.12,0.95l-5.69-3.49c-0.84-0.32-1.27-1.27-0.95-2.12
				l1.28-3.37c0.32-0.84,1.27-1.27,2.12-0.95l6.58,1.15C55.91,281.83,56.34,282.79,56.02,283.63z"/>
			<path class="st158" d="M48.31,269.11l4.76,3.82c0.7,0.56,0.82,1.6,0.25,2.31l-5.08,4.33c-0.56,0.7-1.6,0.82-2.31,0.25l-2.81-2.25
				c-0.7-0.56-0.82-1.6-0.25-2.31l3.13-5.9C46.57,268.66,47.61,268.55,48.31,269.11z"/>
			<path class="st158" d="M32.1,271.98l5.08-3.38c0.75-0.5,1.78-0.29,2.28,0.46l2.59,6.15c0.5,0.75,0.29,1.78-0.46,2.28l-3,1.99
				c-0.75,0.5-1.78,0.29-2.28-0.46l-4.67-4.77C31.14,273.51,31.34,272.48,32.1,271.98z"/>
			<path class="st158" d="M29.9,288.32l-1.67-5.87c-0.25-0.87,0.26-1.78,1.13-2.03l6.65-0.59c0.87-0.25,1.78,0.26,2.03,1.13
				l0.98,3.46c0.25,0.87-0.26,1.78-1.13,2.03l-5.97,3C31.06,289.69,30.15,289.18,29.9,288.32z"/>
			<circle class="st185" cx="42.19" cy="281.65" r="3.8"/>
		</g>
		<g>
			<path class="st158" d="M39.93,271.22h-6.1c-0.9,0-1.64-0.74-1.64-1.64l1.25-6.56c0-0.9,0.74-1.64,1.64-1.64h3.6
				c0.9,0,1.64,0.74,1.64,1.64l1.25,6.56C41.57,270.48,40.83,271.22,39.93,271.22z"/>
			<path class="st158" d="M50.71,259.56l-2.16,5.71c-0.32,0.84-1.27,1.27-2.12,0.95l-5.69-3.49c-0.84-0.32-1.27-1.27-0.95-2.12
				l1.28-3.37c0.32-0.84,1.27-1.27,2.12-0.95l6.58,1.15C50.6,257.76,51.03,258.72,50.71,259.56z"/>
			<path class="st158" d="M43.01,245.04l4.76,3.82c0.7,0.56,0.82,1.6,0.25,2.31l-5.08,4.33c-0.56,0.7-1.6,0.82-2.31,0.25l-2.81-2.25
				c-0.7-0.56-0.82-1.6-0.25-2.31l3.13-5.9C41.26,244.59,42.3,244.48,43.01,245.04z"/>
			<path class="st158" d="M26.79,247.91l5.08-3.38c0.75-0.5,1.78-0.29,2.28,0.46l2.59,6.15c0.5,0.75,0.29,1.78-0.46,2.28l-3,1.99
				c-0.75,0.5-1.78,0.29-2.28-0.46l-4.67-4.77C25.83,249.44,26.04,248.41,26.79,247.91z"/>
			<path class="st158" d="M24.59,264.25l-1.67-5.87c-0.25-0.87,0.26-1.78,1.13-2.03l6.65-0.59c0.87-0.25,1.78,0.26,2.03,1.13
				l0.98,3.46c0.25,0.87-0.26,1.78-1.13,2.03l-5.97,3C25.75,265.62,24.84,265.11,24.59,264.25z"/>
			<circle class="st185" cx="36.88" cy="257.58" r="3.8"/>
		</g>
		<g>
			<path class="st158" d="M85.01,288.48h-6.1c-0.9,0-1.64-0.74-1.64-1.64l1.25-6.56c0-0.9,0.74-1.64,1.64-1.64h3.6
				c0.9,0,1.64,0.74,1.64,1.64l1.25,6.56C86.65,287.74,85.91,288.48,85.01,288.48z"/>
			<path class="st158" d="M95.79,276.82l-2.16,5.71c-0.32,0.84-1.27,1.27-2.12,0.95l-5.69-3.49c-0.84-0.32-1.27-1.27-0.95-2.12
				l1.28-3.37c0.32-0.84,1.27-1.27,2.12-0.95l6.58,1.15C95.68,275.02,96.11,275.97,95.79,276.82z"/>
			<path class="st158" d="M88.09,262.3l4.76,3.82c0.7,0.56,0.82,1.6,0.25,2.31l-5.08,4.33c-0.56,0.7-1.6,0.82-2.31,0.25l-2.81-2.25
				c-0.7-0.56-0.82-1.6-0.25-2.31l3.13-5.9C86.34,261.85,87.38,261.73,88.09,262.3z"/>
			<path class="st158" d="M71.87,265.17l5.08-3.38c0.75-0.5,1.78-0.29,2.28,0.46l2.59,6.15c0.5,0.75,0.29,1.78-0.46,2.28l-3,1.99
				c-0.75,0.5-1.78,0.29-2.28-0.46l-4.67-4.77C70.91,266.69,71.12,265.67,71.87,265.17z"/>
			<path class="st158" d="M69.67,281.5l-1.67-5.87c-0.25-0.87,0.26-1.78,1.13-2.03l6.65-0.59c0.87-0.25,1.78,0.26,2.03,1.13
				l0.98,3.46c0.25,0.87-0.26,1.78-1.13,2.03l-5.97,3C70.83,282.88,69.92,282.37,69.67,281.5z"/>
			<circle class="st185" cx="81.96" cy="274.84" r="3.8"/>
		</g>
		<g>
			<path class="st158" d="M83.4,263.88h-6.1c-0.9,0-1.64-0.74-1.64-1.64l1.25-6.56c0-0.9,0.74-1.64,1.64-1.64h3.6
				c0.9,0,1.64,0.74,1.64,1.64l1.25,6.56C85.04,263.14,84.3,263.88,83.4,263.88z"/>
			<path class="st158" d="M94.18,252.22l-2.16,5.71c-0.32,0.84-1.27,1.27-2.12,0.95l-5.69-3.49c-0.84-0.32-1.27-1.27-0.95-2.12
				l1.28-3.37c0.32-0.84,1.27-1.27,2.12-0.95l6.58,1.15C94.07,250.42,94.5,251.37,94.18,252.22z"/>
			<path class="st158" d="M86.48,237.7l4.76,3.82c0.7,0.56,0.82,1.6,0.25,2.31l-5.08,4.33c-0.56,0.7-1.6,0.82-2.31,0.25l-2.81-2.25
				c-0.7-0.56-0.82-1.6-0.25-2.31l3.13-5.9C84.73,237.25,85.77,237.13,86.48,237.7z"/>
			<path class="st158" d="M70.26,240.57l5.08-3.38c0.75-0.5,1.78-0.29,2.28,0.46l2.59,6.15c0.5,0.75,0.29,1.78-0.46,2.28l-3,1.99
				c-0.75,0.5-1.78,0.29-2.28-0.46l-4.67-4.77C69.3,242.09,69.51,241.07,70.26,240.57z"/>
			<path class="st158" d="M68.06,256.9l-1.67-5.87c-0.25-0.87,0.26-1.78,1.13-2.03l6.65-0.59c0.87-0.25,1.78,0.26,2.03,1.13
				l0.98,3.46c0.25,0.87-0.26,1.78-1.13,2.03l-5.97,3C69.22,258.28,68.31,257.77,68.06,256.9z"/>
			<circle class="st185" cx="80.35" cy="250.24" r="3.8"/>
		</g>
		<g>
			<path class="st158" d="M63.36,256.11h-6.1c-0.9,0-1.64-0.74-1.64-1.64l1.25-6.56c0-0.9,0.74-1.64,1.64-1.64h3.6
				c0.9,0,1.64,0.74,1.64,1.64l1.25,6.56C65.01,255.37,64.27,256.11,63.36,256.11z"/>
			<path class="st158" d="M74.15,244.45l-2.16,5.71c-0.32,0.84-1.27,1.27-2.12,0.95l-5.69-3.49c-0.84-0.32-1.27-1.27-0.95-2.12
				l1.28-3.37c0.32-0.84,1.27-1.27,2.12-0.95l6.58,1.15C74.04,242.65,74.47,243.61,74.15,244.45z"/>
			<path class="st158" d="M66.44,229.93l4.76,3.82c0.7,0.56,0.82,1.6,0.25,2.31l-5.08,4.33c-0.56,0.7-1.6,0.82-2.31,0.25l-2.81-2.25
				c-0.7-0.56-0.82-1.6-0.25-2.31l3.13-5.9C64.7,229.48,65.74,229.37,66.44,229.93z"/>
			<path class="st158" d="M50.22,232.8l5.08-3.38c0.75-0.5,1.78-0.29,2.28,0.46l2.59,6.15c0.5,0.75,0.29,1.78-0.46,2.28l-3,1.99
				c-0.75,0.5-1.78,0.29-2.28-0.46l-4.67-4.77C49.27,234.33,49.47,233.3,50.22,232.8z"/>
			<path class="st158" d="M48.03,249.14l-1.67-5.87c-0.25-0.87,0.26-1.78,1.13-2.03l6.65-0.59c0.87-0.25,1.78,0.26,2.03,1.13
				l0.98,3.46c0.25,0.87-0.26,1.78-1.13,2.03l-5.97,3C49.19,250.51,48.28,250,48.03,249.14z"/>
			<circle class="st185" cx="60.31" cy="242.47" r="3.8"/>
		</g>
		<path class="st20" d="M209.76,77.59l-21.72-7.85l-15.02-1.44l-14.1,1.68c-3.74-0.47-6.8,2.25-6.8,6.04c0,0,4,44.06,4.11,44.33
			c0.99,2.69,3.46,4.84,6.33,5.2l34.92,3.29c3.74,0.47,6.8-2.25,6.8-6.04l12.27-37.46C216.56,81.56,213.5,78.06,209.76,77.59z"/>
		<g>
			<path class="st29" d="M190.85,70.75V60.55c0-2.42-1.98-4.39-4.39-4.39h-8.06c-2.42,0-4.39,1.98-4.39,4.39v7.85l-0.97-0.09
				l-12.68,0.92l-0.01,9.49c0,2.48,2.07,4.69,4.6,4.91l30.16,2.61c2.53,0.22,4.6-1.63,4.61-4.11l0.01-8.16L190.85,70.75z"/>
			<path class="st29" d="M182.91,68.41L182.91,68.41c-7.97,0-14.49-6.52-14.49-14.49V38.97c0-7.97,6.52-14.49,14.49-14.49h0
				c7.97,0,14.49,6.52,14.49,14.49v14.95C197.4,61.89,190.88,68.41,182.91,68.41z"/>
			<path class="st27" d="M196.18,22.69c-1.87-1.55-3.93-2.61-5.89-3.13c-1.05-0.4-4.15-0.69-7.82-0.69c-3.7,0-6.82,0.3-7.84,0.7
				c-2.36,0.73-4.83,2.39-6.84,4.82c-2.46,2.97-3.67,6.39-3.52,9.21c-0.01,0.07-0.02,0.13-0.02,0.2v34.05c0,1.32,1.08,2.4,2.4,2.4
				s2.4-1.08,2.4-2.4V39.08c3.16,0.37,7.18-1.55,10.2-5.18c1.45-1.75,2.46-3.65,3.02-5.5c0.85,2.02,2.36,4.05,4.41,5.76
				c3.24,2.68,5.01,3.88,7.94,3.44v31.03c0,1.32,2.08,2.4,3.4,2.4c1.32,0,3.4-1.08,3.4-2.4V32.17c0-0.01,0-0.02,0-0.03
				C201.42,29.11,199.53,25.47,196.18,22.69z"/>
			<path class="st5" d="M185.31,54.34c-1.11,1.24-3.11,2.07-5.4,2.07c-2.13,0-4.01-0.72-5.15-1.82"/>
			<circle cx="183.63" cy="43.87" r="2.29"/>
			<circle cx="174.88" cy="43.5" r="2.22"/>
		</g>
		<path class="st29" d="M216.85,123.26V85.32c0-3.45-2.82-6.27-6.27-6.27s-6.27,2.82-6.27,6.27v30.57l-29.19-8.79
			c-3.3-0.99-6.82,0.9-7.82,4.2s0.9,6.82,4.2,7.82l36.78,11.07c0.72,0.29,1.49,0.45,2.31,0.45c0.03,0,0.05,0,0.07,0
			c2.7,0.01,5.22-1.75,6.04-4.46C216.98,125.2,217.02,124.2,216.85,123.26z"/>
		<path class="st22" d="M184.01,90c-1.34-1.56-3.72-1.74-5.28-0.4L76.1,177.74l-0.87-1.05c-1.01-1.22-2.84-1.4-4.07-0.39
			l-36.47,27.55H63l17.86-15.83c1.22-1.01,1.4-2.84,0.39-4.07l-0.37-0.45l102.73-88.23C185.17,93.94,185.35,91.56,184.01,90z"/>
		<path class="st29" d="M120.13,141.47l4.51,5.53c1.27,1.55,1.03,3.86-0.52,5.13l-6.89,5.62c-1.55,1.27-3.86,1.03-5.13-0.52
			l-4.51-5.53c-1.27-1.55-1.03-3.86,0.52-5.13l6.89-5.62C116.55,139.68,118.86,139.91,120.13,141.47z"/>
		<path class="st74" d="M199.25,140.01l-39.3-4.71c-1.95-0.23-3.54-1.96-3.53-3.84l0.01-4.62c0-1.88,1.6-3.23,3.55-2.99l39.3,4.71
			c1.95,0.23,3.54,1.96,3.53,3.84l-0.01,4.62C202.8,138.9,201.2,140.24,199.25,140.01z"/>
		<path class="st29" d="M165.76,118.86l-6.66-2.57c-1.87-0.72-2.81-2.84-2.09-4.71l3.2-8.29c0.72-1.87,2.84-2.81,4.71-2.09
			l6.66,2.57c1.87,0.72,2.81,2.84,2.09,4.71l-3.2,8.29C169.75,118.64,167.63,119.59,165.76,118.86z"/>
		<line class="st81" x1="65.86" y1="203.86" x2="21.84" y2="203.86"/>
		<path class="st20" d="M219.14,97.22V84.26c0-5.02-4.11-9.13-9.13-9.13s-9.13,4.11-9.13,9.13v13.11
			C206.97,97.31,213.05,97.26,219.14,97.22z"/>
	</g>
</g>
</svg>
