<?xml version="1.0" encoding="utf-8"?>
<!-- Generator: Adobe Illustrator 24.0.0, SVG Export Plug-In . SVG Version: 6.00 Build 0)  -->
<svg version="1.1" id="Layer_1" xmlns="http://www.w3.org/2000/svg" xmlns:xlink="http://www.w3.org/1999/xlink" x="0px" y="0px"
	 viewBox="0 0 240 360" style="enable-background:new 0 0 240 360;" xml:space="preserve">
<style type="text/css">
	.st0{fill:#AED6D6;}
	.st1{fill:#D3A8B9;}
	.st2{fill:#66CEF5;}
	.st3{fill:#8EDCF4;}
	.st4{fill:#61BEBF;}
	.st5{fill:none;stroke:#000000;stroke-width:3;stroke-linecap:round;stroke-linejoin:round;stroke-miterlimit:10;}
	.st6{fill:#A4D165;}
	.st7{opacity:0.25;fill:#3C2415;}
	.st8{fill:#8DC63F;stroke:#010101;stroke-width:10.905;stroke-linecap:round;stroke-linejoin:round;stroke-miterlimit:10;}
	.st9{fill:#A7744D;stroke:#010101;stroke-width:9.1692;stroke-linecap:round;stroke-linejoin:round;stroke-miterlimit:10;}
	.st10{fill:#0DA028;}
	.st11{fill:#61C16A;}
	.st12{fill:#A3E2F9;}
	.st13{fill:#5AB75A;}
	.st14{fill:none;stroke:#000000;stroke-width:3.0664;stroke-linecap:round;stroke-linejoin:round;stroke-miterlimit:10;}
	.st15{fill:#98DBED;}
	.st16{fill:#9C9BBD;}
	.st17{fill:#FFFFFF;}
	.st18{fill:#EDECFC;stroke:#231F20;stroke-width:3;stroke-miterlimit:10;}
	.st19{fill:none;stroke:#231F20;stroke-width:3;stroke-miterlimit:10;}
	.st20{fill:#FFFFFF;stroke:#000000;stroke-width:3;stroke-linecap:round;stroke-linejoin:round;stroke-miterlimit:10;}
	.st21{fill:#BC7B22;stroke:#000000;stroke-width:3;stroke-miterlimit:10;}
	.st22{fill:#E5AF38;stroke:#000000;stroke-width:3;stroke-linecap:round;stroke-linejoin:round;stroke-miterlimit:10;}
	.st23{fill:none;stroke:#000000;stroke-width:3;stroke-miterlimit:10;}
	.st24{fill:#927E6D;stroke:#000000;stroke-width:3;stroke-linecap:round;stroke-linejoin:round;stroke-miterlimit:10;}
	.st25{fill:#F7D970;}
	.st26{fill:none;}
	.st27{fill:#3F3F3F;stroke:#000000;stroke-width:3;stroke-linecap:round;stroke-linejoin:round;stroke-miterlimit:10;}
	.st28{fill:#775E49;stroke:#000000;stroke-width:3;stroke-linecap:round;stroke-linejoin:round;stroke-miterlimit:10;}
	.st29{fill:#EDBB91;stroke:#000000;stroke-width:3;stroke-linecap:round;stroke-linejoin:round;stroke-miterlimit:10;}
	.st30{fill:#B03838;stroke:#000000;stroke-width:3;stroke-linecap:round;stroke-linejoin:round;stroke-miterlimit:10;}
	.st31{fill:#739144;stroke:#010101;stroke-width:3;stroke-linecap:round;stroke-linejoin:round;stroke-miterlimit:10;}
	.st32{stroke:#000000;stroke-width:2.5622;stroke-linecap:round;stroke-linejoin:round;stroke-miterlimit:10;}
	.st33{stroke:#000000;stroke-width:2.4972;stroke-linecap:round;stroke-linejoin:round;stroke-miterlimit:10;}
	.st34{stroke:#000000;stroke-width:3.4363;stroke-linecap:round;stroke-linejoin:round;stroke-miterlimit:10;}
	.st35{stroke:#000000;stroke-width:2.0766;stroke-linecap:round;stroke-linejoin:round;stroke-miterlimit:10;}
	.st36{fill:#BB502C;stroke:#000000;stroke-width:3;stroke-linecap:round;stroke-linejoin:round;}
	.st37{fill:#B03838;}
	.st38{fill:#EA4B4B;stroke:#000000;stroke-width:3;stroke-linecap:round;stroke-linejoin:round;stroke-miterlimit:10;}
	.st39{fill:#FADD6B;}
	.st40{fill:#7DA5A5;}
	.st41{fill:#EE6F6F;stroke:#000000;stroke-width:3;stroke-linecap:round;stroke-linejoin:round;stroke-miterlimit:10;}
	.st42{fill:#EDBB91;stroke:#000000;stroke-width:3.1272;stroke-linecap:round;stroke-linejoin:round;stroke-miterlimit:10;}
	.st43{fill:#E5EDED;stroke:#010101;stroke-width:3;stroke-linecap:round;stroke-linejoin:round;stroke-miterlimit:10;}
	.st44{fill:#AEDAFF;stroke:#000000;stroke-width:3;stroke-miterlimit:10;}
	.st45{fill:#FFFFFF;stroke:#000000;stroke-width:3;stroke-miterlimit:10;}
	.st46{fill:#FBFB67;stroke:#000000;stroke-width:3;stroke-linecap:round;stroke-linejoin:round;stroke-miterlimit:10;}
	.st47{fill:none;stroke:#000000;stroke-width:2.8924;stroke-linecap:round;stroke-linejoin:round;stroke-miterlimit:10;}
	.st48{fill:#85D8F7;}
	.st49{fill:#66A488;}
	.st50{fill:#A4CAF8;}
	.st51{fill:#E2D881;stroke:#000000;stroke-width:3;stroke-linecap:round;stroke-linejoin:round;stroke-miterlimit:10;}
	.st52{fill:#61C16A;stroke:#000000;stroke-width:3;stroke-linecap:round;stroke-linejoin:round;stroke-miterlimit:10;}
	.st53{fill:#F2618B;stroke:#000000;stroke-width:2.8224;stroke-linecap:round;stroke-linejoin:round;stroke-miterlimit:10;}
	.st54{fill:#D68630;stroke:#000000;stroke-width:3.7448;stroke-linecap:round;stroke-linejoin:round;stroke-miterlimit:10;}
	.st55{fill:#EFCFAC;stroke:#000000;stroke-width:3.7448;stroke-linecap:round;stroke-linejoin:round;stroke-miterlimit:10;}
	.st56{fill:#F9D042;}
	.st57{fill:#D79B80;}
	.st58{fill:#E6DEA0;}
	.st59{fill:#E2A99A;}
	.st60{fill:#61BED4;}
	.st61{fill:#F7E99C;}
	.st62{fill:#DDDCE5;}
	.st63{fill:#EECE66;}
	.st64{fill:#E8DB5F;}
	.st65{fill:#DE959B;}
	.st66{fill:#33BEF2;}
	.st67{font-family:'Futura-Medium';}
	.st68{font-size:24.6402px;}
	.st69{fill:#F1F2F2;stroke:#000000;stroke-width:3;stroke-linecap:round;stroke-linejoin:round;stroke-miterlimit:10;}
	.st70{fill:#FFCC3A;stroke:#231F20;stroke-width:3;stroke-linecap:round;stroke-linejoin:round;stroke-miterlimit:10;}
	.st71{fill:#66A488;stroke:#000000;stroke-width:3;stroke-linecap:round;stroke-linejoin:round;stroke-miterlimit:10;}
	.st72{fill:#5B9CBC;stroke:#000000;stroke-width:2.7298;stroke-linecap:round;stroke-linejoin:round;stroke-miterlimit:10;}
	.st73{fill:#EA4B4B;}
	.st74{fill:#F2618B;stroke:#000000;stroke-width:3;stroke-linecap:round;stroke-linejoin:round;stroke-miterlimit:10;}
	.st75{fill:#F2618B;stroke:#000000;stroke-width:2.8253;stroke-linecap:round;stroke-linejoin:round;stroke-miterlimit:10;}
	.st76{fill:#66A488;stroke:#010101;stroke-width:3;stroke-miterlimit:10;}
	.st77{fill:#EDBB91;stroke:#000000;stroke-width:4.1741;stroke-linecap:round;stroke-linejoin:round;stroke-miterlimit:10;}
	.st78{fill:#EDC620;stroke:#000000;stroke-width:3;stroke-linecap:round;stroke-linejoin:round;stroke-miterlimit:10;}
	.st79{fill:#606060;stroke:#000000;stroke-width:3;stroke-linecap:round;stroke-linejoin:round;stroke-miterlimit:10;}
	.st80{fill:#FFEC8D;stroke:#000000;stroke-width:3;stroke-miterlimit:10;}
	.st81{fill:none;stroke:#FFFFFF;stroke-width:3;stroke-linecap:round;stroke-linejoin:round;stroke-miterlimit:10;}
	.st82{fill:none;stroke:#000000;stroke-width:3.182;stroke-linecap:round;stroke-linejoin:round;stroke-miterlimit:10;}
	.st83{fill:#60605F;stroke:#000000;stroke-width:3;stroke-linecap:round;stroke-linejoin:round;stroke-miterlimit:10;}
	.st84{fill:#EACB49;stroke:#000000;stroke-width:3;stroke-linecap:round;stroke-linejoin:round;stroke-miterlimit:10;}
	.st85{fill:#5AB75A;stroke:#000000;stroke-width:3;stroke-linecap:round;stroke-linejoin:round;stroke-miterlimit:10;}
	.st86{fill:#A57E50;stroke:#000000;stroke-width:3;stroke-linecap:round;stroke-linejoin:round;stroke-miterlimit:10;}
	.st87{fill:#91C3CC;}
	.st88{fill:#FC90A2;}
	.st89{fill:#FB6B83;}
	.st90{fill:#6D9299;}
	.st91{fill:#FCD566;stroke:#010101;stroke-width:3;stroke-linecap:round;stroke-linejoin:round;stroke-miterlimit:10;}
	.st92{fill:#977D33;stroke:#010101;stroke-width:3;stroke-linecap:round;stroke-linejoin:round;stroke-miterlimit:10;}
	.st93{fill:#655833;stroke:#010101;stroke-width:3;stroke-linecap:round;stroke-linejoin:round;stroke-miterlimit:10;}
	.st94{fill:#533F28;stroke:#000000;stroke-width:3;stroke-linecap:round;stroke-linejoin:round;stroke-miterlimit:10;}
	.st95{fill:#F18067;stroke:#231F20;stroke-width:3;stroke-miterlimit:10;}
	.st96{fill:#FFF0A4;stroke:#000000;stroke-width:3;stroke-miterlimit:10;}
	.st97{fill:#648959;stroke:#000000;stroke-width:3;stroke-linecap:round;stroke-linejoin:round;stroke-miterlimit:10;}
	.st98{fill:#FBB8B4;}
	.st99{fill:#9BD1BC;}
	.st100{opacity:0.3;}
	.st101{opacity:0.5;fill:#3C2415;}
	.st102{fill:#BD9779;stroke:#010101;stroke-width:3;stroke-miterlimit:10;}
	.st103{fill:#915120;stroke:#010101;stroke-width:3;stroke-miterlimit:10;}
	.st104{fill:none;stroke:#010101;stroke-width:3;stroke-miterlimit:10;}
	.st105{fill:#F4777C;stroke:#010101;stroke-width:3;stroke-miterlimit:10;}
	.st106{fill:#DBDBDB;stroke:#010101;stroke-width:3;stroke-miterlimit:10;}
	.st107{fill:#335D49;stroke:#010101;stroke-width:3;stroke-miterlimit:10;}
	.st108{fill:#F4777C;stroke:#010101;stroke-width:3;stroke-linecap:round;stroke-linejoin:round;stroke-miterlimit:10;}
	.st109{fill:#66A488;stroke:#010101;stroke-width:3;stroke-linecap:round;stroke-linejoin:round;stroke-miterlimit:10;}
	.st110{fill:#DBDBDB;stroke:#010101;stroke-width:3;stroke-linecap:round;stroke-linejoin:round;stroke-miterlimit:10;}
	.st111{fill:#A7744D;stroke:#010101;stroke-width:3;stroke-linecap:round;stroke-linejoin:round;stroke-miterlimit:10;}
	.st112{fill:#8DC63F;stroke:#010101;stroke-width:3;stroke-linecap:round;stroke-linejoin:round;stroke-miterlimit:10;}
	.st113{fill:none;stroke:#010101;stroke-width:3;stroke-linecap:round;stroke-linejoin:round;stroke-miterlimit:10;}
	.st114{fill:#67BCD9;}
	.st115{fill:#CEC746;stroke:#231F20;stroke-width:3;stroke-miterlimit:10;}
	.st116{fill:#F69E66;stroke:#231F20;stroke-width:3;stroke-miterlimit:10;}
	.st117{fill:#F7815C;stroke:#231F20;stroke-width:3;stroke-miterlimit:10;}
	.st118{fill:#A89F5A;stroke:#231F20;stroke-width:3;stroke-miterlimit:10;}
	.st119{fill:#F29393;stroke:#231F20;stroke-width:3;stroke-miterlimit:10;}
	.st120{fill:#A3E2F9;stroke:#231F20;stroke-width:3;stroke-miterlimit:10;}
	.st121{opacity:0.5;}
	.st122{fill:#593E2C;stroke:#000000;stroke-width:3;stroke-miterlimit:10;}
	.st123{fill:#593E2C;stroke:#000000;stroke-width:2.8651;stroke-miterlimit:10;}
	.st124{fill:#E74736;stroke:#000000;stroke-width:3;stroke-linecap:round;stroke-linejoin:round;stroke-miterlimit:10;}
	.st125{fill:#F9E467;stroke:#000000;stroke-width:3;stroke-linecap:round;stroke-linejoin:round;stroke-miterlimit:10;}
	.st126{fill:#D68630;stroke:#000000;stroke-width:3;stroke-linecap:round;stroke-linejoin:round;stroke-miterlimit:10;}
	.st127{fill:#C95138;stroke:#231F20;stroke-width:3;stroke-linecap:round;stroke-linejoin:round;stroke-miterlimit:10;}
	.st128{fill:#231F20;}
	.st129{stroke:#000000;stroke-width:2.3082;stroke-linecap:round;stroke-linejoin:round;stroke-miterlimit:10;}
	.st130{fill:#E58156;stroke:#231F20;stroke-width:3;stroke-miterlimit:10;}
	.st131{fill:#FBA42D;stroke:#231F20;stroke-width:3;stroke-miterlimit:10;}
	.st132{fill:#BC7B22;stroke:#231F20;stroke-width:3;stroke-miterlimit:10;}
	.st133{stroke:#000000;stroke-width:2.3954;stroke-linecap:round;stroke-linejoin:round;stroke-miterlimit:10;}
	.st134{stroke:#000000;stroke-width:3.0772;stroke-linecap:round;stroke-linejoin:round;stroke-miterlimit:10;}
	.st135{fill:#842A2A;stroke:#000000;stroke-width:3;stroke-linecap:round;stroke-linejoin:round;stroke-miterlimit:10;}
	.st136{fill:#5B9CBC;stroke:#000000;stroke-width:2.495;stroke-linecap:round;stroke-linejoin:round;stroke-miterlimit:10;}
	.st137{fill:#FFE7B3;stroke:#231F20;stroke-width:3;stroke-linecap:round;stroke-linejoin:round;stroke-miterlimit:10;}
	.st138{fill:#2291AA;stroke:#231F20;stroke-width:3;stroke-linecap:round;stroke-linejoin:round;stroke-miterlimit:10;}
	.st139{fill:#2291AA;stroke:#231F20;stroke-width:3;stroke-miterlimit:10;}
	.st140{stroke:#000000;stroke-width:3;stroke-linecap:round;stroke-linejoin:round;stroke-miterlimit:10;}
	.st141{fill:#FFFFFF;stroke:#010101;stroke-width:3;stroke-linecap:round;stroke-linejoin:round;stroke-miterlimit:10;}
	.st142{fill:none;stroke:#231F20;stroke-width:3;stroke-linecap:round;stroke-linejoin:round;stroke-miterlimit:10;}
	.st143{fill:#FFFFFF;stroke:#231F20;stroke-width:3;stroke-linecap:round;stroke-linejoin:round;stroke-miterlimit:10;}
	.st144{fill:#E7C706;stroke:#000000;stroke-width:3;stroke-linecap:round;stroke-linejoin:round;}
	.st145{fill:none;stroke:#000000;stroke-width:3;stroke-linecap:round;stroke-linejoin:round;}
	.st146{fill:#333333;stroke:#000000;stroke-width:3;stroke-linecap:round;stroke-linejoin:round;}
	.st147{fill:#935328;stroke:#000000;stroke-width:3;stroke-linecap:round;stroke-linejoin:round;}
	.st148{fill:#593E2C;stroke:#000000;stroke-width:2.9408;stroke-miterlimit:10;}
	.st149{fill:#E5AF38;stroke:#000000;stroke-width:3.0793;stroke-linecap:round;stroke-linejoin:round;stroke-miterlimit:10;}
	.st150{fill:#0DA028;stroke:#020100;stroke-width:3;stroke-miterlimit:10;}
	.st151{fill:#0DA028;stroke:#000000;stroke-width:3;stroke-miterlimit:10;}
	.st152{fill:#AD313A;}
	.st153{fill:#AEDAFF;stroke:#000000;stroke-width:2.9408;stroke-miterlimit:10;}
	.st154{fill:#52768E;stroke:#000000;stroke-width:2.9408;stroke-miterlimit:10;}
	.st155{fill:#FBFB67;stroke:#000000;stroke-width:3;stroke-miterlimit:10;}
	.st156{fill:#6EC67E;stroke:#020100;stroke-width:3;stroke-miterlimit:10;}
	.st157{fill:#6EC67E;stroke:#000000;stroke-width:3;stroke-miterlimit:10;}
	.st158{fill:#F9E467;stroke:#000000;stroke-width:3.0817;stroke-linecap:round;stroke-linejoin:round;stroke-miterlimit:10;}
	.st159{fill:#69C8F7;stroke:#000000;stroke-width:3.0742;stroke-linecap:round;stroke-linejoin:round;stroke-miterlimit:10;}
	.st160{fill:#69C8F7;}
	.st161{fill:#69C8F7;stroke:#000000;stroke-width:3.0817;stroke-linecap:round;stroke-linejoin:round;stroke-miterlimit:10;}
	.st162{fill:#EA4B4B;stroke:#000000;stroke-width:2.7219;stroke-linecap:round;stroke-linejoin:round;stroke-miterlimit:10;}
	.st163{fill:#F9E467;}
	.st164{fill:#F16788;stroke:#000000;stroke-width:3;stroke-linecap:round;stroke-linejoin:round;stroke-miterlimit:10;}
	.st165{fill:#448944;}
	.st166{fill:#E74736;}
	.st167{fill:#EFCF88;stroke:#000000;stroke-width:3;stroke-linecap:round;stroke-linejoin:round;stroke-miterlimit:10;}
	.st168{fill:#EC6C5E;stroke:#000000;stroke-width:3;stroke-linecap:round;stroke-linejoin:round;stroke-miterlimit:10;}
	.st169{fill:none;stroke:#9AA6A6;stroke-width:3;stroke-linecap:round;stroke-linejoin:round;stroke-miterlimit:10;}
	.st170{fill:#564E3B;stroke:#010101;stroke-width:3;stroke-miterlimit:10;}
	.st171{fill:#FDC881;}
	.st172{fill:#E5AF38;stroke:#000000;stroke-width:3;stroke-miterlimit:10;}
	.st173{fill:none;stroke:#FF0049;stroke-width:3;stroke-linecap:round;stroke-linejoin:round;stroke-miterlimit:10;}
	.st174{fill:#C95138;stroke:#000000;stroke-width:3;stroke-linecap:round;stroke-linejoin:round;stroke-miterlimit:10;}
	.st175{fill:#BC7B22;stroke:#000000;stroke-width:3;stroke-linecap:round;stroke-linejoin:round;stroke-miterlimit:10;}
	.st176{fill:#FFCC3A;stroke:#000000;stroke-width:3;stroke-linecap:round;stroke-linejoin:round;stroke-miterlimit:10;}
	.st177{fill:#61C16A;stroke:#000000;stroke-width:2.8413;stroke-linecap:round;stroke-linejoin:round;stroke-miterlimit:10;}
	.st178{fill:#ED416A;stroke:#000000;stroke-width:3;stroke-linecap:round;stroke-linejoin:round;stroke-miterlimit:10;}
	.st179{opacity:0.25;}
	.st180{fill:#3C2415;}
	.st181{fill:#BBDD8C;stroke:#000000;stroke-width:3;stroke-miterlimit:10;}
	.st182{fill:#8CA669;}
	.st183{fill:none;stroke:#000000;stroke-width:5;stroke-linecap:round;stroke-linejoin:round;stroke-miterlimit:10;}
	.st184{fill:#775E49;stroke:#000000;stroke-width:3.0146;stroke-linecap:round;stroke-linejoin:round;stroke-miterlimit:10;}
	.st185{fill:#604B3C;stroke:#000000;stroke-width:2.5808;stroke-linecap:round;stroke-linejoin:round;stroke-miterlimit:10;}
	.st186{fill:none;stroke:#AED6D6;stroke-width:0.8108;stroke-miterlimit:10;}
	.st187{fill:none;stroke:#AED6D6;stroke-width:1.7979;stroke-miterlimit:10;}
	.st188{fill:none;stroke:#AED6D6;stroke-width:0.7832;stroke-miterlimit:10;}
	.st189{fill:none;stroke:#AED6D6;stroke-width:0.7585;stroke-miterlimit:10;}
	.st190{fill:none;stroke:#AED6D6;stroke-width:2.6852;stroke-miterlimit:10;}
	.st191{fill:none;stroke:#AED6D6;stroke-width:5.5987;stroke-miterlimit:10;}
	.st192{fill:none;stroke:#AED6D6;stroke-width:10;stroke-linecap:round;stroke-linejoin:round;stroke-miterlimit:10;}
	.st193{fill:#BC7B22;stroke:#231F20;stroke-width:3;stroke-linecap:round;stroke-linejoin:round;stroke-miterlimit:10;}
	.st194{fill:#EA4B4B;stroke:#000000;stroke-width:2.6625;stroke-linecap:round;stroke-linejoin:round;stroke-miterlimit:10;}
	.st195{fill:#BC7B22;stroke:#000000;stroke-width:2.6625;stroke-miterlimit:10;}
	.st196{fill:#FBA42D;stroke:#000000;stroke-width:2.6625;stroke-miterlimit:10;}
	.st197{fill:#FBA42D;stroke:#000000;stroke-width:2.6625;stroke-linecap:round;stroke-linejoin:round;stroke-miterlimit:10;}
	.st198{fill:#BC7B22;stroke:#000000;stroke-width:2.6625;stroke-linecap:round;stroke-linejoin:round;stroke-miterlimit:10;}
	.st199{fill:#23ACAB;stroke:#000000;stroke-width:3.1363;stroke-miterlimit:10;}
	.st200{fill:#90E05C;stroke:#000000;stroke-width:2.6625;stroke-miterlimit:10;}
	.st201{fill:#FBA42D;stroke:#000000;stroke-width:3;stroke-miterlimit:10;}
	.st202{fill:#23ACAB;stroke:#000000;stroke-width:3;stroke-miterlimit:10;}
	.st203{fill:none;stroke:#00FF0C;stroke-width:0.7413;stroke-miterlimit:10;}
	.st204{fill:#593E2C;stroke:#000000;stroke-width:2.9408;stroke-linecap:round;stroke-linejoin:round;stroke-miterlimit:10;}
	.st205{fill:#BD9779;stroke:#010101;stroke-width:3;stroke-linecap:round;stroke-linejoin:round;stroke-miterlimit:10;}
	.st206{fill:#FF6D00;}
	.st207{opacity:0.41;fill:#61BEBF;}
	.st208{opacity:0.5;fill:none;stroke:#2E1B8C;stroke-width:3;stroke-miterlimit:10;}
	.st209{fill:#F9E467;stroke:#000000;stroke-width:2.6479;stroke-linecap:round;stroke-linejoin:round;stroke-miterlimit:10;}
	.st210{fill:none;stroke:#000000;stroke-width:2.6479;stroke-linecap:round;stroke-linejoin:round;stroke-miterlimit:10;}
	.st211{fill:#F9E3B7;stroke:#231F20;stroke-width:3;stroke-linecap:round;stroke-linejoin:round;stroke-miterlimit:10;}
	.st212{fill:#FFF1D1;stroke:#231F20;stroke-width:3;stroke-linecap:round;stroke-linejoin:round;stroke-miterlimit:10;}
	.st213{fill:#F7EFA2;stroke:#231F20;stroke-width:3;stroke-miterlimit:10;}
	.st214{fill:#E58156;stroke:#231F20;stroke-width:3;stroke-linecap:round;stroke-linejoin:round;stroke-miterlimit:10;}
	.st215{fill:#F9E467;stroke:#000000;stroke-width:0.764;stroke-linecap:round;stroke-linejoin:round;stroke-miterlimit:10;}
	.st216{fill:#604B3C;stroke:#000000;stroke-width:1.1908;stroke-linecap:round;stroke-linejoin:round;stroke-miterlimit:10;}
	.st217{fill:#868786;stroke:#000000;stroke-width:3;stroke-linecap:round;stroke-linejoin:round;stroke-miterlimit:10;}
	.st218{fill:#775E49;stroke:#000000;stroke-width:2.5898;stroke-linecap:round;stroke-linejoin:round;stroke-miterlimit:10;}
	.st219{fill:#61C16A;stroke:#000000;stroke-width:3;stroke-miterlimit:10;}
	.st220{fill:#CA5535;stroke:#010101;stroke-width:3;stroke-miterlimit:10;}
	.st221{fill:#775E49;stroke:#010101;stroke-width:2.7722;stroke-miterlimit:10;}
	.st222{fill:#61C16A;stroke:#000000;stroke-width:3.0329;stroke-linecap:round;stroke-linejoin:round;stroke-miterlimit:10;}
	.st223{fill:none;stroke:#000000;stroke-width:3.0329;stroke-linecap:round;stroke-linejoin:round;stroke-miterlimit:10;}
</style>
<rect x="0.02" y="0" class="st3" width="240" height="360"/>
<path class="st4" d="M223,173.63c-2.66,6.89-9.32,11.79-17.15,11.79c-7.83,0-14.5-4.9-17.15-11.79
	c-2.66,6.89-9.32,11.79-17.15,11.79c-7.83,0-14.5-4.9-17.15-11.79c-2.66,6.89-9.32,11.79-17.15,11.79c-7.83,0-14.5-4.9-17.15-11.79
	c-2.66,6.89-9.32,11.79-17.15,11.79c-7.83,0-14.5-4.9-17.15-11.79c-2.66,6.89-9.32,11.79-17.15,11.79c-7.83,0-14.5-4.9-17.15-11.79
	c-2.66,6.89-9.32,11.79-17.15,11.79c-7.83,0-14.5-4.9-17.15-11.79c-2.66,6.89-9.32,11.79-17.15,11.79V360h240.14V185.42
	C232.32,185.42,225.65,180.52,223,173.63z"/>
<path class="st5" d="M0,185.79c7.83,0,14.5-4.9,17.15-11.79c2.66,6.89,9.32,11.79,17.15,11.79s14.5-4.9,17.15-11.79
	c2.66,6.89,9.32,11.79,17.15,11.79s14.5-4.9,17.15-11.79c2.66,6.89,9.32,11.79,17.15,11.79s14.5-4.9,17.15-11.79
	c2.66,6.89,9.32,11.79,17.15,11.79c7.83,0,14.5-4.9,17.15-11.79c2.66,6.89,9.32,11.79,17.15,11.79s14.5-4.9,17.15-11.79
	c2.66,6.89,9.32,11.79,17.15,11.79c7.83,0,14.5-4.9,17.15-11.79c2.66,6.89,9.32,11.79,17.15,11.79"/>
<text transform="matrix(1 0 0 1 12.3221 28.4911)" class="st67 st68">50</text>
<g>
	<path class="st38" d="M79.23,217.05c20.16,20.16,44.38,30.31,60.81,27.01c2.2-0.44,4.38,0.88,4.97,3.05l11.51,42.01
		c0.74,2.69,4.11,3.58,6.08,1.61l40.74-40.74c2.48-2.48,1.36-6.7-2.02-7.63l-40.47-11.09c-2.17-0.59-3.49-2.76-3.05-4.97
		c3.3-16.43-6.85-40.65-27.01-60.81c-25.83-25.83-58.3-35.22-72.54-20.98C44.01,158.75,53.4,191.23,79.23,217.05z"/>
	<path class="st20" d="M155.48,241.83c-2.82,2.82-6.35,4.69-10.41,5.72l11.4,41.63c0.74,2.69,4.11,3.58,6.08,1.61l40.74-40.74
		c2.48-2.48,1.36-6.7-2.02-7.63l-40.08-10.98C160.17,235.48,158.29,239.01,155.48,241.83z"/>
	<path class="st38" d="M51.59,139.67c-0.91,7.27-1.2,15.88-0.22,25.44c0.29,6.56,2.93,13.04,7.95,18.06
		c10.63,10.63,27.87,10.63,38.51,0c10.63-10.63,10.63-27.87,0-38.51c-2.87-2.87-6.21-4.95-9.78-6.27
		C68.65,130.28,53.02,128.33,51.59,139.67z"/>
	<g>
		<circle class="st20" cx="73.09" cy="166.24" r="9.64"/>
		<circle cx="73.09" cy="166.24" r="4.12"/>
	</g>
	<g>
		<path class="st38" d="M62.79,143.93c0,0-8.36-7.36-9.48-10.07c-1.12-2.71-0.22-6.25,2.02-7.91s4.97-0.81,6.09,1.9
			C62.55,130.55,62.79,143.93,62.79,143.93z"/>
		<path class="st38" d="M53.35,133.94c-0.02-0.01-0.05-0.03-0.07-0.04c-2.61-1.25-6.12-0.46-7.84,1.75
			c-1.72,2.22-0.99,5.02,1.62,6.27c2.61,1.25,15.73,2.01,15.73,2.01S54.58,136.7,53.35,133.94z"/>
	</g>
	<path class="st20" d="M99.34,188.37l-0.65,19.67c1.36,5.09,8.3,5.8,10.66,1.09l4.64-9.24c0.58-1.16,1.54-2.09,2.72-2.63l6.42-2.96
		c4.87-2.25,4.26-9.36-0.92-10.74l-18.91,0.85C100.9,183.76,98.7,185.96,99.34,188.37z"/>
	<path class="st20" d="M69,229.76c12.22,12.22,25.75,21.46,39.03,27.34l0.01-0.01l-1.81-19.97c-9.18-4.69-18.55-11.47-27.17-20.1
		c-5.36-5.36-10-11.01-13.88-16.72C65.18,200.3,63.23,224,69,229.76z"/>
	<path class="st20" d="M143.47,155.49c12.22,12.22,21.46,25.75,27.34,39.03l-0.01,0.01l-19.97-1.81
		c-4.69-9.18-11.47-18.55-20.1-27.17c-5.36-5.36-11.01-10-16.72-13.88C114.02,151.68,137.71,149.73,143.47,155.49z"/>
</g>
<path class="st207" d="M223,173.63c-2.66,6.89-9.32,11.79-17.15,11.79c-7.83,0-14.5-4.9-17.15-11.79
	c-2.66,6.89-9.32,11.79-17.15,11.79c-7.83,0-14.5-4.9-17.15-11.79c-2.66,6.89-9.32,11.79-17.15,11.79c-7.83,0-14.5-4.9-17.15-11.79
	c-2.66,6.89-9.32,11.79-17.15,11.79c-7.83,0-14.5-4.9-17.15-11.79c-2.66,6.89-9.32,11.79-17.15,11.79c-7.83,0-14.5-4.9-17.15-11.79
	c-2.66,6.89-9.32,11.79-17.15,11.79c-7.83,0-14.5-4.9-17.15-11.79c-2.66,6.89-9.32,11.79-17.15,11.79V360h240.14V185.42
	C232.32,185.42,225.65,180.52,223,173.63z"/>
<line class="st208" x1="43.33" y1="99.03" x2="126.47" y2="0"/>
<g>
	<g>
		<circle class="st5" cx="43.33" cy="99.03" r="4.79"/>
		<path class="st5" d="M43.33,104.07v19.59c0,5.38,4.4,9.78,9.78,9.78h0"/>
	</g>
	<g>
		<path class="st209" d="M53.37,119.47c-5.76-4.45-6.64-13.11-6.64-13.11s8.45-1.44,14.2,3.02c5.76,4.45,6.64,13.11,6.64,13.11
			S59.13,123.92,53.37,119.47z"/>
		<line class="st210" x1="43.33" y1="103.82" x2="62.4" y2="118.66"/>
	</g>
	<g>
		<path class="st209" d="M27.69,114.97c4.45-5.76,13.11-6.64,13.11-6.64s1.44,8.45-3.02,14.2s-13.11,6.64-13.11,6.64
			S23.23,120.73,27.69,114.97z"/>
		<line class="st210" x1="43.33" y1="104.93" x2="28.49" y2="124"/>
	</g>
</g>
<path class="st5" d="M0,185.79c7.83,0,14.5-4.9,17.15-11.79c2.66,6.89,9.32,11.79,17.15,11.79s14.5-4.9,17.15-11.79
	c2.66,6.89,9.32,11.79,17.15,11.79s14.5-4.9,17.15-11.79c2.66,6.89,9.32,11.79,17.15,11.79s14.5-4.9,17.15-11.79
	c2.66,6.89,9.32,11.79,17.15,11.79c7.83,0,14.5-4.9,17.15-11.79c2.66,6.89,9.32,11.79,17.15,11.79s14.5-4.9,17.15-11.79
	c2.66,6.89,9.32,11.79,17.15,11.79c7.83,0,14.5-4.9,17.15-11.79c2.66,6.89,9.32,11.79,17.15,11.79"/>
<g>
	<text transform="matrix(1 0 0 1 45.392 343.9155)" class="st67 st68">EL PESCADO</text>
</g>
</svg>
