<?xml version="1.0" encoding="utf-8"?>
<!-- Generator: Adobe Illustrator 24.0.0, SVG Export Plug-In . SVG Version: 6.00 Build 0)  -->
<svg version="1.1" id="Layer_1" xmlns="http://www.w3.org/2000/svg" xmlns:xlink="http://www.w3.org/1999/xlink" x="0px" y="0px"
	 viewBox="0 0 240 360" style="enable-background:new 0 0 240 360;" xml:space="preserve">
<style type="text/css">
	.st0{fill:#AED6D6;}
	.st1{fill:#D3A8B9;}
	.st2{fill:#66CEF5;}
	.st3{fill:#8EDCF4;}
	.st4{fill:#61BEBF;}
	.st5{fill:none;stroke:#000000;stroke-width:3;stroke-linecap:round;stroke-linejoin:round;stroke-miterlimit:10;}
	.st6{fill:#A4D165;}
	.st7{opacity:0.25;fill:#3C2415;}
	.st8{fill:#8DC63F;stroke:#010101;stroke-width:10.905;stroke-linecap:round;stroke-linejoin:round;stroke-miterlimit:10;}
	.st9{fill:#A7744D;stroke:#010101;stroke-width:9.1692;stroke-linecap:round;stroke-linejoin:round;stroke-miterlimit:10;}
	.st10{fill:#0DA028;}
	.st11{fill:#61C16A;}
	.st12{fill:#A3E2F9;}
	.st13{fill:#5AB75A;}
	.st14{fill:none;stroke:#000000;stroke-width:3.0664;stroke-linecap:round;stroke-linejoin:round;stroke-miterlimit:10;}
	.st15{fill:#98DBED;}
	.st16{fill:#9C9BBD;}
	.st17{fill:#FFFFFF;}
	.st18{fill:#EDECFC;stroke:#231F20;stroke-width:3;stroke-miterlimit:10;}
	.st19{fill:none;stroke:#231F20;stroke-width:3;stroke-miterlimit:10;}
	.st20{fill:#FFFFFF;stroke:#000000;stroke-width:3;stroke-linecap:round;stroke-linejoin:round;stroke-miterlimit:10;}
	.st21{fill:#BC7B22;stroke:#000000;stroke-width:3;stroke-miterlimit:10;}
	.st22{fill:#E5AF38;stroke:#000000;stroke-width:3;stroke-linecap:round;stroke-linejoin:round;stroke-miterlimit:10;}
	.st23{fill:none;stroke:#000000;stroke-width:3;stroke-miterlimit:10;}
	.st24{fill:#927E6D;stroke:#000000;stroke-width:3;stroke-linecap:round;stroke-linejoin:round;stroke-miterlimit:10;}
	.st25{fill:#F7D970;}
	.st26{fill:none;}
	.st27{fill:#3F3F3F;stroke:#000000;stroke-width:3;stroke-linecap:round;stroke-linejoin:round;stroke-miterlimit:10;}
	.st28{fill:#775E49;stroke:#000000;stroke-width:3;stroke-linecap:round;stroke-linejoin:round;stroke-miterlimit:10;}
	.st29{fill:#EDBB91;stroke:#000000;stroke-width:3;stroke-linecap:round;stroke-linejoin:round;stroke-miterlimit:10;}
	.st30{fill:#B03838;stroke:#000000;stroke-width:3;stroke-linecap:round;stroke-linejoin:round;stroke-miterlimit:10;}
	.st31{fill:#739144;stroke:#010101;stroke-width:3;stroke-linecap:round;stroke-linejoin:round;stroke-miterlimit:10;}
	.st32{stroke:#000000;stroke-width:2.5622;stroke-linecap:round;stroke-linejoin:round;stroke-miterlimit:10;}
	.st33{stroke:#000000;stroke-width:2.4972;stroke-linecap:round;stroke-linejoin:round;stroke-miterlimit:10;}
	.st34{stroke:#000000;stroke-width:3.4363;stroke-linecap:round;stroke-linejoin:round;stroke-miterlimit:10;}
	.st35{stroke:#000000;stroke-width:2.0766;stroke-linecap:round;stroke-linejoin:round;stroke-miterlimit:10;}
	.st36{fill:#BB502C;stroke:#000000;stroke-width:3;stroke-linecap:round;stroke-linejoin:round;}
	.st37{fill:#B03838;}
	.st38{fill:#EA4B4B;stroke:#000000;stroke-width:3;stroke-linecap:round;stroke-linejoin:round;stroke-miterlimit:10;}
	.st39{fill:#FADD6B;}
	.st40{fill:#7DA5A5;}
	.st41{fill:#EE6F6F;stroke:#000000;stroke-width:3;stroke-linecap:round;stroke-linejoin:round;stroke-miterlimit:10;}
	.st42{fill:#EDBB91;stroke:#000000;stroke-width:3.1272;stroke-linecap:round;stroke-linejoin:round;stroke-miterlimit:10;}
	.st43{fill:#E5EDED;stroke:#010101;stroke-width:3;stroke-linecap:round;stroke-linejoin:round;stroke-miterlimit:10;}
	.st44{fill:#AEDAFF;stroke:#000000;stroke-width:3;stroke-miterlimit:10;}
	.st45{fill:#FFFFFF;stroke:#000000;stroke-width:3;stroke-miterlimit:10;}
	.st46{fill:#FBFB67;stroke:#000000;stroke-width:3;stroke-linecap:round;stroke-linejoin:round;stroke-miterlimit:10;}
	.st47{fill:none;stroke:#000000;stroke-width:2.8924;stroke-linecap:round;stroke-linejoin:round;stroke-miterlimit:10;}
	.st48{fill:#85D8F7;}
	.st49{fill:#66A488;}
	.st50{fill:#A4CAF8;}
	.st51{fill:#E2D881;stroke:#000000;stroke-width:3;stroke-linecap:round;stroke-linejoin:round;stroke-miterlimit:10;}
	.st52{fill:#61C16A;stroke:#000000;stroke-width:3;stroke-linecap:round;stroke-linejoin:round;stroke-miterlimit:10;}
	.st53{fill:#F2618B;stroke:#000000;stroke-width:2.8224;stroke-linecap:round;stroke-linejoin:round;stroke-miterlimit:10;}
	.st54{fill:#D68630;stroke:#000000;stroke-width:3.7448;stroke-linecap:round;stroke-linejoin:round;stroke-miterlimit:10;}
	.st55{fill:#EFCFAC;stroke:#000000;stroke-width:3.7448;stroke-linecap:round;stroke-linejoin:round;stroke-miterlimit:10;}
	.st56{fill:#F9D042;}
	.st57{fill:#D79B80;}
	.st58{fill:#E6DEA0;}
	.st59{fill:#E2A99A;}
	.st60{fill:#61BED4;}
	.st61{fill:#F7E99C;}
	.st62{fill:#DDDCE5;}
	.st63{fill:#EECE66;}
	.st64{fill:#E8DB5F;}
	.st65{fill:#DE959B;}
	.st66{fill:#33BEF2;}
	.st67{fill:#F1F2F2;stroke:#000000;stroke-width:3;stroke-linecap:round;stroke-linejoin:round;stroke-miterlimit:10;}
	.st68{fill:#FFCC3A;stroke:#231F20;stroke-width:3;stroke-linecap:round;stroke-linejoin:round;stroke-miterlimit:10;}
	.st69{fill:#66A488;stroke:#000000;stroke-width:3;stroke-linecap:round;stroke-linejoin:round;stroke-miterlimit:10;}
	.st70{fill:#5B9CBC;stroke:#000000;stroke-width:2.7298;stroke-linecap:round;stroke-linejoin:round;stroke-miterlimit:10;}
	.st71{fill:#EA4B4B;}
	.st72{fill:#F2618B;stroke:#000000;stroke-width:3;stroke-linecap:round;stroke-linejoin:round;stroke-miterlimit:10;}
	.st73{fill:#F2618B;stroke:#000000;stroke-width:2.8253;stroke-linecap:round;stroke-linejoin:round;stroke-miterlimit:10;}
	.st74{fill:#66A488;stroke:#010101;stroke-width:3;stroke-miterlimit:10;}
	.st75{fill:#EDBB91;stroke:#000000;stroke-width:4.1741;stroke-linecap:round;stroke-linejoin:round;stroke-miterlimit:10;}
	.st76{fill:#EDC620;stroke:#000000;stroke-width:3;stroke-linecap:round;stroke-linejoin:round;stroke-miterlimit:10;}
	.st77{fill:#606060;stroke:#000000;stroke-width:3;stroke-linecap:round;stroke-linejoin:round;stroke-miterlimit:10;}
	.st78{fill:#FFEC8D;stroke:#000000;stroke-width:3;stroke-miterlimit:10;}
	.st79{fill:none;stroke:#FFFFFF;stroke-width:3;stroke-linecap:round;stroke-linejoin:round;stroke-miterlimit:10;}
	.st80{fill:none;stroke:#000000;stroke-width:3.182;stroke-linecap:round;stroke-linejoin:round;stroke-miterlimit:10;}
	.st81{fill:#60605F;stroke:#000000;stroke-width:3;stroke-linecap:round;stroke-linejoin:round;stroke-miterlimit:10;}
	.st82{fill:#EACB49;stroke:#000000;stroke-width:3;stroke-linecap:round;stroke-linejoin:round;stroke-miterlimit:10;}
	.st83{fill:#5AB75A;stroke:#000000;stroke-width:3;stroke-linecap:round;stroke-linejoin:round;stroke-miterlimit:10;}
	.st84{fill:#A57E50;stroke:#000000;stroke-width:3;stroke-linecap:round;stroke-linejoin:round;stroke-miterlimit:10;}
	.st85{fill:#91C3CC;}
	.st86{fill:#FC90A2;}
	.st87{fill:#FB6B83;}
	.st88{fill:#6D9299;}
	.st89{fill:#FCD566;stroke:#010101;stroke-width:3;stroke-linecap:round;stroke-linejoin:round;stroke-miterlimit:10;}
	.st90{fill:#977D33;stroke:#010101;stroke-width:3;stroke-linecap:round;stroke-linejoin:round;stroke-miterlimit:10;}
	.st91{fill:#655833;stroke:#010101;stroke-width:3;stroke-linecap:round;stroke-linejoin:round;stroke-miterlimit:10;}
	.st92{fill:#533F28;stroke:#000000;stroke-width:3;stroke-linecap:round;stroke-linejoin:round;stroke-miterlimit:10;}
	.st93{fill:#F18067;stroke:#231F20;stroke-width:3;stroke-miterlimit:10;}
	.st94{fill:#FFF0A4;stroke:#000000;stroke-width:3;stroke-miterlimit:10;}
	.st95{fill:#648959;stroke:#000000;stroke-width:3;stroke-linecap:round;stroke-linejoin:round;stroke-miterlimit:10;}
	.st96{fill:#FBB8B4;}
	.st97{fill:#9BD1BC;}
	.st98{opacity:0.3;}
	.st99{opacity:0.5;fill:#3C2415;}
	.st100{fill:#BD9779;stroke:#010101;stroke-width:3;stroke-miterlimit:10;}
	.st101{fill:#915120;stroke:#010101;stroke-width:3;stroke-miterlimit:10;}
	.st102{fill:none;stroke:#010101;stroke-width:3;stroke-miterlimit:10;}
	.st103{fill:#F4777C;stroke:#010101;stroke-width:3;stroke-miterlimit:10;}
	.st104{fill:#DBDBDB;stroke:#010101;stroke-width:3;stroke-miterlimit:10;}
	.st105{fill:#335D49;stroke:#010101;stroke-width:3;stroke-miterlimit:10;}
	.st106{fill:#F4777C;stroke:#010101;stroke-width:3;stroke-linecap:round;stroke-linejoin:round;stroke-miterlimit:10;}
	.st107{fill:#66A488;stroke:#010101;stroke-width:3;stroke-linecap:round;stroke-linejoin:round;stroke-miterlimit:10;}
	.st108{fill:#DBDBDB;stroke:#010101;stroke-width:3;stroke-linecap:round;stroke-linejoin:round;stroke-miterlimit:10;}
	.st109{fill:#A7744D;stroke:#010101;stroke-width:3;stroke-linecap:round;stroke-linejoin:round;stroke-miterlimit:10;}
	.st110{fill:#8DC63F;stroke:#010101;stroke-width:3;stroke-linecap:round;stroke-linejoin:round;stroke-miterlimit:10;}
	.st111{fill:none;stroke:#010101;stroke-width:3;stroke-linecap:round;stroke-linejoin:round;stroke-miterlimit:10;}
	.st112{fill:#67BCD9;}
	.st113{fill:#CEC746;stroke:#231F20;stroke-width:3;stroke-miterlimit:10;}
	.st114{fill:#F69E66;stroke:#231F20;stroke-width:3;stroke-miterlimit:10;}
	.st115{fill:#F7815C;stroke:#231F20;stroke-width:3;stroke-miterlimit:10;}
	.st116{fill:#A89F5A;stroke:#231F20;stroke-width:3;stroke-miterlimit:10;}
	.st117{fill:#F29393;stroke:#231F20;stroke-width:3;stroke-miterlimit:10;}
	.st118{fill:#A3E2F9;stroke:#231F20;stroke-width:3;stroke-miterlimit:10;}
	.st119{opacity:0.5;}
	.st120{fill:#593E2C;stroke:#000000;stroke-width:3;stroke-miterlimit:10;}
	.st121{fill:#593E2C;stroke:#000000;stroke-width:2.8651;stroke-miterlimit:10;}
	.st122{fill:#E74736;stroke:#000000;stroke-width:3;stroke-linecap:round;stroke-linejoin:round;stroke-miterlimit:10;}
	.st123{fill:#F9E467;stroke:#000000;stroke-width:3;stroke-linecap:round;stroke-linejoin:round;stroke-miterlimit:10;}
	.st124{fill:#D68630;stroke:#000000;stroke-width:3;stroke-linecap:round;stroke-linejoin:round;stroke-miterlimit:10;}
	.st125{fill:#C95138;stroke:#231F20;stroke-width:3;stroke-linecap:round;stroke-linejoin:round;stroke-miterlimit:10;}
	.st126{fill:#231F20;}
	.st127{stroke:#000000;stroke-width:2.3082;stroke-linecap:round;stroke-linejoin:round;stroke-miterlimit:10;}
	.st128{fill:#E58156;stroke:#231F20;stroke-width:3;stroke-miterlimit:10;}
	.st129{fill:#FBA42D;stroke:#231F20;stroke-width:3;stroke-miterlimit:10;}
	.st130{fill:#BC7B22;stroke:#231F20;stroke-width:3;stroke-miterlimit:10;}
	.st131{stroke:#000000;stroke-width:2.3954;stroke-linecap:round;stroke-linejoin:round;stroke-miterlimit:10;}
	.st132{stroke:#000000;stroke-width:3.0772;stroke-linecap:round;stroke-linejoin:round;stroke-miterlimit:10;}
	.st133{fill:#842A2A;stroke:#000000;stroke-width:3;stroke-linecap:round;stroke-linejoin:round;stroke-miterlimit:10;}
	.st134{fill:#5B9CBC;stroke:#000000;stroke-width:2.495;stroke-linecap:round;stroke-linejoin:round;stroke-miterlimit:10;}
	.st135{fill:#FFE7B3;stroke:#231F20;stroke-width:3;stroke-linecap:round;stroke-linejoin:round;stroke-miterlimit:10;}
	.st136{fill:#2291AA;stroke:#231F20;stroke-width:3;stroke-linecap:round;stroke-linejoin:round;stroke-miterlimit:10;}
	.st137{fill:#2291AA;stroke:#231F20;stroke-width:3;stroke-miterlimit:10;}
	.st138{stroke:#000000;stroke-width:3;stroke-linecap:round;stroke-linejoin:round;stroke-miterlimit:10;}
	.st139{fill:#FFFFFF;stroke:#010101;stroke-width:3;stroke-linecap:round;stroke-linejoin:round;stroke-miterlimit:10;}
	.st140{fill:none;stroke:#231F20;stroke-width:3;stroke-linecap:round;stroke-linejoin:round;stroke-miterlimit:10;}
	.st141{fill:#FFFFFF;stroke:#231F20;stroke-width:3;stroke-linecap:round;stroke-linejoin:round;stroke-miterlimit:10;}
	.st142{fill:#E7C706;stroke:#000000;stroke-width:3;stroke-linecap:round;stroke-linejoin:round;}
	.st143{fill:none;stroke:#000000;stroke-width:3;stroke-linecap:round;stroke-linejoin:round;}
	.st144{fill:#333333;stroke:#000000;stroke-width:3;stroke-linecap:round;stroke-linejoin:round;}
	.st145{fill:#935328;stroke:#000000;stroke-width:3;stroke-linecap:round;stroke-linejoin:round;}
	.st146{fill:#593E2C;stroke:#000000;stroke-width:2.9408;stroke-miterlimit:10;}
	.st147{fill:#E5AF38;stroke:#000000;stroke-width:3.0793;stroke-linecap:round;stroke-linejoin:round;stroke-miterlimit:10;}
	.st148{fill:#0DA028;stroke:#020100;stroke-width:3;stroke-miterlimit:10;}
	.st149{fill:#0DA028;stroke:#000000;stroke-width:3;stroke-miterlimit:10;}
	.st150{fill:#AD313A;}
	.st151{fill:#AEDAFF;stroke:#000000;stroke-width:2.9408;stroke-miterlimit:10;}
	.st152{fill:#52768E;stroke:#000000;stroke-width:2.9408;stroke-miterlimit:10;}
	.st153{fill:#FBFB67;stroke:#000000;stroke-width:3;stroke-miterlimit:10;}
	.st154{fill:#6EC67E;stroke:#020100;stroke-width:3;stroke-miterlimit:10;}
	.st155{fill:#6EC67E;stroke:#000000;stroke-width:3;stroke-miterlimit:10;}
	.st156{fill:#F9E467;stroke:#000000;stroke-width:3.0817;stroke-linecap:round;stroke-linejoin:round;stroke-miterlimit:10;}
	.st157{fill:#69C8F7;stroke:#000000;stroke-width:3.0742;stroke-linecap:round;stroke-linejoin:round;stroke-miterlimit:10;}
	.st158{fill:#69C8F7;}
	.st159{fill:#69C8F7;stroke:#000000;stroke-width:3.0817;stroke-linecap:round;stroke-linejoin:round;stroke-miterlimit:10;}
	.st160{fill:#EA4B4B;stroke:#000000;stroke-width:2.7219;stroke-linecap:round;stroke-linejoin:round;stroke-miterlimit:10;}
	.st161{fill:#F9E467;}
	.st162{fill:#F16788;stroke:#000000;stroke-width:3;stroke-linecap:round;stroke-linejoin:round;stroke-miterlimit:10;}
	.st163{fill:#448944;}
	.st164{fill:#E74736;}
	.st165{fill:#EFCF88;stroke:#000000;stroke-width:3;stroke-linecap:round;stroke-linejoin:round;stroke-miterlimit:10;}
	.st166{fill:#EC6C5E;stroke:#000000;stroke-width:3;stroke-linecap:round;stroke-linejoin:round;stroke-miterlimit:10;}
	.st167{fill:none;stroke:#9AA6A6;stroke-width:3;stroke-linecap:round;stroke-linejoin:round;stroke-miterlimit:10;}
	.st168{fill:#564E3B;stroke:#010101;stroke-width:3;stroke-miterlimit:10;}
	.st169{fill:#FDC881;}
	.st170{fill:#E5AF38;stroke:#000000;stroke-width:3;stroke-miterlimit:10;}
	.st171{fill:none;stroke:#FF0049;stroke-width:3;stroke-linecap:round;stroke-linejoin:round;stroke-miterlimit:10;}
	.st172{fill:#C95138;stroke:#000000;stroke-width:3;stroke-linecap:round;stroke-linejoin:round;stroke-miterlimit:10;}
	.st173{fill:#BC7B22;stroke:#000000;stroke-width:3;stroke-linecap:round;stroke-linejoin:round;stroke-miterlimit:10;}
	.st174{fill:#FFCC3A;stroke:#000000;stroke-width:3;stroke-linecap:round;stroke-linejoin:round;stroke-miterlimit:10;}
	.st175{fill:#61C16A;stroke:#000000;stroke-width:2.8413;stroke-linecap:round;stroke-linejoin:round;stroke-miterlimit:10;}
	.st176{fill:#ED416A;stroke:#000000;stroke-width:3;stroke-linecap:round;stroke-linejoin:round;stroke-miterlimit:10;}
	.st177{opacity:0.25;}
	.st178{fill:#3C2415;}
	.st179{fill:#BBDD8C;stroke:#000000;stroke-width:3;stroke-miterlimit:10;}
	.st180{fill:#8CA669;}
	.st181{fill:none;stroke:#000000;stroke-width:5;stroke-linecap:round;stroke-linejoin:round;stroke-miterlimit:10;}
	.st182{fill:#775E49;stroke:#000000;stroke-width:3.0146;stroke-linecap:round;stroke-linejoin:round;stroke-miterlimit:10;}
	.st183{fill:#604B3C;stroke:#000000;stroke-width:2.5808;stroke-linecap:round;stroke-linejoin:round;stroke-miterlimit:10;}
	.st184{fill:none;stroke:#AED6D6;stroke-width:0.8108;stroke-miterlimit:10;}
	.st185{fill:none;stroke:#AED6D6;stroke-width:1.7979;stroke-miterlimit:10;}
	.st186{fill:none;stroke:#AED6D6;stroke-width:0.7832;stroke-miterlimit:10;}
	.st187{fill:none;stroke:#AED6D6;stroke-width:0.7585;stroke-miterlimit:10;}
	.st188{fill:none;stroke:#AED6D6;stroke-width:2.6852;stroke-miterlimit:10;}
	.st189{fill:none;stroke:#AED6D6;stroke-width:5.5987;stroke-miterlimit:10;}
	.st190{fill:none;stroke:#AED6D6;stroke-width:10;stroke-linecap:round;stroke-linejoin:round;stroke-miterlimit:10;}
	.st191{fill:#BC7B22;stroke:#231F20;stroke-width:3;stroke-linecap:round;stroke-linejoin:round;stroke-miterlimit:10;}
	.st192{fill:#EA4B4B;stroke:#000000;stroke-width:2.6625;stroke-linecap:round;stroke-linejoin:round;stroke-miterlimit:10;}
	.st193{fill:#BC7B22;stroke:#000000;stroke-width:2.6625;stroke-miterlimit:10;}
	.st194{fill:#FBA42D;stroke:#000000;stroke-width:2.6625;stroke-miterlimit:10;}
	.st195{fill:#FBA42D;stroke:#000000;stroke-width:2.6625;stroke-linecap:round;stroke-linejoin:round;stroke-miterlimit:10;}
	.st196{fill:#BC7B22;stroke:#000000;stroke-width:2.6625;stroke-linecap:round;stroke-linejoin:round;stroke-miterlimit:10;}
	.st197{fill:#23ACAB;stroke:#000000;stroke-width:3.1363;stroke-miterlimit:10;}
	.st198{fill:#90E05C;stroke:#000000;stroke-width:2.6625;stroke-miterlimit:10;}
	.st199{fill:#FBA42D;stroke:#000000;stroke-width:3;stroke-miterlimit:10;}
	.st200{fill:#23ACAB;stroke:#000000;stroke-width:3;stroke-miterlimit:10;}
	.st201{fill:none;stroke:#00FF0C;stroke-width:0.7413;stroke-miterlimit:10;}
	.st202{fill:#593E2C;stroke:#000000;stroke-width:2.9408;stroke-linecap:round;stroke-linejoin:round;stroke-miterlimit:10;}
	.st203{fill:#BD9779;stroke:#010101;stroke-width:3;stroke-linecap:round;stroke-linejoin:round;stroke-miterlimit:10;}
	.st204{fill:#FF6D00;}
	.st205{opacity:0.41;fill:#61BEBF;}
	.st206{opacity:0.5;fill:none;stroke:#2E1B8C;stroke-width:3;stroke-miterlimit:10;}
	.st207{fill:#F9E467;stroke:#000000;stroke-width:2.6479;stroke-linecap:round;stroke-linejoin:round;stroke-miterlimit:10;}
	.st208{fill:none;stroke:#000000;stroke-width:2.6479;stroke-linecap:round;stroke-linejoin:round;stroke-miterlimit:10;}
	.st209{fill:#F9E3B7;stroke:#231F20;stroke-width:3;stroke-linecap:round;stroke-linejoin:round;stroke-miterlimit:10;}
	.st210{fill:#FFF1D1;stroke:#231F20;stroke-width:3;stroke-linecap:round;stroke-linejoin:round;stroke-miterlimit:10;}
	.st211{fill:#F7EFA2;stroke:#231F20;stroke-width:3;stroke-miterlimit:10;}
	.st212{fill:#E58156;stroke:#231F20;stroke-width:3;stroke-linecap:round;stroke-linejoin:round;stroke-miterlimit:10;}
	.st213{fill:#F9E467;stroke:#000000;stroke-width:0.764;stroke-linecap:round;stroke-linejoin:round;stroke-miterlimit:10;}
	.st214{fill:#604B3C;stroke:#000000;stroke-width:1.1908;stroke-linecap:round;stroke-linejoin:round;stroke-miterlimit:10;}
	.st215{font-family:'Futura-Medium';}
	.st216{font-size:24.6402px;}
	.st217{fill:#868786;stroke:#000000;stroke-width:3;stroke-linecap:round;stroke-linejoin:round;stroke-miterlimit:10;}
	.st218{fill:#775E49;stroke:#000000;stroke-width:2.5898;stroke-linecap:round;stroke-linejoin:round;stroke-miterlimit:10;}
	.st219{fill:#61C16A;stroke:#000000;stroke-width:3;stroke-miterlimit:10;}
	.st220{fill:#CA5535;stroke:#010101;stroke-width:3;stroke-miterlimit:10;}
	.st221{fill:#775E49;stroke:#010101;stroke-width:2.7722;stroke-miterlimit:10;}
	.st222{fill:#61C16A;stroke:#000000;stroke-width:3.0329;stroke-linecap:round;stroke-linejoin:round;stroke-miterlimit:10;}
	.st223{fill:none;stroke:#000000;stroke-width:3.0329;stroke-linecap:round;stroke-linejoin:round;stroke-miterlimit:10;}
</style>
<rect x="0" y="221.57" class="st25" width="240" height="138.43"/>
<rect class="st2" width="240" height="221.57"/>
<g>
	<text transform="matrix(1 0 0 1 59.5319 343.9155)" class="st215 st216">LA PALMA</text>
</g>
<text transform="matrix(1 0 0 1 12.3195 28.4911)" class="st215 st216">51</text>
<g>
	<ellipse class="st7" cx="122.1" cy="248.9" rx="61.43" ry="13.21"/>
	<g>
		<path class="st52" d="M120.99,103.35c13.38-30.74-1.71-62.69-25.57-58.86c4.54,8.36,5.05,11.06,5.05,11.06l10.13-3.28l-6.52,8.1
			l2.68,7.27l7.5-3.94l-5.03,6l2.44,10.12l6.12,0.33l-4.52,5.41L120.99,103.35z"/>
		<path class="st52" d="M120.79,103.25c-31.62,3.32-50.29,25.09-35.49,38.72c4.6-6.07,6.55-7.43,6.55-7.43l-5.41-6.8l7.58,2.67
			l4.61-4.48l-4.84-6.82l6.58,3.49l5.79-4.45l-2.73-4l6.63,0.78L120.79,103.25z"/>
		<path class="st52" d="M122.1,99.3c-19.99-11.66-67.63-12.04-83.7,16.67l12.79,1.39l1.57-10.66l3.89,10.69l10.5-1.54l-0.05-13.83
			l4.69,13.31l16.82-3.97l-0.09-10.78l7.35,8.12L122.1,99.3z"/>
		<path class="st52" d="M210.46,83.34c-19.93-20.91-77.76-10.69-86.34,14.25c-0.07-0.06,25.48,0.03,25.48,0.03l-0.32-12.35
			l3.35,11.76l11.14-1.37l-0.65-12.56l3.93,12.25l10.88-2.8L178,81.96l6.81,8.8L210.46,83.34z"/>
		<path class="st52" d="M121.29,94.25c-4.5-28.53-57.87-53.03-79.11-37.4C42.16,56.76,57,67.11,57,67.11l7.12-8l-1.04,10.56
			l9.52,5.19l7.55-10.9l-1.38,15.47l10.54,3.88l6.07-8.66l0.59,11.11L121.29,94.25z"/>
		<path class="st52" d="M124.13,98.45c-2.07-20.65,36.45-63.08,67.38-36.43c0.02-0.09-10.88,7.93-11.22,7.71
			c-0.34-0.22-6.3-8.2-6.3-8.2l-1.53,11.58l-7.4,6.22l-9.59-8.28l-1.24,14.89l-5.78,2.56l-5.62-11.59l0.55,13.84L124.13,98.45z"/>
		<path class="st52" d="M124.07,100.03c5.86-11.02,58.17-28.99,62.8,21.31c0.05-0.05-12.6-3.13-12.81-3.57s-1.78-10.08-1.78-10.08
			l-5.6,7.94l-8.91-2.46l1.18-12.61l-7.1,10.21l-11.63-3.86l-0.36-8.87l-4.24,7.6L124.07,100.03z"/>
		<path class="st52" d="M117.95,99.84c-2.65-39.19,11.79-61.62,30.04-54.06l-6.3,12.55l-7-1.01l2.81,7.14l-3.23,8.72l-8.47,2.39
			l4.79,3.13L117.95,99.84z"/>
		<path class="st36" d="M122.84,115.35c-3.11,0.29-6.35,0.39-9.48,0.43c-0.94,4.67-1.77,9.57-2.48,14.63
			c2.75,2.79,6.19,4.8,10.35,5.4c-4.16-0.59-7.61-2.61-10.35-5.4c-1,7.1-1.77,14.51-2.33,22.03c4.28-1.26,8.46-2.49,12.4-4.61
			C121.02,137.21,121.59,126.29,122.84,115.35z"/>
		<path class="st36" d="M120.94,147.83c-3.94,2.12-8.12,3.34-12.4,4.61c-0.37,5-0.64,10.04-0.83,15.08
			c4.6,1.99,9.47,2.24,13.86,4.88C121.12,164.5,120.87,156.26,120.94,147.83z"/>
		<path class="st36" d="M121.57,172.4c-4.39-2.64-9.26-2.9-13.86-4.88c-0.28,7.74-0.33,15.46-0.17,22.94
			c5.06-1.08,10.23-1.79,15.17-3.05C122.26,182.58,121.87,177.56,121.57,172.4z"/>
		<path class="st36" d="M126.04,213.15c-5.97-2.36-12.07-4.21-17.72-6.88c0.62,8.69,1.57,16.77,2.84,23.82
			c5.45-2.34,10.87-4.5,16.79-5.61C127.31,221.02,126.67,217.23,126.04,213.15z"/>
		<path class="st36" d="M132.81,247.31c0,0-2.3-8.64-4.87-22.82c-5.93,1.11-11.35,3.28-16.79,5.61c1.22,6.81,2.75,12.67,4.56,17.21
			H132.81z"/>
		<path class="st36" d="M122.71,186.5c-4.93,1.26-10.11,1.97-15.17,3.05c0.13,5.75,0.39,11.35,0.77,16.73
			c5.65,2.67,11.75,4.51,17.72,6.88C124.81,205.23,123.63,196.24,122.71,186.5z"/>
		<path class="st36" d="M124.08,105.01l-7.71-2.85c-1.11,3.98-2.12,8.24-3.02,12.7c3.13-0.04,6.37-0.14,9.48-0.43
			C123.19,111.29,123.61,108.15,124.08,105.01z"/>
		<path class="st52" d="M120,98.36c-14.48-25-73.09-28.62-87.27-6.39c-0.06-0.07,18.68,4.52,18.68,4.52l8.59-12.64l0.59,14.27
			l8.74,1l5.58-13.36l0.1,14.1l11.24-0.17l2.54-10.26l4.55,10.15L120,98.36z"/>
		<path class="st52" d="M114.64,94.02c34.3,19.15,45.23,43.48,28.93,54.66l-7.08-12.13l4.66-5.32l-7.35,0.7l-2.05-3.48l5.85-6.32
			l-7.89,2.86l-1.62-2.75l2.62-8.41l-5.24,2.31L114.64,94.02z"/>
		<circle class="st28" cx="117.4" cy="98.84" r="6.69"/>
		<circle class="st28" cx="127.77" cy="92.93" r="7.13"/>
		<circle class="st28" cx="127.94" cy="107.7" r="7.13"/>
		<path class="st217" d="M145.4,246.2c0,8.52-6.91,8.53-15.43,8.53s-15.43-0.01-15.43-8.53s6.91-15.43,15.43-15.43
			S145.4,237.67,145.4,246.2z"/>
		<path class="st217" d="M118.71,249.66c0,5.09-4.13,4.68-9.22,4.68s-9.22,0.41-9.22-4.68s4.13-7.98,9.22-7.98
			S118.71,244.57,118.71,249.66z"/>
	</g>
</g>
</svg>
